<svg xmlns="http://www.w3.org/2000/svg" width="272.634" height="117.235" viewBox="0 0 272.634 117.235">
  <g id="_361412532_abf4962f-f3d8-49a7-b4da-e4fcd7f6bfdf" data-name="361412532_abf4962f-f3d8-49a7-b4da-e4fcd7f6bfdf" transform="translate(-148.425 -151.155)">
    <path id="Trazado_1095823" data-name="Trazado 1095823" d="M1952.513,2473.524a8.166,8.166,0,0,1-2.481.016c-.633-1-.135-2.05-.022-3.022a37.307,37.307,0,0,1,4.928-15.252,25,25,0,0,1,12.706-10.289c6.382-2.519,12.65-1.8,18.9.569a62.954,62.954,0,0,1,6.6,3.177,18.263,18.263,0,0,0,3.73,1.355c.268.072.591.22.806-.065s.011-.562-.126-.806a9.936,9.936,0,0,0-2.324-2.884c-1.152-.946-2.321-1.872-3.452-2.844-.338-.291-.732-.656-.511-1.162.192-.44.686-.395,1.094-.428,2.389-.2,4.566.65,6.766,1.381.315.1.622.228.933.344,1.221.456,1.4.361,1.549-.979.218-1.979.571-3.934.969-5.882.1-.509.1-1.1.737-1.334a.382.382,0,0,1,.336.219,2.633,2.633,0,0,1,.006,1.588c-.344,2.083-.668,4.167-.918,6.265a1.189,1.189,0,0,0,.825,1.452c3.644,1.353,7.211,2.981,11.161,3.266a120.887,120.887,0,0,0,17.967.406c6.312-.482,12.618-.983,18.9-1.773.429-.054.912-.214,1.271.226a2.227,2.227,0,0,1,.186,1.091c.036,3.762-.116,7.529.258,11.283.221,2.216.3,4.446.644,6.649.025.163.057.326.073.491.22,2.282-.08,2.625-2.374,2.627q-10.809.01-21.619,0a8.888,8.888,0,0,0-3.526.588,8.025,8.025,0,0,1-3.063.35c-4.265.061-8.531.027-12.8.023-.183,0-.424.1-.5-.2.017.344.279.2.437.2,4.224.006,8.453.128,12.672-.016,17.1-.585,34.2-.093,51.294-.256a4.43,4.43,0,0,1,2.2.253,8.074,8.074,0,0,1,.508,5.488,3,3,0,0,1-1.689.28q-36.306.007-72.612,0c-1.58,0-3.058-.26-4.084-1.64a3.563,3.563,0,0,1-.222-1.562c.051-2.719.516-5.422.11-8.162-1.479-9.979-7.861-16.821-17.838-18.591-8.167-1.449-15.452.566-21.4,6.544a18.477,18.477,0,0,0-4.92,9.584c-.648,3.164-1.13,6.352-1.506,9.559A3.25,3.25,0,0,1,1952.513,2473.524Z" transform="translate(-1759.875 -2222.999)" fill="#f3a067"/>
    <path id="Trazado_1095824" data-name="Trazado 1095824" d="M6458.24,1264.188c.491-.432.278-1.01.279-1.521.016-10.975.064-21.95-.008-32.925-.028-4.249,2.482-6.618,6.412-6.786a65.2,65.2,0,0,1,10.905.161c.63.079.9.259.854.895-.028.371,0,.745,0,1.118q0,47.586,0,95.172c0,1.951-.192,1.7,1.715,1.759.576.019,1.245-.3,1.729.3a2.18,2.18,0,0,1-1.538.349q-9.009.016-18.019,0a3.146,3.146,0,0,1-1.339-.2c-.515-.619.09-.657.428-.729a9.538,9.538,0,0,1,2.333-.077c.936.032,1.364-.244,1.183-1.285-.468-2.669-.672-5.379-1.213-8.038-.786-4.906-1.267-9.853-2.038-14.761-.135-2.514-.559-5-.83-7.494a174.216,174.216,0,0,1-.942-22.239A20.806,20.806,0,0,1,6458.24,1264.188Z" transform="translate(-6076.977 -1061.839)" fill="#f4e8d8"/>
    <path id="Trazado_1095825" data-name="Trazado 1095825" d="M1500.993,1810.478a50.3,50.3,0,0,0-1.239,6.656,4.758,4.758,0,0,1-.028.618c-.53,1.815.155,1.914-2.033,1.132-2.484-.888-4.942-1.92-7.672-1.712-.274.021-.645-.133-.791.182-.181.393.224.591.45.784,1.063.912,2.1,1.863,3.246,2.668a11.483,11.483,0,0,1,2.955,3.607.847.847,0,0,1-.012,1.042c-.262.295-.6.081-.925.012a19.447,19.447,0,0,1-5.631-2.224,36.116,36.116,0,0,0-11.33-4.17,22.442,22.442,0,0,0-13.646,1.651,24.882,24.882,0,0,0-10.586,8.506,34.831,34.831,0,0,0-4.948,12.068,51.278,51.278,0,0,0-1,7.2q-10.722.01-21.443.01c-.41,0-1.038.208-1.118-.442-.094-.769.638-.6,1.064-.708a6.6,6.6,0,0,1,1.107-.107,2.406,2.406,0,0,1,1.776-.363c3.476-.011,6.952.009,10.427-.019.534,0,1.412.244,1.479-.455.059-.615-.837-.656-1.37-.8-3.468-.965-6.964-1.826-10.423-2.823a3.8,3.8,0,0,1-1.811-.749,1.95,1.95,0,0,1-.538-1.461,83.543,83.543,0,0,1,.2-8.558,4.559,4.559,0,0,1,1.361-3.11,6.392,6.392,0,0,0,2.3-4.658c.084-2.262,1.424-3.308,3.248-4.026,2.5-.984,5-1.97,7.54-2.857a132.5,132.5,0,0,1,26.445-5.961c5.695-.757,11.393-1.459,17.114-1.987,1.765-.163,2.977-1.39,4.311-2.327a257.015,257.015,0,0,1,24.965-15.524c2.872-1.561,5.86-2.912,8.7-4.52a22.153,22.153,0,0,1,8.385-2.41,226.128,226.128,0,0,1,31.172-1.946c5.208.064,10.42.229,15.614.693a3.256,3.256,0,0,1,.693.223c.273,1.511-.488,2.663-1.317,3.79-.554-.254-.344-.727-.3-1.13s-.09-.6-.507-.576a2.331,2.331,0,0,0-1.186-.022c-1.4.055-2.766-.244-4.154-.31a20.144,20.144,0,0,0-4.211-.125,33.267,33.267,0,0,1-4.151-.094,30.073,30.073,0,0,0-7.248-.009,23.943,23.943,0,0,1-3.432.1,17.381,17.381,0,0,0-4,.133,12.148,12.148,0,0,1-2.22.109,9.123,9.123,0,0,0-2.8.141c-3.189.488-6.433.451-9.613,1.01a28.455,28.455,0,0,0-10.17,3.044,127.365,127.365,0,0,0-17.8,9.856c-2.265,1.537-4.337,3.318-6.483,5-1.8,1.585-3.606,3.165-5.466,4.681-.315.257-.751.552-.6,1,.185.547.768.453,1.186.372,1.348-.261,2.722-.165,4.076-.373A2.823,2.823,0,0,1,1500.993,1810.478Z" transform="translate(-1257.644 -1597.956)" fill="#f8b371"/>
    <path id="Trazado_1095826" data-name="Trazado 1095826" d="M4954.667,1096.593c.276-.079.56-.136.826-.243.5-.2.428-.645.411-1.053-.018-.465-.369-.468-.7-.485-.615-.033-1.23-.06-1.844-.1a5.378,5.378,0,0,1-4.841-3.779,26.785,26.785,0,0,0-.037-2.827c-.146-1.631.361-2.322,1.86-2.755-.414-.2-.858.364-1.2-.062a1.513,1.513,0,0,1-.184-1.311,4.383,4.383,0,0,1,1.788-3.008c1.054-.688,1.574-.577,2.207.524a10.5,10.5,0,0,0,2.735,3.334c1.416,1.052,2.826,1.964,4.766,1a2.273,2.273,0,0,1,2.619.649,2.209,2.209,0,0,1,.11,2.464,3.126,3.126,0,0,1-1.8,1.791,1.149,1.149,0,0,0-.9,1.181,18.5,18.5,0,0,0,.175,3.832,9.5,9.5,0,0,1-.392,3.551c-1.029,4.686-1.822,9.411-2.433,14.168a18.016,18.016,0,0,0-.057,2.353c0,.742.36.914,1.042.745a1.955,1.955,0,0,0,1.636-1.633c.328-1.7.723-3.4,1-5.109a1.438,1.438,0,0,1,1.674-1.4c1.229.047,2.49-.177,3.644.461.438.58.147,1.18,0,1.746-.24.906-.479,1.81-.661,2.729-.092.31-.175.622-.247.937-.447,1.318-1.377,2.446-1.529,3.881a4.1,4.1,0,0,1-4.113,3.112c-.206.006-.412.031-.616.056-1.631.2-1.723.3-2.016,1.932a42.014,42.014,0,0,0-.55,4.536c-.128,1.853.029,1.937,1.866,2,1.006.034,2.064-.293,3.011.329-.093.65-.638.545-1.055.6-.688.091-1.391-.041-2.273.1a17.482,17.482,0,0,0,4.539,1.531c2.881.772,2.9.748,2.49,3.672a15.513,15.513,0,0,0-.13,2.849c.133,3.025-.212,6.034-.268,9.052a4.419,4.419,0,0,0,.662,2.712q.206,4.844.091,9.688a12.378,12.378,0,0,1-.049,2.053c-.274,1.056-.12,2.152-.293,3.218a23.149,23.149,0,0,0-.631,5.463,12.129,12.129,0,0,0-.74,4.464c-.164.713-.535,1.352-.7,2.075-.377,1.681-.073,2.441,1.452,3.307a2.187,2.187,0,0,1,.618.386c.066.532-.365.538-.691.654-.972-.063-1.3-1.035-2.046-1.46-.341.3-.189.751-.316,1.112.258,1.3.438,2.606.605,3.916a1.406,1.406,0,0,1,.019.247c-.035.811.111,2.082-.688,2.133-.678.043-.25-1.239-.374-1.922-.029-.159,0-.328-.022-.493.18,1.685-.189,3.367,0,5.053-.044.766.107,1.6-.705,2.107-1.057-.029-2.115-.05-3.172-.019a4.714,4.714,0,0,1-2.683-.657c-.348-.315-.118-.524.164-.646a4.084,4.084,0,0,0,2.193-2.99c.271-.956.528-1.916.829-2.864a13.429,13.429,0,0,0,1.391-6.561c.128-1.15-.223-2.279-.161-3.426a61.14,61.14,0,0,0-.034-6.729,16.967,16.967,0,0,0,.019-3.157c.238-4.677-.031-9.348-.184-14.02-.028-.862-.4-1.154-1.259-1.035-1.607.221-2.059.658-2.241,2.259-.625,5.471-1.32,10.931-2.431,16.33-.433,2.1-.51,4.27-1.178,6.1,0,.272-.012.227.026.111.182-.552-.032-1.479.755-1.508.9-.034.755.911.891,1.523a2.878,2.878,0,0,1,.154.975c-.1.135-.231.276-.391.27-1.555-.058-1.808.957-1.982,2.2-.229,1.633-.564,3.237.218,4.817a1.45,1.45,0,0,1,.076.848q-.459,1.47-.867,2.955a5.574,5.574,0,0,1-7.31,3.669c-.163-.517.243-.748.541-1a15.989,15.989,0,0,0,4.63-7.741,13.9,13.9,0,0,0-.054-6.489c-.423-7.246-.425-14.5-.77-21.748-.094-.9.089-1.8.067-2.707-.02-.8-.521-1.072-1.13-1.26-.67-.208-.685.442-.885.782-.459.781-.758,1.644-1.14,2.464-.216.465-.344,1.043-.983,1.171a.577.577,0,0,1-.374-.407,12.5,12.5,0,0,1,1.961-4.334,6.261,6.261,0,0,0,1.289-4.475c-.047-.571,0-1.148-.035-1.722-.06-3.221.423-2.9-2.929-2.921-.621,0-1.243.021-1.862-.019-.644-.042-1.3-.122-1.307-.982,0-.842.576-1.137,1.3-1.2,1.071-.087,2.148-.038,3.219-.208,1.6-.255,1.757-.4,1.808-2.049.028-.909-.013-1.82.094-2.728.157-1.335.143-1.337-1.211-1.55a1.949,1.949,0,0,1-.592-.171c-.421-.8.356-.715.645-.7a1.489,1.489,0,0,0,1.541-1.1,6.19,6.19,0,0,1,2.567-.222c.83-.018,1.2-.373,1.194-1.2,0-1.61.014-3.22,0-4.83-.015-1.291-.161-1.419-1.425-1.435a10.633,10.633,0,0,0-1.235.069,9.8,9.8,0,0,0-4.014,1.135,3.7,3.7,0,0,1-3.748.209c-.431-.23-.978-.158-1.395-.462-.35-1.071.824-.973,1.122-1.444a8.148,8.148,0,0,1-2.685.214,15.76,15.76,0,0,1-2.822-.167,5.008,5.008,0,0,0-4.064.974c-.126.107.044-.016-.089.082-.472.35-.947,1.016-1.568.539-.653-.5-.186-1.178.066-1.758-.125-.566-.989-.249-1.06-.879a2.147,2.147,0,0,1,1.1-2.05c1.092-.4,1.956.666,3.081.453a15.234,15.234,0,0,0,1.686-.166,103.119,103.119,0,0,0,10.443-3.814,1.5,1.5,0,0,0,.937-.915c.38-.66.067-1.5.552-2.131q.032-.826.063-1.652c.175-.522-.073-1.406.91-1.274.841.113,2.158-.207,2.263.981a23.323,23.323,0,0,1,.083,6.506,5.258,5.258,0,0,1-4.371,2.824,6.019,6.019,0,0,0-2.68.665,1.607,1.607,0,0,0,1.607.185c1-.274,1.982-.583,2.982-.843.78-.2,1.518-.419,1.73-1.36.052-.231.26-.442.556-.193a.97.97,0,0,0,1.342.5c.586-.213.665-.633.676-1.174.025-1.165-.286-2.3-.272-3.462a72.557,72.557,0,0,1,2.363-16.049A2.235,2.235,0,0,1,4954.667,1096.593Z" transform="translate(-4612.639 -925.603)" fill="#e47e67"/>
    <path id="Trazado_1095827" data-name="Trazado 1095827" d="M5773.854,1857.707c.008-.277-.041-.574.256-.754a9.422,9.422,0,0,0,4.759,2.765c2.394,1.384,5.012,2.283,7.5,3.465,5.366,2.547,10.6,5.343,15.776,8.243.438.439.319,1,.319,1.526.008,3.391-.023,6.781.012,10.171a159.391,159.391,0,0,0,1.385,18.121c.153,1.225.2,2.464.292,3.7-.725-.08-.863-.727-1.09-1.219a20.561,20.561,0,0,0-10.718-10.385,23.6,23.6,0,0,0-8.674-1.935,33.808,33.808,0,0,0-6.07.234c-1.4.189-1.626-.025-1.6-1.445.052-3.348.32-6.69.247-10.045-.038-1.784-.249-3.546-.442-5.312-.182-1.657.12-2.009,1.752-2.045,1.819-.04,3.642.1,5.455-.085a5.7,5.7,0,0,0,3.361-1.946,34.012,34.012,0,0,0,2.568-3.178c.793-1.091.718-1.283-.538-1.692-.275-.089-.549-.181-.82-.288-3.835-1.428-7.64-2.937-11.585-4.049-.759-.214-1.533-.338-2.295-.529-.727-.183-.934-.565-.6-1.276A4.559,4.559,0,0,0,5773.854,1857.707Z" transform="translate(-5420.881 -1669.077)" fill="#f39f67"/>
    <path id="Trazado_1095828" data-name="Trazado 1095828" d="M2137.371,2831.336a19.184,19.184,0,0,1-12.04-10.621,37.761,37.761,0,0,1-1.415-4.46c-.073-.113-.143-.229-.208-.347a19.549,19.549,0,0,1,15.157-21.9c7.33-1.6,13.458.906,18.421,6.334a18.264,18.264,0,0,1,4.619,9.471,29.053,29.053,0,0,1,.123,5.327c-.017.919.243,1.274,1.182,1.236.614-.025,1.349-.249,1.792.474-.538.667-1.3.4-1.954.395a1.436,1.436,0,0,0-1.609,1.168c-2.054,6.687-6.512,11.017-13.094,13.238a19.382,19.382,0,0,1-8.683.492A3.965,3.965,0,0,1,2137.371,2831.336Z" transform="translate(-1926.318 -2565.916)" fill="#58424e"/>
    <path id="Trazado_1095829" data-name="Trazado 1095829" d="M5352.806,1030.987a11.786,11.786,0,0,1-2.731-.6,4.908,4.908,0,0,1-2.027-2.167c-.036-1.562.706-2.954.973-4.45.6-.531,1.343-.309,2.021-.315.866-.008,1.281-.3.983-1.2a28.623,28.623,0,0,0-3.818-8.306,7.974,7.974,0,0,0-4.463-2.965c-.435-.118-.915-.138-1.164-.607-.61-1.471-.2-3.009-.284-4.514-.03-.536.5-.428.829-.539a3.234,3.234,0,0,0,2.244-2.834c.022-.625-.076-1.257-.741-1.4-.71-.157-1.486-.844-2.185-.159a1.853,1.853,0,0,1-2.06.351,8.866,8.866,0,0,1-5.506-4.87c-.553-1.12-1.129-1-1.881-.4a4.624,4.624,0,0,0-1.618,4.013c.759-.3,1.438-.7,2.179.073-.137.088-.239.212-.336.209-1.9-.073-2.328.678-2.186,2.848a4.651,4.651,0,0,1-.343,2.513,29.948,29.948,0,0,0-1.943-4.426,5.854,5.854,0,0,1-.28-5.157,4.4,4.4,0,0,1,4.38-2.852c.42.01.865.241,1.114-.413a2.252,2.252,0,0,1,2.331-1.319,9.477,9.477,0,0,1,4.435,1.024,16.871,16.871,0,0,0,4.352,1.405c2.927.543,4.336,2.094,4.776,5.083a25.69,25.69,0,0,0,.68,4.9,5.445,5.445,0,0,0,3.807,3.749c1.393.394,2.816.7,4.175,1.185a4.723,4.723,0,0,1,3.367,5.627,6.379,6.379,0,0,0,.99,4.828c1.457,2.181,1.072,4.693-.958,6.628-1.136,1.082-2.309,2.13-3.467,3.188A7.856,7.856,0,0,1,5352.806,1030.987Z" transform="translate(-4994.819 -840.346)" fill="#513b47"/>
    <path id="Trazado_1095830" data-name="Trazado 1095830" d="M1036.224,3679.589a23.171,23.171,0,0,0,11.155,0c9.063-.3,18.13-.1,27.194-.123,17.225-.037,34.451-.011,51.677-.009,1.2,0,2.4,0,3.6-.083.9.284,1.8-.086,2.7.021a13.481,13.481,0,0,0,2.956.067c4.162.023,8.324.005,12.485.008,1.116.116,2.118.409,2.5,1.646a2.235,2.235,0,0,1-1.442.236q-86.971,0-173.942,0c-.248,0-.5,0-.745-.008-.49-.023-.777-.266-.76-.778a.668.668,0,0,1,.717-.692c.372-.019.745-.012,1.118-.012q29.632,0,59.264-.012C1035.207,3679.848,1035.782,3680.061,1036.224,3679.589Z" transform="translate(-825.171 -3414.169)" fill="#f1e2d6"/>
    <path id="Trazado_1095831" data-name="Trazado 1095831" d="M4666.507,2111.592c-.739-.049-1.479.53-2.219,0,.151-.562.675-.7,1.1-.924a55.908,55.908,0,0,0,9.076-5.575c.256-.208.518-.414.784-.608,1.4-1.019,2.114-2.238,1.39-4.021a1.923,1.923,0,0,1-.034-1.8q-.209-2.611-.417-5.223a2.124,2.124,0,0,1-.347-1.536,93.358,93.358,0,0,1,1.123-13.936c.448-3.435,1.052-6.87.225-10.333a70.748,70.748,0,0,1-1.7-14.328,10.432,10.432,0,0,1,.112-1.464,21.733,21.733,0,0,1,.612-5.737,1.57,1.57,0,0,0-.379-1.661c-.632-.626-.2-1.393.058-2.07a.708.708,0,0,1,1.1-.4c-.056.155-.118.308-.167.465-.147.482-.753,1.05-.193,1.44s.862-.426,1.292-.684c.88.253.506.936.414,1.423a41.548,41.548,0,0,0-.759,5.282c-.093,1.572.148,1.787,1.665,1.552,1.806-.28,3.639-.031,5.448-.349,1.322-.232,1.366-.219,1.376-1.516a22.044,22.044,0,0,0-.855-5.882c-.123-.459-.4-.937-.044-1.421,1-.24,2.052.31,3.053-.328-.151,1.03-1.38.867-1.563,1.719a3.629,3.629,0,0,1,1.082,2.543,14.536,14.536,0,0,1,.26,3.322c-.061.979.4,1.366,1.333,1.262a47.088,47.088,0,0,1,4.932-.3.581.581,0,0,1,.359.219c.526.9.185,1.224-.772,1.217a2.863,2.863,0,0,0-1.529.184c-.658.631-1.483.366-2.239.386-1.9.052-1.969.044-2.153,1.873a33.145,33.145,0,0,1-1.814,8.33,14.037,14.037,0,0,1-1.232,2.564,7.012,7.012,0,0,1-4.675,3.581c-.566.13-.87.409-.788,1.035a29.092,29.092,0,0,1-.539,8.131,86.639,86.639,0,0,0-1.079,13.937,23.618,23.618,0,0,0,.126,3.844c.178.852.057,1.732.246,2.581a12.516,12.516,0,0,0,.423,2.417,11.219,11.219,0,0,0,1.426-2.146.778.778,0,0,1,.313-.2.8.8,0,0,1,1,.357c.188,1.327-.624,2.282-1.342,3.2a2.432,2.432,0,0,0-.336,2.725c1.641,4.076,4.366,6.925,8.737,8a2.535,2.535,0,0,0,1.575.09,5.617,5.617,0,0,1,2.753-.379,26.786,26.786,0,0,0,3.781-.117,4.274,4.274,0,0,1,1.067-.107,5.73,5.73,0,0,0,1.909-.187,4.031,4.031,0,0,1,2.651.229c1.882.976,3.985.245,5.925.768-.092.67-.62.373-.955.388-1.784.082-3.574-.1-5.356.1a35.63,35.63,0,0,0-7.773.674,14.463,14.463,0,0,1-9.386-1.123l-2.138-1.553c-1.663-.734-2.414-2.3-3.334-3.7a11.252,11.252,0,0,1-1.094-2.225c-.264-.7-.586-.663-1.083-.234a44.344,44.344,0,0,1-4.875,3.625c-1.147.746-2.373,1.35-3.559,2.022A3.359,3.359,0,0,1,4666.507,2111.592Z" transform="translate(-4359.267 -1846.139)" fill="#513842"/>
    <path id="Trazado_1095832" data-name="Trazado 1095832" d="M6471.7,3566.29c4.591.017,9.182.015,13.771.059,2.437.023,4.871-.343,7.309-.036l.053,5.165c-.315.843-1.071.638-1.678.644-3.767.033-7.532.016-11.3.016-2.234,0-4.47.026-6.705-.012-1.541-.026-1.8-.3-1.812-1.832-.01-1.117-.041-2.234.028-3.352A.946.946,0,0,1,6471.7,3566.29Z" transform="translate(-6089.626 -3305.791)" fill="#57414d"/>
    <path id="Trazado_1095833" data-name="Trazado 1095833" d="M2015.6,2692.573c.581-4.816,1-9.674,2.527-14.308a19.288,19.288,0,0,1,8.719-10.569,23.486,23.486,0,0,1,14.96-3.381c10.052,1.073,17.513,6.714,20.012,17.214a20.311,20.311,0,0,1,.332,7.859,19.323,19.323,0,0,0-.1,2.229c-.615-.159-.513-.689-.535-1.112-.083-1.613-.274-3.213-.466-4.815a23.54,23.54,0,0,0-5.474-12.584,19.265,19.265,0,0,0-10.072-6.052,23.978,23.978,0,0,0-10.706-.33,43.9,43.9,0,0,0-6.071,2.127,18.764,18.764,0,0,0-10.595,15.166c-.3,2.377-.392,4.771-.7,7.146a1.923,1.923,0,0,1-.328,1.167A2.238,2.238,0,0,1,2015.6,2692.573Z" transform="translate(-1822.963 -2442.048)" fill="#d37357"/>
    <path id="Trazado_1095834" data-name="Trazado 1095834" d="M5586.5,3579.73c.018,1.4.06,2.809.04,4.212-.008.576.15.8.759.8q9.863-.036,19.726-.036c.247,0,.5,0,.651-.262l16.268.005a8.612,8.612,0,0,1,.992.03.635.635,0,0,1,.595.674.653.653,0,0,1-.637.76c-.411.035-.827.024-1.241.024-22.81,0-45.619-.025-68.428.037-2.756.007-5.513.351-8.279.176a43.835,43.835,0,0,1,5.121-.163c.407-.024.92.235,1.19-.328a5.831,5.831,0,0,0,.441-1.962c-.082-.16-.033-.257.142-.292a2.836,2.836,0,0,0,2.256.688,25.534,25.534,0,0,0,3.9-.138,10.209,10.209,0,0,1,2.576.348,20.163,20.163,0,0,0,7.4-.225,3.923,3.923,0,0,1,1.478-.107,9.491,9.491,0,0,0,2.584.078c3.173.017,6.346.007,9.519.007,2.323,0,2.322,0,2.336-2.264a6.788,6.788,0,0,1,.05-1.233C5586.009,3580.213,5585.995,3579.785,5586.5,3579.73Z" transform="translate(-5204.477 -3318.756)" fill="#f0e1d4"/>
    <path id="Trazado_1095835" data-name="Trazado 1095835" d="M2051.23,2741.022c.259-4.151.184-8.379,1.533-12.352,2.367-6.971,7.263-11.305,14.449-13.011.553-.131,1-.612,1.627-.493.444-.159.922-.271,1.223.188.265.4-.145.664-.36.951a10.886,10.886,0,0,1-4.3,3.594,12.4,12.4,0,0,0-3.55,2.651c-1.364,1.381-2.815,2.679-4.049,4.186-.513.625-1.049.977-1.7.146a.61.61,0,0,0-.764-.245.669.669,0,0,0-.386.594c-.029.384.248.495.542.552,1.075.208,1.044.9.723,1.684a24.8,24.8,0,0,0-1.6,5.805,24.052,24.052,0,0,0,.079,5.5c-.007.1-.013.2-.02.306Z" transform="translate(-1857.081 -2490.742)" fill="#4f3742"/>
    <path id="Trazado_1095836" data-name="Trazado 1095836" d="M5315.962,1457.75a69.4,69.4,0,0,0-2.689,17.184,24.108,24.108,0,0,0,.265,3.949c.264,1.7-1.181,1.155-1.854,1.4-1.016.375-.549-.679-.752-1.1-.273-.356-.131-.693.047-1.029.388-2.222-.094-4.443-.015-6.666.005-.15-.07-.419-.154-.439a5.307,5.307,0,0,0-2.4-.2c-.176.04-.242.562-.359.863a1.354,1.354,0,0,0-1.1-1.622c-1.081-.3-.769-1.247-.488-1.961a50.393,50.393,0,0,1,3.347-6.347,8.39,8.39,0,0,1,2.059-2.766A5.315,5.315,0,0,1,5315.962,1457.75Z" transform="translate(-4973.934 -1286.76)" fill="#f9e8d0"/>
    <path id="Trazado_1095837" data-name="Trazado 1095837" d="M5014.005,1645.858a14.812,14.812,0,0,0,1.416-3.683c.856-2.188,2.037-4.219,3.062-6.325.416-.854,1.057-1.092,1.8-.663a9.208,9.208,0,0,1,4.035,4.18,3.784,3.784,0,0,1-.211,2.886,4,4,0,0,1-.545,1.865c-.3.584-.556,1.192-.913,1.744a2.35,2.35,0,0,1-3.363,1.041,3.632,3.632,0,0,0-3.182-.177,1.941,1.941,0,0,1-2.146-.508A.3.3,0,0,1,5014.005,1645.858Z" transform="translate(-4694.064 -1456.521)" fill="#503a45"/>
    <path id="Trazado_1095838" data-name="Trazado 1095838" d="M1476.672,3181.63q5.155,1.336,10.309,2.674c1.04.271,2.079.549,3.1.873.449.142,1.038.256.941.946s-.668.656-1.154.659q-6.639.043-13.278.062Q1476.633,3184.237,1476.672,3181.63Z" transform="translate(-1306.826 -2937.548)" fill="#553c48"/>
    <path id="Trazado_1095839" data-name="Trazado 1095839" d="M5236.389,1808.063l.75-1.677c1.209.872,2.648.7,4.008.877-.167.756.488,1.673-.448,2.278-1.437.226-2.67-.494-3.973-.877A.568.568,0,0,1,5236.389,1808.063Z" transform="translate(-4907.093 -1620.656)" fill="#f6ab6b"/>
    <path id="Trazado_1095840" data-name="Trazado 1095840" d="M2807.66,3344.315a16.692,16.692,0,0,0,.505,2.541,2.312,2.312,0,0,1-.871,2.787,40.013,40.013,0,0,1-8.347,5.7c-1.2.628-2.4,1.264-3.6,1.9a7.691,7.691,0,0,1-2.2.241q-39.483-.011-78.965-.018c-.55,0-1.167.234-1.649-.262,6.605-2.453,11.043-6.928,12.852-13.83.133-.506.349-.674.846-.648.906.047,1.815.052,2.723.075a.306.306,0,0,1,.479.044,5.377,5.377,0,0,0,4.3,1.484q30.316-.023,60.631-.007Q2801.014,3344.32,2807.66,3344.315Z" transform="translate(-2490.325 -3091.786)" fill="#fefefe"/>
    <path id="Trazado_1095841" data-name="Trazado 1095841" d="M3025.528,1879.938a52.006,52.006,0,0,0-5.686.348c-.288.009-.574.1-.861.1-.556,0-1.235.259-1.563-.408-.354-.719.326-1.048.731-1.4,1.875-1.619,3.78-3.2,5.674-4.8a62.387,62.387,0,0,0,5.61-3.138c5.47-3.113,10.826-6.429,16.51-9.155,5.177-2.482,10.473-4.56,16.249-5.16,1.73-.18,3.468-.228,5.2-.334,3.88-.239,7.761-.457,11.637-.75,1.747-.132,2.221.291,1.788,1.935-1.445,5.486-2.734,11.01-4.137,16.505a1.674,1.674,0,0,1-1.653,1.381c-3.54.378-7.1.438-10.643.759-4.037.367-8.082.614-12.123.9-2.557.183-5.12.291-7.673.541a1.716,1.716,0,0,1-1.4-.373,1.394,1.394,0,0,1-.246-1.04c.018-2.171-.621-2.876-2.75-3.051a19.971,19.971,0,0,0-4.8.263,5.988,5.988,0,0,0-3.331,1.756c-.416.481-.933,1.069-.051,1.64.735.422,1.537.719,2.233,1.2.373.26.9.456.726,1.093a2.518,2.518,0,0,1-.911.452,37.836,37.836,0,0,1-7.581.967.973.973,0,0,1-.693-.211Z" transform="translate(-2782.178 -1667.416)" fill="#64555d"/>
    <path id="Trazado_1095842" data-name="Trazado 1095842" d="M3188.57,2333.562c2.8-.373,5.627-.474,8.4-1.06,1.842-.617,3.778-.1,5.64-.471a24.464,24.464,0,0,1,2.417-.386c2.6-.474,5.249-.521,7.876-.739,4.766-.4,9.544-.626,14.3-1.129,2.909-.307,5.837-.474,8.76-.593,1.321-.054,2.624-.326,3.949-.257a1.7,1.7,0,0,1,.854.267c.374.469.16.934-.015,1.4a37.168,37.168,0,0,0-2.64,13.219,1.287,1.287,0,0,1-.354,1.133,21.227,21.227,0,0,1-4.853.732q-4.828.595-9.681.981a112.011,112.011,0,0,1-16.072.478,75.936,75.936,0,0,1-10.3-.954,49.608,49.608,0,0,1-6.909-2.312c-2.967-1.075-2.907-1.112-2.277-4.342C3188.047,2337.553,3188.273,2335.551,3188.57,2333.562Z" transform="translate(-2944.961 -2121.014)" fill="#f8b271"/>
    <path id="Trazado_1095843" data-name="Trazado 1095843" d="M2163.349,2731.838l-.479-.044c-.765-.47-1.608-.195-2.413-.226-.681-.026-.95-.045-.869-.938.445-4.9-.325-9.532-3.352-13.612a19.324,19.324,0,0,0-13.44-8.1c-9.208-1.232-18.026,5.23-20.347,14.031a28.927,28.927,0,0,0-.591,7.864,14.233,14.233,0,0,1-.13-6.921,23.479,23.479,0,0,1,1.42-4.6c.338-.766.246-1.2-.708-1.155-.369.016-.844.039-.791-.51.051-.515.086-1.133.645-1.385.417-.188,1.032-.226,1.189.292.349,1.147.757.628,1.215.133,1.43-1.546,2.9-3.077,4.418-4.512,1.208-1.144,2.44-2.534,4.273-2.892.521-.1,1.1-.235.982-1.011-.013-.088.121-.283.187-.283,1.312.005,1.4-1.383,2.224-1.938.15-.1.35-.376.307-.477-.212-.5-.706-.282-1.091-.347a21.8,21.8,0,0,1,12.066.61c8.569,2.821,12.884,9.23,14.542,17.718.437,2.234.495,4.542.726,6.817Q2163.34,2731.094,2163.349,2731.838Z" transform="translate(-1924.239 -2480.782)" fill="#503844"/>
    <path id="Trazado_1095844" data-name="Trazado 1095844" d="M3407.348,2351.221a36.938,36.938,0,0,1,2.939-15.042,2.383,2.383,0,0,0,.084-.61.38.38,0,0,1,.562.061.9.9,0,0,1,0,.721,41.333,41.333,0,0,0-2.839,13.823,63.3,63.3,0,0,0-.027,7.924c.233,4.162.47,8.328.939,12.475.232,2.048.27,2.126,2.325,2.132,6.119.015,12.238-.031,18.357.029.61.006,1.254-.114,1.773.359l.009,1.506H3364.43c0-.068-.008-.136-.013-.2.327-.014.653-.041.98-.042,3.85-.006,7.7.008,11.549-.017a10.239,10.239,0,0,0,4.571-.827,5.447,5.447,0,0,1,2.417-.419c7.658.017,15.316-.018,22.974.038,1.227.009,1.592-.365,1.47-1.54-.354-3.392-.66-6.79-.958-10.188-.072-.822-.046-1.654-.05-2.481Q3407.354,2355.07,3407.348,2351.221Z" transform="translate(-3114.549 -2127.293)" fill="#d97755"/>
    <path id="Trazado_1095845" data-name="Trazado 1095845" d="M5627.584,2224.042c-1.827.479-3.687.136-5.529.2s-1.833.121-1.575,2.017a56.867,56.867,0,0,1,.22,12.091c-.093,1.192-.053,2.395-.077,3.592-.01.476.135.626.668.534a28.565,28.565,0,0,1,6.536-.316c8.729.521,15.579,4.117,19.653,12.176.295.586.634,1.15.953,1.725.866,4.851,1.354,9.754,2,14.635-1.475.758-3,.422-4.524.233a.446.446,0,0,1-.258-.321.517.517,0,0,1,.333-.335c1.541-.562,1.672-.611,1.6-2.261a47.92,47.92,0,0,0-1.127-10.223c-1.294-4.923-4.666-8.327-9.052-10.7-5.382-2.91-11.141-3.177-17.039-2.1a9.975,9.975,0,0,1-1.825.354.744.744,0,0,1-.376-.153,1.474,1.474,0,0,1-.8-1.481c.023-4.084.4-8.158.3-12.248a26.288,26.288,0,0,1,.253-2.817c.056-.651-.08-.8-.716-.95-1.8-.412-3.574-.956-5.358-1.446a2.356,2.356,0,0,1-1.529-1.115c1.359-.434,2.786.2,4.087-.354.53-.563,1.229-.38,1.868-.393a8.019,8.019,0,0,0,3.4-.46,5.33,5.33,0,0,1,.655-.21c2.044-.153,4.092-.02,6.136-.086A1.251,1.251,0,0,1,5627.584,2224.042Z" transform="translate(-5265.16 -2020.203)" fill="#d17058"/>
    <path id="Trazado_1095846" data-name="Trazado 1095846" d="M6579.516,1666.132c0-3.6-.015-7.2,0-10.792a3.481,3.481,0,0,1,3.155-3.77,3.707,3.707,0,0,1,4.161,3.2,7.577,7.577,0,0,1,.1,1.356q0,10.42-.023,20.84a3.372,3.372,0,0,1-3.559,3.715,3.494,3.494,0,0,1-3.81-3.76c-.024-3.6-.006-7.2-.006-10.792Z" transform="translate(-6193.226 -1472.391)" fill="#533c47"/>
    <path id="Trazado_1095847" data-name="Trazado 1095847" d="M6136.285,3332.15l4.651.03c.654,1.923.579,3.968.991,5.934.192.92.185,1.886.408,2.8.214.872-.15,1.009-.872.988-.908-.027-1.818-.015-2.729,0-.352.007-.761-.132-1.006.282l-.041.473c-.465,1.235-.141,2.515-.2,3.773-.031.663-.2.959-.919.956-4.449-.024-8.9-.015-13.349-.016a.755.755,0,0,1-.668-.237c.174-.517.665-.573,1.077-.735a19.046,19.046,0,0,0,11.942-13.151C6135.692,3332.828,6135.557,3332.191,6136.285,3332.15Z" transform="translate(-5755.66 -3081.681)" fill="#fdfdfe"/>
    <path id="Trazado_1095848" data-name="Trazado 1095848" d="M6616.776,1347.92a3.734,3.734,0,0,1,1.862.443c.2.1.354.269.231.486s-.313.158-.508.014c-.734-.546-1.451-.926-1.908.313-.063.172-.24.188-.4.058a3.15,3.15,0,0,1-.718-.587c-.129-.2.152-.357.339-.418C6616.1,1348.088,6616.539,1347.985,6616.776,1347.92Z" transform="translate(-6227.499 -1181.642)" fill="#a59590"/>
    <path id="Trazado_1095849" data-name="Trazado 1095849" d="M6661.8,1390.392c.008.312-.205.695-.328.53-.321-.433-1.2.144-1.189-.713,0-.357.1-.677.533-.663A.956.956,0,0,1,6661.8,1390.392Z" transform="translate(-6270.567 -1221.501)" fill="#b3a59e"/>
    <path id="Trazado_1095850" data-name="Trazado 1095850" d="M6740.563,1395.637c.016.614-.334.683-.732.677-.33-.005-.723.01-.652-.482.052-.36.178-.729.66-.744A.635.635,0,0,1,6740.563,1395.637Z" transform="translate(-6346.11 -1226.809)" fill="#c0b0ac"/>
    <path id="Trazado_1095851" data-name="Trazado 1095851" d="M6708.863,1392.11a1.174,1.174,0,0,1,0,1.425A1.1,1.1,0,0,1,6708.863,1392.11Z" transform="translate(-6316.839 -1223.957)" fill="#9f8f8d"/>
    <path id="Trazado_1095852" data-name="Trazado 1095852" d="M3346.694,1851.532c-4.615.344-9.231.672-13.844,1.038-4.7.373-9.407.7-14.112,1.041a54.5,54.5,0,0,0-7.079.683c-.32-.92.15-1.416.935-1.743a3.147,3.147,0,0,0,1.937.229c1.926-.148,3.851-.309,5.776-.464,4.179-.336,8.374-.458,12.546-.938,1.3-.15,2.629-.252,3.938-.272,2.683-.041,5.336-.4,8.009-.527a.863.863,0,0,0,.909-.8q1.715-7.139,3.489-14.264c.256-1.038.539-2.07.854-3.092.219-.711.02-1.038-.732-.986-3.158.22-6.316.451-9.475.661-1.89.126-3.78.265-5.673.321a39.051,39.051,0,0,0-13.877,3.134c-7.121,2.948-13.718,6.875-20.331,10.778a9.3,9.3,0,0,1-1.25.518c-.061-.971.651-1.446,1.277-1.969.9-.756,2.187-.883,3.05-1.619a30.809,30.809,0,0,1,8.958-4.928,3.868,3.868,0,0,0,1.215-.845,2.936,2.936,0,0,1,1.591-.915,9.861,9.861,0,0,0,4.3-1.762,1.663,1.663,0,0,1,.681-.292c2.794-.352,5.082-2.1,7.75-2.793a16.263,16.263,0,0,1,3.456-.552c2.15-.147,4.3-.339,6.448-.512.911-.258,1.86.071,2.771-.183l2.2-.062c1.328-.278,2.685.083,4.012-.19l3.447-.061c2.712-.327,2.749-.288,2.12,2.323-1.432,5.945-2.731,11.921-4.148,17.87C3347.678,1851.055,3347.445,1851.5,3346.694,1851.532Z" transform="translate(-3051.628 -1643.294)" fill="#56404b"/>
    <path id="Trazado_1095853" data-name="Trazado 1095853" d="M4475.273,1849.42c-.081.407-.16.814-.241,1.221-.809.669-1.773.322-2.671.409a10.08,10.08,0,0,0-3.109.146c-3.55.529-7.141.547-10.709.83-1.089.086-2.192.525-3.3.058a1.266,1.266,0,0,1-.448-1.522q2.209-9.494,4.357-19c.191-.851.579-1.265,1.527-1.161,1.143.125,2.307-.09,3.454.109l4.192.064c1.411.265,2.849-.082,4.259.189,1.494-.214,2.935.411,4.424.287a1.392,1.392,0,0,1-1.007,1.415c-4.388.053-8.764-.373-13.151-.31-1.726.025-1.753.037-2.1,1.737-1.014,4.907-1.947,9.829-2.771,14.771-.244,1.462-.226,1.432,1.25,1.413,4.969-.065,9.9-.664,14.863-.873A1.555,1.555,0,0,1,4475.273,1849.42Z" transform="translate(-4158.596 -1643.634)" fill="#553f4b"/>
    <path id="Trazado_1095854" data-name="Trazado 1095854" d="M1597.457,2574.463c-2.48-.107-4.927-.527-7.387-.815a2.7,2.7,0,0,1-.708-.225,1.635,1.635,0,0,1-1.067-1.53c-.042-.752.509-.979,1.045-1.208a48.049,48.049,0,0,1,6.566-2.183,99.37,99.37,0,0,1,19.238-3.492c1.015-.063,2.264-.312,2.662.968.42,1.351-.85,1.824-1.716,2.388a28.625,28.625,0,0,1-4.191,2.394c-.333-.882.244-1.411.76-1.963.905-.841,1.937-1.528,3.126-2.518a31.879,31.879,0,0,0-6.553,1.045c-2.9-.136-5.638.818-8.424,1.374a64.737,64.737,0,0,0-9.095,2.461,2.036,2.036,0,0,0-1.213.718c1.257.567,2.6.411,3.869.605a44.475,44.475,0,0,0,10.012.236,2.687,2.687,0,0,1,1.467-.082c.478.839-.266.971-.736,1.188a8.04,8.04,0,0,1-3.249.594A22.519,22.519,0,0,1,1597.457,2574.463Z" transform="translate(-1413.787 -2347.033)" fill="#5b474f"/>
    <path id="Trazado_1095855" data-name="Trazado 1095855" d="M3204.894,1869.918a3.154,3.154,0,0,1-1.646.99,10.261,10.261,0,0,0-3.6,1.574c-.1.073-.223.18-.325.169-2.563-.277-4.157,2.281-6.642,2.27a2,2,0,0,0-1.253.479c-2.088,1.945-4.908,2.441-7.3,3.766a9.149,9.149,0,0,0-1.635,1.094,10.434,10.434,0,0,1-3.4,2.181,5.222,5.222,0,0,0-3.018,2.6,14.865,14.865,0,0,1-5.437,2.8,77.86,77.86,0,0,1,15.691-10.628,83.358,83.358,0,0,1,13.506-6.246A13.862,13.862,0,0,1,3204.894,1869.918Z" transform="translate(-2928.985 -1681.482)" fill="#563f49"/>
    <path id="Trazado_1095856" data-name="Trazado 1095856" d="M4897.62,1842.255c-.008.1-.016.206-.025.309a5,5,0,0,1-2.491,3.674,3.013,3.013,0,0,0-.955,2c.053.614-.257,1.2-.139,1.823a.41.41,0,0,1-.371.529c-.3.029-.425-.2-.534-.424-.251-.521-.23-1.123-.487-1.643a1.5,1.5,0,0,1,0-1.636c1.086-1.886,2.247-3.728,3.328-5.617a1.319,1.319,0,0,1,.928-.747c.242-.112.3-.559.66-.422.422.161.224.558.214.848C4897.737,1841.386,4897.439,1841.8,4897.62,1842.255Z" transform="translate(-4577.678 -1652.917)" fill="#503841"/>
    <path id="Trazado_1095857" data-name="Trazado 1095857" d="M1804.26,2662.156a66.755,66.755,0,0,0,7.162-.762c.511-.1,1.194-.16,1.039-1.009-.07-.541.39-.685.7-.943a17.125,17.125,0,0,1,1.786-.81c1.263-.4,2.224-1.389,3.485-1.8.41-.132.784-.5,1.259-.18a3.534,3.534,0,0,0-.989,1.8c-3.065,1.849-6.165,3.659-9.818,4.007A14.1,14.1,0,0,1,1804.26,2662.156Z" transform="translate(-1620.59 -2434.726)" fill="#67585f"/>
    <path id="Trazado_1095858" data-name="Trazado 1095858" d="M4440.125,1828.478c-1.117.012-2.24.1-3.351.013-.918-.069-1.228.354-1.4,1.144-1.336,6.025-2.7,12.044-4.034,18.069-.152.689-.692,1.358-.2,2.114a.155.155,0,0,1-.268.056l-.463.006-.756-.037a1.467,1.467,0,0,0,.777-.966c1.42-6.293,2.908-12.571,4.388-18.85.354-1.5.371-1.495-1.245-1.511-.248,0-.495-.023-.743-.035A30.928,30.928,0,0,1,4440.125,1828.478Z" transform="translate(-4134.584 -1641.604)" fill="#64555d"/>
    <path id="Trazado_1095859" data-name="Trazado 1095859" d="M4880.993,1841.611c-1.5,2.073-2.627,4.372-4,6.524-.247.387-.455.813-.007,1.222.17.649-.144.766-.621.479a1.077,1.077,0,0,1-.474-1.41,20.681,20.681,0,0,1,3.493-5.794q.41-.608.821-1.216C4880.514,1841.306,4880.886,1840.925,4880.993,1841.611Z" transform="translate(-4561.794 -1654.003)" fill="#f2ded0"/>
    <path id="Trazado_1095860" data-name="Trazado 1095860" d="M1826.511,2916.5c.726,0,1.455-.036,2.178.01a1.147,1.147,0,0,0,1.324-1.017c.445-2.172.857-4.351,1.273-6.529a1.49,1.49,0,0,0-.448-1.346c.664.139,1.05.473.9,1.281-.405,2.137-.781,4.279-1.19,6.415-.172.9-.615,1.552-1.67,1.43-.8-.092-1.574.494-2.373.114C1826.505,2916.734,1826.509,2916.615,1826.511,2916.5Z" transform="translate(-1641.889 -2675.158)" fill="#d58354"/>
    <path id="Trazado_1095861" data-name="Trazado 1095861" d="M4779.621,1834.147c-1.42-.052-2.857.268-4.259-.189A17.08,17.08,0,0,1,4779.621,1834.147Z" transform="translate(-4465.628 -1647.02)" fill="#64555d"/>
    <path id="Trazado_1095862" data-name="Trazado 1095862" d="M4332.759,1834.148c-1.32.437-2.674.153-4.013.19A16.234,16.234,0,0,1,4332.759,1834.148Z" transform="translate(-4037.961 -1647.211)" fill="#64555d"/>
    <path id="Trazado_1095863" data-name="Trazado 1095863" d="M4214.318,1839.925c-.9.432-1.846.143-2.772.184A7.611,7.611,0,0,1,4214.318,1839.925Z" transform="translate(-3925.735 -1652.736)" fill="#64555d"/>
    <path id="Trazado_1095864" data-name="Trazado 1095864" d="M5734.516,2757.148a34.432,34.432,0,0,1-2.162,5.631,19.811,19.811,0,0,1-11.566,9.349,24.516,24.516,0,0,1-11.44,0c-1.387.115-2.5-.68-3.677-1.182-1.5-.636-1.474-.7-2.5.425l-.059.252a23.935,23.935,0,0,1,.136-5.5l.378.015v2.713c.756-1.619.261-3.224.089-4.838-.056-.536-.562-1.077-.046-1.632.677-.018,1,.523,1.407.912,4.242,4.063,9.257,5.024,14.7,3.26a13.261,13.261,0,0,0,9.517-11.465,13.007,13.007,0,0,0-3.313-10.452,14.208,14.208,0,0,0-10.361-5.183,13.548,13.548,0,0,0-7.279,1.723c-.449.241-.862.7-1.473.429q.016-4.964.033-9.928a.791.791,0,0,1,.215,0c.5.565.315,1.256.33,1.9.036,1.573.075,1.616,1.521,1.151a19.006,19.006,0,0,1,12.529.2,20.284,20.284,0,0,1,13.542,19.3,5.994,5.994,0,0,1-.552,2.764A.251.251,0,0,0,5734.516,2757.148Z" transform="translate(-5353.89 -2506.679)" fill="#58424e"/>
    <path id="Trazado_1095865" data-name="Trazado 1095865" d="M4535.625,1863.581q-1.474,2.616-2.948,5.232c-.262.466-.571.951-.228,1.485.206.319.513.822.778.009.471.616.209,1.487.809,2.26.084-.884-.435-1.771.467-2.291a1.283,1.283,0,0,0,1.209.188c.3-.092.184.191.037.333-1.207.027-.872,1.093-1.141,1.733-.242.576.212.688.648.774.591.117.374.489.279.856a22.345,22.345,0,0,0-.826,6.579c-3.809.312-7.627.521-11.434.823a37.8,37.8,0,0,0-5.654.356c-1,.233-.85-.551-.762-1.086.388-2.347.8-4.691,1.247-7.026.62-3.223,1.322-6.43,1.9-9.66.141-.781.4-1.071,1.174-1.054,4.454.1,8.908.17,13.362.267A5.961,5.961,0,0,1,4535.625,1863.581Z" transform="translate(-4218.03 -1674.953)" fill="#64555d"/>
    <path id="Trazado_1095866" data-name="Trazado 1095866" d="M4974.511,2596.606a76.717,76.717,0,0,1,1.037-14.038,30.468,30.468,0,0,0,.475-8.367c-.046-.351-.255-.931.418-.949,2.484-.065,3.934-1.653,5.233-3.479a8.251,8.251,0,0,0,2.825-.182c1.955-.317,3.938-.368,5.894-.662a1.486,1.486,0,0,1,.967.1c0,.9-.037,1.812.02,2.712a4,4,0,0,1-1.013,2.932c-1.165,1.411-1.571,3.236-2.461,4.8a1.18,1.18,0,0,1-.117,1.172c-2.257,4.864-4.392,9.783-6.345,14.777a2.07,2.07,0,0,1-2.316,1.548c-1.069-.066-2.146,0-3.22-.018A1.765,1.765,0,0,1,4974.511,2596.606Z" transform="translate(-4656.294 -2350.812)" fill="#f39f67"/>
    <path id="Trazado_1095867" data-name="Trazado 1095867" d="M5022.474,3341.016a11.582,11.582,0,0,1-8.417-4.673,19.448,19.448,0,0,1-1.72-2.87c-.815-1.521-1.163-2.911.282-4.33a4.449,4.449,0,0,0,1.217-2.541.642.642,0,0,1,.435-.46,33.388,33.388,0,0,1,5.2-.11,3.277,3.277,0,0,0,2.857-1.177c.865-1.122,2.111-.7,3.224-.845,1.129.1,2.31-.289,3.383.348,1.079,5.845-.773,10.655-5.147,14.577a4.076,4.076,0,0,0-.323.367A10.306,10.306,0,0,1,5022.474,3341.016Z" transform="translate(-4691.871 -3073.861)" fill="#fefefe"/>
    <path id="Trazado_1095868" data-name="Trazado 1095868" d="M5736.272,3101.01c-2.61-.743-3.338-3.6-1.463-5.738.364-.625,1.048-.754,1.633-1.025a13.817,13.817,0,0,0,1.454-.672c.366-.223.919-.319.859-.915s-.578-.723-1.035-.924c-.733-.322-1.64-.3-2.164-1.048-.645-1.31.108-2.586.13-3.881a2.083,2.083,0,0,1,.413-1.631c.854-.051,1.3.627,1.846,1.083.957.8,2.167,1.354,2.722,2.584,0,.083.011.188-.041.239-1.476,1.455-1,2.74.334,3.956.971.886,1.543,2.2,3.15,2.366,1.4.147,2.445-.058,2.862-1.246-1.158,1.677-3.045,1.881-4.646.35-.869-.833-1.559-1.811-2.354-2.7a1.148,1.148,0,0,1-.134-1.469c.65-1.195,1.46-2.114,3-1.9a3.242,3.242,0,0,0,.371,0c3.5.058,3.583-.511,5.075,2.84.188.421.6.683.8,1.1-.115,1.338-1.033,2.243-1.57,3.116.868-.635.943-2.145,2.066-2.869a4.966,4.966,0,0,1,2.308.833c1.044.506,2.077,1.03,3.112,1.549,1.818.912,1.884,1.072,1.258,2.967a4.714,4.714,0,0,1-1.167,1.7c-2.375,2.317-2.373,2.315-4.745-.05-.818-.816-1.609-1.659-2.469-2.431-.274-.246-.6-.522-.988-.273-.326.208-.267.584-.212.908.25,1.463.4,2.94.6,4.411.188,1.385-.137,1.859-1.449,2.271a7.444,7.444,0,0,1-2.574.213,1.92,1.92,0,0,1-1.961-2.413c.137-1.145.42-2.271.584-3.411.092-.645.624-1.539-.131-1.916-.628-.313-1.113.527-1.566.97a32.452,32.452,0,0,1-2.837,2.572C5737.021,3100.762,5736.759,3101.131,5736.272,3101.01Z" transform="translate(-5383.36 -2845.183)" fill="#fbedda"/>
    <path id="Trazado_1095869" data-name="Trazado 1095869" d="M5486.236,2743.148c-.54-.469-.4-1.125-.472-1.721-.031-.251-.062-.56-.328-.615-.38-.079-.441.3-.547.552-.176.41-.032.918-.571,1.476.193-1.5.335-2.788.531-4.071.728-4.735,1.83-9.407,2.311-14.184.182-1.807.452-3.606.62-5.415a2.943,2.943,0,0,1,3.79-2.234c.382.177.373.505.388.836.2,4.547.439,9.093.326,13.646a5.476,5.476,0,0,1-.238,1.073c.094,1.229-.523,2.3-.8,3.439a15.352,15.352,0,0,0,.679,8.6,2.195,2.195,0,0,1,.286,1.178,9.865,9.865,0,0,1-1.434,6.728.642.642,0,0,1-.616-.33,21.374,21.374,0,0,1-3.959-8A1.207,1.207,0,0,1,5486.236,2743.148Z" transform="translate(-5144.503 -2492.395)" fill="#57414c"/>
    <path id="Trazado_1095870" data-name="Trazado 1095870" d="M5603.831,1436.5c3.991.578,6.271,3.163,7.8,6.639a44.817,44.817,0,0,1,2.056,5.452c.241.823.15,1.36-.936,1.272-.821-.067-1.653.013-2.48.028a28.112,28.112,0,0,0-3.946-.248c-.662-.027-.909.134-1.026.84-.327,1.991-.771,3.962-1.185,5.938-.158.759-2.312,1.906-2.979,1.592-.447-.21-.267-.65-.281-.993-.14-3.328.651-6.553,1.085-9.819C5602.417,1443.607,5603.631,1440.143,5603.831,1436.5Z" transform="translate(-5256.069 -1266.464)" fill="#f6e3ca"/>
    <path id="Trazado_1095871" data-name="Trazado 1095871" d="M5762.86,1889.914l-.279.187a3.918,3.918,0,0,1-.517-1.869,50.089,50.089,0,0,0-2.4-8.643,5.2,5.2,0,0,1-.276-1.067c-.081-1.493,1.032-2.521,1.481-3.808.368.7-.134,1.241-.394,1.793-.342.725-.453,1.056.593,1.279a85.941,85.941,0,0,1,13.76,4.624c-.552,3.022-2.834,4.766-4.962,6.584a4.1,4.1,0,0,1-2.6.659C5765.8,1889.7,5764.3,1889.388,5762.86,1889.914Z" transform="translate(-5407.896 -1686.084)" fill="#64555d"/>
    <path id="Trazado_1095872" data-name="Trazado 1095872" d="M5136.168,2710.685c.965-1.255,1.262-2.842,2.081-4.169.208-.336.707-.909.725-.842.236.882,1.634.189,1.634,1.2a6.393,6.393,0,0,1-.224,3.033,1.377,1.377,0,0,1-.158,1.068,47.45,47.45,0,0,0-4.031,15.611c-.01.082-.035.161-.053.242a1.336,1.336,0,0,1-1.44,1.091c-1.527.011-3.057.056-4.582-.017-1.013-.049-1.254-.38-.909-1.235C5131.382,2721.278,5133.59,2715.9,5136.168,2710.685Z" transform="translate(-4804.32 -2481.782)" fill="#f39f67"/>
    <path id="Trazado_1095873" data-name="Trazado 1095873" d="M5739.791,2928.851q.491-.607.981-1.213c1.942-4.458,2.056-8.791-.884-12.915-2.788-3.655-6.33-5.891-11.07-5.779a10.757,10.757,0,0,0-6.244,2.1c-.422.31-.807.745-1.425.6q0-.993,0-1.987a14.524,14.524,0,0,1,12-1.939c7.939,2.224,12.613,10.492,10.214,18.024a14.732,14.732,0,0,1-19.078,9.119,15.067,15.067,0,0,1-6.335-4.428c-.091-.467-.119-1.047.3-1.241s.61.429.918.671c.419.331.813.7,1.216,1.045a2.537,2.537,0,0,1,1.42.69,16.709,16.709,0,0,0,4.436,2.144,10.185,10.185,0,0,0,5,.269,14.787,14.787,0,0,0,7.833-4.179A2.15,2.15,0,0,0,5739.791,2928.851Z" transform="translate(-5368.168 -2674.733)" fill="#faead8"/>
    <path id="Trazado_1095874" data-name="Trazado 1095874" d="M5591.108,1964.45a4.233,4.233,0,0,1,1.071,2.267,36.288,36.288,0,0,1,2.123,9.313c-1.2.782-2.548.431-3.839.52-.53.037-1.064.034-1.6.049-1.361-.008-2.726-.049-4.087-.011-.8.022-1.119-.3-1.129-1.084a48.336,48.336,0,0,1,.763-7.244.673.673,0,0,1,.643-.633,8.482,8.482,0,0,1,1.464-.222A4.232,4.232,0,0,0,5591.108,1964.45Z" transform="translate(-5239.619 -1772.013)" fill="#f5e2ca"/>
    <path id="Trazado_1095875" data-name="Trazado 1095875" d="M5153.8,2296.257c-1.68.646-3.488.375-5.211.734a31.392,31.392,0,0,1-3.155.442c-.477.049-1.1.385-1.32-.43a27.65,27.65,0,0,0,2.948-11.65c.048-.844.325-1.186,1.135-1.2,1.2-.022,2.392-.074,3.587-.114,2.42.157,2.426.158,2.279,2.541a18.559,18.559,0,0,1-.182,3.691c-.135.513-.28.79-.867.788-1.4,0-2.774.332-4.181.235-.588-.041-1.217-.043-1.229.815-.012.9.675.658,1.158.667,1.32.023,2.643.056,3.959-.011.895-.045,1.163.3,1.1,1.144C5153.759,2294.687,5153.8,2295.474,5153.8,2296.257Z" transform="translate(-4818.729 -2078.04)" fill="#f8b372"/>
    <path id="Trazado_1095876" data-name="Trazado 1095876" d="M5276.286,2822.6a43.978,43.978,0,0,1,4.5-16.937c.615,1.138.363,2.4.413,3.591.263,6.256.4,12.517.589,18.775l-3.621-.04c-2.547-.18-2.547-.18-2.453-2.836,0-.082.017-.162.024-.243C5275.777,2824.1,5276.179,2823.387,5276.286,2822.6Z" transform="translate(-4944.723 -2577.531)" fill="#503944"/>
    <path id="Trazado_1095877" data-name="Trazado 1095877" d="M5788,2943.9a12.158,12.158,0,0,1,8.9-3,12.549,12.549,0,0,1,9.984,5.933l-.166.056a.554.554,0,0,1-.235-.066c-1.734-1.148-1.72-1.134-3.234.44-.827.859-1.642,1.724-2.4,2.643a2.393,2.393,0,0,1-1.5,1.011,2.787,2.787,0,0,1-1.465-1.173,6.906,6.906,0,0,1-.168-3.662,20.469,20.469,0,0,0,.1-3.093c-.011-.472-.106-.981-.628-1.1a5.427,5.427,0,0,0-3.635.2c-.58.277-.622.818-.534,1.389.244,1.6.653,3.155,1.021,4.723.144.614.285,1.228-.294,1.719-.512.237-.832.917-1.552.674l-4.436-3.612A7.3,7.3,0,0,1,5788,2943.9Z" transform="translate(-5435.02 -2706.987)" fill="#5b4450"/>
    <path id="Trazado_1095878" data-name="Trazado 1095878" d="M4976.408,2043.993a25.6,25.6,0,0,1,1.319,7.853c.008.859-.22,1.208-1.229,1.346-2.084.285-4.187,0-6.261.4-1.614.314-1.807.1-1.8-1.492a33.028,33.028,0,0,1,.841-6.075c.078-.4.3-.788-.118-1.126a4.773,4.773,0,0,1,4.32-1.164A22.275,22.275,0,0,0,4976.408,2043.993Z" transform="translate(-4650.513 -1847.839)" fill="#64545c"/>
    <path id="Trazado_1095879" data-name="Trazado 1095879" d="M5460.871,3338.84a23.423,23.423,0,0,0,4.537,9.285c-.5,1.882-.642,3.869-2.058,5.446-.436.485-.92.418-1.356.652l-2.852.1c-1.068.312-1.3-.318-1.313-1.177a28.769,28.769,0,0,1,.836-6.065c.025-.9-.61-1.632-.689-2.478a19.645,19.645,0,0,1,.672-5.246c.075-.43.389-.469.74-.474C5459.882,3338.876,5460.376,3338.855,5460.871,3338.84Z" transform="translate(-5119.136 -3088.087)" fill="#fdfdfd"/>
    <path id="Trazado_1095880" data-name="Trazado 1095880" d="M5199.047,2069.182a37.228,37.228,0,0,1-6.1.486c-.791.009-.614-.639-.606-1.092a15.768,15.768,0,0,0-.99-6.395,2.533,2.533,0,0,1,.973.132c1.8,1.109,3.365.313,4.986-.471a4.619,4.619,0,0,1,2.953-.6,1.311,1.311,0,0,1,.124.957c-.332,2.193-.869,4.352-1.1,6.563A.919.919,0,0,1,5199.047,2069.182Z" transform="translate(-4863.964 -1864.635)" fill="#64555c"/>
    <path id="Trazado_1095881" data-name="Trazado 1095881" d="M4956.64,1851.831a15.256,15.256,0,0,0,2.491-3.674,3.788,3.788,0,0,0,3.243-.126c.637-.282,1.2.142,1.742.385,1.995.888,2.739.635,3.738-1.317.2-.4.436-.787.656-1.18.811.8,1.965.634,2.917,1.041a13.719,13.719,0,0,0,1.392.436c.248.41.162.617-.315.82a100.771,100.771,0,0,1-11.894,4.282,5.168,5.168,0,0,1-2.427-.278A6.529,6.529,0,0,0,4956.64,1851.831Z" transform="translate(-4639.214 -1658.511)" fill="#63535b"/>
    <path id="Trazado_1095882" data-name="Trazado 1095882" d="M5371.72,2064.659a15.637,15.637,0,0,1,.53-4.483c.182-1.161.453-2.307.685-3.46.852-.44,1.771-.174,2.658-.254.439-.04.549.266.552.638.019,2.222.033,4.442.063,6.664.011.716-.38.916-1.014.914-1.069,0-2.139.019-3.208.031Z" transform="translate(-5036.637 -1860.113)" fill="#fbe9d1"/>
    <path id="Trazado_1095883" data-name="Trazado 1095883" d="M5787.562,3356.71a12.513,12.513,0,0,1-10.05-2.554c-.331-.241-.639-.513-.957-.771l.7-.351c1.438-1.289,2.873-2.583,4.319-3.865.411-.365.829-1,1.406-.742.672.306.473,1.03.354,1.654q-.4,2.06-.727,4.132c-.256,1.582.144,2.079,1.763,2.267a4.555,4.555,0,0,0,2.392-.236C5786.978,3356.482,5787.4,3356.379,5787.562,3356.71Z" transform="translate(-5424.34 -3097.208)" fill="#5b4450"/>
    <path id="Trazado_1095884" data-name="Trazado 1095884" d="M4987.106,2834.671a6,6,0,0,1-.225,2.239,2.12,2.12,0,0,1-1.527.347c-1.194.011-2.39,0-3.584,0-1.87.006-1.861.035-2.569,1.821-.418,1.057-.572,2.251-1.466,3.085l-.227.179c-.28-.375-.661-.209-1.016-.188a11.049,11.049,0,0,0,1.82-3.743c.368-1.04.306-1.129-.773-1.17-.246-.009-.493-.011-.739,0a5.313,5.313,0,0,0-2.074.122c-.732.348-.262,1.215-.558,1.783a.718.718,0,0,1-.234.277,13.243,13.243,0,0,1-.174-4.028c1.735,0,3.472-.007,5.208.02a1.028,1.028,0,0,0,1.163-.673c2.128-5.5,4.493-10.89,6.973-16.235a1.028,1.028,0,0,0,.05-.242l.237.239c-1.092,3.076-2.658,5.948-3.875,8.971q-1.431,3.559-2.92,7.094c-.261.623-.057.84.566.838,1.655-.005,3.313-.039,4.967.019C4986.754,2835.453,4986.854,2835.014,4987.106,2834.671Z" transform="translate(-4655.543 -2589.604)" fill="#d87756"/>
    <path id="Trazado_1095885" data-name="Trazado 1095885" d="M5276.121,3533.03c.235,2.08-.521,4.083-.476,6.155.017.729.108,1.183.954,1.087-.55.363-1.146.14-1.724.138-.465-.565-.206-1.242-.317-2.006a11.978,11.978,0,0,0-.645,2.116,23.162,23.162,0,0,1-5,.2,2.8,2.8,0,0,0-1.714.468,1.762,1.762,0,0,1,.992-1.715,8.867,8.867,0,0,1,1.7.176,3.347,3.347,0,0,0,2.909-.843C5274.795,3537.33,5275.313,3535.124,5276.121,3533.03Z" transform="translate(-4936.592 -3274.038)" fill="#c36d5f"/>
    <path id="Trazado_1095886" data-name="Trazado 1095886" d="M5755.847,3215.16c.939.313,1.872.644,2.818.931a.986.986,0,0,1,.776.935c.095.57-.221.708-.544.931a23.415,23.415,0,0,1-3.8,1.787A6.093,6.093,0,0,1,5755.847,3215.16Z" transform="translate(-5403.651 -2969.655)" fill="#5b444f"/>
    <path id="Trazado_1095887" data-name="Trazado 1095887" d="M5632.642,3100.9c-2.3-4.376-2.095-8.784-.163-13.212.52,1,.141,2,.013,3.008a34.755,34.755,0,0,0-.015,6.931A6.184,6.184,0,0,1,5632.642,3100.9Z" transform="translate(-5284.934 -2847.593)" fill="#f7e4d4"/>
    <path id="Trazado_1095888" data-name="Trazado 1095888" d="M5253.889,1939.98l-.047,1.028c-.033,1.175-.733,1.645-1.806,1.866-1.09.225-2.153.578-3.219.906a2.427,2.427,0,0,1-1.216.152c-.441-.093-1-.226-1.027-.737-.024-.569.563-.451.945-.517a29.4,29.4,0,0,1,2.926-.485C5252.028,1942.082,5252.855,1940.892,5253.889,1939.98Z" transform="translate(-4916.845 -1748.581)" fill="#6d5456"/>
    <path id="Trazado_1095889" data-name="Trazado 1095889" d="M5460.777,1313.768a2.135,2.135,0,0,1-2.024,1.354,1.83,1.83,0,0,1-1.537-1.581c-.048-.273.187-.334.405-.33.909.018,1.82.034,2.729.073A.4.4,0,0,1,5460.777,1313.768Z" transform="translate(-5118.544 -1148.406)" fill="#fbeee6"/>
    <path id="Trazado_1095890" data-name="Trazado 1095890" d="M5653.585,3165.505a10.727,10.727,0,0,1,.015-6.932A25.923,25.923,0,0,1,5653.585,3165.505Z" transform="translate(-5306.044 -2915.47)" fill="#7c5350"/>
    <path id="Trazado_1095891" data-name="Trazado 1095891" d="M5415.705,1231.754c-.448.066-.609-.1-.548-.4.125-.618.426-1.082,1.159-1.021.446.037.922.247.875.7C5417.085,1232.067,5416.01,1231.26,5415.705,1231.754Z" transform="translate(-5078.264 -1069.039)" fill="#684245"/>
    <path id="Trazado_1095892" data-name="Trazado 1095892" d="M5517.48,1243.154a1.4,1.4,0,0,1,1.109,1.2c.032.2-.087.544-.267.422a9.115,9.115,0,0,1-1.54-1.338C5516.708,1243.355,5517.1,1243.135,5517.48,1243.154Z" transform="translate(-5175.581 -1081.32)" fill="#774948"/>
    <path id="Trazado_1095893" data-name="Trazado 1095893" d="M5471.537,1263.4a1.473,1.473,0,0,1,.755-1.493c.033-.017.225.133.222.2C5472.491,1262.753,5471.913,1262.992,5471.537,1263.4Z" transform="translate(-5132.262 -1099.275)" fill="#814a42"/>
    <path id="Trazado_1095894" data-name="Trazado 1095894" d="M5841.361,2063.589a2.271,2.271,0,0,1,1.717-.524c.952,0,1.909.049,2.857-.014a4.289,4.289,0,0,0,3.1-1.312c1.211-1.346,2.685-2.451,3.54-4.127.257-.5-.148-1.355.752-1.529,2.6.754,2.623.777.947,2.941-.835,1.078-1.761,2.085-2.666,3.107a4.217,4.217,0,0,1-2.79,1.466Z" transform="translate(-5486.396 -1859.759)" fill="#553e48"/>
    <path id="Trazado_1095895" data-name="Trazado 1095895" d="M2258.511,2947.432a14.133,14.133,0,0,1-14.3-14.353,13.943,13.943,0,0,1,14.016-13.657,14.181,14.181,0,0,1,14.3,14.245A13.878,13.878,0,0,1,2258.511,2947.432Z" transform="translate(-2041.872 -2686.465)" fill="#faebdb"/>
    <path id="Trazado_1095896" data-name="Trazado 1095896" d="M4716.59,3523.144a36.845,36.845,0,0,0,10.626-6.875c.583-.557.792-.3.99.288a16.231,16.231,0,0,0,4.319,6.527c-.219.331-.563.295-.891.295q-7.124,0-14.248,0C4717.1,3523.377,4716.8,3523.4,4716.59,3523.144Z" transform="translate(-4409.349 -3257.69)" fill="#fdfefe"/>
    <path id="Trazado_1095897" data-name="Trazado 1095897" d="M4389.774,2309.088l.268-.057c2.96-.165,5.921-.31,8.88-.5,1.767-.114,3.528-.3,5.292-.455.993-.262,2.025.084,3.017-.2l2.695-.053c.481,1.431.2,2.923.337,4.383a63.906,63.906,0,0,0,1.39,9.28,3.727,3.727,0,0,1,.036.737c.131.247-.035.34-.218.427a6.493,6.493,0,0,1-1.4.207c-5.348.5-10.683,1.111-16.025,1.654-1.973.2-3.944.43-5.92.58-1.322.1-1.528-.209-1.333-1.593a35.716,35.716,0,0,1,2.808-13.825A5.283,5.283,0,0,0,4389.774,2309.088Z" transform="translate(-4093.488 -2100.819)" fill="#f8b371"/>
    <path id="Trazado_1095898" data-name="Trazado 1095898" d="M4407.026,2647.527l.274-.291a14.388,14.388,0,0,1,.366,6.011c-.678,6.116-1.661,12.2-1.654,18.38-7.122,0-14.244-.007-21.366.024-.855,0-1.187-.162-1.3-1.12-.3-2.617-.5-5.238-.72-7.86-.366-4.284-.509-8.567-.453-12.862.006-.438-.149-.92.23-1.3-.162,1.072.358,1.376,1.345,1.258,2.767-.33,5.535-.66,8.308-.933,1.673-.165,3.347-.371,5.02-.485,2.991-.2,5.94-.85,8.95-.822-.184,1.236-.585,2.428-.663,3.694-.036.569-.534.861-1.088.393s-1.278-.611-1.746-1.168a1.364,1.364,0,0,0-1.462-.425c-.283.062-.576.064-.863.1-2.5.339-2.539.424-1.574,2.717a5.477,5.477,0,0,1,.124,3.419c-.22.936-1.04,1.063-1.9.972a11.732,11.732,0,0,1-3.007-1.134,2.383,2.383,0,0,0-2.735.5,7.146,7.146,0,0,1-2.417,1.473c-.967.36-1.064.939-.21,1.485a4.463,4.463,0,0,1,2.335,3.177c.1.662.736.934,1.33,1.187,1.656.706,1.726,1.213.447,2.359-.607.545-.939,1.323-1.521,1.925-.513.53.144,1.06.467,1.5s.743.267,1.061-.063a2.877,2.877,0,0,1,2.509-.769c1.392.113,1.585-.132,1.328-1.476a1.866,1.866,0,0,1,1.843-2.139,4.431,4.431,0,0,1,.977.177,1.7,1.7,0,0,0,2.054-.736,1.648,1.648,0,0,0-.355-2.154c-1.51-1.548-1.375-3.547-1.621-5.445a.675.675,0,0,1,.477-.782.79.79,0,0,1,.9.256,1.621,1.621,0,0,0,2.2.463c.677-.307,1.1.07,1.124.7.092,2.171.524,4.4-.783,6.4-.068.1-.168.225-.155.333.216,1.722-.491,3.427-.083,5.156.132.56.356.92.981.88s.715-.5.683-.978a15.2,15.2,0,0,1,.964-6.45c.32-.853-.006-1.8.154-2.712.525-3,.853-6.023,1.293-9.033.143-.981-.242-1.966-.188-2.964A1.556,1.556,0,0,1,4407.026,2647.527Z" transform="translate(-4089.101 -2425.828)" fill="#f3a068"/>
    <path id="Trazado_1095899" data-name="Trazado 1095899" d="M4975.733,2293.1c-.343,3.545-.831,7.061-2.549,10.27a6.97,6.97,0,0,1-2.817,3.056c-1.385.73-2.235.365-2.576-1.134a56.293,56.293,0,0,1-1.336-12.054c-.005-.73.29-.9.947-.933,2.478-.119,4.956-.246,7.427-.453C4975.966,2291.755,4975.784,2292.425,4975.733,2293.1Z" transform="translate(-4648.614 -2085.513)" fill="#f8b371"/>
    <path id="Trazado_1095900" data-name="Trazado 1095900" d="M4979.38,3260c.128-2.521.128-2.521,2.674-2.522,2.568,0,2.594.009,1.708,2.463-.382,1.059-.516,2.32-1.823,2.79l-.073,0a1.925,1.925,0,0,1-2.187-.008A8.042,8.042,0,0,1,4979.38,3260Z" transform="translate(-4660.989 -3010.175)" fill="#f39e66"/>
    <path id="Trazado_1095901" data-name="Trazado 1095901" d="M4986.375,3381.18l2.188.007a7.21,7.21,0,0,1-1.737,2.986A15.256,15.256,0,0,1,4986.375,3381.18Z" transform="translate(-4667.686 -3128.631)" fill="#f6efec"/>
    <path id="Trazado_1095902" data-name="Trazado 1095902" d="M5422.053,3636.579c-.509-1.147.366-1.937.732-3.235a7.36,7.36,0,0,1,.229,3.125Z" transform="translate(-5084.731 -3370.095)" fill="#f8e2d8"/>
    <path id="Trazado_1095903" data-name="Trazado 1095903" d="M5707.46,3631.072c.087-.268.2-.53.258-.8.18-.813.529-1.043,1.287-.52a23.04,23.04,0,0,0,4.627,2.081c-1.843.524-3.722.167-5.583.2C5707.494,3632.042,5707.822,3631.3,5707.46,3631.072Z" transform="translate(-5358.177 -3366.384)" fill="#fcfafa"/>
    <path id="Trazado_1095904" data-name="Trazado 1095904" d="M3373.841,2267.072c-.318.578-.968.978-.936,1.743l-2.257.263a19.6,19.6,0,0,1-5.026-.03c-.733-1.024-2.016-1.2-2.951-1.913-.043-.88.657-.8,1.185-.881a19.317,19.317,0,0,1,4.673-.256c2.445.236,2.934-.975,2.388-3.085C3373.431,2262.947,3374.267,2264.136,3373.841,2267.072Z" transform="translate(-3112.875 -2057.813)" fill="#e88c5e"/>
    <path id="Trazado_1095905" data-name="Trazado 1095905" d="M3350.487,2261.4c1.3.479.539,1.412.423,2.15-.107.681-.308,1.335-1.3,1.293a39.352,39.352,0,0,0-6.25.221c-.463.054-.912.035-1.119.558-1.07-.129-1.07-.749-.63-1.485a5.762,5.762,0,0,1,4.069-2.537A17.986,17.986,0,0,1,3350.487,2261.4Z" transform="translate(-3092.445 -2056.295)" fill="#f9b371"/>
    <path id="Trazado_1095906" data-name="Trazado 1095906" d="M3415.579,2407.49l5.026.029c-1.271.544-2.6.129-3.9.235-.616.05-1.241,0-1.862-.012Z" transform="translate(-3162.833 -2196.255)" fill="#f3a067"/>
    <path id="Trazado_1095907" data-name="Trazado 1095907" d="M4089.491,2466.176c-.125.533-.563.339-.718.594-.084.527.939.136.662.762-.18.406-.637.307-1,.308-2.107.007-4.215-.018-6.322.018-.9.016-1.8.163-2.7.227-.491.035-.944-.077-.976-.683a.877.877,0,0,1,.869-1.012C4082.676,2466.472,4086.033,2465.841,4089.491,2466.176Z" transform="translate(-3798.273 -2252.356)" fill="#f3a067"/>
    <path id="Trazado_1095908" data-name="Trazado 1095908" d="M5827.7,2730.963c-.167-1.164.271-2.278.237-3.447a19.3,19.3,0,0,0-5.41-13.054,19.961,19.961,0,0,0-10.735-6.013,18.354,18.354,0,0,0-10.09.775c-1.358.48-1.369.457-1.374-.967,0-.87,0-1.74,0-2.609,9.026-2.37,17.345-1.379,24.262,5.438a14.626,14.626,0,0,1,4.647,9.891,43.22,43.22,0,0,0,.65,5.964,8.046,8.046,0,0,1,.031,1.982C5829.8,2730.981,5829.79,2730.98,5827.7,2730.963Z" transform="translate(-5447.106 -2480.65)" fill="#503843"/>
    <path id="Trazado_1095909" data-name="Trazado 1095909" d="M6612.4,1929.027c0-1.855-.026-3.71.013-5.564.017-.781-.2-1.141-1.047-1.075a20.5,20.5,0,0,1-2.725.021c-.771-.044-1.01.255-1,1,.036,1.894.013,3.788.013,5.742-.452-.241-.282-.579-.283-.838-.007-3.926.026-7.851-.007-11.776-.009-1,.294-1.451,1.346-1.375.987.071,1.982.024,2.975.032.581,0,.936.231.935.88q-.01,6.5,0,12.994Z" transform="translate(-6219.877 -1724.807)" fill="#93808e"/>
    <path id="Trazado_1095910" data-name="Trazado 1095910" d="M6645.633,1791.952c0,.372-.018.746,0,1.117.04.721-.412.771-.963.784s-.872-.108-.845-.741a16.517,16.517,0,0,0,0-2.109c-.067-.8.459-1.04,1.043-1.073.635-.035.782.478.772,1.029-.008.331,0,.662,0,.993Z" transform="translate(-6254.807 -1604.896)" fill="#ecded4"/>
    <path id="Trazado_1095911" data-name="Trazado 1095911" d="M6639.1,2108.25c.541.162,1.4-.363,1.421.817.017,1.086-.707.9-1.343.9-.685,0-1.44.173-1.409-.974C6637.8,2107.87,6638.611,2108.422,6639.1,2108.25Z" transform="translate(-6249.008 -1909.711)" fill="#7ebadb"/>
    <path id="Trazado_1095912" data-name="Trazado 1095912" d="M6645.938,2220.574c.741-.09,1.352-.01,1.294.707s-.754.461-1.2.477-1.1.16-1.128-.587C6644.873,2220.24,6645.677,2220.721,6645.938,2220.574Z" transform="translate(-6255.845 -2017.241)" fill="#648969"/>
    <path id="Trazado_1095913" data-name="Trazado 1095913" d="M6646.04,2163.974c.01.5-.2.782-.713.8-.409.016-.73-.042-.73-.568s.148-.876.744-.892C6645.811,2163.3,6645.986,2163.576,6646.04,2163.974Z" transform="translate(-6255.55 -1962.44)" fill="#acf1a3"/>
    <path id="Trazado_1095914" data-name="Trazado 1095914" d="M4801.736,2307.816a9.319,9.319,0,0,1-3.016.2C4799.7,2307.569,4800.729,2307.854,4801.736,2307.816Z" transform="translate(-4487.995 -2100.756)" fill="#64555d"/>
    <path id="Trazado_1095915" data-name="Trazado 1095915" d="M1635.42,2618.439c-.236.323-.585.247-.909.259a72.244,72.244,0,0,1-12.817-.766,6.886,6.886,0,0,1-1.05-.327,2.439,2.439,0,0,1,1.593-1.18,111.606,111.606,0,0,1,13.5-3.451,16.382,16.382,0,0,1,4.652-.49c-1.121,1.445-2.414,2.653-4.349,2.8a19.738,19.738,0,0,0-3.453.257c-.78.2-1,.537-.389,1.171a4.526,4.526,0,0,0,1.594,1.052C1634.313,2618.047,1634.964,2618.012,1635.42,2618.439Z" transform="translate(-1444.766 -2392.525)" fill="#67585f"/>
    <path id="Trazado_1095916" data-name="Trazado 1095916" d="M1876.123,2592.373c-.682-.057-.758-.54-.721-1.068s.417-.639.866-.686a5.73,5.73,0,0,1,1.456-.2c2.728.482,4.7-.923,6.611-2.529a33.635,33.635,0,0,1,5.411-1.04c.324-.029.63-.163.952.01.167.09.44.02.489.281.046.246-.154.364-.332.458a28.293,28.293,0,0,0-3.048,2.26,14.931,14.931,0,0,0-3.5,1.744,1.842,1.842,0,0,1-1.229.489,17.174,17.174,0,0,0-4.827-.672A2.452,2.452,0,0,0,1876.123,2592.373Z" transform="translate(-1688.705 -2367.931)" fill="#a99899"/>
    <path id="Trazado_1095917" data-name="Trazado 1095917" d="M1929.056,2726.322a2.913,2.913,0,0,1-1.764-.453,4.438,4.438,0,0,1,3.764-.524l-.782.721Z" transform="translate(-1738.401 -2500.407)" fill="#a99899"/>
    <path id="Trazado_1095918" data-name="Trazado 1095918" d="M1897.806,2687.368l-3.763.524a2.371,2.371,0,0,1-1.473-1.021c.012-.916.42-1.324,1.388-1.279,1.027.047,2.142-.309,3.069-.015a14.679,14.679,0,0,0,2.571.669c-.024.115-.049.23-.073.346Z" transform="translate(-1705.152 -2462.43)" fill="#e9d8c8"/>
    <path id="Trazado_1095919" data-name="Trazado 1095919" d="M5068.96,3262.44c.521-1.424,1.109-2.829,1.541-4.28.262-.881.771-1.009,1.555-.994,2.017.038,4.034.015,6.051.017.01.2.028.4.026.6-.018,2.238-.019,2.238,2.081,2.547a3.253,3.253,0,0,0-3.273,1.363,2.232,2.232,0,0,1-2.022.729C5072.933,3262.417,5070.946,3262.434,5068.96,3262.44Z" transform="translate(-4746.768 -3009.878)" fill="#f39e66"/>
    <path id="Trazado_1095920" data-name="Trazado 1095920" d="M6106,3081.73a10.41,10.41,0,0,1,2.363,8.486,8.1,8.1,0,0,1-1.622,4.576c.42-2.063.428-2.079-1.57-3.07-1.614-.8-3.249-1.557-4.875-2.333a.579.579,0,0,1-.207-.3c-.1-.928.586-1.2,1.254-1.441,1.4-.514,2.787-1.048,4.179-1.579,1.7-.648,1.814-1.024.945-2.667-.27-.51-.876-.956-.467-1.667Z" transform="translate(-5734.136 -2841.887)" fill="#5b4450"/>
    <path id="Trazado_1095921" data-name="Trazado 1095921" d="M6017.854,3357.5c-.333-.042-.74.042-.8-.466,1.214.006,1.3-.807,1.193-1.7-.2-1.643-.456-3.278-.672-4.919-.051-.384-.27-.84.26-1.089a1.084,1.084,0,0,1,1.352.241c1.2,1.2,2.433,2.367,3.637,3.564,1.111,1.1,1.368,1.111,2.489-.039.316-.324.631-.651.945-.977-.206,1.233-1.272,1.769-2.08,2.485A11.567,11.567,0,0,1,6017.854,3357.5Z" transform="translate(-5654.631 -3097.996)" fill="#5b4450"/>
    <path id="Trazado_1095922" data-name="Trazado 1095922" d="M5868.931,3149.732c.643.081.729-.68,1.231-.814a29.05,29.05,0,0,1,4.794,0c.488.2.583.869,1.157.963.258,1.222,1.266,2.135,1.4,3.407l-.106.137c-1.074-.532-1.32-1.656-1.79-2.594a1.711,1.711,0,0,0-1.825-1.143,18.373,18.373,0,0,1-2.854-.006,2.326,2.326,0,0,0-2.031.925c-.781.844-.943,1.57,0,2.424.605.552,1.065,1.262,1.636,1.856,1.89,1.964,3.318,1.854,4.964-.346a.712.712,0,0,1,.762-.4c-.636.991-1.01,2.15-2.2,2.376a3.518,3.518,0,0,1-3.349-.729c-.753-.763-1.407-1.624-2.159-2.388a1.862,1.862,0,0,1-.134-2.821A5.978,5.978,0,0,0,5868.931,3149.732Z" transform="translate(-5511.756 -2906.128)" fill="#c6b5a7"/>
    <path id="Trazado_1095923" data-name="Trazado 1095923" d="M6056.858,3254.924a.184.184,0,0,1,.027.212,14.4,14.4,0,0,1-2.141,3.133c.231-1.269,1.294-2.128,1.633-3.337l0,0A.326.326,0,0,1,6056.858,3254.924Z" transform="translate(-5690.726 -3007.634)" fill="#c6b5a7"/>
    <path id="Trazado_1095924" data-name="Trazado 1095924" d="M6062.341,3056.729l-.483.01c-.115-.845-.778-1.415-1.094-2.164a1.606,1.606,0,0,1-.2-1.381,29.673,29.673,0,0,0,4.012-4.115c1.465-1.624,1.538-1.653,3.1-.042a1.938,1.938,0,0,0,.392.246,9.559,9.559,0,0,0,1.07,2.179c.591,1.319.486,1.708-.871,2.247-1.679.666-3.372,1.3-5.081,1.876A1.057,1.057,0,0,0,6062.341,3056.729Z" transform="translate(-5696.209 -2809.439)" fill="#fbecd9"/>
    <path id="Trazado_1095925" data-name="Trazado 1095925" d="M5908.035,2959.376a8.465,8.465,0,0,1-4.794,0c.489-.275.456-.658.342-1.154-.41-1.766-.75-3.548-1.141-5.318a1.347,1.347,0,0,1,1.1-1.758,8,8,0,0,1,3.435-.155c.849.128,1.119.73,1.069,1.539q-.164,2.654-.294,5.31A2.007,2.007,0,0,0,5908.035,2959.376Z" transform="translate(-5544.835 -2716.584)" fill="#faecd8"/>
    <path id="Trazado_1095926" data-name="Trazado 1095926" d="M2293.713,2966.848a9.816,9.816,0,0,1-4.486,4.438c-5.261,3.036-11.144,2.081-16.014-2.5-3.662-3.446-4.691-9.713-2.157-14.573a12.237,12.237,0,0,1,10.72-6.946,12.619,12.619,0,0,1,12.114,6.313c2.514,4.111,2.374,8.4.333,12.68-.117.246-.177.566-.533.615-.331-.412-.048-.782.081-1.16.406-1.192.31-1.469-.827-2.075a24.388,24.388,0,0,0-2.581-1.223,8.846,8.846,0,0,1-1.557-.77,1.412,1.412,0,0,1-.808-1.3,1.335,1.335,0,0,1,1.083-1.215c1.355-.392,2.653-.945,3.984-1.4,1.261-.432,1.456-.892,1-2.167a8.7,8.7,0,0,0-1.452-2.447c-.645-.815-1.091-.857-1.843-.1-.91.91-1.957,1.661-2.866,2.57a4.553,4.553,0,0,1-1.418.991,1.562,1.562,0,0,1-2.18-1.648c.369-1.609.512-3.27.744-4.91.211-1.49-.138-1.916-1.6-1.946a18.4,18.4,0,0,0-2.483.032c-1.325.152-1.736.695-1.488,2.014.245,1.3.44,2.613.716,3.91a3.865,3.865,0,0,1,0,2.086,1.759,1.759,0,0,1-1.434.913,25.811,25.811,0,0,1-4.556-3.6c-.98-.857-1.2-.869-1.931.162a7.088,7.088,0,0,0-1.3,2.652,1.392,1.392,0,0,0,1,1.837c1.294.434,2.581.889,3.892,1.271.633.185,1.144.47,1.209,1.226a1.617,1.617,0,0,1-.918,1.735c-1.138.591-2.3,1.126-3.472,1.652-1.256.563-1.368,1.023-.672,2.221l.065.106c1.646,2.689,2.415,2.787,4.615.589.7-.7,1.391-1.417,2.114-2.1.43-.4.893-.8,1.536-.469a1.372,1.372,0,0,1,.683,1.595c-.2,1.061-.121,2.148-.349,3.2a.924.924,0,0,0-.036.245c.051.868-.5,1.982.436,2.52a4.034,4.034,0,0,0,3.493.066c.645-.246.612-.833.584-1.368a40.5,40.5,0,0,0-.547-4.053c-.105-.692-.147-1.355.595-1.718.711-.349,1.161.165,1.617.585,1.063.98,2.227,1.853,3.193,2.937.7.786,1.29.6,1.982-.067C2292.52,2967.745,2292.727,2966.8,2293.713,2966.848Z" transform="translate(-2066.243 -2713.103)" fill="#5b4450"/>
    <path id="Trazado_1095927" data-name="Trazado 1095927" d="M4526.636,2652.038c.241,1.647.758,3.279.141,4.961-.405,1.1-.129,2.287-.268,3.437-.18,1.5-.843,2.9-.741,4.464.21,3.2-1.685,6.169-1.127,9.431.111.655-.05,1.156-.9,1.074-.678-.065-1.133.015-1.448-1-.546-1.753.672-3.419-.077-5.09-.062-.138.062-.421.182-.569,1.61-1.989.9-4.329.989-6.542.018-.418-.152-.75-.694-.41-1.018.639-1.937.7-2.572-.54a.47.47,0,0,0-.634-.21c-.305.1-.313.365-.271.612.236,1.369.492,2.734.722,4.1.073.439.5.523.723.8.623.784,1.306,1.593.718,2.654a1.943,1.943,0,0,1-2.7,1.009,1.57,1.57,0,0,0-2.256.821.812.812,0,0,0,.03,1.009c.258.324.557.7.2,1.1a1.577,1.577,0,0,1-1.515.662c-1.187-.312-2.2-.29-2.919.889a.78.78,0,0,1-.649.283c-.979-.172-1.015-1.2-1.5-1.821-.356-.455.187-.781.613-.994a1.13,1.13,0,0,0,.78-1.025c-.012-.535.252-.707.738-.778.31-.046.7-.167.716-.573.021-.425-.316-.667-.65-.833-.29-.144-.63-.183-.932-.309-.675-.282-1.3-.722-1.322-1.483a2.945,2.945,0,0,0-1.794-2.606c-.543-.305-1.2-.6-1.155-1.311.054-.8.752-.941,1.438-1.1a3.537,3.537,0,0,0,1.6-.914c1.719-1.626,2.869-1.756,4.769-.435a4.227,4.227,0,0,0,1.835.638c.951.154,1.377-.292,1.512-1.3.22-1.642-.479-3.018-1-4.454-.106-.291-.3-.509.076-.709a6.545,6.545,0,0,1,4.392-.76,6.3,6.3,0,0,1,2.8,2.055c.616-1.415-.03-3.119,1.164-4.242C4525.974,2652.154,4526.3,2651.783,4526.636,2652.038Z" transform="translate(-4208.711 -2430.339)" fill="#f3a167"/>
    <path id="Trazado_1095928" data-name="Trazado 1095928" d="M4163.7,2485.113a1.785,1.785,0,0,1,1.662-.067A1.569,1.569,0,0,1,4163.7,2485.113Z" transform="translate(-3879.918 -2270.355)" fill="#f8b271"/>
    <path id="Trazado_1095929" data-name="Trazado 1095929" d="M6619.336,1926.083c.008,3.1.008,3.107-3.03,3.084-1.841-.014-1.679.26-1.685-1.752,0-1.279.041-2.558.02-3.837-.013-.7.192-1.1.974-1.07.866.031,1.733.014,2.6,0,.835-.009,1.188.373,1.133,1.22C6619.3,1924.512,6619.336,1925.3,6619.336,1926.083Z" transform="translate(-6226.845 -1731.848)" fill="#4b3541"/>
    <path id="Trazado_1095930" data-name="Trazado 1095930" d="M2035.738,2619.51c.4.037.767.07.9.419.119.32-.181.533-.391.713a10.511,10.511,0,0,1-4.212,2.006c-.31.085-.807-.055-.438-.5A6.9,6.9,0,0,1,2035.738,2619.51Z" transform="translate(-1838.152 -2399.279)" fill="#f4e7d6"/>
    <path id="Trazado_1095931" data-name="Trazado 1095931" d="M2312.284,2975.562c-.744.417-1.036,1.236-1.613,1.812-.76.76-1.354.895-2.164.046-1.112-1.166-2.336-2.223-3.5-3.339-.34-.326-.634-.657-1.171-.355-.493.278-.5.651-.415,1.155.26,1.506.447,3.025.69,4.535.177,1.1-.3,1.642-1.375,1.73-.165.013-.326.056-.49.075-3.117.365-3.668-.172-3.334-3.262.115-1.068.227-2.137.374-3.2a1.321,1.321,0,0,0-.547-1.518c-.613-.343-.887.253-1.215.567-1.134,1.087-2.263,2.182-3.346,3.32a1.282,1.282,0,0,1-2.11.055,12.039,12.039,0,0,1-1.981-2.528c-.591-.987-.464-1.646.668-2.124,1.292-.546,2.52-1.244,3.8-1.812a1.319,1.319,0,0,0,.9-1.425c-.029-.789-.644-.753-1.119-.912q-2.058-.686-4.129-1.333a1.408,1.408,0,0,1-1.057-1.99,10.222,10.222,0,0,1,1.8-3.5c.518-.664,1.044-.729,1.641-.094a49.776,49.776,0,0,0,4.779,4.128c.194.369-.063.634-.23.9a4.619,4.619,0,0,0-.094,5.139,4.375,4.375,0,0,1-.167-4.587c.146-.259.231-.732.646-.612.349.1.378.532.36.855a9.876,9.876,0,0,0,.8,4.333,3.062,3.062,0,0,0,4.8.958,28.3,28.3,0,0,0,1.936-2.721.537.537,0,0,0-.135-.853,4.467,4.467,0,0,1-1.46-2.11,2.049,2.049,0,0,0-2.3-1.441c-.694.073-1.4.037-2.1.131-.41.055-1.115.205-.85-.69a33.356,33.356,0,0,0-.906-6.115c-.242-1.521.078-2.031,1.614-2.3a12.8,12.8,0,0,1,3.339-.067,1.348,1.348,0,0,1,1.382,1.752c-.266,1.839-.517,3.682-.82,5.515-.092.552-.073.929.491,1.224s1.036.453,1.571-.036c1.311-1.2,2.679-2.337,3.952-3.575a1.2,1.2,0,0,1,2.068.108,10.416,10.416,0,0,1,1.833,3.213,1.375,1.375,0,0,1-.96,2.024c-1.416.454-2.816.958-4.223,1.438-.456.156-.982.173-1.047.857-.071.74.374,1.013.932,1.272,1.237.573,2.461,1.174,3.691,1.763,1.754.84,1.849,1.114,1.011,2.817-.122.25-.364.469-.258.8Z" transform="translate(-2084.814 -2721.818)" fill="#fceedb"/>
    <path id="Trazado_1095932" data-name="Trazado 1095932" d="M2457.308,3157.96c.054.265.168.481.483.447.244-.026.483-.1.727-.137,2.97-.455,3.372-.248,4.75,2.408.151.291.28.7.528.813,1.383.607.978,1.336.245,2.162a3.917,3.917,0,0,0-.677,1.032c-.853,2-2.53,2.164-4.337,1.931a2.12,2.12,0,0,1-1.828-1.548,10.073,10.073,0,0,1-.835-5.378c-1.43,1.405-1.378,2.808.136,5.955-1.551-.82-2.213-3.743-1.242-5.477.282-.5.561-1.008.841-1.512Z" transform="translate(-2243.53 -2914.882)" fill="#c8b7aa"/>
    <path id="Trazado_1095933" data-name="Trazado 1095933" d="M6646.2,1968.845c-1.064.061-1.562-.2-.664-1.179.407-.445-.209-1.526.667-1.471.618.039.08,1.049.456,1.5C6647.234,1968.4,6647.515,1968.955,6646.2,1968.845Z" transform="translate(-6256.002 -1773.681)" fill="#77b4ce"/>
    <path id="Trazado_1095934" data-name="Trazado 1095934" d="M2500.335,3176.851c.025-2.469.037-2.323,2.288-2.521,2.05-.182,3.331.465,3.919,2.445.069.232.175.543.357.638,1.48.767.563,1.484-.01,2.223-.2.26-.383.537-.569.81a3.573,3.573,0,0,1-3.989,1.3,1.259,1.259,0,0,1-.71-.654C2500.913,3179.689,2500.075,3178.326,2500.335,3176.851Z" transform="translate(-2287.084 -2930.53)" fill="#fcf0de"/>
    <path id="Trazado_1095935" data-name="Trazado 1095935" d="M2528.822,3212.2a2.335,2.335,0,0,1-1.887,2.105,1.9,1.9,0,0,1-2.144-1.86,1.994,1.994,0,0,1,1.982-2.073A1.914,1.914,0,0,1,2528.822,3212.2Z" transform="translate(-2310.548 -2965.074)" fill="#c3b3a6"/>
    <path id="Trazado_1095936" data-name="Trazado 1095936" d="M2535.658,3219.2c.012,1.07-.534,1.717-1.249,1.561s-1.8-.285-1.94-1.359a1.747,1.747,0,0,1,1.565-1.654A1.535,1.535,0,0,1,2535.658,3219.2Z" transform="translate(-2317.894 -2972.136)" fill="#fcf0df"/>
  </g>
</svg>
