<svg xmlns="http://www.w3.org/2000/svg" width="62.002" height="62" viewBox="0 0 62.002 62">
  <path id="Trazado_1088317" data-name="Trazado 1088317" d="M60,45a3,3,0,0,0,3-3V4a3,3,0,0,0-3-3H4A3,3,0,0,0,1,4V42a3,3,0,0,0,3,3H21.6a17.076,17.076,0,0,0,8.176,6.805L26.586,55H23V52a3,3,0,0,0-3-3H8a3,3,0,0,0-3,3v8a3,3,0,0,0,3,3H20a3,3,0,0,0,3-3V57h4a1,1,0,0,0,.707-.293l4.221-4.221A16.713,16.713,0,0,0,44.989,50.4l2.6,2.6-.293.293a1,1,0,0,0,0,1.414l6.757,6.757a5.242,5.242,0,0,0,7.414-7.414L54.71,47.293a1,1,0,0,0-1.414,0l-.3.293L50.414,45ZM21,60a1,1,0,0,1-1,1H8a1,1,0,0,1-1-1V52a1,1,0,0,1,1-1H20a1,1,0,0,1,1,1ZM4,43a1,1,0,0,1-1-1V4A1,1,0,0,1,4,3H60a1,1,0,0,1,1,1V42a1,1,0,0,1-1,1H51.474a16.937,16.937,0,0,0-8.549-22.511L48,15.414V18h2V13a1,1,0,0,0-1-1H44v2h2.586l-5.719,5.719a16.912,16.912,0,0,0-4.295-.69L31.848,11.47A1,1,0,0,0,31,11H27V8a3,3,0,0,0-3-3H12A3,3,0,0,0,9,8v8a3,3,0,0,0,3,3H24a3,3,0,0,0,3-3V13h3.446l3.806,6.09a16.971,16.971,0,0,0-11.107,5.818l-1.4-1.573A1,1,0,0,0,21,23h0a1,1,0,0,0-.737.324l-11,12,1.474,1.352L20.989,25.492l.909,1.024A16.777,16.777,0,0,0,19.281,39H7V12H5V40a1,1,0,0,0,1,1H19.753a16.7,16.7,0,0,0,.773,2ZM25,8v8a1,1,0,0,1-1,1H12a1,1,0,0,1-1-1V8a1,1,0,0,1,1-1H24A1,1,0,0,1,25,8ZM21,36A15,15,0,1,1,36,51,15,15,0,0,1,21,36ZM60.05,55.464a3.243,3.243,0,1,1-4.586,4.586L49.414,54,54,49.414ZM49,51.586l-2.353-2.353a17.089,17.089,0,0,0,2.586-2.586L51.586,49Z" transform="translate(-1 -1)" fill="#feba30"/>
</svg>
