<svg xmlns="http://www.w3.org/2000/svg" width="60" height="60" viewBox="0 0 60 60">
  <g id="Outline" transform="translate(-2 -2)">
    <path id="Trazado_1091062" data-name="Trazado 1091062" d="M32,12a5,5,0,1,0-5-5A5,5,0,0,0,32,12Zm0-8a3,3,0,1,1-3,3,3,3,0,0,1,3-3Z" fill="#5aa6ff"/>
    <path id="Trazado_1091063" data-name="Trazado 1091063" d="M62,46H57.9c-.995-4.881-9.229-8.742-20.263-9.738L37.943,31H39a3,3,0,0,0,3-3V20a6.006,6.006,0,0,0-6-6H28a6.006,6.006,0,0,0-6,6v8a3,3,0,0,0,3,3h1.057l.31,5.263C15.333,37.259,7.1,41.12,6.1,46H2v2H6.107C7.238,53.544,17.693,57.786,31,57.99V62h2V57.99c13.307-.2,23.762-4.446,24.893-9.99H62ZM24,28V20a4,4,0,0,1,4-4h8a4,4,0,0,1,4,4v8a1,1,0,0,1-1,1H38V20H36v9.975L35.057,46H33V29H31V46H28.943L28,29.975V20H26v9H25A1,1,0,0,1,24,28Zm9,27.98V51H31v4.98C18.286,55.784,9.487,51.927,8.186,48H22V46H8.187c1.141-3.443,8.042-6.833,18.3-7.75L27,47.059A1,1,0,0,0,28,48h8a1,1,0,0,0,1-.941l.518-8.8c10.248.918,17.154,4.3,18.3,7.738H42v2H55.814C54.513,51.927,45.714,55.784,33,55.98Z" fill="#5aa6ff"/>
  </g>
</svg>
