<svg xmlns="http://www.w3.org/2000/svg" width="84" height="84" viewBox="0 0 84 84">
  <g id="Grupo_1191771" data-name="Grupo 1191771" transform="translate(-699.833 -4645.904)">
    <rect id="Rectángulo_459563" data-name="Rectángulo 459563" width="84" height="84" rx="5" transform="translate(699.833 4645.904)" fill="#ffe3ac"/>
    <path id="segmentacion-de-mercado" d="M59.656,18.46c.035-.034.071-.066.106-.1A7.476,7.476,0,1,0,49.189,7.787c-.074.074-.145.15-.216.227A30.006,30.006,0,0,0,8.34,49.564c-.035.034-.071.066-.106.1a7.491,7.491,0,0,0,0,10.572h0a7.474,7.474,0,0,0,10.573,0c.074-.074.145-.15.216-.227A30,30,0,0,0,59.656,18.46ZM54.475,7.027A6.046,6.046,0,1,1,50.2,8.8a6.03,6.03,0,0,1,4.277-1.769ZM49.189,18.359a7.487,7.487,0,0,0,9.339,1A28.473,28.473,0,0,1,62.563,33.3H45.326a11.364,11.364,0,0,0-10.614-10.61V5.451A28.514,28.514,0,0,1,48.105,9.162a7.488,7.488,0,0,0,1.084,9.2ZM24.079,34.012A9.921,9.921,0,1,1,34,43.932a9.931,9.931,0,0,1-9.92-9.92Zm-18.651,0A28.6,28.6,0,0,1,33.285,5.451V22.688A11.34,11.34,0,0,0,25.49,41.511L18.021,48.98a7.475,7.475,0,0,0-8.553-.312,28.488,28.488,0,0,1-4.04-14.656ZM13.523,61A6.05,6.05,0,1,1,17.8,59.229,6.011,6.011,0,0,1,13.523,61ZM34,62.583a28.527,28.527,0,0,1-14.107-3.72,7.49,7.49,0,0,0-.817-8.917L26.5,42.52a11.342,11.342,0,0,0,18.826-7.794H62.564A28.606,28.606,0,0,1,34,62.583ZM30.639,36a.714.714,0,1,1,1.427,0,1.973,1.973,0,0,0,3.864,0c0-1.034-.549-1.252-2-1.573-1.244-.275-2.947-.651-2.947-2.706a2.786,2.786,0,0,1,2.3-2.628v-.784a.714.714,0,1,1,1.427,0V29.1a2.787,2.787,0,0,1,2.3,2.628.714.714,0,0,1-1.427,0,1.628,1.628,0,0,0-3.179,0c0,.8.389.994,1.827,1.312,1.243.275,3.12.689,3.12,2.967a3.107,3.107,0,0,1-2.646,2.933v.773a.714.714,0,0,1-1.427,0v-.773A3.107,3.107,0,0,1,30.639,36ZM50.6,13.868a.714.714,0,1,1,1.01-1.008l1.547,1.55,4.186-4.185a.714.714,0,0,1,1.009,1.009l-4.691,4.691a.714.714,0,0,1-.5.209h0a.713.713,0,0,1-.5-.21L50.6,13.868ZM16.371,53.111l-1.841,1.841,1.841,1.841A.714.714,0,1,1,15.362,57.8l-1.841-1.841L11.681,57.8a.714.714,0,1,1-1.009-1.009l1.841-1.841-1.841-1.841A.714.714,0,0,1,11.681,52.1l1.841,1.841L15.362,52.1a.714.714,0,1,1,1.009,1.009Z" transform="translate(706.833 4654.648)" fill="#986f1c"/>
  </g>
</svg>
