<svg xmlns="http://www.w3.org/2000/svg" width="104" height="104" viewBox="0 0 104 104">
  <g id="Grupo_1191767" data-name="Grupo 1191767" transform="translate(-591 -1536)">
    <g id="Rectángulo_459538" data-name="Rectángulo 459538" transform="translate(591 1536)" fill="none" stroke="#9bac1c" stroke-width="2">
      <rect width="104" height="104" rx="52" stroke="none"/>
      <rect x="1" y="1" width="102" height="102" rx="51" fill="none"/>
    </g>
    <g id="pareja" transform="translate(613.855 1561.02)">
      <g id="Grupo_1191518" data-name="Grupo 1191518" transform="translate(0 0)">
        <g id="Grupo_1191517" data-name="Grupo 1191517" transform="translate(0 0)">
          <path id="Trazado_1095985" data-name="Trazado 1095985" d="M29.381,53.563l-5.657-1.716-.615-1.231a.863.863,0,0,0-1.027-.438v-.214a10.065,10.065,0,0,0,4.158-7.414,2.875,2.875,0,0,0,1.767-4.28,3.408,3.408,0,0,0,.224-5.925,2.907,2.907,0,0,0-3.915-3.382,8.96,8.96,0,0,0-6.069-2.341h-4.09a8.989,8.989,0,0,0-6.069,2.341,2.908,2.908,0,0,0-3.915,3.382,3.408,3.408,0,0,0,.222,5.924A2.878,2.878,0,0,0,6.162,42.55a10.064,10.064,0,0,0,4.148,7.406v.218a.864.864,0,0,0-1.018.441l-.615,1.23L2.8,53.609A3.907,3.907,0,0,0,0,57.375V78.608a.864.864,0,0,0,1.728,0V57.375c0-.063,0-.126.008-.188L5.19,60.64a3.2,3.2,0,0,1,.945,2.281V78.608a.864.864,0,1,0,1.728,0V62.921a4.921,4.921,0,0,0-1.451-3.5l-3.8-3.8a2.218,2.218,0,0,1,.692-.349L7.191,54.1a23.063,23.063,0,0,0,8.53,10.715.864.864,0,0,0,.958,0,22.919,22.919,0,0,0,8.54-10.7l3.66,1.11a.864.864,0,0,0,.5-1.654Zm-7.043-.623-2.92,3.65a.15.15,0,0,1-.126.059.153.153,0,0,1-.124-.063L17.513,54.38l4.436-2.218ZM16.2,53.1l-4.162-2.081v-.058a10.056,10.056,0,0,0,8.314,0v.059ZM25.4,30.48a1.179,1.179,0,0,1,.984,1.83.864.864,0,0,0,.489,1.309,1.693,1.693,0,1,1-1.69.48.864.864,0,0,0-.274-1.37,1.178,1.178,0,0,1,.491-2.25ZM4.284,35.239a1.692,1.692,0,0,1,1.241-1.62.864.864,0,0,0,.489-1.309,1.182,1.182,0,1,1,1.475.419.864.864,0,0,0-.274,1.37,1.689,1.689,0,1,1-2.932,1.14ZM7.863,41.8A.864.864,0,0,0,7,40.937a1.253,1.253,0,0,1-1.273-.976,1.176,1.176,0,0,1,.9-1.357.864.864,0,0,0,.1-.028A3.425,3.425,0,0,0,9.4,35.239a3.379,3.379,0,0,0-.358-1.512,2.895,2.895,0,0,0,.4-3.649,7.268,7.268,0,0,1,4.718-1.727h4.09a7.247,7.247,0,0,1,4.72,1.725,2.895,2.895,0,0,0,.4,3.651A3.378,3.378,0,0,0,23,35.239,3.426,3.426,0,0,0,25.769,38.6a.866.866,0,0,0,.082.029,1.179,1.179,0,0,1,.825,1.336,1.253,1.253,0,0,1-1.273.976.864.864,0,0,0-.864.864,8.338,8.338,0,0,1-16.676,0ZM10.179,52.71l.274-.547,4.436,2.218-1.654,2.206a.153.153,0,0,1-.124.063.145.145,0,0,1-.126-.059l-2.9-3.621A.868.868,0,0,0,10.179,52.71ZM16.2,63.044a21.656,21.656,0,0,1-6.835-8.21l2.268,2.835a1.873,1.873,0,0,0,1.472.708h.03a1.874,1.874,0,0,0,1.48-.754l.72-.96V60.2a.864.864,0,1,0,1.728,0V56.662l.72.96a1.874,1.874,0,0,0,1.48.754h.03a1.873,1.873,0,0,0,1.472-.708l2.275-2.844A21.568,21.568,0,0,1,16.2,63.044Z" transform="translate(0 -26.623)" fill="#9bac1c"/>
        </g>
      </g>
      <g id="Grupo_1191520" data-name="Grupo 1191520" transform="translate(13.292 17.381)">
        <g id="Grupo_1191519" data-name="Grupo 1191519" transform="translate(0 0)">
          <path id="Trazado_1095986" data-name="Trazado 1095986" d="M120.874,177.692a.864.864,0,0,0-1.215.127,1.694,1.694,0,0,1-2.748,0,.864.864,0,0,0-1.342,1.089,3.419,3.419,0,0,0,5.432,0A.864.864,0,0,0,120.874,177.692Z" transform="translate(-115.377 -177.499)" fill="#9bac1c"/>
        </g>
      </g>
      <g id="Grupo_1191522" data-name="Grupo 1191522" transform="translate(11.247 12.269)">
        <g id="Grupo_1191521" data-name="Grupo 1191521">
          <path id="Trazado_1095987" data-name="Trazado 1095987" d="M98.489,133.124a.864.864,0,0,0-.864.864v1.022a.864.864,0,0,0,1.728,0v-1.022A.864.864,0,0,0,98.489,133.124Z" transform="translate(-97.625 -133.124)" fill="#9bac1c"/>
        </g>
      </g>
      <g id="Grupo_1191524" data-name="Grupo 1191524" transform="translate(19.426 12.269)">
        <g id="Grupo_1191523" data-name="Grupo 1191523">
          <path id="Trazado_1095988" data-name="Trazado 1095988" d="M169.489,133.124a.864.864,0,0,0-.864.864v1.022a.864.864,0,0,0,1.728,0v-1.022A.864.864,0,0,0,169.489,133.124Z" transform="translate(-168.625 -133.124)" fill="#9bac1c"/>
        </g>
      </g>
      <g id="Grupo_1191526" data-name="Grupo 1191526" transform="translate(24.538 30.673)">
        <g id="Grupo_1191525" data-name="Grupo 1191525">
          <path id="Trazado_1095989" data-name="Trazado 1095989" d="M217.542,293.127a.864.864,0,0,0-1.222,0L214.451,295A4.921,4.921,0,0,0,213,298.5v15.687a.864.864,0,0,0,1.728,0V298.5a3.2,3.2,0,0,1,.945-2.281l1.869-1.869A.864.864,0,0,0,217.542,293.127Z" transform="translate(-213 -292.874)" fill="#9bac1c"/>
        </g>
      </g>
      <g id="Grupo_1191528" data-name="Grupo 1191528" transform="translate(40.897 24.538)">
        <g id="Grupo_1191527" data-name="Grupo 1191527">
          <path id="Trazado_1095990" data-name="Trazado 1095990" d="M360.5,239.817a.864.864,0,0,0-1.215.127,1.694,1.694,0,0,1-2.748,0,.864.864,0,1,0-1.342,1.089,3.419,3.419,0,0,0,5.432,0A.864.864,0,0,0,360.5,239.817Z" transform="translate(-355.002 -239.624)" fill="#9bac1c"/>
        </g>
      </g>
      <g id="Grupo_1191530" data-name="Grupo 1191530" transform="translate(33.74 39.875)">
        <g id="Grupo_1191529" data-name="Grupo 1191529">
          <path id="Trazado_1095991" data-name="Trazado 1095991" d="M293.739,372.749a.864.864,0,0,0-.864.864V384.86a.864.864,0,0,0,1.728,0V373.613A.864.864,0,0,0,293.739,372.749Z" transform="translate(-292.875 -372.749)" fill="#9bac1c"/>
        </g>
      </g>
      <g id="Grupo_1191532" data-name="Grupo 1191532" transform="translate(52.144 39.875)">
        <g id="Grupo_1191531" data-name="Grupo 1191531">
          <path id="Trazado_1095992" data-name="Trazado 1095992" d="M453.489,372.749a.864.864,0,0,0-.864.864V384.86a.864.864,0,0,0,1.728,0V373.613A.864.864,0,0,0,453.489,372.749Z" transform="translate(-452.625 -372.749)" fill="#9bac1c"/>
        </g>
      </g>
      <g id="Grupo_1191534" data-name="Grupo 1191534" transform="translate(28.628 4.09)">
        <g id="Grupo_1191533" data-name="Grupo 1191533">
          <path id="Trazado_1095993" data-name="Trazado 1095993" d="M275.968,92a3.916,3.916,0,0,0-1.2-5.87c0-.047,0-.094,0-.141a3.412,3.412,0,0,0-1.431-2.784c.059-.2.113-.4.159-.6a9.686,9.686,0,0,0,.217-1.586,12.111,12.111,0,1,0-20.067,0,9.681,9.681,0,0,0,.217,1.586c.046.2.1.4.159.6a3.412,3.412,0,0,0-1.431,2.784q0,.071,0,.141a3.916,3.916,0,0,0-1.2,5.87,5.942,5.942,0,0,0-2.888,5.117v12.9a.864.864,0,0,0,1.728,0v-12.9a4.228,4.228,0,0,1,2.67-3.944l.165-.066a13.291,13.291,0,0,0,10.614,5.5,13.121,13.121,0,0,0,10.614-5.5l.166.066a4.228,4.228,0,0,1,2.67,3.944v12.9a.864.864,0,1,0,1.728,0v-12.9A5.943,5.943,0,0,0,275.968,92ZM253.3,74.235a10.383,10.383,0,1,1,19.891,4.179c-1.245-2.679-4.012-3.429-6.7-4.158a16.569,16.569,0,0,1-6.355-2.74.864.864,0,0,0-1.312.288,6.727,6.727,0,0,1-2.681,2.681.864.864,0,0,0,.773,1.546,8.175,8.175,0,0,0,2.922-2.593,20.064,20.064,0,0,0,6.2,2.486c.649.176,1.247.342,1.793.516h-.056a2.91,2.91,0,0,0-2.488,1.4,3.567,3.567,0,0,0-3.2,0,2.908,2.908,0,1,0,.4,1.829,1.735,1.735,0,0,1,2.4,0,2.909,2.909,0,1,0,4.869-2.452,4.18,4.18,0,0,1,2.277,3.274.872.872,0,0,0-.026.18,8.323,8.323,0,0,1-16.639,0,.861.861,0,0,0-.257-.584A10.315,10.315,0,0,1,253.3,74.235Zm15.653,5.112a1.181,1.181,0,1,1-1.181-1.181A1.182,1.182,0,0,1,268.949,79.347Zm-8.179,0a1.181,1.181,0,1,1-1.181-1.181A1.182,1.182,0,0,1,260.769,79.347Zm7.876,11.5a7.31,7.31,0,0,1-9.934,0A2.893,2.893,0,0,0,260,89.738a10.028,10.028,0,0,0,7.348,0A2.893,2.893,0,0,0,268.645,90.85Zm-15.59.4a2.19,2.19,0,0,1,.76-3.769.864.864,0,0,0,.572-1.05,1.617,1.617,0,0,1,.314-1.514,10.126,10.126,0,0,0,2.654,3.281,9.953,9.953,0,0,0,1.08.759,1.177,1.177,0,0,1-.452.322Zm10.623,5.633a11.355,11.355,0,0,1-8.948-4.442l2.242-.9a9.043,9.043,0,0,0,13.413,0l2.243.9A11.368,11.368,0,0,1,263.678,96.886ZM274.3,91.254l-4.927-1.971a1.176,1.176,0,0,1-.452-.322A9.982,9.982,0,0,0,270,88.2a10.128,10.128,0,0,0,2.654-3.281,1.616,1.616,0,0,1,.314,1.514.864.864,0,0,0,.572,1.05,2.19,2.19,0,0,1,.76,3.77Z" transform="translate(-248.5 -62.124)" fill="#9bac1c"/>
        </g>
      </g>
    </g>
  </g>
</svg>
