<svg xmlns="http://www.w3.org/2000/svg" width="104" height="104" viewBox="0 0 104 104">
  <g id="Grupo_1191765" data-name="Grupo 1191765" transform="translate(-278.652 -1536)">
    <g id="Rectángulo_457781" data-name="Rectángulo 457781" transform="translate(278.652 1536)" fill="none" stroke="#9bac1c" stroke-width="2">
      <rect width="104" height="104" rx="52" stroke="none"/>
      <rect x="1" y="1" width="102" height="102" rx="51" fill="none"/>
    </g>
    <g id="exito" transform="translate(301.196 1555.568)">
      <path id="Trazado_1095970" data-name="Trazado 1095970" d="M37.872,17.968a5.968,5.968,0,1,0-9.26,4.973h-2.46l-7.308-3.322A3.427,3.427,0,0,0,15.28,25.41l8.666,6.963v5.459l-2.1,9.037a4.011,4.011,0,0,0,7.711,2.188l2.345-7,2.345,6.992a4.011,4.011,0,0,0,7.711-2.188l-2.1-9.033V32.37l8.665-6.963a3.426,3.426,0,0,0-3.563-5.79l-7.308,3.323H35.2A5.968,5.968,0,0,0,37.872,17.968Zm0,6.963a1,1,0,0,0,.412-.09l7.5-3.411a1.439,1.439,0,0,1,1.494,2.432l-9.037,7.261a1,1,0,0,0-.372.77v6.05a1.013,1.013,0,0,0,.026.225l2.125,9.151a2.022,2.022,0,0,1-3.887,1.1l-3.288-9.8a.995.995,0,0,0-1.89,0l-3.288,9.8a2.022,2.022,0,0,1-3.887-1.1l2.125-9.151a1.012,1.012,0,0,0,.03-.225v-6.05a1,1,0,0,0-.372-.775l-9.037-7.261a1.435,1.435,0,0,1,1.494-2.423l7.5,3.411a1,1,0,0,0,.412.086ZM31.9,21.946a3.979,3.979,0,1,1,3.979-3.979A3.979,3.979,0,0,1,31.9,21.946Z" transform="translate(-2.064 -2.054)" fill="#9bac1c"/>
      <path id="Trazado_1095971" data-name="Trazado 1095971" d="M31.995,3A1,1,0,0,0,31,3.995V5.984a.995.995,0,0,0,1.989,0V3.995A1,1,0,0,0,31.995,3Z" transform="translate(-2.155 -2.006)" fill="#9bac1c"/>
      <path id="Trazado_1095972" data-name="Trazado 1095972" d="M31.995,60.979a1,1,0,0,0,.995-.995V57.995a.995.995,0,0,0-1.989,0v1.989A1,1,0,0,0,31.995,60.979Z" transform="translate(-2.155 -2.295)" fill="#9bac1c"/>
      <path id="Trazado_1095973" data-name="Trazado 1095973" d="M59.984,32.989a.995.995,0,0,0,0-1.989H57.995a.995.995,0,1,0,0,1.989Z" transform="translate(-2.294 -2.155)" fill="#9bac1c"/>
      <path id="Trazado_1095974" data-name="Trazado 1095974" d="M3.995,31a.995.995,0,1,0,0,1.989H5.984a.995.995,0,1,0,0-1.989Z" transform="translate(-2.006 -2.155)" fill="#9bac1c"/>
      <path id="Trazado_1095975" data-name="Trazado 1095975" d="M61.007,52.886h0c-4.7-.77-5.206-1.272-5.976-5.979a1.086,1.086,0,0,0-2.142,0c-.77,4.7-1.272,5.206-5.979,5.976a1.086,1.086,0,0,0,0,2.142c4.7.77,5.206,1.272,5.976,5.979a1.086,1.086,0,0,0,2.142,0c.77-4.7,1.272-5.206,5.979-5.976a1.086,1.086,0,0,0,0-2.142ZM53.957,57a4.9,4.9,0,0,0-3.048-3.048,4.9,4.9,0,0,0,3.048-3.048A4.9,4.9,0,0,0,57,53.957,4.9,4.9,0,0,0,53.957,57Z" transform="translate(-2.235 -2.236)" fill="#9bac1c"/>
      <path id="Trazado_1095976" data-name="Trazado 1095976" d="M2.91,11.028c4.7.77,5.206,1.272,5.976,5.979a1.086,1.086,0,0,0,2.142,0c.77-4.7,1.272-5.206,5.979-5.976a1.086,1.086,0,0,0,0-2.142h0c-4.7-.77-5.206-1.272-5.976-5.979a1.086,1.086,0,0,0-2.142,0c-.773,4.7-1.275,5.206-5.982,5.976a1.086,1.086,0,0,0,0,2.142ZM9.957,6.91A4.9,4.9,0,0,0,13,9.957,4.9,4.9,0,0,0,9.957,13,4.9,4.9,0,0,0,6.91,9.957,4.9,4.9,0,0,0,9.957,6.91Z" transform="translate(-2 -2)" fill="#9bac1c"/>
      <path id="Trazado_1095977" data-name="Trazado 1095977" d="M2.91,55.028c4.7.77,5.206,1.272,5.976,5.979a1.086,1.086,0,0,0,2.142,0h0c.77-4.7,1.272-5.206,5.979-5.976a1.086,1.086,0,0,0,0-2.142c-4.7-.77-5.206-1.272-5.976-5.979a1.086,1.086,0,0,0-2.142,0c-.77,4.7-1.272,5.206-5.979,5.976a1.086,1.086,0,0,0,0,2.142ZM9.957,50.91A4.9,4.9,0,0,0,13,53.957,4.9,4.9,0,0,0,9.957,57,4.9,4.9,0,0,0,6.91,53.957,4.9,4.9,0,0,0,9.957,50.91Z" transform="translate(-2 -2.236)" fill="#9bac1c"/>
      <path id="Trazado_1095978" data-name="Trazado 1095978" d="M61,8.886c-4.7-.77-5.206-1.272-5.976-5.979a1.086,1.086,0,0,0-2.142,0c-.77,4.7-1.272,5.206-5.979,5.976a1.086,1.086,0,0,0,0,2.142c4.7.77,5.206,1.272,5.976,5.979a1.086,1.086,0,0,0,2.142,0h0C55.8,12.3,56.3,11.8,61,11.028a1.086,1.086,0,0,0,0-2.142ZM53.957,13A4.9,4.9,0,0,0,50.91,9.957,4.9,4.9,0,0,0,53.957,6.91,4.9,4.9,0,0,0,57,9.957,4.9,4.9,0,0,0,53.957,13Z" transform="translate(-2.235 -2)" fill="#9bac1c"/>
    </g>
  </g>
</svg>
