<svg id="Grupo_1189847" data-name="Grupo 1189847" xmlns="http://www.w3.org/2000/svg" width="66.424" height="74.37" viewBox="0 0 66.424 74.37">
  <g id="Grupo_1189831" data-name="Grupo 1189831" transform="translate(49.721 11.904)">
    <g id="Grupo_1189830" data-name="Grupo 1189830">
      <path id="Trazado_1089196" data-name="Trazado 1089196" d="M371.108,94.793a1.453,1.453,0,0,1-1.453-1.453V83.409a1.453,1.453,0,0,1,2.905,0v9.932A1.453,1.453,0,0,1,371.108,94.793Z" transform="translate(-369.655 -81.956)" fill="#5aa6ff"/>
    </g>
  </g>
  <g id="Grupo_1189833" data-name="Grupo 1189833" transform="translate(49.715 7.23)">
    <g id="Grupo_1189832" data-name="Grupo 1189832">
      <circle id="Elipse_11515" data-name="Elipse 11515" cx="1.453" cy="1.453" r="1.453" fill="#5aa6ff"/>
    </g>
  </g>
  <g id="Grupo_1189836" data-name="Grupo 1189836">
    <path id="Trazado_1089197" data-name="Trazado 1089197" d="M93.776,15.26A15.249,15.249,0,0,0,69.253,3.144H32.638A5.292,5.292,0,0,0,27.352,8.43V61.27a5.292,5.292,0,0,0,5.286,5.286h4.609v2.527a5.292,5.292,0,0,0,5.286,5.286H80.512A5.292,5.292,0,0,0,85.8,69.084V48.937a1.453,1.453,0,0,0-2.905,0V69.084a2.384,2.384,0,0,1-2.381,2.381H42.534a2.384,2.384,0,0,1-2.381-2.381V66.557H70.617A5.292,5.292,0,0,0,75.9,61.27V30.3a15.313,15.313,0,0,0,6.99-.414V35.8a1.453,1.453,0,0,0,2.905,0V28.669A15.274,15.274,0,0,0,93.776,15.26ZM73,61.27a2.384,2.384,0,0,1-2.381,2.381H32.638a2.384,2.384,0,0,1-2.381-2.381V8.43a2.384,2.384,0,0,1,2.381-2.381H66.362a15.18,15.18,0,0,0-3.086,8.566H38.54a1.453,1.453,0,0,0-1.453,1.453V22.2a1.453,1.453,0,0,0,1.453,1.453H64.715a1.446,1.446,0,0,0,.879-.3A15.346,15.346,0,0,0,73,29.486Zm-9.736-43.75v3.23H39.993v-3.23ZM78.519,27.615A12.355,12.355,0,1,1,90.871,15.26,12.367,12.367,0,0,1,78.519,27.615Z" transform="translate(-27.352)" fill="#5aa6ff"/>
    <g id="Grupo_1189835" data-name="Grupo 1189835" transform="translate(55.544 40.895)">
      <g id="Grupo_1189834" data-name="Grupo 1189834">
        <path id="Trazado_1089198" data-name="Trazado 1089198" d="M411.191,284.443a1.453,1.453,0,1,1,1.415-1.123A1.466,1.466,0,0,1,411.191,284.443Z" transform="translate(-409.742 -281.541)" fill="#5aa6ff"/>
      </g>
    </g>
  </g>
  <g id="Grupo_1189846" data-name="Grupo 1189846" transform="translate(9.736 28.707)">
    <g id="Grupo_1189845" data-name="Grupo 1189845">
      <g id="Grupo_1189838" data-name="Grupo 1189838">
        <g id="Grupo_1189837" data-name="Grupo 1189837">
          <path id="Trazado_1089199" data-name="Trazado 1089199" d="M122,200.538H95.83a1.453,1.453,0,0,1,0-2.905H122a1.453,1.453,0,1,1,0,2.905Z" transform="translate(-94.377 -197.633)" fill="#5aa6ff"/>
        </g>
      </g>
      <g id="Grupo_1189840" data-name="Grupo 1189840" transform="translate(0 6.889)">
        <g id="Grupo_1189839" data-name="Grupo 1189839">
          <path id="Trazado_1089200" data-name="Trazado 1089200" d="M122,247.968H95.83a1.453,1.453,0,0,1,0-2.905H122a1.453,1.453,0,1,1,0,2.905Z" transform="translate(-94.377 -245.063)" fill="#5aa6ff"/>
        </g>
      </g>
      <g id="Grupo_1189842" data-name="Grupo 1189842" transform="translate(0 13.779)">
        <g id="Grupo_1189841" data-name="Grupo 1189841">
          <path id="Trazado_1089201" data-name="Trazado 1089201" d="M122,295.4H95.83a1.453,1.453,0,0,1,0-2.905H122a1.453,1.453,0,0,1,0,2.905Z" transform="translate(-94.377 -292.493)" fill="#5aa6ff"/>
        </g>
      </g>
      <g id="Grupo_1189844" data-name="Grupo 1189844" transform="translate(0 20.668)">
        <g id="Grupo_1189843" data-name="Grupo 1189843">
          <path id="Trazado_1089202" data-name="Trazado 1089202" d="M122,342.828H95.83a1.453,1.453,0,0,1,0-2.905H122a1.453,1.453,0,1,1,0,2.905Z" transform="translate(-94.377 -339.923)" fill="#5aa6ff"/>
        </g>
      </g>
    </g>
  </g>
</svg>
