<svg xmlns="http://www.w3.org/2000/svg" width="48.016" height="59.711" viewBox="0 0 48.016 59.711">
  <g id="Layer_2" data-name="Layer 2" transform="translate(-7.99 -2.148)">
    <path id="Trazado_1096015" data-name="Trazado 1096015" d="M46.933,50.312c.95-.426,2.194-2.087.837-2.775a1,1,0,0,0-1.312.528.938.938,0,0,1-.648.548l-11.561,3.1a3,3,0,1,0-.04.011l-11.572,3.1a.993.993,0,0,1-1.223-.7l-2.593-9.682a3.511,3.511,0,0,0,.733-6.066c2.41-1.794,1.566-4.816-1-6,2.821-2.171,1.143-5.444-1.862-6.369,3.778-3.02-1.356-6.252-4.494-6.3l-2.171-8.09a1,1,0,0,1,.7-1.223L33.91,4.182a.989.989,0,0,1,1.229.728l5.91,20.07a1,1,0,0,0,.959.717h2.86a1.007,1.007,0,0,0,.967-1.255,25.947,25.947,0,0,1-.376-9.681c.345-3.527-4.1-4.639-5.824-1.663l-2.57-8.725A3,3,0,0,0,33.39,2.251L10.2,8.463a3.006,3.006,0,0,0-2.112,3.674l2.145,7.993a3.989,3.989,0,0,0,1.351,7.525,3.989,3.989,0,0,0,1.386,5.467A4.008,4.008,0,0,0,14.519,39.4,3.511,3.511,0,0,0,16.8,44.625l2.679,10.005a2.989,2.989,0,0,0,3.675,2.123l4.875-1.305C29.29,58.6,30.047,60.974,30.055,61a1,1,0,0,0,.854.693c1.158.116,2.3.167,3.417.167a43.551,43.551,0,0,0,16.089-3.249,1.007,1.007,0,0,0,.3-1.619,15.533,15.533,0,0,1-3.784-6.68Zm-13.224-.524a1,1,0,1,1,.708-1.225,1,1,0,0,1-.708,1.225Zm8.062-36.119a.993.993,0,0,1,1.707.827,29.243,29.243,0,0,0,.138,9.2h-.858l-2.367-8.038a8.156,8.156,0,0,1,1.381-1.991ZM18.009,29.7c0,.966-1.761,2-3,2a2,2,0,0,1,0-4C16.248,27.7,18.009,28.731,18.009,29.7Zm-8-6a2,2,0,0,1,2-2c1.5,0,4,1.252,4,2,.021.755-2.607,2.019-4,2A2,2,0,0,1,10.009,23.7Zm6,10c1.239,0,3,1.034,3,2s-1.761,2-3,2a2,2,0,1,1,0-4Zm0,7.5a1.5,1.5,0,1,1,1.5,1.5,1.5,1.5,0,0,1-1.5-1.5ZM31.753,59.76c-.3-.894-.913-2.659-1.776-4.833l15.064-4.033a18.167,18.167,0,0,0,3.258,6.4A41.307,41.307,0,0,1,31.753,59.76Z" fill="#986f1c"/>
    <path id="Trazado_1096016" data-name="Trazado 1096016" d="M55.008,27.7H38.516L38,23.573a1,1,0,0,0-.992-.876h-3a1,1,0,1,0,0,2h2.117l1.891,15.124a1,1,0,0,0,.992.876h13a1,1,0,0,0,.965-.737l3-11a1.007,1.007,0,0,0-.965-1.263Zm-3.764,11H39.891l-1.125-9H53.7Z" fill="#986f1c"/>
    <path id="Trazado_1096017" data-name="Trazado 1096017" d="M38.008,43.7a3,3,0,1,0,3-3,3,3,0,0,0-3,3Zm3-1a1,1,0,1,1-1,1,1,1,0,0,1,1-1Z" fill="#986f1c"/>
    <path id="Trazado_1096018" data-name="Trazado 1096018" d="M48.008,43.7a3,3,0,1,0,3-3,3,3,0,0,0-3,3Zm3-1a1,1,0,1,1-1,1,1,1,0,0,1,1-1Z" fill="#986f1c"/>
    <path id="Trazado_1096019" data-name="Trazado 1096019" d="M33.008,29.7h-6a1,1,0,1,0,0,2h6a1,1,0,1,0,0-2Z" fill="#986f1c"/>
    <path id="Trazado_1096020" data-name="Trazado 1096020" d="M28.008,38.7a1,1,0,0,0,1,1h6a1,1,0,0,0,0-2h-6A1,1,0,0,0,28.008,38.7Z" fill="#986f1c"/>
    <path id="Trazado_1096021" data-name="Trazado 1096021" d="M34.008,33.7h-10a1,1,0,1,0,0,2h10a1,1,0,1,0,0-2Z" fill="#986f1c"/>
  </g>
</svg>
