<svg xmlns="http://www.w3.org/2000/svg" width="45.04" height="53.147" viewBox="0 0 45.04 53.147">
  <g id="bolsa-de-la-compra" transform="translate(0)">
    <g id="Grupo_1191540" data-name="Grupo 1191540" transform="translate(16.16)">
      <g id="Grupo_1191539" data-name="Grupo 1191539">
        <path id="Trazado_1095996" data-name="Trazado 1095996" d="M90.532,6.567A7.657,7.657,0,0,0,76.767,3.145a.9.9,0,1,0,1.454,1.062A5.856,5.856,0,0,1,88.749,6.821a.9.9,0,0,0,.891.774.965.965,0,0,0,.128-.009A.9.9,0,0,0,90.532,6.567Z" transform="translate(-76.593)" fill="#986f1c"/>
      </g>
    </g>
    <g id="Grupo_1191542" data-name="Grupo 1191542" transform="translate(1.801 11.71)">
      <g id="Grupo_1191541" data-name="Grupo 1191541">
        <path id="Trazado_1095997" data-name="Trazado 1095997" d="M63.493,49.313l-2.7-4.5a.9.9,0,0,0-.772-.437h-2.59a.9.9,0,1,0,0,1.8h2.08l1.621,2.7H24.677l1.621-2.7h.954a.9.9,0,1,0,0-1.8H25.788a.9.9,0,0,0-.772.437l-2.7,4.5a.9.9,0,0,0,.772,1.365H62.721a.9.9,0,0,0,.772-1.365Z" transform="translate(-22.185 -44.372)" fill="#986f1c"/>
      </g>
    </g>
    <g id="Grupo_1191544" data-name="Grupo 1191544" transform="translate(23.747 5.047)">
      <g id="Grupo_1191543" data-name="Grupo 1191543">
        <path id="Trazado_1095998" data-name="Trazado 1095998" d="M120.216,22.424a.9.9,0,0,0-.56-.4l-12.28-2.872a.9.9,0,0,0-1.082.672l-.926,3.959a.9.9,0,0,0,1.754.41l.721-3.081,10.525,2.462-1.654,7.071a.9.9,0,0,0,.672,1.082.911.911,0,0,0,.206.024.9.9,0,0,0,.876-.7l1.859-7.948A.9.9,0,0,0,120.216,22.424Z" transform="translate(-105.343 -19.126)" fill="#986f1c"/>
      </g>
    </g>
    <g id="Grupo_1191546" data-name="Grupo 1191546" transform="translate(5.314 2.738)">
      <g id="Grupo_1191545" data-name="Grupo 1191545" transform="translate(0)">
        <path id="Trazado_1095999" data-name="Trazado 1095999" d="M53.176,18.111l-.821-6.942a.9.9,0,0,0-1-.789L36.289,12.161a.9.9,0,0,0-.789,1l1.368,11.578a.9.9,0,0,0,.894.8.984.984,0,0,0,.107-.006.9.9,0,0,0,.789-1L37.4,13.843l13.277-1.569.715,6.047a.9.9,0,0,0,1.789-.211Z" transform="translate(-35.494 -10.374)" fill="#986f1c"/>
      </g>
    </g>
    <g id="Grupo_1191548" data-name="Grupo 1191548" transform="translate(12.044 8.648)">
      <g id="Grupo_1191547" data-name="Grupo 1191547">
        <path id="Trazado_1096000" data-name="Trazado 1096000" d="M79.073,40.894l-1.788-7.435a.9.9,0,0,0-1.087-.665l-14.511,3.49a.9.9,0,0,0-.665,1.086l.894,3.716a.9.9,0,1,0,1.752-.421l-.683-2.841,12.76-3.068,1.577,6.559a.9.9,0,0,0,1.752-.422Z" transform="translate(-60.997 -32.769)" fill="#986f1c"/>
      </g>
    </g>
    <g id="Grupo_1191550" data-name="Grupo 1191550" transform="translate(0 16.215)">
      <g id="Grupo_1191549" data-name="Grupo 1191549">
        <path id="Trazado_1096001" data-name="Trazado 1096001" d="M58.6,62.3a.9.9,0,0,0-.9-.855H18.061a.9.9,0,0,0-.9.855l-1.8,35.131a.9.9,0,0,0,.9.947H59.5a.9.9,0,0,0,.9-.947ZM17.207,96.572l1.709-33.329H56.84l1.709,33.329Z" transform="translate(-15.359 -61.441)" fill="#986f1c"/>
      </g>
    </g>
    <g id="Grupo_1191552" data-name="Grupo 1191552" transform="translate(26.573 19.817)">
      <g id="Grupo_1191551" data-name="Grupo 1191551">
        <path id="Trazado_1096002" data-name="Trazado 1096002" d="M118.754,75.093a2.7,2.7,0,1,0,2.7,2.7A2.705,2.705,0,0,0,118.754,75.093Zm0,3.6a.9.9,0,1,1,.9-.9A.9.9,0,0,1,118.754,78.7Z" transform="translate(-116.052 -75.093)" fill="#986f1c"/>
      </g>
    </g>
    <g id="Grupo_1191554" data-name="Grupo 1191554" transform="translate(13.061 19.817)">
      <g id="Grupo_1191553" data-name="Grupo 1191553">
        <path id="Trazado_1096003" data-name="Trazado 1096003" d="M67.554,75.093a2.7,2.7,0,1,0,2.7,2.7A2.705,2.705,0,0,0,67.554,75.093Zm0,3.6a.9.9,0,1,1,.9-.9A.9.9,0,0,1,67.554,78.7Z" transform="translate(-64.852 -75.093)" fill="#986f1c"/>
      </g>
    </g>
    <g id="Grupo_1191556" data-name="Grupo 1191556" transform="translate(14.863 22.52)">
      <g id="Grupo_1191555" data-name="Grupo 1191555">
        <path id="Trazado_1096004" data-name="Trazado 1096004" d="M86.092,85.333h-.069a.9.9,0,0,0-.9.9.891.891,0,0,0,.069.347v4.607a5.855,5.855,0,0,1-11.71,0V86.234a.9.9,0,1,0-1.8,0v4.954a7.657,7.657,0,0,0,15.313,0V86.234A.9.9,0,0,0,86.092,85.333Z" transform="translate(-71.679 -85.333)" fill="#986f1c"/>
      </g>
    </g>
  </g>
</svg>
