<svg xmlns="http://www.w3.org/2000/svg" width="58.674" height="47.443" viewBox="0 0 58.674 47.443">
  <g id="lista-de-la-compra" transform="translate(0 -0.5)">
    <path id="Trazado_1096022" data-name="Trazado 1096022" d="M94.859,239.97a.859.859,0,0,0,.859-.859v-8.251a.859.859,0,0,0-1.719,0v8.251A.859.859,0,0,0,94.859,239.97Zm0,0" transform="translate(-83.228 -203.2)" fill="#986f1c"/>
    <path id="Trazado_1096023" data-name="Trazado 1096023" d="M135.859,239.97a.859.859,0,0,0,.859-.859v-8.251a.859.859,0,0,0-1.719,0v8.251A.859.859,0,0,0,135.859,239.97Zm0,0" transform="translate(-119.529 -203.2)" fill="#986f1c"/>
    <path id="Trazado_1096024" data-name="Trazado 1096024" d="M175.859,239.97a.859.859,0,0,0,.859-.859v-8.251a.859.859,0,0,0-1.719,0v8.251A.859.859,0,0,0,175.859,239.97Zm0,0" transform="translate(-154.946 -203.2)" fill="#986f1c"/>
    <path id="Trazado_1096025" data-name="Trazado 1096025" d="M216.859,235.844a.859.859,0,0,0,.859-.859v-4.126a.859.859,0,0,0-1.719,0v4.126A.859.859,0,0,0,216.859,235.844Zm0,0" transform="translate(-191.247 -203.2)" fill="#986f1c"/>
    <path id="Trazado_1096026" data-name="Trazado 1096026" d="M56.1,7.605H54.376a.859.859,0,1,0,0,1.719H56.1a.86.86,0,0,1,.859.859V45.365a.86.86,0,0,1-.859.859H51.077a2.568,2.568,0,0,0,.148-.859V42.443a.859.859,0,0,0-1.719,0v2.922a.86.86,0,0,1-.859.859H21.285A2.748,2.748,0,0,0,19.6,42.581V40.724h1.579a4.284,4.284,0,0,0,2.913-1.138l8.219-7.58a4.309,4.309,0,0,0,1.384-3.159V25.54a2.008,2.008,0,0,0-2.005-2.005H15.47V3.078a.86.86,0,0,1,.859-.859H48.647a.86.86,0,0,1,.859.859V38.432a.859.859,0,1,0,1.719,0V3.078A2.581,2.581,0,0,0,48.647.5H16.33a2.581,2.581,0,0,0-2.578,2.578V23.534H7.678V18.893A2.581,2.581,0,0,0,5.1,16.314H2.578a2.578,2.578,0,0,0,0,5.157H5.959V38.718a2.007,2.007,0,0,0,1.834,2v1.866a2.75,2.75,0,1,0,3.472,3.472h4.861a2.755,2.755,0,0,0,2.612,1.891H56.1a2.581,2.581,0,0,0,2.578-2.578V10.184A2.581,2.581,0,0,0,56.1,7.605ZM17.877,42.581a2.762,2.762,0,0,0-1.753,1.753H11.264a2.762,2.762,0,0,0-1.753-1.753V40.724h8.366ZM1.719,18.893a.86.86,0,0,1,.859-.859H5.1a.86.86,0,0,1,.859.859v.859H2.578A.86.86,0,0,1,1.719,18.893ZM7.678,38.718V25.253H31.686a.287.287,0,0,1,.286.286v3.307a2.586,2.586,0,0,1-.83,1.9l-8.219,7.58A2.572,2.572,0,0,1,21.175,39H7.964a.287.287,0,0,1-.286-.286Zm.974,7.506a1.031,1.031,0,1,1,1.031-1.031A1.033,1.033,0,0,1,8.652,46.224Zm10.085-2.063a1.031,1.031,0,1,1-1.031,1.031A1.033,1.033,0,0,1,18.737,44.162Zm0,0" transform="translate(0)" fill="#986f1c"/>
    <path id="Trazado_1096027" data-name="Trazado 1096027" d="M344.188,119.505a2.008,2.008,0,0,0-2.005-2.005h-2.177A2.008,2.008,0,0,0,338,119.505v2.177a2.008,2.008,0,0,0,2.005,2.005h2.177a2.008,2.008,0,0,0,2.005-2.005Zm-1.719,2.177a.287.287,0,0,1-.287.286h-2.177a.287.287,0,0,1-.286-.286v-2.177a.287.287,0,0,1,.286-.286h2.177a.287.287,0,0,1,.287.286Zm0,0" transform="translate(-299.266 -103.592)" fill="#986f1c"/>
    <path id="Trazado_1096028" data-name="Trazado 1096028" d="M344.188,203.505a2.008,2.008,0,0,0-2.005-2.005h-2.177A2.008,2.008,0,0,0,338,203.505v2.177a2.008,2.008,0,0,0,2.005,2.005h2.177a2.008,2.008,0,0,0,2.005-2.005Zm-1.719,2.177a.287.287,0,0,1-.287.286h-2.177a.287.287,0,0,1-.286-.286v-2.177a.287.287,0,0,1,.286-.286h2.177a.287.287,0,0,1,.287.286Zm0,0" transform="translate(-299.266 -177.966)" fill="#986f1c"/>
    <path id="Trazado_1096029" data-name="Trazado 1096029" d="M342.183,285.5h-2.177A2.008,2.008,0,0,0,338,287.505v2.177a2.008,2.008,0,0,0,2.005,2.005h2.177a2.008,2.008,0,0,0,2.005-2.005v-2.177A2.008,2.008,0,0,0,342.183,285.5Zm.287,4.183a.287.287,0,0,1-.287.286h-2.177a.287.287,0,0,1-.286-.286v-2.177a.287.287,0,0,1,.286-.286h2.177a.287.287,0,0,1,.287.286Zm0,0" transform="translate(-299.266 -252.34)" fill="#986f1c"/>
    <path id="Trazado_1096030" data-name="Trazado 1096030" d="M190.028,122H175.359a.859.859,0,1,0,0,1.719h14.669a.859.859,0,0,0,0-1.719Zm0,0" transform="translate(-154.503 -107.576)" fill="#986f1c"/>
    <path id="Trazado_1096031" data-name="Trazado 1096031" d="M175.359,152a.859.859,0,1,0,0,1.719h4.622a.859.859,0,1,0,0-1.719Zm0,0" transform="translate(-154.503 -134.138)" fill="#986f1c"/>
    <path id="Trazado_1096032" data-name="Trazado 1096032" d="M245.691,152a.859.859,0,0,0,0,1.719h3.171a.859.859,0,1,0,0-1.719Zm0,0" transform="translate(-216.775 -134.138)" fill="#986f1c"/>
    <path id="Trazado_1096033" data-name="Trazado 1096033" d="M288.308,290H286.36a.859.859,0,1,0,0,1.719h1.948a.859.859,0,0,0,0-1.719Zm0,0" transform="translate(-252.783 -256.324)" fill="#986f1c"/>
    <path id="Trazado_1096034" data-name="Trazado 1096034" d="M266.173,320h-4.813a.859.859,0,1,0,0,1.719h4.813a.859.859,0,0,0,0-1.719Zm0,0" transform="translate(-230.647 -282.886)" fill="#986f1c"/>
  </g>
</svg>
