<svg xmlns="http://www.w3.org/2000/svg" xmlns:xlink="http://www.w3.org/1999/xlink" width="438.634" height="274.327" viewBox="0 0 438.634 274.327">
  <defs>
    <pattern id="pattern" width="1" height="1" viewBox="-27.692 -28.138 396.465 330.602">
      <image preserveAspectRatio="xMidYMid slice" width="341.08" height="274.327" xlink:href="Grupo%201191764-image.png"/>
    </pattern>
    <clipPath id="clip-path">
      <rect id="Rectángulo_457842" data-name="Rectángulo 457842" width="115.009" height="29.934" rx="14.967" transform="translate(1063.833 540)" fill="none" stroke="#707070" stroke-width="1"/>
    </clipPath>
    <clipPath id="clip-path-2">
      <rect id="Rectángulo_457841" data-name="Rectángulo 457841" width="116.821" height="116.821" fill="#5aa6ff"/>
    </clipPath>
  </defs>
  <g id="Grupo_1191764" data-name="Grupo 1191764" transform="translate(-302.871 -4662.831)">
    <rect id="_39905859_data_analytics_0001s_0000_Color-Balance" data-name="39905859_data_analytics_0001s_0000_Color-Balance" width="328.979" height="274.327" transform="translate(323.348 4662.831)" fill="url(#pattern)"/>
    <g id="Enmascarar_grupo_1119355" data-name="Enmascarar grupo 1119355" transform="translate(-437.337 4324.775)" clip-path="url(#clip-path)">
      <g id="Grupo_1189829" data-name="Grupo 1189829" transform="translate(1062.927 598.411) rotate(-90)">
        <path id="Trazado_1089190" data-name="Trazado 1089190" d="M0,0H116.82V116.82H0Z" transform="translate(0 0)" fill="#eef6ff"/>
        <g id="Grupo_1189828" data-name="Grupo 1189828">
          <g id="Grupo_1189827" data-name="Grupo 1189827" clip-path="url(#clip-path-2)">
            <path id="Trazado_1089191" data-name="Trazado 1089191" d="M72.953,2.48c-.548,1.48-1.081,2.967-1.571,4.466-.311.951-.531,1.931-.795,2.9-.033.121-.08.238-.121.356l-.11-.008c-.032-.513-.092-1.027-.092-1.54,0-2.322-.019-4.646.042-6.967q.022-.844.1-1.685H60.551c-.1.972-.163,1.947-.237,2.922-.025.328-.029.657-.038.986-.035,1.2-.054,2.4-.105,3.6-.049,1.148-.129,2.295-.2,3.442a1.272,1.272,0,0,1-.1.263c-.1-.3-.175-.51-.238-.724-.451-1.512-.871-3.034-1.357-4.534-.552-1.7-1.107-3.409-1.767-5.072-.118-.3-.252-.592-.393-.882H48.618c.257.957.514,1.915.739,2.88A10.005,10.005,0,0,1,49.5,4.15c.079.783.183,1.565.227,2.351.056.984.111,1.971.077,2.955-.041,1.179-.187,2.354-.265,3.533-.032.489-.005.982-.005,1.6-.363-.868-.687-1.639-1.008-2.41a55.09,55.09,0,0,1-1.8-5.427A13.123,13.123,0,0,0,46.27,5.5a8.1,8.1,0,0,1-.611-2.675c-.039-.719-.176-1.433-.244-2.151-.021-.222-.039-.446-.05-.67H24.419c-.074.518-.127,1.041-.206,1.559-.041.267-.128.526-.194.789L23.9,2.338c-.113-.594-.232-1.188-.338-1.783C23.527.369,23.489.184,23.449,0H13.682A.534.534,0,0,1,13.7.053c.173.852.318,1.71.516,2.556A62.27,62.27,0,0,1,15.372,9c.2,1.61.308,3.233.439,4.851.081,1,.163,2,.181,3a20.8,20.8,0,0,1-.12,2.31c-.05.535-.172,1.064-.269,1.594a1.09,1.09,0,0,1-.108.275.96.96,0,0,1-1.151.631,1.671,1.671,0,0,1-1.331-.9,9.665,9.665,0,0,1-.871-2.912,32.6,32.6,0,0,1-.319-4.961c.016-1.827-.01-3.656.048-5.481.03-.93.21-1.856.309-2.785A24.589,24.589,0,0,1,13.351,0H0V24.933c2.273-1.063,4.314-1.966,4.977-2.161.047.1.1.2.142.3a18.2,18.2,0,0,0,3.686,5.857,7.822,7.822,0,0,0,5.848,2.562,9.458,9.458,0,0,0,2.209-.163,6.889,6.889,0,0,0,4.059-2.706,12.185,12.185,0,0,0,1.383-2.5,18.613,18.613,0,0,0,1.257-3.629c.016-.078.048-.153.09-.287l17.8,5.492-.011.089c-.186.015-.371.037-.558.046-1.428.067-2.858.108-4.284.206-1.08.075-2.155.213-3.23.342-1.059.127-2.123.237-3.172.427a22.627,22.627,0,0,0-7.4,2.642A5.64,5.64,0,0,0,20.1,34.6,9.161,9.161,0,0,0,19.8,38.51,17.635,17.635,0,0,0,21.252,43.1a16.025,16.025,0,0,0,1.992,3.68A8.262,8.262,0,0,0,26.174,49.3a7.4,7.4,0,0,0,2.7.735c.933.073,1.87.113,2.807.132,1.051.022,2.1.005,3.155.005h.47c0,.024,0,.048,0,.072-.619.042-1.238.076-1.856.128a36.263,36.263,0,0,0-7.781,1.155,17.291,17.291,0,0,0-3.225,1.355,5.122,5.122,0,0,0-1.9,1.571c-.038-.646-.082-1.292-.114-1.939A33.027,33.027,0,0,0,19.4,45.264a25.85,25.85,0,0,0-3.9-8.1,25,25,0,0,0-2.226-2.891,16.006,16.006,0,0,0-6.743-4.144A24.875,24.875,0,0,0,.317,28.9C.212,28.9.106,28.893,0,28.887V41.063H.006a8.13,8.13,0,0,1,3.989,1.944,7.286,7.286,0,0,1,1,1.155,15.217,15.217,0,0,1,1.868,3.8A34.967,34.967,0,0,1,8.268,54.6c.32,2.391.568,4.793.82,7.192.159,1.518.293,3.039.392,4.562s.159,3.021.2,4.532c.053,2.007.076,4.015.1,6.022.013,1.021-.019,2.042.009,3.062.022.8.11,1.6.16,2.408s.062,1.61.135,2.41a13.723,13.723,0,0,0,1.067,4.637,10.073,10.073,0,0,0,2.527,3.434c.262.225.506.471.762.7A7.056,7.056,0,0,0,16.109,94.7c.725.353,1.435.735,2.158,1.092a6.576,6.576,0,0,0,.681.251l.042-.1-1.328-.631.023-.066c.38.07.757.152,1.139.209a9.607,9.607,0,0,0,4.43-.384,13.441,13.441,0,0,0,3.132-1.436,5.91,5.91,0,0,1,.8-.388,10.82,10.82,0,0,0,3.38-2.528c.443-.462.839-.97,1.245-1.467a10.221,10.221,0,0,0,1.329-2.244,6.151,6.151,0,0,1,.625-1.116,1.967,1.967,0,0,1,2.961-.137.911.911,0,0,1,.212.329c.273.6.551,1.2.8,1.8.576,1.382,1.094,2.789,1.718,4.148a10.933,10.933,0,0,0,2.354,3.389A9.11,9.11,0,0,0,44.2,97.151a6.494,6.494,0,0,0,1.979.581,1.534,1.534,0,0,1,.265.083h2.175c.04-.025.078-.068.12-.072a6.838,6.838,0,0,0,5.127-3.218,22.537,22.537,0,0,0,1.72-3.163c.55-1.176,1.133-2.338,1.721-3.5A3.2,3.2,0,0,1,58.7,86.433a2.13,2.13,0,0,1,.741-.245.965.965,0,0,1,.944.518,15.712,15.712,0,0,1,.776,1.484c.517,1.138.983,2.3,1.519,3.429a15.312,15.312,0,0,0,1.578,2.618A6.267,6.267,0,0,0,68.119,96.7a12.513,12.513,0,0,0,3.032.332,7.92,7.92,0,0,0,5.208-2.065,14.357,14.357,0,0,0,3.093-4.186c.661-1.306,1.365-2.591,2.078-3.87a6.989,6.989,0,0,1,2.87-2.778,3.236,3.236,0,0,1,3.78.557,27.761,27.761,0,0,1,2.835,3.285A19.5,19.5,0,0,0,97.566,93.5a10.155,10.155,0,0,0,2.627.981c.321.066.65.09.97.16.48.105.961.213,1.429.358a.814.814,0,0,0,1.1-.414,21.213,21.213,0,0,0,1.376-3.162c.634-1.57,1.25-3.149,1.876-4.722a.818.818,0,0,1,.107-.154v-.3a8.924,8.924,0,0,1-4.593-1.461,18.673,18.673,0,0,1-3.77-2.772c-1.492-1.351-2.813-2.862-4.167-4.345a22.772,22.772,0,0,0-4.12-3.524c-.86-.579-1.726-1.149-2.588-1.725-.022-.014-.026-.054-.056-.121.618.084,1.214.169,1.812.245,1.531.193,3.061.4,4.594.566,1.321.145,2.646.253,3.971.358a4.318,4.318,0,0,0,.93-.061.344.344,0,0,0,.319-.454c-.2-1.181-.338-2.373-.583-3.543-.381-1.817-.828-3.621-1.252-5.429a3.278,3.278,0,0,0-.193-.557,1.272,1.272,0,0,0-.91-.733,65.336,65.336,0,0,0-7.975-1.574,40.467,40.467,0,0,0-4.455-.465,1.953,1.953,0,0,1-.28-.076c.276-.162.466-.278.66-.385a22.961,22.961,0,0,0,4.036-2.657c.807-.7,1.571-1.454,2.313-2.225.947-.984,1.862-2,2.773-3.017a7.262,7.262,0,0,0,1.45-2.506,13.311,13.311,0,0,0,.766-2.7A6.14,6.14,0,0,0,92.154,40.2a11.677,11.677,0,0,0-3.913-.925c-1.244-.094-2.492-.129-3.738-.207a20.6,20.6,0,0,1-2.147-.248c.23-.072.457-.159.691-.215a9.656,9.656,0,0,0,4.224-2.451,10.6,10.6,0,0,0,3.046-5.806,22.55,22.55,0,0,0,.5-6.519,23.883,23.883,0,0,0-.585-3.7c-.817-3.574-1.617-7.151-2.468-10.716-.439-1.838-.981-3.652-1.462-5.48a9.941,9.941,0,0,1-.285-1.448,1.28,1.28,0,0,1,.163-.7Q86.661.906,87.069,0H73.888q-.476,1.236-.934,2.48M4.194,14.013a2.787,2.787,0,0,1-.232-1.274c-.063-1.659-.1-3.32-.1-4.98,0-.785.116-1.57.167-2.356.039-.606.05-1.215.09-1.821.024-.369.081-.737.123-1.1l.1.009C4.277,4.4,4.176,6.321,4.157,8.239s.043,3.847.037,5.774M32.916,72.534a9.279,9.279,0,0,0-4.234,3.643c-.422.667-.837,1.34-1.265,2a11.384,11.384,0,0,1-2.395,2.6,2.062,2.062,0,0,1-2.578-.114,4.545,4.545,0,0,1-1.192-1.844,15.029,15.029,0,0,1-.68-2.973c-.232-1.607-.466-3.216-.609-4.833-.106-1.193-.091-2.4-.089-3.6,0-1.068.036-2.136.1-3.2.1-1.769.235-3.536.354-5.3a12.337,12.337,0,0,1,.162-1.518c.343.723.683,1.446,1.028,2.168.859,1.794,1.68,3.608,2.593,5.374a19.441,19.441,0,0,0,1.97,3.185,12.8,12.8,0,0,0,3.541,3.033,5.1,5.1,0,0,0,1.834.542c.79.13,1.582.248,2.373.371l.025.067c-.312.132-.626.263-.937.4M50.4,21.512l.089-.019.241.782q.613,2,1.226,4c.139.455.275.911.416,1.365.061.194.011.348-.193.37-.471.053-.945.089-1.418.1-.079,0-.164-.158-.239-.248-.017-.02-.005-.064-.006-.1q-.066-3.029-.131-6.057a1.929,1.929,0,0,1,.015-.194M40.573,15.6c-.532-.169-1.07-.321-1.6-.5-1.289-.445-2.571-.914-3.863-1.351-.543-.184-1.107-.307-1.659-.468-.3-.087-.589-.2-.933-.313L34.849,1.538l.1.011c.025.2.055.406.075.61A17.942,17.942,0,0,0,36.289,6.45a28.414,28.414,0,0,0,2.266,4.378c.755,1.312,1.578,2.585,2.383,3.867.26.413.56.8.841,1.2l-.05.081c-.385-.127-.769-.256-1.156-.379M31.684,41.887a3.868,3.868,0,0,1-1.267-.045c-.4-.061-.539-.283-.563-.694A1.725,1.725,0,0,1,31.2,39.276a14.778,14.778,0,0,1,2.377-.392c1.538-.135,3.08-.216,4.621-.307,1.279-.075,2.56-.123,3.839-.2.589-.037,1.174-.134,1.763-.176.384-.027.77-.005,1.156-.005l.014.082c-.129.051-.256.112-.389.153-1.321.4-2.642.8-3.967,1.194-1.593.468-3.182.958-4.789,1.372-1.367.352-2.754.632-4.142.894m25,27.517a6.274,6.274,0,0,0-2.2,2.672c-.393.869-.767,1.747-1.139,2.625a22.953,22.953,0,0,1-2,3.792,7,7,0,0,1-1.6,1.737,2.052,2.052,0,0,1-2.93-.217,6.018,6.018,0,0,1-1.1-1.443,22.412,22.412,0,0,0-2.3-3.439A18.239,18.239,0,0,0,40.5,72.2c-.075-.064-.151-.127-.222-.2a.514.514,0,0,1-.057-.122,102,102,0,0,1,16.718-2.607,2.309,2.309,0,0,0-.256.132m5.823-9.858c-.361.018-.723,0-1.084.013-1.035.033-2.07.1-3.106.1-1.268,0-2.524.132-3.783.257-1,.1-2,.141-2.995.25-1.277.139-2.56.126-3.839.2a57.158,57.158,0,0,1-5.971.038c-1.045-.046-2.083-.254-3.123-.4-.665-.093-1.326-.2-1.989-.306l.02-.022c1.018.028,2.036.071,3.054.08.988.009,1.977,0,2.964-.033,1.495-.05,2.991-.1,4.482-.2,1.916-.134,3.83-.295,5.74-.495,1.665-.174,3.321-.427,4.983-.628,1.076-.13,2.154-.235,3.233-.339,1.162-.111,2.324-.189,3.495-.184a17.472,17.472,0,0,1,5.619.913,11.742,11.742,0,0,1,1.7.889c.034.018.045.078.084.151-1.1-.171-2.164-.368-3.237-.492a17.335,17.335,0,0,0-2.018-.055c-.343,0-.686.062-1.03.082-1.066.064-2.131.125-3.2.177M79.2,72.487a6.674,6.674,0,0,0-2.715,2.446c-.3.531-.557,1.083-.82,1.632-.44.92-.859,1.85-1.3,2.768a3.445,3.445,0,0,1-1.027,1.307,1.058,1.058,0,0,1-1.632-.194,5.594,5.594,0,0,1-.864-1.653,40.556,40.556,0,0,0-2.609-5.638c-.733-1.228-1.544-2.409-2.321-3.61-.051-.079-.1-.156-.217-.327a53.53,53.53,0,0,1,14.874,2.546c-.5.266-.942.483-1.365.724M83.74,49.046a3.059,3.059,0,0,1,.881.617,1.006,1.006,0,0,1-.277,1.621.636.636,0,0,1-.377.038c-.482-.1-.963-.206-1.437-.335-2.362-.644-4.713-1.33-7.085-1.933-1.447-.368-2.927-.6-4.388-.919-2.006-.436-4-.924-6.013-1.336-1.526-.313-3.07-.538-4.6-.817-.259-.047-.563-.017-.8-.345.146-.019.224-.038.3-.039a31.518,31.518,0,0,1,3.888.179c.7.081,1.41.076,2.114.132,2.061.163,4.122.326,6.181.51a44.694,44.694,0,0,1,8.91,1.571,25.246,25.246,0,0,1,2.708,1.056M77.921,28c.216-1.822.469-3.64.731-5.456.149-1.038.314-2.075.523-3.1.176-.868.424-1.721.647-2.578a.658.658,0,0,1,.424-.558c.141.8.315,1.531.393,2.276.114,1.092.168,2.19.231,3.287.047.8.084,1.607.1,2.41a10.867,10.867,0,0,1-.41,3.407,8.58,8.58,0,0,0-.193.915,1.954,1.954,0,0,1-1.043,1.363.827.827,0,0,1-1.311-.594A4.544,4.544,0,0,1,77.921,28m-1.33,10.061a.779.779,0,0,1,.1.123c-.117,0-.2.007-.281,0-.929-.1-1.858-.2-2.788-.292-1.339-.126-2.68-.238-4.02-.355-.1-.009-.2-.009-.3-.01-1.68-.011-3.359-.014-5.038-.035q-2.542-.033-5.083-.1c-1.067-.027-2.133-.079-3.29-.124a1.534,1.534,0,0,1,.319-.132c2.38-.267,4.76-.537,7.142-.788.9-.094,1.8-.12,2.7-.211.861-.087,1.717-.218,2.615-.335.243-5.342.483-10.621.722-15.9l.067.011c.172,1.1.317,2.209.521,3.305.406,2.179.806,4.361,1.279,6.526a18.1,18.1,0,0,0,2.316,5.474,7.077,7.077,0,0,0,2.639,2.605c.129.072.252.156.375.237" fill="#5aa6ff"/>
            <path id="Trazado_1089192" data-name="Trazado 1089192" d="M2.78,26.27a6.058,6.058,0,0,0,4.778-4.307,7.377,7.377,0,0,0,.243-1.5,12.9,12.9,0,0,0-.559-4.421,29.879,29.879,0,0,0-2.061-5.8c-.709-1.483-1.3-3.024-2.068-4.477Q1.589,2.859,0,0V26.54a12.7,12.7,0,0,0,2.78-.27" transform="translate(0 67.64)" fill="#5aa6ff"/>
            <path id="Trazado_1089193" data-name="Trazado 1089193" d="M30.561,28.827c-1.464.01-2.928.056-4.392.1-.376.01-.751.054-1.158.086A79.166,79.166,0,0,1,33,24.933V0H28.448c-.007.337-.017.674-.033,1.012-.018.405-.064.809-.1,1.214l-.1.041c-.176-.253-.366-.5-.524-.761A14.208,14.208,0,0,0,26.632,0H.637A9.719,9.719,0,0,0,.1,2.229a10.034,10.034,0,0,0,.5,4.96,16.284,16.284,0,0,0,1.694,3.6,19.407,19.407,0,0,0,2.857,3.261c.528.47,1.056.942,1.607,1.384a11.243,11.243,0,0,0,4.916,2.18,18.69,18.69,0,0,0,3.417.443,17.894,17.894,0,0,1,2.246.28,23.066,23.066,0,0,0,3.443.2h.456c-.176.1-.264.156-.353.207-1.335.755-2.763,1.309-4.157,1.939-1.274.575-2.529,1.195-3.784,1.814-.9.444-1.784.918-2.673,1.384-.431.226-.45.43-.168.812.4.542.787,1.095,1.141,1.667.857,1.385,1.692,2.783,2.535,4.176.145.24.3.474.427.722.162.311.113.406-.194.587a19.494,19.494,0,0,0-2.1,1.279,8.379,8.379,0,0,0-2.825,3.848,13.639,13.639,0,0,0-.8,5.331A21.108,21.108,0,0,0,8.889,46,36.793,36.793,0,0,0,11,51.936a35.07,35.07,0,0,0,3.976,6.691c2.618,3.674,5.28,7.316,7.868,11.011,1.511,2.157,2.939,4.373,4.355,6.594a11.882,11.882,0,0,1,1.759,4.212,6.578,6.578,0,0,1,.069,1.425,1.315,1.315,0,0,1-.806,1.106,4.3,4.3,0,0,1-3.112.367,10.272,10.272,0,0,1-1.668-.594c-1.524-.661-3.031-1.36-4.556-2.019-1.038-.449-2.094-.856-3.157-1.288a1.269,1.269,0,0,0-.145.238A7.375,7.375,0,0,1,14.63,81.5a32.077,32.077,0,0,0-2.512,4.974c-.247.59-.513,1.171-.765,1.746.214.314.532.315.808.384,1.755.44,3.514.861,5.268,1.305a61.857,61.857,0,0,1,5.914,1.915,53.8,53.8,0,0,0,7.2,2.077A12.649,12.649,0,0,0,33,94.18V67.64C30.978,64,28.861,60.4,26.613,56.883c-1.266-1.982-2.4-4.049-3.581-6.084-.546-.939-1.083-1.884-1.589-2.844A7.628,7.628,0,0,1,20.7,45.87,5.083,5.083,0,0,1,21,42.921a2.4,2.4,0,0,1,1.2-1.2,9.116,9.116,0,0,1,2.667-.855,19.476,19.476,0,0,1,3.342-.229,21.664,21.664,0,0,1,4.8.423V28.887c-.814-.044-1.63-.066-2.444-.06M24.036,11.259a34.221,34.221,0,0,1-7.925-3.829,44.569,44.569,0,0,1-3.655-3,22.093,22.093,0,0,1-1.534-1.6,1.513,1.513,0,0,1-.2-.277.61.61,0,0,1,.351-.947,1.466,1.466,0,0,1,.483-.074A9.581,9.581,0,0,1,16.56,2.964a20.631,20.631,0,0,1,5.195,4.348c.8,1,1.656,1.955,2.485,2.933a4.4,4.4,0,0,1,.419.547,5.942,5.942,0,0,1,.293.674,7.986,7.986,0,0,1-.916-.207" transform="translate(83.815)" fill="#5aa6ff"/>
            <path id="Trazado_1089194" data-name="Trazado 1089194" d="M13.351,25.074v0a1.584,1.584,0,0,1,.208-.3c.056.146.1.231.123.308H23.45a19.773,19.773,0,0,0-2.144-5.412c-.408-.732-.825-1.461-1.27-2.171a5.378,5.378,0,0,0-.82-1.039,1.749,1.749,0,0,1-.244-2.444,8.451,8.451,0,0,1,1.377-1.6,18.637,18.637,0,0,1,5.864-3.479c.354-.128.727-.2,1.087-.312.448-.139.588-.028.5.42-.092.467-.182.935-.29,1.4-.483,2.079-.995,4.152-1.45,6.237-.294,1.346-.494,2.712-.76,4.064-.247,1.255-.544,2.5-.784,3.758-.037.193-.068.387-.1.582H45.364c-.013-.253-.019-.506-.011-.757a1.643,1.643,0,0,1,.9-1.392.973.973,0,0,1,1.33.237,4.058,4.058,0,0,1,.979,1.693l.059.22h7.494c-.363-.743-.782-1.462-1.174-2.19-.335-.622-.7-1.227-1.08-1.823a9.988,9.988,0,0,0-3.043-3.12c-.159-.1-.3-.227-.457-.342l.044-.087,11.009,1.656c-.125.713-.257,1.37-.353,2.031-.174,1.2-.347,2.4-.48,3.608-.01.089-.017.177-.026.266H70.41a25.365,25.365,0,0,1,.4-2.665c.267-1.3.529-2.61.87-3.9a6.6,6.6,0,0,1,2.88-3.872,3.882,3.882,0,0,1,.945-.419,1.3,1.3,0,0,1,1.5,1,6.087,6.087,0,0,1-.46,3.565c-.569,1.33-1.192,2.638-1.74,3.977q-.469,1.148-.913,2.306H87.07a38.134,38.134,0,0,0,2.524-8.061,11.839,11.839,0,0,0,.028-4.751,7,7,0,0,0-1.585-3.14,9.53,9.53,0,0,0-3.257-2.432,30.337,30.337,0,0,0-5.1-1.985,13.723,13.723,0,0,0-9.9,1.179,13.1,13.1,0,0,0-2.14,1.662,20.385,20.385,0,0,0-4.793,6.28c-.044.088-.087.177-.138.262-.014.024-.054.032-.1.061.206-1.791.411-3.567.622-5.4-.338-.095-.677-.219-1.027-.284A51.46,51.46,0,0,1,56.324,6.8c-1.307-.407-2.651-.636-3.982-.932C49.358,5.206,46.383,4.5,43.4,3.814c-3.3-.757-6.614-1.448-9.955-2.007-.583-.1-1.172-.159-1.757-.243a.658.658,0,0,0-.742.416,50.08,50.08,0,0,0-2.33,4.682,1.892,1.892,0,0,1-.139.219,1.933,1.933,0,0,1-.106-.346,7.564,7.564,0,0,0-.488-2.1c-.345-.888-.594-1.813-.928-2.705a13.533,13.533,0,0,0-.663-1.32.709.709,0,0,0-.777-.4A4.709,4.709,0,0,0,24.6.159c-1.3.419-2.591.857-3.882,1.3-.436.149-.865.316-1.292.489A20.4,20.4,0,0,0,13.06,6.113a32.083,32.083,0,0,0-3.718,4.145A23.2,23.2,0,0,0,6.617,15c-.474,1.1-.943,2.209-1.374,3.328-.278.72-.484,1.467-.725,2.2-.061.185-.133.367-.232.638a1.772,1.772,0,0,1-.173-.337c-.143-.657-.269-1.318-.413-1.974-.214-.979-.451-1.952-.656-2.933-.245-1.174-.467-2.352-.7-3.528a4.741,4.741,0,0,0-.114-.479C1.86,10.721,1.512,9.52,1.1,8.339A20.671,20.671,0,0,0,.275,6.444Q.135,6.139,0,5.83V25.074Zm23.744-9.628,4.939,1.1.033.1a10.768,10.768,0,0,0-6.031,4.15l1.059-5.351" transform="translate(0 91.747)" fill="#5aa6ff"/>
            <path id="Trazado_1089195" data-name="Trazado 1089195" d="M24.6,23.131a10.722,10.722,0,0,0-2.374-1.918,26.308,26.308,0,0,0-2.869-1.631c-.932-.441-1.93-.742-2.9-1.1-.308-.113-.626-.2-.939-.3a13.125,13.125,0,0,0-2.455-.513,4.714,4.714,0,0,1-.552-.136l-.019-.114a4.462,4.462,0,0,1,.49-.248c1.637-.6,3.273-1.2,4.916-1.773.7-.244,1.414-.431,2.12-.652,1.662-.521,3.321-1.05,4.984-1.565a4.267,4.267,0,0,1,.676-.092c.18.377.371.737.528,1.111A18.909,18.909,0,0,1,27.5,19a36.378,36.378,0,0,1,.311,5.777h4.557V5.529A42.3,42.3,0,0,0,30.353,1.17,5.3,5.3,0,0,0,29.423.1a.756.756,0,0,0-.5-.1,8.1,8.1,0,0,0-2.149.518,61.455,61.455,0,0,0-5.9,2.249c-1.4.618-2.75,1.339-4.121,2.018q-1.546.766-3.087,1.541c-.4.2-.784.416-1.181.616q-2.155,1.09-4.313,2.174-.924.467-1.843.942a1.222,1.222,0,0,0-.167.13c1.1,2.335,2.29,4.618,3.4,7.006-.3.113-.535.208-.777.292-.775.271-1.564.508-2.326.814a11.128,11.128,0,0,0-3.508,2.172A11.269,11.269,0,0,0,0,24.772H26c-.446-.562-.921-1.1-1.392-1.641" transform="translate(84.453 92.048)" fill="#5aa6ff"/>
          </g>
        </g>
      </g>
    </g>
    <g id="Grupo_1189825" data-name="Grupo 1189825" transform="translate(-334.023 415.727)">
      <path id="Trazado_1085591" data-name="Trazado 1085591" d="M349.325,75.924A20.629,20.629,0,1,1,328.7,96.553a20.629,20.629,0,0,1,20.63-20.629" transform="translate(627.047 4231.043)" fill="#feba30"/>
      <g id="_x31_80" transform="translate(956.613 4308.106)">
        <path id="Trazado_1088388" data-name="Trazado 1088388" d="M12.132,15.523l-.025.013A12.063,12.063,0,0,0,10,16.861a11.881,11.881,0,0,0-3.1,3.81,11.765,11.765,0,0,0-1.039,2.679A11.979,11.979,0,0,0,9.632,35.257a12.227,12.227,0,0,0,12.46,1.809,12.043,12.043,0,0,0,7.36-10.039,2.4,2.4,0,0,0-.555-1.591.326.326,0,0,0-.325-.315H18.738c.117-.253.213-.544.283-.72,1.152-2.886,2.171-5.747,3.174-8.688-.21-.28-.315-.5-.471-.683a.321.321,0,0,0-.191-.2,11.3,11.3,0,0,0-3.976-.72,11.087,11.087,0,0,0-5.425,1.417Zm5.257,9.443a.6.6,0,0,0,.562.81H28.239A10.692,10.692,0,0,1,11.3,34.084a10.573,10.573,0,0,1-4.21-10.259A10.885,10.885,0,0,1,8.115,20.65,10.552,10.552,0,0,1,21,15.329Z" transform="translate(0 -5.624)" fill="#986f1c"/>
        <path id="Trazado_1088389" data-name="Trazado 1088389" d="M53.2,22.288a1.269,1.269,0,0,0,.635-.869.854.854,0,0,0,.046-.344,10.576,10.576,0,0,0-2.033-5.4,10.085,10.085,0,0,0-4.508-3.449.8.8,0,0,0-.638.022.838.838,0,0,0-.438.492L43.379,21.4a.586.586,0,0,0,0,.346l-.006.087a.93.93,0,0,0,.643.714,2.776,2.776,0,0,0,1.007.1l4.561-.106,2.5-.058a2.529,2.529,0,0,0,1.124-.2Zm-6.315-9.336a.181.181,0,0,1,.094-.106.162.162,0,0,1,.068-.016.15.15,0,0,1,.054.01,9.442,9.442,0,0,1,4.22,3.228,9.911,9.911,0,0,1,1.907,5.056.189.189,0,0,1-.048.143.164.164,0,0,1-.121.055l-9.033.2Z" transform="translate(-21.317 -4.536)" fill="#986f1c"/>
        <path id="Trazado_1088390" data-name="Trazado 1088390" d="M40.119,9.87a.328.328,0,0,0,.3-.463,5.264,5.264,0,0,0-1.152-1.621.327.327,0,1,0-.451.474,4.6,4.6,0,0,1,1.007,1.417.327.327,0,0,0,.3.192Z" transform="translate(-18.703 -2.012)" fill="#986f1c"/>
        <path id="Trazado_1088391" data-name="Trazado 1088391" d="M44.266,6.9h.019a.327.327,0,0,0,.308-.346l-.124-2.119a.323.323,0,0,0-.346-.308.327.327,0,0,0-.308.346l.124,2.119A.327.327,0,0,0,44.266,6.9Z" transform="translate(-21.578)" fill="#986f1c"/>
        <path id="Trazado_1088392" data-name="Trazado 1088392" d="M48.654,8.13a.328.328,0,0,0,.284-.164A9.413,9.413,0,0,1,49.981,6.5a.327.327,0,1,0-.495-.429,10.119,10.119,0,0,0-1.116,1.57.327.327,0,0,0,.284.491Z" transform="translate(-24.12 -1.032)" fill="#986f1c"/>
      </g>
    </g>
    <g id="Grupo_1189826" data-name="Grupo 1189826" transform="translate(-590.129 409.039)">
      <path id="Trazado_1085574" data-name="Trazado 1085574" d="M363.261,75.924A34.565,34.565,0,1,1,328.7,110.489a34.564,34.564,0,0,1,34.566-34.565" transform="translate(564.305 4292.946)" fill="#c2d723"/>
      <g id="_x37_2" transform="translate(899.606 4373.967)">
        <path id="Trazado_1088393" data-name="Trazado 1088393" d="M49.759,11.185a.613.613,0,0,0-.583-.423h0l-9.369.06-.165-3.843a.612.612,0,0,0-.611-.587H39c-6.9.271-13.828-.036-20.769.239a.613.613,0,0,0-.587.563c-.089,1.129-.155,2.457-.217,3.772l-10.043.06a.612.612,0,0,0-.58.428c-1.2,3.787-2.94,7.413-2.97,10.573a4.918,4.918,0,0,0,2.43,3.581c.087,7.417.3,16.974.282,23.115a.613.613,0,0,0,.613.614h0l.677,0c-.005.012,0-.012,0,0,4.285,3.366,22.24.378,42.931,2.178a8.8,8.8,0,0,1-.982-2.339.608.608,0,0,0,.59-.654c-.44-5.878-.474-15.044-.449-22.525a4.343,4.343,0,0,0,3.2-4.005c.12-3.765-2.429-7.909-3.373-10.806ZM18.828,7.837c6.442-.226,13.1.028,19.611-.2l.322,7.518-20.325-.012c.155-2.272.238-5.1.391-7.31ZM5.3,22.646l5.208-.007a2.653,2.653,0,0,1-5.208.007ZM18.288,48.072l-6,.022c-.147-4.756-.2-9.58-.172-14.355,2.134.081,4.255-.094,6.341-.013-.22,5.112-.384,10.041-.167,14.346Zm1.227,0c-.228-4.434-.042-9.574.19-14.894a.613.613,0,0,0-.571-.638c-2.536-.169-5.109.112-7.587-.053a.613.613,0,0,0-.654.606c-.043,4.989.014,10.037.166,15.011l-3.284.012C7.78,42.065,7.589,33.547,7.5,26a3.929,3.929,0,0,0,3.771-2.047,5.115,5.115,0,0,0,8.991-.152,5.092,5.092,0,0,0,8.967.061,4.825,4.825,0,0,0,8.508-.025,4.68,4.68,0,0,0,8.174.042,4.04,4.04,0,0,0,2.8,2.157c-.024,7.224.007,16.005.406,21.922ZM11.964,22.638l7.512-.01C17.9,26.26,13.506,26.184,11.964,22.638Zm9.075-.012,7.444-.01C26.976,26.115,22.614,26.251,21.04,22.625Zm8.935-.012,7-.009C35.578,25.987,31.4,26.06,29.975,22.614Zm8.511-.011,6.708-.009A3.537,3.537,0,0,1,38.486,22.6Zm8.238-.011,5.047-.007C51.118,25.435,47.494,25.732,46.724,22.591ZM5.093,21.421c.226-2.662,1.651-5.835,2.745-9.17l9.534-.058c-.058,1.234-.121,2.468-.2,3.517a.614.614,0,0,0,.611.662l21.606.012c.538,0,.715-.559.611-1.089l-.139-3.248,8.884-.057c.983,2.74,3.006,6.241,3.16,9.368Z" transform="translate(0)" fill="#9bac1c"/>
        <path id="Trazado_1088394" data-name="Trazado 1088394" d="M15.8,47.774a.613.613,0,0,0-.613.613v.133a.613.613,0,0,0,1.226,0v-.133a.613.613,0,0,0-.613-.613Z" transform="translate(-2.074 -7.564)" fill="#9bac1c"/>
        <path id="Trazado_1088395" data-name="Trazado 1088395" d="M46.867,34.567H32.3a.613.613,0,0,0-.613.613V46.239a.613.613,0,0,0,.613.613H46.87a.613.613,0,0,0,.613-.613l0-11.059a.613.613,0,0,0-.613-.613ZM32.913,45.626V35.793H46.254l0,9.834Z" transform="translate(-5.091 -5.15)" fill="#9bac1c"/>
      </g>
    </g>
  </g>
</svg>
