<svg xmlns="http://www.w3.org/2000/svg" width="59.87" height="57" viewBox="0 0 59.87 57">
  <g id="factura" transform="translate(0 0)">
    <path id="Trazado_1096008" data-name="Trazado 1096008" d="M349.815,43.259c.026,0,.052,0,.079,0a.97.97,0,0,0,.134-.01,2.168,2.168,0,0,1,2.124,2.164.97.97,0,0,0,1.94,0,4.113,4.113,0,0,0-3.228-4.011v-.932a.97.97,0,0,0-1.94,0v.976a4.107,4.107,0,0,0,1.061,8.074,2.167,2.167,0,1,1-2.167,2.167.97.97,0,1,0-1.94,0,4.114,4.114,0,0,0,3.046,3.967v1.063a.97.97,0,0,0,1.94,0V55.7a4.106,4.106,0,0,0-.879-8.118,2.166,2.166,0,0,1-.17-4.326Zm0,0" transform="translate(-303.941 -34.761)" fill="#986f1c"/>
    <path id="Trazado_1096009" data-name="Trazado 1096009" d="M46.1.39A13.917,13.917,0,0,0,33.132,9.5H9.057a1.014,1.014,0,0,0-.97,1.014L7.858,44.538H1a.954.954,0,0,0-1,.925v4.318a7.619,7.619,0,0,0,7.275,7.588v.021H37.223v-.028c.242.009.342.028.5.028h.021a7.619,7.619,0,0,0,7.607-7.619V27.94c.242.013.5.02.75.02A13.785,13.785,0,0,0,46.1.39ZM7.644,55.45H7.637a5.705,5.705,0,0,1-5.7-5.68V46.478H30.069v3.279a7.609,7.609,0,0,0,2.246,5.392c.1.1.228.18.335.3Zm35.763-5.68a5.679,5.679,0,0,1-5.668,5.68H37.72a5.721,5.721,0,0,1-5.711-5.692v-4.3a.9.9,0,0,0-.926-.925H9.8l.223-33.1H32.593a14.574,14.574,0,0,0-.266,2.694A13.678,13.678,0,0,0,33.5,19.682H24.336a.97.97,0,0,0,0,1.94H34.55A13.688,13.688,0,0,0,43.406,27.7ZM46.1,26.02A11.832,11.832,0,1,1,57.93,14.189,11.831,11.831,0,0,1,46.1,26.02Zm0,0" transform="translate(0 -0.39)" fill="#986f1c"/>
    <path id="Trazado_1096010" data-name="Trazado 1096010" d="M126.866,212.746a3.008,3.008,0,1,0,3.105,3.006A3.06,3.06,0,0,0,126.866,212.746Zm0,4.072a1.07,1.07,0,1,1,1.165-1.066A1.12,1.12,0,0,1,126.866,216.818Zm0,0" transform="translate(-108.756 -186.998)" fill="#986f1c"/>
    <path id="Trazado_1096011" data-name="Trazado 1096011" d="M192.719,230.474a.97.97,0,0,0,.97.97h12.932a.97.97,0,0,0,0-1.94H193.689A.97.97,0,0,0,192.719,230.474Zm0,0" transform="translate(-169.352 -201.724)" fill="#986f1c"/>
    <path id="Trazado_1096012" data-name="Trazado 1096012" d="M126.866,143.2a3.008,3.008,0,1,0,3.105,3.007A3.06,3.06,0,0,0,126.866,143.2Zm0,4.073a1.071,1.071,0,1,1,1.165-1.066,1.12,1.12,0,0,1-1.165,1.066Zm0,0" transform="translate(-108.756 -125.887)" fill="#986f1c"/>
    <path id="Trazado_1096013" data-name="Trazado 1096013" d="M126.866,282.281a3.008,3.008,0,1,0,3.105,3.006A3.06,3.06,0,0,0,126.866,282.281Zm0,4.072a1.07,1.07,0,1,1,1.165-1.066A1.119,1.119,0,0,1,126.866,286.353Zm0,0" transform="translate(-108.756 -248.102)" fill="#986f1c"/>
    <path id="Trazado_1096014" data-name="Trazado 1096014" d="M206.621,299.5H193.689a.97.97,0,0,0,0,1.94h12.932a.97.97,0,1,0,0-1.94Zm0,0" transform="translate(-169.352 -263.237)" fill="#986f1c"/>
  </g>
</svg>
