<svg xmlns="http://www.w3.org/2000/svg" width="84" height="84" viewBox="0 0 84 84">
  <g id="Grupo_1191764" data-name="Grupo 1191764" transform="translate(-234.848 -415.521)">
    <rect id="Rectángulo_402006" data-name="Rectángulo 402006" width="84" height="84" rx="5" transform="translate(234.848 415.521)" fill="#ffe3ac"/>
    <path id="seleccionar" d="M60.333,47.136v6.01a7.2,7.2,0,0,1-7.193,7.188h-6a2.357,2.357,0,0,1,0-4.714h6a2.48,2.48,0,0,0,2.48-2.475v-6.01a2.357,2.357,0,0,1,4.714,0ZM58.253,2.19A7.074,7.074,0,0,0,53.14,0h-6a2.357,2.357,0,0,0,0,4.714h6a2.572,2.572,0,0,1,2.48,2.592v6.01a2.357,2.357,0,0,0,4.714,0V7.306A7.321,7.321,0,0,0,58.253,2.19ZM13.316,55.62H7.193a2.48,2.48,0,0,1-2.48-2.475v-6.01a2.357,2.357,0,0,0-4.714,0v6.01a7.2,7.2,0,0,0,7.193,7.188h6.122a2.357,2.357,0,0,0,0-4.714Zm0-55.62H7.193A7.074,7.074,0,0,0,2.081,2.19,7.321,7.321,0,0,0,0,7.306v6.01a2.357,2.357,0,0,0,4.714,0V7.306a2.572,2.572,0,0,1,2.48-2.592h6.122a2.357,2.357,0,0,0,0-4.714ZM34.88,27.81H32.524V25.453a2.357,2.357,0,1,0-4.714,0V27.81H25.453A2.357,2.357,0,0,0,23.1,30.167h0a2.357,2.357,0,0,0,2.357,2.357H27.81V34.88a2.357,2.357,0,0,0,4.714,0V32.524H34.88a2.357,2.357,0,0,0,2.357-2.357h0A2.357,2.357,0,0,0,34.88,27.81Z" transform="translate(246.681 427.354)" fill="#feba30"/>
  </g>
</svg>
