<svg xmlns="http://www.w3.org/2000/svg" xmlns:xlink="http://www.w3.org/1999/xlink" width="396" height="219" viewBox="0 0 396 219">
  <defs>
    <clipPath id="clip-path">
      <rect id="Rectángulo_456899" data-name="Rectángulo 456899" width="110.248" height="28.695" rx="14.347" fill="none" stroke="#707070" stroke-width="1"/>
    </clipPath>
    <clipPath id="clip-path-2">
      <rect id="Rectángulo_456898" data-name="Rectángulo 456898" width="111.985" height="111.985" fill="#5aa6ff"/>
    </clipPath>
    <clipPath id="clip-path-3">
      <rect id="Rectángulo_459842" data-name="Rectángulo 459842" width="260" height="173"/>
    </clipPath>
  </defs>
  <g id="Grupo_1191766" data-name="Grupo 1191766" transform="translate(-185 -2558.817)">
    <g id="Grupo_1191243" data-name="Grupo 1191243">
      <rect id="Rectángulo_456896" data-name="Rectángulo 456896" width="396" height="203.859" rx="10" transform="translate(185 2558.817)" fill="#fff8ea"/>
      <g id="Enmascarar_grupo_1119322" data-name="Enmascarar grupo 1119322" transform="translate(445.827 2749.123)" clip-path="url(#clip-path)">
        <g id="Grupo_1187003" data-name="Grupo 1187003" transform="translate(-0.868 55.993) rotate(-90)">
          <path id="Trazado_1088293" data-name="Trazado 1088293" d="M0,0H111.984V111.984H0Z" transform="translate(0 0)" fill="#eef6ff"/>
          <g id="Grupo_1187002" data-name="Grupo 1187002">
            <g id="Grupo_1187001" data-name="Grupo 1187001" clip-path="url(#clip-path-2)">
              <path id="Trazado_1088294" data-name="Trazado 1088294" d="M69.933,2.377C69.408,3.8,68.9,5.221,68.427,6.658c-.3.912-.509,1.851-.762,2.778-.032.116-.077.228-.116.341l-.105-.007c-.031-.492-.089-.984-.089-1.477,0-2.226-.018-4.453.04-6.678q.021-.809.1-1.615h-9.45c-.1.931-.156,1.867-.228,2.8-.024.314-.027.63-.036.945-.033,1.15-.052,2.3-.1,3.45-.047,1.1-.124,2.2-.191,3.3a1.219,1.219,0,0,1-.1.252c-.1-.289-.167-.489-.228-.694-.432-1.449-.835-2.908-1.3-4.346C55.331,4.075,54.8,2.439,54.166.845,54.052.559,53.924.278,53.789,0H46.6c.246.918.492,1.836.708,2.761a9.591,9.591,0,0,1,.135,1.218c.075.751.175,1.5.218,2.253.053.943.107,1.89.074,2.832-.039,1.13-.18,2.257-.254,3.387-.031.469-.005.941-.005,1.53-.348-.832-.659-1.571-.966-2.31a52.809,52.809,0,0,1-1.726-5.2,12.578,12.578,0,0,0-.434-1.2A7.767,7.767,0,0,1,43.768,2.7c-.037-.689-.168-1.373-.234-2.062C43.514.429,43.5.215,43.486,0H23.408c-.071.5-.122,1-.2,1.494-.039.256-.123.5-.186.756l-.115-.009c-.108-.57-.223-1.138-.324-1.709C22.553.354,22.517.176,22.479,0H13.116a.512.512,0,0,1,.014.051c.166.816.305,1.639.494,2.45A59.692,59.692,0,0,1,14.736,8.63c.193,1.544.295,3.1.421,4.65.078.956.156,1.915.174,2.873a19.938,19.938,0,0,1-.115,2.214c-.048.513-.165,1.02-.257,1.528a1.045,1.045,0,0,1-.1.263.921.921,0,0,1-1.1.6,1.6,1.6,0,0,1-1.276-.863,9.265,9.265,0,0,1-.835-2.791,31.251,31.251,0,0,1-.306-4.756c.016-1.752-.009-3.5.046-5.255.028-.892.2-1.779.3-2.67A23.571,23.571,0,0,1,12.8,0H0V23.9c2.179-1.019,4.135-1.885,4.771-2.071.045.093.1.187.136.287a17.45,17.45,0,0,0,3.534,5.615,7.5,7.5,0,0,0,5.605,2.456,9.066,9.066,0,0,0,2.118-.156,6.6,6.6,0,0,0,3.891-2.594,11.681,11.681,0,0,0,1.325-2.4,17.843,17.843,0,0,0,1.2-3.479c.015-.075.046-.147.086-.275L39.731,26.55l-.011.085c-.178.015-.356.035-.535.044-1.369.065-2.74.1-4.106.2-1.035.072-2.066.2-3.1.328-1.015.122-2.035.227-3.04.409a21.69,21.69,0,0,0-7.092,2.533,5.407,5.407,0,0,0-2.584,3.025,8.782,8.782,0,0,0-.281,3.745,16.905,16.905,0,0,0,1.388,4.4,15.361,15.361,0,0,0,1.91,3.528,7.92,7.92,0,0,0,2.808,2.414,7.091,7.091,0,0,0,2.585.7c.895.07,1.793.108,2.69.127,1.008.021,2.016,0,3.024,0h.451c0,.023,0,.046,0,.069-.593.04-1.187.073-1.779.123A34.763,34.763,0,0,0,24.6,49.4a16.575,16.575,0,0,0-3.092,1.3A4.91,4.91,0,0,0,19.692,52.2c-.037-.62-.079-1.239-.109-1.859A31.66,31.66,0,0,0,18.6,43.39a24.78,24.78,0,0,0-3.735-7.765,23.967,23.967,0,0,0-2.133-2.772,15.343,15.343,0,0,0-6.464-3.973A23.845,23.845,0,0,0,.3,27.707L0,27.691V39.363H.005a7.793,7.793,0,0,1,3.824,1.864,6.985,6.985,0,0,1,.955,1.107,14.587,14.587,0,0,1,1.791,3.638,33.52,33.52,0,0,1,1.351,6.368c.307,2.292.545,4.594.786,6.895.153,1.455.281,2.914.376,4.373s.152,2.9.191,4.345c.051,1.924.073,3.849.1,5.773.012.978-.018,1.958.008,2.935.021.77.106,1.538.153,2.308s.059,1.543.13,2.311a13.155,13.155,0,0,0,1.023,4.445,9.656,9.656,0,0,0,2.423,3.292c.251.216.485.451.73.674a6.764,6.764,0,0,0,1.6,1.087c.695.338,1.376.7,2.068,1.046a6.3,6.3,0,0,0,.652.24l.04-.091-1.273-.605.022-.063c.364.067.726.146,1.091.2a9.209,9.209,0,0,0,4.247-.368,12.884,12.884,0,0,0,3-1.377,5.664,5.664,0,0,1,.765-.372,10.372,10.372,0,0,0,3.24-2.424c.424-.443.8-.93,1.193-1.406a9.8,9.8,0,0,0,1.274-2.151,5.9,5.9,0,0,1,.6-1.07,1.885,1.885,0,0,1,2.839-.132.873.873,0,0,1,.2.315c.262.574.528,1.146.771,1.728.552,1.325,1.048,2.674,1.647,3.976a10.481,10.481,0,0,0,2.257,3.249,8.733,8.733,0,0,0,2.293,1.654,6.225,6.225,0,0,0,1.9.557,1.472,1.472,0,0,1,.254.079H46.61c.038-.024.075-.065.115-.069a6.555,6.555,0,0,0,4.915-3.085,21.6,21.6,0,0,0,1.648-3.032c.527-1.128,1.086-2.241,1.65-3.352a3.064,3.064,0,0,1,1.329-1.373,2.042,2.042,0,0,1,.71-.235.925.925,0,0,1,.905.5,15.061,15.061,0,0,1,.744,1.423c.5,1.091.942,2.2,1.456,3.287a14.678,14.678,0,0,0,1.513,2.509,6.007,6.007,0,0,0,3.7,2.359,11.994,11.994,0,0,0,2.906.318A7.592,7.592,0,0,0,73.2,91.033a13.763,13.763,0,0,0,2.965-4.012c.633-1.252,1.309-2.484,1.992-3.71a6.7,6.7,0,0,1,2.751-2.663,3.1,3.1,0,0,1,3.623.534,26.612,26.612,0,0,1,2.717,3.149,18.692,18.692,0,0,0,6.281,5.3,9.734,9.734,0,0,0,2.518.94c.307.063.623.086.93.153.46.1.921.2,1.37.343a.781.781,0,0,0,1.059-.4,20.336,20.336,0,0,0,1.319-3.031c.608-1.505,1.2-3.018,1.8-4.527a.784.784,0,0,1,.1-.148v-.284a8.554,8.554,0,0,1-4.4-1.4,17.9,17.9,0,0,1-3.614-2.657c-1.43-1.295-2.7-2.743-3.995-4.165a21.828,21.828,0,0,0-3.949-3.378c-.825-.555-1.655-1.1-2.481-1.653-.021-.014-.025-.052-.054-.116.593.08,1.164.162,1.737.234,1.468.185,2.934.382,4.4.543,1.266.139,2.537.243,3.807.343a4.139,4.139,0,0,0,.891-.058.33.33,0,0,0,.306-.435c-.189-1.132-.324-2.275-.559-3.4-.365-1.742-.794-3.471-1.2-5.2a3.141,3.141,0,0,0-.185-.534,1.219,1.219,0,0,0-.872-.7,62.63,62.63,0,0,0-7.645-1.509,38.791,38.791,0,0,0-4.27-.446,1.873,1.873,0,0,1-.269-.073c.265-.155.446-.266.632-.369a22.011,22.011,0,0,0,3.868-2.547c.774-.671,1.506-1.394,2.217-2.133.908-.943,1.785-1.917,2.659-2.892a6.962,6.962,0,0,0,1.39-2.4,12.759,12.759,0,0,0,.734-2.588,5.886,5.886,0,0,0-3.434-6.6,11.194,11.194,0,0,0-3.751-.887c-1.193-.091-2.389-.123-3.583-.2a19.747,19.747,0,0,1-2.058-.237c.221-.069.438-.153.662-.206a9.256,9.256,0,0,0,4.05-2.349,10.157,10.157,0,0,0,2.92-5.566,21.616,21.616,0,0,0,.483-6.249A22.894,22.894,0,0,0,86.5,19.3c-.783-3.426-1.55-6.855-2.366-10.273-.421-1.762-.94-3.5-1.4-5.254a9.529,9.529,0,0,1-.274-1.388,1.227,1.227,0,0,1,.156-.671Q83.073.868,83.465,0H70.829q-.456,1.185-.9,2.377M4.02,13.433A2.672,2.672,0,0,1,3.8,12.211c-.061-1.59-.1-3.182-.1-4.773,0-.753.111-1.505.16-2.259.037-.581.048-1.164.086-1.746.023-.354.077-.706.118-1.059l.1.008C4.1,4.221,4,6.059,3.985,7.9s.042,3.687.035,5.535m27.533,56.1a8.894,8.894,0,0,0-4.059,3.492c-.4.64-.8,1.284-1.212,1.92a10.913,10.913,0,0,1-2.3,2.493,1.977,1.977,0,0,1-2.472-.109,4.356,4.356,0,0,1-1.142-1.768,14.407,14.407,0,0,1-.652-2.85c-.223-1.54-.446-3.083-.584-4.632-.1-1.143-.087-2.3-.086-3.449,0-1.023.035-2.048.093-3.07.1-1.7.225-3.389.339-5.084a11.827,11.827,0,0,1,.155-1.455c.329.693.655,1.386.986,2.078.823,1.72,1.61,3.459,2.486,5.151A18.636,18.636,0,0,0,25,65.3a12.268,12.268,0,0,0,3.395,2.907,4.894,4.894,0,0,0,1.758.52c.757.124,1.517.237,2.275.355l.024.064c-.3.127-.6.252-.9.381m16.762-48.91L48.4,20.6l.231.749q.588,1.917,1.175,3.834c.134.436.263.873.4,1.308.058.186.01.333-.185.355-.451.051-.906.085-1.36.1-.075,0-.157-.151-.229-.238-.016-.019,0-.061-.006-.093q-.063-2.9-.126-5.806a1.849,1.849,0,0,1,.014-.186m-9.422-5.67c-.51-.162-1.026-.307-1.531-.482-1.236-.427-2.464-.876-3.7-1.3-.521-.176-1.062-.294-1.59-.448-.286-.083-.565-.188-.895-.3L33.406,1.474l.095.011c.024.195.052.389.072.585a17.2,17.2,0,0,0,1.213,4.113,27.238,27.238,0,0,0,2.173,4.2c.724,1.257,1.512,2.478,2.284,3.707.249.4.536.768.806,1.152L40,15.315c-.369-.122-.738-.246-1.108-.364m-8.521,25.2a3.708,3.708,0,0,1-1.215-.043c-.382-.058-.517-.271-.539-.665a1.654,1.654,0,0,1,1.291-1.794,14.166,14.166,0,0,1,2.279-.376c1.474-.13,2.952-.207,4.429-.295,1.226-.072,2.454-.118,3.68-.194.565-.035,1.126-.128,1.69-.168.368-.026.739-.005,1.108-.005l.014.078c-.124.049-.246.108-.373.146-1.267.384-2.532.772-3.8,1.145-1.527.449-3.05.919-4.591,1.315-1.311.337-2.64.606-3.97.857M54.339,66.531a6.014,6.014,0,0,0-2.108,2.562c-.377.833-.735,1.675-1.092,2.516a22,22,0,0,1-1.918,3.635,6.708,6.708,0,0,1-1.53,1.665,1.967,1.967,0,0,1-2.808-.208,5.769,5.769,0,0,1-1.057-1.383,21.485,21.485,0,0,0-2.207-3.3,17.484,17.484,0,0,0-2.793-2.814c-.072-.061-.145-.122-.213-.187a.493.493,0,0,1-.055-.117,97.773,97.773,0,0,1,16.026-2.5,2.214,2.214,0,0,0-.245.127m5.582-9.45c-.346.017-.693,0-1.039.013-.993.032-1.985.094-2.977.1-1.216,0-2.42.127-3.626.246-.955.094-1.916.135-2.871.239-1.224.133-2.454.12-3.68.195A54.789,54.789,0,0,1,40,57.908c-1-.044-2-.244-2.994-.382-.637-.089-1.271-.195-1.907-.293l.019-.021c.976.027,1.951.068,2.928.076.947.008,1.9,0,2.842-.032,1.433-.048,2.867-.094,4.3-.194,1.836-.128,3.672-.283,5.5-.474,1.6-.167,3.183-.41,4.776-.6,1.031-.125,2.065-.226,3.1-.325,1.114-.107,2.228-.181,3.35-.176a16.749,16.749,0,0,1,5.386.875,11.257,11.257,0,0,1,1.628.852c.032.017.043.075.081.144-1.053-.164-2.074-.352-3.1-.472a16.619,16.619,0,0,0-1.934-.053c-.329,0-.658.059-.988.079-1.021.061-2.043.119-3.065.17m16,12.4a6.4,6.4,0,0,0-2.6,2.345c-.284.509-.534,1.038-.786,1.564-.421.882-.823,1.774-1.249,2.653A3.3,3.3,0,0,1,70.3,77.3a1.015,1.015,0,0,1-1.565-.186A5.362,5.362,0,0,1,67.9,75.53a38.876,38.876,0,0,0-2.5-5.4c-.7-1.177-1.48-2.309-2.225-3.461-.049-.076-.1-.15-.208-.314a51.314,51.314,0,0,1,14.258,2.44c-.483.255-.9.463-1.309.694m4.354-22.471a2.932,2.932,0,0,1,.845.591.964.964,0,0,1-.266,1.554.61.61,0,0,1-.362.037c-.462-.1-.923-.2-1.378-.321-2.264-.617-4.518-1.275-6.792-1.853-1.387-.353-2.806-.576-4.206-.881-1.923-.418-3.836-.886-5.764-1.281-1.463-.3-2.943-.516-4.413-.783-.248-.045-.54-.016-.771-.331.14-.018.215-.036.291-.037a30.214,30.214,0,0,1,3.727.171c.672.078,1.352.073,2.027.127,1.976.157,3.951.313,5.926.489A42.845,42.845,0,0,1,77.677,46a24.2,24.2,0,0,1,2.6,1.012M74.695,26.837c.208-1.746.45-3.489.7-5.23.143-1,.3-1.99.5-2.974.169-.832.406-1.65.621-2.472a.63.63,0,0,1,.407-.535c.135.764.3,1.468.376,2.182.109,1.046.161,2.1.222,3.151.045.769.081,1.54.093,2.31a10.418,10.418,0,0,1-.393,3.266,8.223,8.223,0,0,0-.185.877,1.873,1.873,0,0,1-1,1.306.793.793,0,0,1-1.257-.569,4.356,4.356,0,0,1-.085-1.312M73.42,36.481a.746.746,0,0,1,.1.118c-.112,0-.191.007-.269,0-.891-.092-1.781-.2-2.672-.28-1.284-.121-2.569-.228-3.853-.34-.094-.008-.189-.008-.284-.009-1.61-.011-3.22-.013-4.83-.034s-3.249-.055-4.873-.1c-1.023-.026-2.045-.076-3.154-.119a1.471,1.471,0,0,1,.306-.127c2.282-.256,4.563-.515,6.847-.755.86-.09,1.727-.115,2.587-.2.825-.083,1.645-.209,2.507-.321.232-5.121.463-10.181.692-15.241l.064.011c.165,1.056.3,2.117.5,3.168.389,2.089.772,4.181,1.226,6.256a17.355,17.355,0,0,0,2.22,5.248,6.784,6.784,0,0,0,2.53,2.5c.124.069.241.149.36.227" fill="#5aa6ff"/>
              <path id="Trazado_1088295" data-name="Trazado 1088295" d="M2.665,25.183a5.808,5.808,0,0,0,4.58-4.129,7.072,7.072,0,0,0,.232-1.441,12.369,12.369,0,0,0-.536-4.238A28.642,28.642,0,0,0,4.966,9.811c-.68-1.422-1.25-2.9-1.983-4.292Q1.524,2.741,0,0V25.441a12.174,12.174,0,0,0,2.665-.259" transform="translate(0 64.84)" fill="#5aa6ff"/>
              <path id="Trazado_1088296" data-name="Trazado 1088296" d="M29.3,27.634c-1.4.01-2.807.054-4.21.092-.36.01-.72.052-1.111.082A75.888,75.888,0,0,1,31.639,23.9V0H27.27c-.007.323-.017.647-.031.97-.018.388-.061.776-.092,1.163l-.1.039c-.168-.242-.35-.477-.5-.729A13.62,13.62,0,0,0,25.53,0H.611A9.316,9.316,0,0,0,.1,2.136,9.619,9.619,0,0,0,.578,6.891,15.61,15.61,0,0,0,2.2,10.346a18.6,18.6,0,0,0,2.739,3.126c.506.451,1.012.9,1.54,1.327a10.778,10.778,0,0,0,4.713,2.09,17.917,17.917,0,0,0,3.276.425,17.153,17.153,0,0,1,2.153.268,22.111,22.111,0,0,0,3.3.19h.437c-.169.1-.253.15-.339.2-1.279.724-2.649,1.255-3.985,1.858-1.222.552-2.425,1.146-3.627,1.739-.862.426-1.71.88-2.562,1.327-.413.217-.431.412-.161.778.383.519.754,1.05,1.094,1.6.822,1.327,1.622,2.668,2.431,4,.139.23.286.455.41.692.156.3.109.389-.186.562a18.687,18.687,0,0,0-2.016,1.226,8.032,8.032,0,0,0-2.708,3.689,13.074,13.074,0,0,0-.766,5.11,20.234,20.234,0,0,0,.576,3.539,35.27,35.27,0,0,0,2.027,5.694A33.618,33.618,0,0,0,14.36,56.2c2.509,3.522,5.062,7.014,7.543,10.555,1.448,2.068,2.817,4.192,4.175,6.321a11.39,11.39,0,0,1,1.686,4.038,6.306,6.306,0,0,1,.067,1.366,1.26,1.26,0,0,1-.772,1.06,4.118,4.118,0,0,1-2.983.352,9.847,9.847,0,0,1-1.6-.57c-1.461-.633-2.906-1.3-4.367-1.936-1-.431-2.007-.821-3.026-1.235a1.216,1.216,0,0,0-.139.228,7.069,7.069,0,0,1-.918,1.751A30.749,30.749,0,0,0,11.617,82.9c-.237.565-.491,1.123-.733,1.674.2.3.51.3.774.368,1.682.422,3.369.825,5.05,1.251a59.3,59.3,0,0,1,5.669,1.836,51.573,51.573,0,0,0,6.9,1.991,12.126,12.126,0,0,0,2.36.265V64.84C29.7,61.346,27.666,57.9,25.511,54.528c-1.214-1.9-2.3-3.882-3.433-5.833-.523-.9-1.038-1.806-1.523-2.726a7.312,7.312,0,0,1-.716-2,4.872,4.872,0,0,1,.292-2.827A2.3,2.3,0,0,1,21.278,40a8.739,8.739,0,0,1,2.557-.82,18.669,18.669,0,0,1,3.2-.22,20.767,20.767,0,0,1,4.6.405V27.691c-.78-.042-1.562-.063-2.343-.058M23.041,10.793a32.8,32.8,0,0,1-7.6-3.67,42.724,42.724,0,0,1-3.5-2.874,21.178,21.178,0,0,1-1.47-1.531,1.45,1.45,0,0,1-.2-.266.585.585,0,0,1,.337-.908,1.405,1.405,0,0,1,.463-.071,9.185,9.185,0,0,1,4.8,1.368,19.776,19.776,0,0,1,4.98,4.168c.764.961,1.588,1.874,2.382,2.812a4.215,4.215,0,0,1,.4.525,5.7,5.7,0,0,1,.281.646,7.655,7.655,0,0,1-.878-.2" transform="translate(80.346)" fill="#5aa6ff"/>
              <path id="Trazado_1088297" data-name="Trazado 1088297" d="M12.8,24.036v0a1.519,1.519,0,0,1,.2-.292c.054.14.094.221.118.295h9.363a18.955,18.955,0,0,0-2.055-5.188c-.391-.7-.79-1.4-1.218-2.081a5.155,5.155,0,0,0-.786-1,1.676,1.676,0,0,1-.234-2.343,8.1,8.1,0,0,1,1.32-1.537,17.866,17.866,0,0,1,5.621-3.335c.339-.122.7-.192,1.042-.3.429-.133.564-.027.48.4-.088.448-.174.9-.278,1.341-.463,1.993-.954,3.98-1.39,5.979-.282,1.29-.474,2.6-.729,3.9-.237,1.2-.521,2.4-.752,3.6-.035.185-.065.371-.092.558H43.486c-.013-.242-.018-.485-.01-.726a1.575,1.575,0,0,1,.859-1.335.933.933,0,0,1,1.275.227,3.89,3.89,0,0,1,.939,1.623l.057.211h7.184c-.348-.712-.75-1.4-1.126-2.1-.321-.6-.673-1.176-1.035-1.748A9.575,9.575,0,0,0,48.711,17.2c-.153-.1-.292-.218-.438-.328l.042-.084,10.553,1.588c-.12.684-.247,1.313-.339,1.947-.166,1.151-.332,2.3-.46,3.459-.009.085-.017.17-.025.255h9.45a24.318,24.318,0,0,1,.384-2.554c.256-1.249.507-2.5.834-3.734a6.328,6.328,0,0,1,2.761-3.712,3.721,3.721,0,0,1,.905-.4,1.246,1.246,0,0,1,1.434.961,5.835,5.835,0,0,1-.441,3.418c-.546,1.275-1.143,2.529-1.668,3.813q-.45,1.1-.875,2.211H83.465a36.555,36.555,0,0,0,2.419-7.728,11.349,11.349,0,0,0,.026-4.554,6.715,6.715,0,0,0-1.519-3.01A9.136,9.136,0,0,0,81.27,6.412a29.081,29.081,0,0,0-4.886-1.9A13.155,13.155,0,0,0,66.9,5.64a12.562,12.562,0,0,0-2.051,1.594,19.541,19.541,0,0,0-4.594,6.02c-.042.084-.083.17-.132.251-.014.023-.052.031-.1.058.2-1.717.394-3.42.6-5.178-.324-.091-.649-.21-.984-.273a49.33,49.33,0,0,1-5.64-1.593c-1.253-.39-2.541-.61-3.818-.894-2.861-.636-5.712-1.315-8.569-1.971-3.164-.726-6.341-1.388-9.543-1.924-.559-.093-1.123-.153-1.685-.233a.631.631,0,0,0-.711.4,48.006,48.006,0,0,0-2.234,4.488,1.814,1.814,0,0,1-.133.21,1.853,1.853,0,0,1-.1-.332,7.251,7.251,0,0,0-.468-2.016c-.331-.851-.569-1.738-.89-2.593A12.973,12.973,0,0,0,25.206.389a.68.68,0,0,0-.745-.382,4.514,4.514,0,0,0-.883.146c-1.245.4-2.483.822-3.721,1.244-.418.142-.83.3-1.239.469a19.553,19.553,0,0,0-6.1,4A30.755,30.755,0,0,0,8.955,9.834a22.237,22.237,0,0,0-2.612,4.545c-.455,1.057-.9,2.117-1.318,3.19-.266.69-.464,1.406-.695,2.11-.058.178-.127.352-.222.612a1.7,1.7,0,0,1-.166-.324c-.137-.63-.258-1.263-.4-1.893-.206-.938-.432-1.872-.629-2.811-.235-1.125-.448-2.255-.672-3.382a4.545,4.545,0,0,0-.109-.459c-.354-1.144-.688-2.3-1.078-3.428a19.815,19.815,0,0,0-.8-1.817Q.129,5.884,0,5.589V24.036Zm22.761-9.229,4.735,1.051.032.1a10.322,10.322,0,0,0-5.781,3.979l1.015-5.129" transform="translate(0 87.949)" fill="#5aa6ff"/>
              <path id="Trazado_1088298" data-name="Trazado 1088298" d="M23.584,22.173a10.278,10.278,0,0,0-2.276-1.838,25.219,25.219,0,0,0-2.75-1.564c-.893-.423-1.85-.711-2.782-1.052-.3-.108-.6-.191-.9-.289a12.582,12.582,0,0,0-2.353-.492,4.519,4.519,0,0,1-.529-.13l-.018-.109a4.277,4.277,0,0,1,.469-.237c1.569-.572,3.137-1.147,4.713-1.7.668-.234,1.356-.413,2.032-.625,1.593-.5,3.183-1.006,4.778-1.5a4.09,4.09,0,0,1,.648-.088c.173.361.355.706.507,1.065a18.126,18.126,0,0,1,1.238,4.595,34.871,34.871,0,0,1,.3,5.537h4.368V5.3A40.546,40.546,0,0,0,29.1,1.122,5.08,5.08,0,0,0,28.205.1.724.724,0,0,0,27.725,0a7.763,7.763,0,0,0-2.06.5,58.911,58.911,0,0,0-5.653,2.156c-1.34.593-2.637,1.284-3.951,1.935q-1.482.734-2.959,1.477c-.38.191-.752.4-1.132.591Q9.9,7.7,7.836,8.742q-.886.447-1.767.9a1.171,1.171,0,0,0-.16.125C6.968,12.008,8.1,14.2,9.167,16.485c-.286.108-.513.2-.745.28-.743.26-1.5.487-2.23.78A10.668,10.668,0,0,0,2.83,19.628,10.8,10.8,0,0,0,0,23.747H24.919c-.428-.538-.883-1.055-1.335-1.573" transform="translate(80.957 88.238)" fill="#5aa6ff"/>
            </g>
          </g>
        </g>
      </g>
      <g id="_20855032_6257232" data-name="20855032_6257232" transform="translate(253.348 2574)">
        <g id="OBJECTS">
          <g id="Grupo_1191159" data-name="Grupo 1191159" transform="translate(20.08 19.858)">
            <path id="Trazado_1095140" data-name="Trazado 1095140" d="M66.929,195.043s-23.009-28.6,4.844-54.94,4.844-71.121,42.99-81.281,34.21,36.125,75.383,30.48,71.145,4.154,72.659,33.31-7.569,49.1,11.807,72.43Z" transform="translate(-58 -57.36)" fill="#ebebeb"/>
            <rect id="Rectángulo_459821" data-name="Rectángulo 459821" width="219.493" height="1.27" transform="translate(0 137.683)" fill="#070707"/>
          </g>
          <g id="Grupo_1191171" data-name="Grupo 1191171" transform="translate(41.919 98.324)">
            <g id="Grupo_1191165" data-name="Grupo 1191165">
              <g id="Grupo_1191163" data-name="Grupo 1191163">
                <g id="Grupo_1191160" data-name="Grupo 1191160" transform="translate(0 17.708)">
                  <path id="Trazado_1095141" data-name="Trazado 1095141" d="M136.171,348.627a60.951,60.951,0,0,1-8.808-3.665l-.214-1.725-1.353.839c-3.2-1.931-5.605-4.282-4.393-6.641,1.233-2.394,4-2.835,6.8-1.644l.206,2.094,1.4-1.242A14.883,14.883,0,0,1,136.171,348.627Z" transform="translate(-121.083 -335.154)" fill="#fc8d2a"/>
                  <path id="Trazado_1095142" data-name="Trazado 1095142" d="M124.582,343.036s12.168,1.32,15.486,15.451" transform="translate(-123.371 -340.307)" fill="none" stroke="#080808" stroke-miterlimit="10" stroke-width="1.237"/>
                </g>
                <g id="Grupo_1191161" data-name="Grupo 1191161" transform="translate(3.115)">
                  <path id="Trazado_1095143" data-name="Trazado 1095143" d="M144.6,309.458s-4.312-5.138-9.707-10.9l1.028-2.539s-1.653.188-3.01.368c-4.7-5.665-2.355-9.639-1.345-10.752.895-.985,5.515-3.605,10.242,1.032l-.287,2.5h2.334c.253.368.5.758.745,1.177C150.138,299.768,144.6,309.458,144.6,309.458Z" transform="translate(-130.081 -284.006)" fill="#fc8d2a"/>
                  <path id="Trazado_1095144" data-name="Trazado 1095144" d="M137.775,288.718s10.634,8.314,11.49,18.8.881,17.913.881,17.913" transform="translate(-135.111 -287.087)" fill="none" stroke="#080808" stroke-miterlimit="10" stroke-width="1.237"/>
                </g>
                <g id="Grupo_1191162" data-name="Grupo 1191162" transform="translate(19.695 12.669)">
                  <path id="Trazado_1095145" data-name="Trazado 1095145" d="M189.255,330.138l-1.58-.27.428,1.246c-5.84,4.834-6.538,4.338-8.889,7.361,0,0-2.659-9.69,3.348-15.133l1.76.6-.231-1.768C191.554,317.369,195.425,324.6,189.255,330.138Z" transform="translate(-178.4 -320.601)" fill="#fc8d2a"/>
                  <path id="Trazado_1095146" data-name="Trazado 1095146" d="M190.5,325.514s-11.561,4.6-12.525,22.159" transform="translate(-177.972 -323.813)" fill="none" stroke="#080808" stroke-miterlimit="10" stroke-width="1.237"/>
                </g>
              </g>
              <g id="Grupo_1191164" data-name="Grupo 1191164" transform="translate(6.421 32.212)">
                <path id="Trazado_1095147" data-name="Trazado 1095147" d="M163.612,382.2H142.489s-.933,8.071.925,14.807v9.3a2.334,2.334,0,0,0,1.331,2.1,2.737,2.737,0,0,0,1.165.3,1.7,1.7,0,0,0,.951-.278c.8-.531,1.267-1.8,1.4-3.8a9.387,9.387,0,0,0,10.208-.36c.094,2.2.57,3.593,1.413,4.158a1.715,1.715,0,0,0,.951.278,2.741,2.741,0,0,0,1.169-.3,2.337,2.337,0,0,0,1.327-2.1V394.689h-.013A47.369,47.369,0,0,0,163.612,382.2Zm-16.986,25.871a1.67,1.67,0,0,1-1.7-.047,1.913,1.913,0,0,1-1.087-1.717v-7.926a12.1,12.1,0,0,0,4,5.961C147.731,406.776,147.148,407.723,146.626,408.069Zm16.272-1.764a1.909,1.909,0,0,1-1.083,1.717,1.678,1.678,0,0,1-1.7.047c-.552-.368-1.165-1.4-1.229-4.141a13.949,13.949,0,0,0,4.012-7.3Z" transform="translate(-141.346 -380.415)" fill="#070707"/>
                <rect id="Rectángulo_459822" data-name="Rectángulo 459822" width="23.408" height="3.568" fill="#2a2832"/>
              </g>
            </g>
            <g id="Grupo_1191170" data-name="Grupo 1191170" transform="translate(182.671 2.511)">
              <g id="Grupo_1191168" data-name="Grupo 1191168">
                <g id="Grupo_1191166" data-name="Grupo 1191166" transform="translate(0.307)">
                  <path id="Trazado_1095148" data-name="Trazado 1095148" d="M658.192,370.984a26.294,26.294,0,0,0-4.859-4.1v-1.052l-.738.514c-2.743-2.174-2.614-4.349.067-4.655a3.755,3.755,0,0,1,2.174.369l-.063,1.024,1.1-.251C657.176,364.183,658.078,366.769,658.192,370.984Z" transform="translate(-650.254 -337.291)" fill="#60a2f4"/>
                  <path id="Trazado_1095149" data-name="Trazado 1095149" d="M684.612,347.706a9.754,9.754,0,0,1-1.366,1.46l-1.6-.479.251,1.605a78.351,78.351,0,0,1-6.727,4.584c-.173-3.909.6-8.583,3.964-10.632l1.177.565-.365-.989a7.421,7.421,0,0,1,.769-.283C685.428,342.114,686.461,345.108,684.612,347.706Z" transform="translate(-666.309 -325.198)" fill="#60a2f4"/>
                  <path id="Trazado_1095150" data-name="Trazado 1095150" d="M658.136,334.043a29.564,29.564,0,0,1-4.776-3.053v-1.28l-.9.494c-1.366-1.307-2.265-2.767-1.605-4.074.746-1.475,2.422-1.589,4-.647l.067,1.236.926-.483A8.578,8.578,0,0,1,658.136,334.043Z" transform="translate(-650.28 -313.239)" fill="#60a2f4"/>
                  <path id="Trazado_1095151" data-name="Trazado 1095151" d="M686.861,327.307l-1.593-.479v1.091c-2.563.922-5.71,1.825-5.71,1.825.569-2.979,1.951-5.651,4.784-6.511l.632.6L685.4,323c.2-.027.4-.043.6-.055C689.966,322.754,689.44,326.216,686.861,327.307Z" transform="translate(-669.19 -311.973)" fill="#60a2f4"/>
                  <path id="Trazado_1095152" data-name="Trazado 1095152" d="M658.793,305.631s-2.7-3-5.879-6.17l.443-1.621-1.7.388c-.031-.031-.067-.063-.1-.094-3.729-3.6-1.892-8.5,3.666-6.346a6.322,6.322,0,0,1,1.409.754l-.2,1.374,1.374-.294C660.457,296.8,659.758,302.357,658.793,305.631Z" transform="translate(-649.61 -291.259)" fill="#60a2f4"/>
                  <path id="Trazado_1095153" data-name="Trazado 1095153" d="M690.939,301.377a5.635,5.635,0,0,1-1.354,1.723l-1.48.161.153.883a29.075,29.075,0,0,1-5.561,2.849s.063-4.533,3.1-7.43q.065-.065.13-.118l1.228.412-.106-1.232C689.711,297.135,692.179,298.708,690.939,301.377Z" transform="translate(-671.242 -295.698)" fill="#60a2f4"/>
                </g>
                <g id="Grupo_1191167" data-name="Grupo 1191167" transform="translate(0 33.104)">
                  <path id="Trazado_1095154" data-name="Trazado 1095154" d="M666.481,390.422H651.273l2.453,15.637v5.8a1.248,1.248,0,0,0,.377.849,1.385,1.385,0,0,0,.978.334c.058,0,.119,0,.181-.007,1.248-.093,1.2-2.544,1.169-4.513,0-.2-.007-.4-.009-.588h5.764c0,.188-.005.385-.009.588-.035,1.97-.079,4.421,1.169,4.513.062,0,.122.007.181.007a1.384,1.384,0,0,0,.978-.334,1.249,1.249,0,0,0,.377-.849v-5.567Zm-10.443,18.109c.029,1.613.072,4.05-.805,4.115a1.111,1.111,0,0,1-.859-.221.859.859,0,0,1-.255-.565v-3.925h1.91C656.031,408.126,656.034,408.326,656.038,408.531Zm8.2,3.891a1.111,1.111,0,0,1-.862.223c-.878-.065-.834-2.5-.805-4.115,0-.206.007-.4.009-.6h1.91v3.925A.863.863,0,0,1,664.237,412.423Z" transform="translate(-650.39 -389.196)" fill="#070707"/>
                  <rect id="Rectángulo_459823" data-name="Rectángulo 459823" width="16.876" height="2.453" fill="#252728"/>
                </g>
              </g>
              <g id="Grupo_1191169" data-name="Grupo 1191169" transform="translate(1.406 1.315)">
                <path id="Trazado_1095155" data-name="Trazado 1095155" d="M683.823,302.424s-10.5,4.317-11.038,19.623,0,17.661,0,17.661" transform="translate(-665.704 -299.873)" fill="none" stroke="#252728" stroke-miterlimit="10" stroke-width="1.134"/>
                <path id="Trazado_1095156" data-name="Trazado 1095156" d="M652.785,364.585a9.691,9.691,0,0,1,6.841,8.307" transform="translate(-652.785 -340.514)" fill="none" stroke="#252728" stroke-miterlimit="10" stroke-width="1.134"/>
                <path id="Trazado_1095157" data-name="Trazado 1095157" d="M682.907,345.88s-10.259,5.233-10.362,16.091" transform="translate(-665.704 -328.285)" fill="none" stroke="#252728" stroke-miterlimit="10" stroke-width="1.134"/>
                <path id="Trazado_1095158" data-name="Trazado 1095158" d="M652.785,329.348a10.859,10.859,0,0,1,7.081,10.3" transform="translate(-652.785 -317.476)" fill="none" stroke="#252728" stroke-miterlimit="10" stroke-width="1.134"/>
                <path id="Trazado_1095159" data-name="Trazado 1095159" d="M655.241,295.056s8.329,5.783,7.233,15.418" transform="translate(-654.391 -295.056)" fill="none" stroke="#252728" stroke-miterlimit="10" stroke-width="1.134"/>
                <path id="Trazado_1095160" data-name="Trazado 1095160" d="M684.276,327.364s-10.5,1.047-11.038,12.3" transform="translate(-666.157 -316.179)" fill="none" stroke="#252728" stroke-miterlimit="10" stroke-width="1.134"/>
              </g>
            </g>
          </g>
          <g id="Grupo_1191181" data-name="Grupo 1191181" transform="translate(106.249 37.294)">
            <rect id="Rectángulo_459824" data-name="Rectángulo 459824" width="3.481" height="76.451" transform="translate(47.058 44.455)" fill="#37539a"/>
            <g id="Grupo_1191172" data-name="Grupo 1191172">
              <rect id="Rectángulo_459825" data-name="Rectángulo 459825" width="93.993" height="76.451" transform="translate(1.802 1.641)" fill="#cedbea"/>
              <path id="Trazado_1095161" data-name="Trazado 1095161" d="M403.348,110.4H308.24a1.341,1.341,0,0,1-1.341-1.341h0a1.341,1.341,0,0,1,1.341-1.341h95.108a1.341,1.341,0,0,1,1.341,1.341h0A1.341,1.341,0,0,1,403.348,110.4Z" transform="translate(-306.899 -107.722)" fill="#344b7e"/>
            </g>
            <g id="Grupo_1191173" data-name="Grupo 1191173" transform="translate(77.394 42.079)">
              <path id="Trazado_1095162" data-name="Trazado 1095162" d="M539.607,239.979h-7.463a1.7,1.7,0,0,1-1.7-1.7v-7.323a1.7,1.7,0,0,1,1.7-1.7h7.463a1.7,1.7,0,0,1,1.7,1.7v7.323A1.7,1.7,0,0,1,539.607,239.979Z" transform="translate(-530.449 -229.266)" fill="#93b1ce"/>
              <path id="Trazado_1095163" data-name="Trazado 1095163" d="M538.737,237.065l-.336-.059a1.728,1.728,0,0,0-.173-.418l.2-.279a.257.257,0,0,0-.029-.33l-.2-.2a.258.258,0,0,0-.33-.024l-.279.2a1.73,1.73,0,0,0-.418-.173l-.058-.343a.257.257,0,0,0-.249-.214h-.29a.257.257,0,0,0-.254.214l-.059.334a1.731,1.731,0,0,0-.418.173l-.278-.187a.257.257,0,0,0-.33.029l-.2.2a.257.257,0,0,0-.029.33l.2.279a1.73,1.73,0,0,0-.173.418l-.334.059a.258.258,0,0,0-.214.254v.284a.258.258,0,0,0,.214.254l.334.059a1.73,1.73,0,0,0,.173.418l-.2.279a.257.257,0,0,0,.029.33l.2.2a.257.257,0,0,0,.33.029l.279-.2a1.73,1.73,0,0,0,.418.173l.059.334a.258.258,0,0,0,.254.214h.288a.258.258,0,0,0,.254-.214l.059-.334a1.73,1.73,0,0,0,.418-.173l.272.191a.257.257,0,0,0,.33-.029l.2-.2a.257.257,0,0,0,.029-.33l-.2-.281a1.724,1.724,0,0,0,.173-.418l.335-.059a.258.258,0,0,0,.214-.254v-.284A.259.259,0,0,0,538.737,237.065Zm-2.024,1.163a.767.767,0,1,1,.767-.767v0A.767.767,0,0,1,536.713,238.227Z" transform="translate(-533.083 -233.159)" fill="#fff"/>
              <path id="Trazado_1095164" data-name="Trazado 1095164" d="M550.817,233.426l-.269-.047a1.388,1.388,0,0,0-.139-.335l.157-.224a.207.207,0,0,0-.023-.265l-.161-.161a.207.207,0,0,0-.265-.019l-.224.157a1.4,1.4,0,0,0-.335-.139l-.046-.275a.207.207,0,0,0-.2-.172h-.233a.207.207,0,0,0-.2.172l-.047.269a1.388,1.388,0,0,0-.335.139l-.223-.15a.207.207,0,0,0-.265.023l-.161.161a.207.207,0,0,0-.023.265l.157.224a1.4,1.4,0,0,0-.139.335l-.269.047a.207.207,0,0,0-.172.2v.228a.207.207,0,0,0,.172.2l.269.047a1.4,1.4,0,0,0,.139.335l-.157.224a.206.206,0,0,0,.023.265l.161.161a.207.207,0,0,0,.265.023l.224-.157a1.4,1.4,0,0,0,.335.139l.047.268a.207.207,0,0,0,.2.172h.232a.207.207,0,0,0,.2-.172l.047-.268a1.387,1.387,0,0,0,.335-.139l.219.154a.207.207,0,0,0,.265-.023l.161-.161a.207.207,0,0,0,.023-.265l-.157-.226a1.4,1.4,0,0,0,.139-.335l.269-.047a.207.207,0,0,0,.172-.2v-.228A.207.207,0,0,0,550.817,233.426Zm-1.625.933a.616.616,0,1,1,.616-.616v0A.616.616,0,0,1,549.192,234.359Z" transform="translate(-541.528 -231.018)" fill="#fff"/>
              <path id="Trazado_1095165" data-name="Trazado 1095165" d="M546.754,248.613l-.269-.047a1.388,1.388,0,0,0-.139-.335l.157-.224a.207.207,0,0,0-.023-.265l-.161-.161a.207.207,0,0,0-.265-.019l-.224.157a1.4,1.4,0,0,0-.335-.139l-.046-.275a.207.207,0,0,0-.2-.172h-.233a.207.207,0,0,0-.2.172l-.047.269a1.387,1.387,0,0,0-.335.139l-.223-.15a.207.207,0,0,0-.265.023l-.161.161a.207.207,0,0,0-.023.265l.157.224a1.4,1.4,0,0,0-.139.335l-.269.047a.207.207,0,0,0-.172.2v.228a.207.207,0,0,0,.172.2l.269.047a1.4,1.4,0,0,0,.139.335l-.157.224a.207.207,0,0,0,.023.265l.161.161a.207.207,0,0,0,.265.023l.224-.157a1.415,1.415,0,0,0,.335.139l.047.268a.207.207,0,0,0,.2.172h.232a.207.207,0,0,0,.2-.172l.047-.268a1.387,1.387,0,0,0,.335-.139l.219.154a.207.207,0,0,0,.265-.023l.161-.161a.207.207,0,0,0,.023-.265l-.157-.226a1.4,1.4,0,0,0,.139-.335l.269-.047a.207.207,0,0,0,.172-.2v-.228A.207.207,0,0,0,546.754,248.613Zm-1.625.933a.616.616,0,1,1,.616-.616v0A.616.616,0,0,1,545.129,249.546Z" transform="translate(-538.872 -240.947)" fill="#fff"/>
            </g>
            <g id="Grupo_1191178" data-name="Grupo 1191178" transform="translate(77.394 27.307)">
              <path id="Trazado_1095166" data-name="Trazado 1095166" d="M539.607,197.312h-7.463a1.7,1.7,0,0,1-1.7-1.7v-7.323a1.7,1.7,0,0,1,1.7-1.7h7.463a1.7,1.7,0,0,1,1.7,1.7v7.323A1.7,1.7,0,0,1,539.607,197.312Z" transform="translate(-530.449 -186.599)" fill="#93b1ce"/>
              <g id="Grupo_1191177" data-name="Grupo 1191177" transform="translate(2.75 1.207)">
                <g id="Grupo_1191174" data-name="Grupo 1191174" transform="translate(1.477 5.935)">
                  <path id="Trazado_1095167" data-name="Trazado 1095167" d="M545.177,208.628a.244.244,0,0,1-.242.235H544.9a.4.4,0,0,1-.367.256.521.521,0,0,1-.537.474l-.194,0a.526.526,0,0,1-.516-.5.4.4,0,0,1-.343-.273H542.9a.241.241,0,0,1,.007-.481h.024l.007-.249h-.021a.242.242,0,0,1,0-.485h.028l.01-.37,2,.045-.01.374h.007a.24.24,0,0,1,.235.246.236.236,0,0,1-.239.235h-.014l-.007.249h.007A.246.246,0,0,1,545.177,208.628Z" transform="translate(-542.66 -207.229)" fill="#f2f8fc"/>
                </g>
                <g id="Grupo_1191176" data-name="Grupo 1191176">
                  <path id="Trazado_1095168" data-name="Trazado 1095168" d="M544.1,192.787a2.861,2.861,0,0,0-5.7-.133,2.574,2.574,0,0,0,1.115,2.152h0a.837.837,0,0,1,.352.684l-.008.355a.314.314,0,0,0,.319.309l1.989.046a.315.315,0,0,0,.333-.294l.008-.358a.833.833,0,0,1,.377-.663h0A2.573,2.573,0,0,0,544.1,192.787Z" transform="translate(-538.392 -190.085)" fill="#c2ddef"/>
                  <g id="Grupo_1191175" data-name="Grupo 1191175" transform="translate(1.739 2.708)">
                    <path id="Trazado_1095169" data-name="Trazado 1095169" d="M544.147,201.284l.069-2.971a.4.4,0,0,0-.389-.407h0a.4.4,0,0,0-.407.389l-.005.222a.4.4,0,0,0,.389.407l.687.018" transform="translate(-543.415 -197.906)" fill="none" stroke="#fff" stroke-miterlimit="10" stroke-width="0.236"/>
                    <path id="Trazado_1095170" data-name="Trazado 1095170" d="M546.676,201.359l.069-2.971a.4.4,0,0,1,.407-.389h0a.4.4,0,0,1,.389.407l-.005.222a.4.4,0,0,1-.407.389l-.74-.015" transform="translate(-545.359 -197.966)" fill="none" stroke="#fff" stroke-miterlimit="10" stroke-width="0.236"/>
                  </g>
                </g>
              </g>
            </g>
            <g id="Grupo_1191179" data-name="Grupo 1191179" transform="translate(77.394 12.536)">
              <path id="Trazado_1095171" data-name="Trazado 1095171" d="M539.607,154.646h-7.463a1.7,1.7,0,0,1-1.7-1.7v-7.323a1.7,1.7,0,0,1,1.7-1.7h7.463a1.7,1.7,0,0,1,1.7,1.7v7.323A1.7,1.7,0,0,1,539.607,154.646Z" transform="translate(-530.449 -143.933)" fill="#93b1ce"/>
              <circle id="Elipse_11532" data-name="Elipse 11532" cx="4.1" cy="4.1" r="4.1" transform="matrix(0.231, -0.973, 0.973, 0.231, 0.488, 8.392)" fill="#fff"/>
              <circle id="Elipse_11533" data-name="Elipse 11533" cx="3.02" cy="3.02" r="3.02" transform="translate(2.407 2.337)" fill="#93b1ce"/>
              <circle id="Elipse_11534" data-name="Elipse 11534" cx="2.211" cy="2.211" r="2.211" transform="translate(3.216 3.145)" fill="#fff"/>
              <circle id="Elipse_11535" data-name="Elipse 11535" cx="1.445" cy="1.445" r="1.445" transform="translate(3.981 3.911)" fill="#93b1ce"/>
              <circle id="Elipse_11536" data-name="Elipse 11536" cx="0.796" cy="0.796" r="0.796" transform="translate(4.63 4.56)" fill="#fff"/>
            </g>
            <g id="Grupo_1191180" data-name="Grupo 1191180" transform="translate(10.464 12.579)">
              <rect id="Rectángulo_459826" data-name="Rectángulo 459826" width="6.232" height="11.05" transform="translate(9.067 41.689)" fill="#93b1ce"/>
              <rect id="Rectángulo_459827" data-name="Rectángulo 459827" width="6.232" height="21.568" transform="translate(23.382 31.171)" fill="#93b1ce"/>
              <rect id="Rectángulo_459828" data-name="Rectángulo 459828" width="6.232" height="31.851" transform="translate(37.695 20.887)" fill="#93b1ce"/>
              <rect id="Rectángulo_459829" data-name="Rectángulo 459829" width="6.232" height="40.852" transform="translate(52.009 11.886)" fill="#93b1ce"/>
              <path id="Trazado_1095172" data-name="Trazado 1095172" d="M372.314,181.618l36.236-30.391,3,2.439v-9.611l-9.463,1.154,3.174,3Z" transform="translate(-360.131 -144.055)" fill="#344b7e"/>
              <path id="Trazado_1095173" data-name="Trazado 1095173" d="M337.123,147.055v51.7h67.114" transform="translate(-337.123 -146.016)" fill="none" stroke="#93b1ce" stroke-miterlimit="10" stroke-width="1"/>
            </g>
          </g>
          <g id="Grupo_1191187" data-name="Grupo 1191187" transform="translate(29.142 35.542)">
            <g id="Grupo_1191183" data-name="Grupo 1191183">
              <g id="Grupo_1191182" data-name="Grupo 1191182">
                <path id="Trazado_1095174" data-name="Trazado 1095174" d="M143.346,178.981H98.561L84.176,115.468h44.785Z" transform="translate(-84.176 -111.035)" fill="#344b7e"/>
                <rect id="Rectángulo_459830" data-name="Rectángulo 459830" width="61.07" height="4.614" transform="translate(1.505 117.345)" fill="#344b7e"/>
                <rect id="Rectángulo_459831" data-name="Rectángulo 459831" width="4.071" height="77.22" transform="translate(10.734 42.432)" fill="#344b7e"/>
                <rect id="Rectángulo_459832" data-name="Rectángulo 459832" width="4.071" height="73.472" transform="translate(51.176 46.181)" fill="#344b7e"/>
                <rect id="Rectángulo_459833" data-name="Rectángulo 459833" width="49.625" height="3.619" transform="translate(12.769 67.946)" fill="#344b7e"/>
                <rect id="Rectángulo_459834" data-name="Rectángulo 459834" width="18.457" height="3.257" transform="translate(4.898 49.354)" fill="#344b7e"/>
                <path id="Trazado_1095175" data-name="Trazado 1095175" d="M109.954,102.663H113.8l2.669,6.786h-3.8Z" transform="translate(-101.03 -102.663)" fill="#344b7e"/>
                <path id="Trazado_1095176" data-name="Trazado 1095176" d="M175.026,102.663h3.845l2.669,6.786h-3.8Z" transform="translate(-143.573 -102.663)" fill="#344b7e"/>
              </g>
              <path id="Trazado_1095177" data-name="Trazado 1095177" d="M147.694,178.981H102.909L88.524,115.468h44.785Z" transform="translate(-87.019 -111.035)" fill="#fff"/>
              <path id="Trazado_1095178" data-name="Trazado 1095178" d="M172.655,229.256H127.87l-1.17-5.172c2.063-6.928,10.255-10.369,23.244-11.632,10.234-.994,13.509-11.04,14.354-20.087Z" transform="translate(-111.978 -161.31)" fill="#fafbfc"/>
            </g>
            <g id="Grupo_1191186" data-name="Grupo 1191186" transform="translate(8.674 13.4)">
              <g id="Grupo_1191184" data-name="Grupo 1191184">
                <ellipse id="Elipse_11537" data-name="Elipse 11537" cx="16.229" cy="18.778" rx="16.229" ry="18.778" transform="translate(0 12.475) rotate(-20.303)" fill="#ce6363"/>
                <ellipse id="Elipse_11538" data-name="Elipse 11538" cx="16.229" cy="18.778" rx="16.229" ry="18.778" transform="translate(0.865 11.263) rotate(-20.303)" fill="#f99595"/>
                <ellipse id="Elipse_11539" data-name="Elipse 11539" cx="11.954" cy="13.832" rx="11.954" ry="13.832" transform="translate(6.591 14.42) rotate(-20.303)" fill="#fff"/>
                <ellipse id="Elipse_11540" data-name="Elipse 11540" cx="7.881" cy="9.119" rx="7.881" ry="9.119" transform="translate(12.045 17.428) rotate(-20.303)" fill="#f99595"/>
                <ellipse id="Elipse_11541" data-name="Elipse 11541" cx="5.11" cy="5.913" rx="5.11" ry="5.913" transform="translate(15.757 19.472) rotate(-20.303)" fill="#fff"/>
                <path id="Trazado_1095179" data-name="Trazado 1095179" d="M172.432,203.259a2.121,2.121,0,1,1-2.811-1.549A2.282,2.282,0,0,1,172.432,203.259Z" transform="translate(-147.864 -180.745)" fill="#f99595"/>
              </g>
              <g id="Grupo_1191185" data-name="Grupo 1191185" transform="translate(21.735 10.031)">
                <line id="Línea_3533" data-name="Línea 3533" y1="11.538" x2="20.904" transform="translate(0.682 1.702)" fill="none" stroke="#344b7e" stroke-linecap="round" stroke-miterlimit="10" stroke-width="2"/>
                <path id="Trazado_1095180" data-name="Trazado 1095180" d="M225.36,173.722v2.252l1.9,1.152" transform="translate(-206.89 -172.552)" fill="none" stroke="#344b7e" stroke-linecap="round" stroke-miterlimit="10" stroke-width="2"/>
                <path id="Trazado_1095181" data-name="Trazado 1095181" d="M231.61,170.342v2.252l1.9,1.152" transform="translate(-210.976 -170.342)" fill="none" stroke="#344b7e" stroke-linecap="round" stroke-miterlimit="10" stroke-width="2"/>
                <path id="Trazado_1095182" data-name="Trazado 1095182" d="M173.6,201.117c-.072.215-1.593,2.927-1.593,2.927l3.237.167Z" transform="translate(-172.01 -190.463)" fill="#344b7e"/>
              </g>
            </g>
          </g>
          <g id="Grupo_1191218" data-name="Grupo 1191218" transform="translate(84.549 52.637)">
            <g id="Grupo_1191204" data-name="Grupo 1191204">
              <g id="Grupo_1191192" data-name="Grupo 1191192" transform="translate(0 10.307)">
                <g id="Grupo_1191188" data-name="Grupo 1191188" transform="translate(19.414 7.44)">
                  <path id="Trazado_1095183" data-name="Trazado 1095183" d="M301.426,211.48l-1.133-1.3.353-6.881,1.238.423.493,5.093Z" transform="translate(-300.293 -203.301)" fill="#bc610f"/>
                </g>
                <g id="Grupo_1191189" data-name="Grupo 1191189">
                  <path id="Trazado_1095184" data-name="Trazado 1095184" d="M251.727,188.389l12.178,7.631a2.675,2.675,0,0,0,3.859-1.169h0a2.675,2.675,0,0,0-1.449-3.583l-13.36-5.322-.588-1.163A5.283,5.283,0,0,0,250.9,183l-1.523-1.185h0a1.133,1.133,0,0,0,.187,1.514l.127.109-1.412-.607a6.044,6.044,0,0,0-1.889-.47h0a2,2,0,0,0-2.054,1.328h0a2.005,2.005,0,0,0,1.316,2.592l.97.29,1.692.984a6.25,6.25,0,0,0,3.417.84Z" transform="translate(-244.217 -181.811)" fill="#f0bf9c"/>
                  <path id="Trazado_1095185" data-name="Trazado 1095185" d="M259.354,186.5h0a3.594,3.594,0,0,0,1.3,3.436l.4.321-.4-.142a2.484,2.484,0,0,1-1.3-3.615Z" transform="translate(-253.882 -184.875)" fill="#eba588"/>
                </g>
                <path id="Trazado_1095186" data-name="Trazado 1095186" d="M301.107,212.245l1.7,1.156-.562-6.935-1.294-.5Z" transform="translate(-281.313 -197.603)" fill="#bc825b"/>
                <g id="Grupo_1191191" data-name="Grupo 1191191" transform="translate(19.767 7.44)">
                  <g id="Grupo_1191190" data-name="Grupo 1191190">
                    <path id="Trazado_1095187" data-name="Trazado 1095187" d="M301.314,203.527V203.3s9.759,3.394,10.865,3.1l6.258-1.66,3.944-.373,6.336,1.5a5.116,5.116,0,0,1,3.637,3.242l3.482,9.65-5.808,1.385,1.066,14.121H311.378l.693-13.641-.906-4.9-9.071-4.238.019-1.237C302.15,207.9,302.839,205.3,301.314,203.527Z" transform="translate(-301.314 -203.301)" fill="#ff901b"/>
                    <path id="Trazado_1095188" data-name="Trazado 1095188" d="M327.455,228.829l-.959-5.475-.179,1.21a7.926,7.926,0,0,0,.419,3.945h0Z" transform="translate(-317.604 -216.412)" fill="#dd700e"/>
                  </g>
                  <path id="Trazado_1095189" data-name="Trazado 1095189" d="M377.071,228.421l-1.2.253-1.758-8.313,1.719-4.4h0a5.058,5.058,0,0,0-1.958,4v.394h0a5.829,5.829,0,0,0-.472,3.826l1.282,5.9a2.4,2.4,0,0,0,.647,1.185h0a2.4,2.4,0,0,1,.694,1.5l.724,9.781h1.389Z" transform="translate(-348.358 -211.581)" fill="#dd700e"/>
                </g>
              </g>
              <g id="Grupo_1191196" data-name="Grupo 1191196" transform="translate(26.154 48.707)">
                <g id="Grupo_1191193" data-name="Grupo 1191193" transform="translate(13.375 47.757)">
                  <path id="Trazado_1095190" data-name="Trazado 1095190" d="M379.975,434.253a1.8,1.8,0,0,0-1.27-.526h-2.064a3.7,3.7,0,0,0,.282-2.6l-.116-.448h4.943l.686,4.1h-1.191A1.8,1.8,0,0,1,379.975,434.253Z" transform="translate(-370.324 -430.676)" fill="#f0bf9c"/>
                  <path id="Trazado_1095191" data-name="Trazado 1095191" d="M361.7,442.759l1.177-.461a3.706,3.706,0,0,0,1.447-1.022l.9-1.038a3.7,3.7,0,0,0,.5-.751h2.064a1.8,1.8,0,0,1,1.27.526,1.8,1.8,0,0,0,1.27.526h1.191l.611,3.65H359.949A3.7,3.7,0,0,1,361.7,442.759Z" transform="translate(-359.411 -436.437)" fill="#070707"/>
                  <path id="Trazado_1095192" data-name="Trazado 1095192" d="M371.117,453.069l.225,1.345H358.394a3.687,3.687,0,0,1,.539-1.345Z" transform="translate(-358.394 -445.316)" fill="#fff"/>
                </g>
                <g id="Grupo_1191194" data-name="Grupo 1191194" transform="translate(0 47.757)">
                  <path id="Trazado_1095193" data-name="Trazado 1095193" d="M341.344,434.252a1.8,1.8,0,0,0-1.27-.526h-1.8a3.7,3.7,0,0,0,.589-2.223l-.049-.828h4.928l-.1,2.225.32,1.878h-1.348A1.8,1.8,0,0,1,341.344,434.252Z" transform="translate(-331.866 -430.675)" fill="#f0bf9c"/>
                  <path id="Trazado_1095194" data-name="Trazado 1095194" d="M323.068,442.758l1.177-.461a3.7,3.7,0,0,0,1.447-1.022l1.187-1.37a3.729,3.729,0,0,0,.309-.419h1.8a1.8,1.8,0,0,1,1.27.526,1.8,1.8,0,0,0,1.27.526h1.348l.622,3.65h-12.18A3.7,3.7,0,0,1,323.068,442.758Z" transform="translate(-320.779 -436.436)" fill="#070707"/>
                  <path id="Trazado_1095195" data-name="Trazado 1095195" d="M332.481,453.069l.23,1.345H319.762a3.693,3.693,0,0,1,.539-1.345Z" transform="translate(-319.762 -445.316)" fill="#fff"/>
                </g>
                <g id="Grupo_1191195" data-name="Grupo 1191195" transform="translate(3.062)">
                  <path id="Trazado_1095196" data-name="Trazado 1095196" d="M348.938,292.73l.1.44a40.729,40.729,0,0,1,1.016,9.793l-.237,13.318,1.635,25.987h-6.59l-5.25-24.282-1.119,24.282h-6.809l-1.983-25.88-.986-13.555a40.722,40.722,0,0,1,.331-8.915l.176-1.19Z" transform="translate(-328.608 -292.73)" fill="#60a2f4"/>
                  <path id="Trazado_1095197" data-name="Trazado 1095197" d="M348.068,327.949l-1.258-18.757-5.27-1.226,4.449,2.185-.373,12.442,1.492,5.142-1.012,4.636,1.012,2.131-.852,2.238.693,15.489Z" transform="translate(-337.063 -302.692)" fill="#2d7fc9"/>
                  <path id="Trazado_1095198" data-name="Trazado 1095198" d="M348.262,292.73l-.3,2.889a3.71,3.71,0,0,0,.1,1.317l.515,1.987-.978-.513a2.122,2.122,0,0,1-1.035-1.234l-.23-.721a1.466,1.466,0,0,1-.053-.668l.467-3.057h1.519Z" transform="translate(-340.148 -292.73)" fill="#2d7fc9"/>
                </g>
              </g>
              <g id="Grupo_1191200" data-name="Grupo 1191200" transform="translate(30.388)">
                <g id="Grupo_1191197" data-name="Grupo 1191197" transform="translate(5.491 15.244)">
                  <path id="Trazado_1095199" data-name="Trazado 1095199" d="M352.327,198.249a4.834,4.834,0,0,0,1.025-1.757c.042-.12.079-.241.115-.363l.337-.057.559,4.822-.88.552a4.458,4.458,0,0,1-4.768-.019h0l-.235-2.294a3.59,3.59,0,0,0,1.164.226A3.661,3.661,0,0,0,352.327,198.249Z" transform="translate(-348.262 -196.072)" fill="#f0bf9c"/>
                  <path id="Trazado_1095200" data-name="Trazado 1095200" d="M353.055,196.236c-.036.122-.073.243-.115.363a4.842,4.842,0,0,1-1.025,1.757,3.66,3.66,0,0,1-2.683,1.111,3.586,3.586,0,0,1-1.164-.226l-.218-2.128Z" transform="translate(-347.851 -196.179)" fill="#422c4f"/>
                </g>
                <g id="Grupo_1191199" data-name="Grupo 1191199">
                  <path id="Trazado_1095201" data-name="Trazado 1095201" d="M342.589,174.585h0a5.435,5.435,0,0,0,5.435-5.435v-3.523a5.435,5.435,0,0,0-5.435-5.435h0a5.435,5.435,0,0,0-5.435,5.435v3.523A5.435,5.435,0,0,0,342.589,174.585Z" transform="translate(-335.367 -157.37)" fill="#f0bf9c"/>
                  <path id="Trazado_1095202" data-name="Trazado 1095202" d="M337.28,153.1a6.037,6.037,0,0,1,8.11,1.17,8.118,8.118,0,0,1,1.62,4.8,24.659,24.659,0,0,1-.336,5.185h-2a2.212,2.212,0,0,1-1.543-2.108V159.9c-4.073,0-4.768-1.134-6.235-2.907-2.324,0-3.117,2.3-3.117,4.347v2.478s-1.753-5.027-1.785-6.335a4.856,4.856,0,0,1,1.359-3.567A4.28,4.28,0,0,1,337.28,153.1Z" transform="translate(-331.991 -152.039)" fill="#070707"/>
                  <g id="Grupo_1191198" data-name="Grupo 1191198" transform="translate(11.859 10.206)">
                    <path id="Trazado_1095203" data-name="Trazado 1095203" d="M366.245,183.529a2.011,2.011,0,1,0,2.011-2.011A2.011,2.011,0,0,0,366.245,183.529Z" transform="translate(-366.245 -181.518)" fill="#f0bf9c"/>
                    <path id="Trazado_1095204" data-name="Trazado 1095204" d="M368.622,185.084a1.188,1.188,0,1,0,1.188-1.188A1.188,1.188,0,0,0,368.622,185.084Z" transform="translate(-367.799 -183.073)" fill="#eba588"/>
                  </g>
                </g>
              </g>
              <path id="Trazado_1095205" data-name="Trazado 1095205" d="M383.059,248.752l-5.212,1.281L379.115,257l-1.554,12.963-1.9,2.406a1.566,1.566,0,0,0-.263,1.429l1.109,3.6.292.054a1.933,1.933,0,0,0,2.2-2.277h0a7.653,7.653,0,0,0,1.517-4.318l3.675-12.42a6.978,6.978,0,0,0,.149-3.353Z" transform="translate(-329.934 -215.27)" fill="#f0bf9c"/>
              <path id="Trazado_1095206" data-name="Trazado 1095206" d="M387.908,248.752l-5.148,1.214.354,1.866,4.9-2.553Z" transform="translate(-334.796 -215.27)" fill="#bc825b"/>
              <g id="Grupo_1191203" data-name="Grupo 1191203" transform="translate(31.808 8.255)">
                <g id="Grupo_1191201" data-name="Grupo 1191201" transform="translate(4.342)">
                  <path id="Trazado_1095207" data-name="Trazado 1095207" d="M350.244,175.883a2.019,2.019,0,0,1,1.611.8h-3.221A2.019,2.019,0,0,1,350.244,175.883Z" transform="translate(-348.633 -175.883)" fill="#7c4756"/>
                </g>
                <path id="Trazado_1095208" data-name="Trazado 1095208" d="M351.98,180.956a.452.452,0,1,0,.452-.452A.452.452,0,0,0,351.98,180.956Z" transform="translate(-346.48 -178.904)" fill="#422c4f"/>
                <g id="Grupo_1191202" data-name="Grupo 1191202">
                  <path id="Trazado_1095209" data-name="Trazado 1095209" d="M337.429,175.883a1.6,1.6,0,0,0-1.337.8h2.674A1.6,1.6,0,0,0,337.429,175.883Z" transform="translate(-336.092 -175.883)" fill="#7c4756"/>
                </g>
                <path id="Trazado_1095210" data-name="Trazado 1095210" d="M339.622,180.956a.381.381,0,1,1-.375-.452A.419.419,0,0,1,339.622,180.956Z" transform="translate(-337.91 -178.904)" fill="#422c4f"/>
                <path id="Trazado_1095211" data-name="Trazado 1095211" d="M345.266,188.4h1.677a1.012,1.012,0,0,1-.793.516A1.176,1.176,0,0,1,345.266,188.4Z" transform="translate(-342.09 -184.064)" fill="#eba588"/>
                <path id="Trazado_1095212" data-name="Trazado 1095212" d="M342.89,191.865a14.165,14.165,0,0,0,3.977.221,2.271,2.271,0,0,1-2.006,1.257A2.446,2.446,0,0,1,342.89,191.865Z" transform="translate(-340.537 -186.332)" fill="#fff"/>
              </g>
            </g>
            <g id="Grupo_1191215" data-name="Grupo 1191215" transform="translate(78.195 16.738)">
              <path id="Trazado_1095213" data-name="Trazado 1095213" d="M491.724,327.5h2.525l-8.875,44.115h-2.525Z" transform="translate(-478.429 -283.493)" fill="#37539a"/>
              <g id="Grupo_1191214" data-name="Grupo 1191214">
                <g id="Grupo_1191209" data-name="Grupo 1191209" transform="translate(0 49.056)">
                  <g id="Grupo_1191206" data-name="Grupo 1191206" transform="translate(0 31.155)">
                    <path id="Trazado_1095214" data-name="Trazado 1095214" d="M493.6,432.077l-1.45,5.793h-4.9l1.225-5.793Z" transform="translate(-481.304 -432.077)" fill="#f99d87"/>
                    <g id="Grupo_1191205" data-name="Grupo 1191205" transform="translate(0 2.579)">
                      <path id="Trazado_1095215" data-name="Trazado 1095215" d="M473.261,442.67l1.131-.443a3.558,3.558,0,0,0,1.39-.982l.864-1a3.568,3.568,0,0,0,.485-.721h1.983a1.725,1.725,0,0,1,1.221.506,1.727,1.727,0,0,0,1.221.506H482.7l.587,3.508H471.578A3.548,3.548,0,0,1,473.261,442.67Z" transform="translate(-471.06 -439.526)" fill="#070707"/>
                      <path id="Trazado_1095216" data-name="Trazado 1095216" d="M482.309,452.578l.216,1.293H470.082a3.548,3.548,0,0,1,.518-1.293Z" transform="translate(-470.082 -448.059)" fill="#fff"/>
                    </g>
                  </g>
                  <g id="Grupo_1191208" data-name="Grupo 1191208" transform="translate(9.598 31.155)">
                    <path id="Trazado_1095217" data-name="Trazado 1095217" d="M514.276,432.077l1,7.13h5.013l-.2-7.13Z" transform="translate(-508.574 -432.077)" fill="#f99d87"/>
                    <g id="Grupo_1191207" data-name="Grupo 1191207" transform="translate(0 2.579)">
                      <path id="Trazado_1095218" data-name="Trazado 1095218" d="M500.985,442.67l1.131-.443a3.555,3.555,0,0,0,1.39-.982l.864-1a3.552,3.552,0,0,0,.484-.721h1.983a1.725,1.725,0,0,1,1.221.506,1.727,1.727,0,0,0,1.221.506h1.145l.587,3.508H499.3A3.553,3.553,0,0,1,500.985,442.67Z" transform="translate(-498.784 -439.526)" fill="#070707"/>
                      <path id="Trazado_1095219" data-name="Trazado 1095219" d="M510.034,452.578l.216,1.293H497.807a3.547,3.547,0,0,1,.518-1.293Z" transform="translate(-497.807 -448.059)" fill="#fff"/>
                    </g>
                  </g>
                  <path id="Trazado_1095220" data-name="Trazado 1095220" d="M492.043,362.556s-7.032,25.677-5.909,25.931,7.064-.786,7.064-.786l4.307-17.527Z" transform="translate(-480.497 -355.469)" fill="#e36b85"/>
                  <path id="Trazado_1095221" data-name="Trazado 1095221" d="M511.724,374.318l-.891-18.122s19.012,4.457,29.261,1.04,5.644-15.151,5.644-15.151l-34.906,2.228s-11.14-1.19-9.209,11.882,3.119,18.122,3.119,18.122h6.981Z" transform="translate(-490.557 -342.086)" fill="#e68799"/>
                </g>
                <path id="Trazado_1095222" data-name="Trazado 1095222" d="M582.831,339.558c2.437-1.143,6.027-3.963,7.575-10.858,2.451-10.917,1.114-18.047-5.459-17.935s-2.339,11.883-6.313,18.27-13.257.149-13.776,5.644c-.4,4.194,2.578,5.273,4.01,5.549v1.135h1.343l-7.99,19.31h2.553l3.81-9.209h14.659l3.81,9.209h2.553l-7.99-19.31h1.213v-1.8Zm-.478,9.751H569.476l3.288-7.947h6.3Z" transform="translate(-530.323 -272.551)" fill="#252728"/>
                <path id="Trazado_1095223" data-name="Trazado 1095223" d="M551.017,327.5h-2.525l8.875,44.115h2.525Z" transform="translate(-521.346 -283.493)" fill="#37539a"/>
                <g id="Grupo_1191213" data-name="Grupo 1191213" transform="translate(17.353)">
                  <path id="Trazado_1095224" data-name="Trazado 1095224" d="M592.486,330.141a5.966,5.966,0,0,1-1.494,3.676c-2.642-1.13-4.832-3.039-7.671-3.794-3.306-.88-6.781-.88-10.162-1.226-2.338-.251.092-4.128.639-5.2a13.534,13.534,0,0,0,1.5-6.624c3.407,1.88,8.125,3.706,10.23,7.065.759,1.211,1.6,2.9,2.917,3.6,1.188.637,2.724.092,3.631,1.33A2.18,2.18,0,0,1,592.486,330.141Z" transform="translate(-554.174 -276.609)" fill="#dd9a05"/>
                  <g id="Grupo_1191212" data-name="Grupo 1191212">
                    <path id="Trazado_1095225" data-name="Trazado 1095225" d="M522.32,263.589s-3.058-3.429-1.82-4.024a5.609,5.609,0,0,1,2.785-.637c.223.1-1.188-3.452-.371-3.518s2.053,4.117,2.14,6.556S522.32,263.589,522.32,263.589Z" transform="translate(-520.205 -236.361)" fill="#e9b98a"/>
                    <path id="Trazado_1095226" data-name="Trazado 1095226" d="M522.522,266.668l4.539-.981,3.19,9.445s10.419-13.625,14.712-13.871l-2.568,11.049s-9.323,9.568-10.672,9.813-4.907.736-6.256-.613S522.522,266.668,522.522,266.668Z" transform="translate(-521.72 -240.187)" fill="#4498e2"/>
                    <path id="Trazado_1095227" data-name="Trazado 1095227" d="M591.262,216.044q2.387,5.737,4.743,11.488a11.565,11.565,0,0,1,1.213,2.964c.029.685-.571.913-1.239,1.175a21.607,21.607,0,0,1-4.4.814c-1.716.289-3.445.677-5.174.872-2.117.239-3.869-1.474-4.47-3.4a13.5,13.5,0,0,1-.186-5.342c.178-1.8.346-3.6.479-5.4.08-1.079.163-2.163.174-3.246.011-1.066-1.05-1.969-.132-2.986a4.053,4.053,0,0,1,2.186-1,6.5,6.5,0,0,1,3.335-.175C589.6,212.36,590.536,214.3,591.262,216.044Z" transform="translate(-560.331 -207.751)" fill="#1f2326"/>
                    <path id="Trazado_1095228" data-name="Trazado 1095228" d="M570.289,277.991c-.1-4.079,2.555-7.692,3.4-11.684a130.022,130.022,0,0,0-.083,14.326c.072,1.457-.782,3.183-2.075,1.66A7.588,7.588,0,0,1,570.289,277.991Z" transform="translate(-552.948 -243.486)" fill="#2d7fc9"/>
                    <path id="Trazado_1095229" data-name="Trazado 1095229" d="M593.517,287.244c.1,1.735.15,3.472.14,5.21-.015,2.623-2.2,3.1-4.338,1.863a17.862,17.862,0,0,0-7.11-2.782c-3.731-.357-3.975-1.276-3.945-5.315.03-3.949-1.753-7.534-2.834-11.247a17.44,17.44,0,0,1-.962-5.649c.132-1.983,1.29-4.077,2.032-5.936,1.557-3.9,6.964-3.692,10.372-3.227,1.911.261,4.051.376,5.243,1.973a9.634,9.634,0,0,1,1.208,7.781c-.746,3.2-2.124,6.411-1.544,9.643.376,2.1,1.447,3.644,1.612,5.792Q593.463,286.3,593.517,287.244Z" transform="translate(-555.672 -239.307)" fill="#f4b516"/>
                    <path id="Trazado_1095230" data-name="Trazado 1095230" d="M578.38,260.714c-.048.312-2.691,1.043-2.98,1.949s-2.243,6.838-2.243,6.838l1.075,12.222-1.682,10.425-4.162-1.12,2.8-12.323L570.2,268.51l3.015-7.34a8.732,8.732,0,0,1,4.505-1.261C580.536,259.839,578.38,260.714,578.38,260.714Z" transform="translate(-551.707 -239.3)" fill="#4498e2"/>
                    <path id="Trazado_1095231" data-name="Trazado 1095231" d="M600.625,258.892s-3.7,6.725-3.556,10.963c.2,5.988-1.175,12.592.592,18.579.68,2.3,2.372,3.84,4.125,5.361a10.131,10.131,0,0,1,2.544,2.447c.537,1.092-.077,2.3.949,3.365a4.165,4.165,0,0,0,2.662,1.138,12.392,12.392,0,0,0,2.943-.218c-1.547.24-1.8-10.571-1.921-11.658-.614-5.42-1.252-10.861-2.009-16.243-.157-1.115-.181-12.1-.827-12.276Z" transform="translate(-570.248 -238.638)" fill="#60a2f4"/>
                    <path id="Trazado_1095232" data-name="Trazado 1095232" d="M605.6,281.259a89.873,89.873,0,0,1-3.022,10.471,35.7,35.7,0,0,1-2.319,5.021c-.7,1.226-1.116,2.608-1.8,3.77a41.942,41.942,0,0,1-1.684-4.555c-.269-2.118.668-2.768,1.953-4.389A75.113,75.113,0,0,0,605.6,281.259Z" transform="translate(-570.238 -253.261)" fill="#5397e0"/>
                    <path id="Trazado_1095233" data-name="Trazado 1095233" d="M599.392,318.354c-.027.088,1.483,2.511,1.6,2.7a14.833,14.833,0,0,0,2.669,3.245c.113.1,3.015-4.894,3.238-5.366a36.5,36.5,0,0,0,2.215-6.448c.7-2.678.211-5.12-.141-7.829Z" transform="translate(-571.977 -268.559)" fill="#5397e0"/>
                    <path id="Trazado_1095234" data-name="Trazado 1095234" d="M597.071,244.529a3.6,3.6,0,0,1-2.589,2.383c-.725.238-3.2.775-3.758.186-.385-.4-.132-1.056.072-1.577a5.433,5.433,0,0,0,.344-1.431A6.453,6.453,0,0,0,590,239.862c.005-.006.005-.006,0-.006-.125-.2-.259-.379-.4-.564a.006.006,0,0,1-.006-.005l.251-.169a2.226,2.226,0,0,1,.267-.119,13.33,13.33,0,0,1,1.893-.385,26.983,26.983,0,0,0,3.357-1.151c.2-.08.4-.153.6-.227C594.516,237.757,597.31,243.5,597.071,244.529Z" transform="translate(-565.571 -224.479)" fill="#e9b98a"/>
                    <path id="Trazado_1095235" data-name="Trazado 1095235" d="M596.491,238.929a11.82,11.82,0,0,1-4.22,6.627,6.453,6.453,0,0,0-1.142-4.229c.005-.006.005-.006,0-.006-.2-.44-.358-.545-.4-.564a.006.006,0,0,1-.006-.005l.251-.169a2.222,2.222,0,0,1,.267-.119,13.331,13.331,0,0,1,1.893-.385A27,27,0,0,0,596.491,238.929Z" transform="translate(-566.309 -225.586)" fill="#ca876f"/>
                    <path id="Trazado_1095236" data-name="Trazado 1095236" d="M589.3,210.384c1.224,1.74,1.012,3.426.816,5.395-.124,1.244-1.023,3.64-2.772,3.094a2.514,2.514,0,0,0-.087.312c-.706,2.6-4.639,5.656-7.129,3.379-1.927-1.762-2.492-5.136-2.473-7.62,0-.213.01-.414.024-.6a14.47,14.47,0,0,1,.573-3.84,3.586,3.586,0,0,1,1.668-1.685C582.8,207.095,587.286,207.514,589.3,210.384Z" transform="translate(-557.767 -205.233)" fill="#e9b98a"/>
                    <path id="Trazado_1095237" data-name="Trazado 1095237" d="M588.715,221.646a3.3,3.3,0,0,1-2.19-1.575,9.177,9.177,0,0,1-1.671-5.375c-.142-1.894.716-3.876.187-5.728a6.755,6.755,0,0,1-.342-1.387c0-.091,0-.182,0-.279,0,.092-.009.184-.01.276-.039,1.057-.072,2.113-.112,3.164a22.036,22.036,0,0,0-2.117-.7c-1.062-.375-.785-.05-1.023-1.123a6.172,6.172,0,0,1-.052-1.6c.018-.368.048-.733.044-1.058-.061.347-.124.689-.185,1.036-.135.759-.274,1.525-.409,2.284-.815-.131-1.625-.262-2.435-.394-.029-.886-.058-1.765-.087-2.651-.014-.42-.028-.846-.042-1.266-.1.382-.2.764-.3,1.146-.214.829-.434,1.655-.649,2.484l-3.354-.291a6.619,6.619,0,0,1,.6-3.9c.085-.174.175-.349.273-.514a4.694,4.694,0,0,1,2.546-2.033c.2-.1.405-.205.629-.329a9.769,9.769,0,0,1,3.135-1.345c1.933-.349,5.149.1,5.315,2.614a1.936,1.936,0,0,1,.7-.061,2.333,2.333,0,0,1,.937.31,2.51,2.51,0,0,1,.651.541,5.166,5.166,0,0,1,.906,2.935c.028.338.056.67.1.981a29.568,29.568,0,0,0,.977,4.476,30.614,30.614,0,0,0,1.629,4.28,12.728,12.728,0,0,0,1.045,2.033C594.891,220.683,590.072,221.88,588.715,221.646Z" transform="translate(-555.306 -200.388)" fill="#1f2326"/>
                    <g id="Grupo_1191210" data-name="Grupo 1191210" transform="translate(21.48 10.087)">
                      <path id="Trazado_1095238" data-name="Trazado 1095238" d="M586.15,230.115s-1.175,2.753-2.024,3.294,1.415,1.113,2.211.058c0,0-.8.363-.837-.329A17.489,17.489,0,0,1,586.15,230.115Z" transform="translate(-583.353 -229.911)" fill="#ca876f"/>
                      <path id="Trazado_1095239" data-name="Trazado 1095239" d="M582.252,230.345c-.03.467.132.858.362.873s.441-.352.471-.819-.132-.858-.362-.873S582.282,229.877,582.252,230.345Z" transform="translate(-582.249 -229.525)" fill="#1f2326"/>
                      <path id="Trazado_1095240" data-name="Trazado 1095240" d="M593.5,230.558c-.03.467.132.858.362.873s.441-.352.471-.819-.132-.858-.362-.873S593.534,230.09,593.5,230.558Z" transform="translate(-589.605 -229.664)" fill="#1f2326"/>
                      <path id="Trazado_1095241" data-name="Trazado 1095241" d="M584.25,242.88a3.986,3.986,0,0,0,3.112-.187,2.236,2.236,0,0,1-1.808.98C584.358,243.667,584.25,242.88,584.25,242.88Z" transform="translate(-583.557 -238.134)" fill="#fff"/>
                    </g>
                    <g id="Grupo_1191211" data-name="Grupo 1191211" transform="translate(12.632 21.603)">
                      <path id="Trazado_1095242" data-name="Trazado 1095242" d="M565.158,306.3s-1.493-1-3.024-2.045a6.465,6.465,0,0,0-4.271-.987c-.682.027-2.146,1.2-.195,1.1s-1.894.639.279,2.161c2.328,1.631,4.109.6,4.966,1.988S565.158,306.3,565.158,306.3Z" transform="translate(-556.693 -289.244)" fill="#e9b98a"/>
                      <path id="Trazado_1095243" data-name="Trazado 1095243" d="M586.267,269.963s-.943,9.065-2.312,9.331-10.872-1.231-10.872-1.231l-2.8,4.314s19.824,9.367,21.065,3.763,2.851-17.431-2.524-23.243C587.771,261.756,586.267,269.963,586.267,269.963Z" transform="translate(-565.579 -262.788)" fill="#60a2f4"/>
                    </g>
                  </g>
                </g>
              </g>
            </g>
            <g id="Grupo_1191217" data-name="Grupo 1191217" transform="translate(21.568 41.47)">
              <path id="Trazado_1095244" data-name="Trazado 1095244" d="M374.682,327.5h-2.525l8.875,44.115h2.525Z" transform="translate(-349.431 -308.224)" fill="#37539a"/>
              <path id="Trazado_1095245" data-name="Trazado 1095245" d="M315.389,327.5h2.525l-8.875,44.115h-2.525Z" transform="translate(-306.514 -308.224)" fill="#37539a"/>
              <rect id="Rectángulo_459835" data-name="Rectángulo 459835" width="87.19" height="4.01" transform="translate(1.894 17.269)" fill="#f7f7f7"/>
              <g id="Grupo_1191216" data-name="Grupo 1191216" transform="translate(32.754)">
                <rect id="Rectángulo_459836" data-name="Rectángulo 459836" width="21.683" height="1.658" transform="translate(28.262 15.307)" fill="#304573"/>
                <path id="Trazado_1095246" data-name="Trazado 1095246" d="M412.556,288.687l-6.889-15.581a.912.912,0,0,1,.835-1.281h29.652a.912.912,0,0,1,.841.559l6.95,16.568Z" transform="translate(-404.043 -271.825)" fill="#304573"/>
                <path id="Trazado_1095247" data-name="Trazado 1095247" d="M408.092,288.687,401.2,273.106a.912.912,0,0,1,.834-1.281h29.652a.912.912,0,0,1,.841.559l6.95,16.568Z" transform="translate(-401.124 -271.825)" fill="#344b7e"/>
                <path id="Trazado_1095248" data-name="Trazado 1095248" d="M452.982,288.672a2.5,2.5,0,1,1-3.25-1.975A2.707,2.707,0,0,1,452.982,288.672Z" transform="translate(-431.857 -281.478)" fill="#fff"/>
              </g>
            </g>
          </g>
          <g id="Grupo_1191238" data-name="Grupo 1191238" transform="translate(9.256 19.408)">
            <g id="Grupo_1191222" data-name="Grupo 1191222" transform="translate(76.378 28.038)">
              <g id="Grupo_1191221" data-name="Grupo 1191221">
                <g id="Grupo_1191219" data-name="Grupo 1191219">
                  <path id="Trazado_1095249" data-name="Trazado 1095249" d="M265.445,144.088h-14.57a3.522,3.522,0,0,1-3.522-3.522h0a3.521,3.521,0,0,1,3.522-3.522h14.57a3.522,3.522,0,0,1,3.522,3.522h0A3.522,3.522,0,0,1,265.445,144.088Z" transform="translate(-247.354 -137.045)" fill="#ff901b"/>
                </g>
                <g id="Grupo_1191220" data-name="Grupo 1191220" transform="translate(6.041 2.608)">
                  <path id="Trazado_1095250" data-name="Trazado 1095250" d="M266.6,145.547a.9.9,0,1,1-.9-.9A.9.9,0,0,1,266.6,145.547Z" transform="translate(-264.802 -144.625)" fill="#fff"/>
                  <path id="Trazado_1095251" data-name="Trazado 1095251" d="M277.767,145.511a.9.9,0,1,1-.9-.9A.9.9,0,0,1,277.767,145.511Z" transform="translate(-272.1 -144.601)" fill="#fff"/>
                  <path id="Trazado_1095252" data-name="Trazado 1095252" d="M288.931,145.477a.9.9,0,1,1-.9-.9A.9.9,0,0,1,288.931,145.477Z" transform="translate(-279.399 -144.579)" fill="#fff"/>
                </g>
              </g>
            </g>
            <g id="Grupo_1191237" data-name="Grupo 1191237">
              <g id="Grupo_1191224" data-name="Grupo 1191224" transform="translate(203.526 29.513)">
                <g id="Grupo_1191223" data-name="Grupo 1191223">
                  <circle id="Elipse_11542" data-name="Elipse 11542" cx="7.711" cy="7.711" r="7.711" fill="#f99595"/>
                </g>
                <path id="Trazado_1095253" data-name="Trazado 1095253" d="M633.489,156.987a1.6,1.6,0,0,0-2.262.024l-.407.416-.419-.413a1.6,1.6,0,1,0-2.244,2.279l1.556,1.532.009.01a1.6,1.6,0,0,0,2.262-.024l1.531-1.563A1.6,1.6,0,0,0,633.489,156.987Z" transform="translate(-623.157 -151.26)" fill="#fff"/>
              </g>
              <g id="Grupo_1191231" data-name="Grupo 1191231" transform="translate(162.08 0.45)">
                <g id="Grupo_1191227" data-name="Grupo 1191227">
                  <g id="Grupo_1191226" data-name="Grupo 1191226">
                    <g id="Grupo_1191225" data-name="Grupo 1191225">
                      <path id="Trazado_1095254" data-name="Trazado 1095254" d="M508.328,70.58H496.756a1.854,1.854,0,0,1-1.854-1.854v-9.92a1.446,1.446,0,0,1,1.446-1.446h11.979a1.446,1.446,0,0,1,1.446,1.446V69.134A1.446,1.446,0,0,1,508.328,70.58Z" transform="translate(-494.902 -57.36)" fill="#60a2f4"/>
                    </g>
                  </g>
                </g>
                <g id="Grupo_1191230" data-name="Grupo 1191230" transform="translate(3.844 2.802)">
                  <g id="Grupo_1191229" data-name="Grupo 1191229" transform="translate(2.318)">
                    <g id="Grupo_1191228" data-name="Grupo 1191228">
                      <path id="Trazado_1095255" data-name="Trazado 1095255" d="M512.747,72.113c1.262.021,2.539.039,3.7-.042.367-.026.685-.609.239-.793a.824.824,0,0,0,.46-.4.394.394,0,0,0-.223-.521c.438.108.61-.586.269-.81a1.022,1.022,0,0,0,.369-.592.593.593,0,0,0-.266-.612.959.959,0,0,0-.455-.079l-1.574-.012a3.634,3.634,0,0,0-.232-2.437c-.126-.217-.463-.477-.732-.311-.251.157-.181.546-.169.792a2.773,2.773,0,0,1-1.431,2.53S512.76,71,512.747,72.113Z" transform="translate(-512.7 -65.453)" fill="#f9f9f9"/>
                    </g>
                  </g>
                  <rect id="Rectángulo_459837" data-name="Rectángulo 459837" width="1.907" height="3.282" transform="translate(0 3.375)" fill="#f9f9f9"/>
                </g>
              </g>
              <g id="Grupo_1191232" data-name="Grupo 1191232" transform="translate(0 5.343)">
                <path id="Trazado_1095256" data-name="Trazado 1095256" d="M672.489,235.414l-10.528.022a1.267,1.267,0,0,1-1.269-1.266h0a1.267,1.267,0,0,1,1.265-1.269l10.528-.023a1.267,1.267,0,0,1,1.269,1.265h0A1.267,1.267,0,0,1,672.489,235.414Z" transform="translate(-441.215 -177.006)" fill="#b1dcfb"/>
                <path id="Trazado_1095257" data-name="Trazado 1095257" d="M49.536,230.788l-21.53.023a1.267,1.267,0,0,1-1.269-1.265h0A1.267,1.267,0,0,1,28,228.276l21.53-.023a1.267,1.267,0,0,1,1.269,1.266h0A1.267,1.267,0,0,1,49.536,230.788Z" transform="translate(-26.737 -173.982)" fill="#b1dcfb"/>
                <path id="Trazado_1095258" data-name="Trazado 1095258" d="M609.859,108.556l-2.009,0a.956.956,0,0,1-.957-.954l0-1.886a.956.956,0,0,1,.955-.957l2.009,0a.956.956,0,0,1,.957.954l0,1.886A.956.956,0,0,1,609.859,108.556Z" transform="translate(-406.039 -93.241)" fill="#b1dcfb"/>
                <path id="Trazado_1095259" data-name="Trazado 1095259" d="M81.478,363.659l-2.009,0a.956.956,0,0,1-.957-.955l0-1.886a.956.956,0,0,1,.954-.957l2.009,0a.956.956,0,0,1,.957.954l0,1.886A.956.956,0,0,1,81.478,363.659Z" transform="translate(-60.585 -260.027)" fill="#b1dcfb"/>
                <path id="Trazado_1095260" data-name="Trazado 1095260" d="M278.8,253.925l-1.765,0a.84.84,0,0,1-.841-.839l0-1.657a.84.84,0,0,1,.839-.841l1.765,0a.84.84,0,0,1,.841.839l0,1.657A.84.84,0,0,1,278.8,253.925Z" transform="translate(-189.83 -188.584)" fill="#fff"/>
                <path id="Trazado_1095261" data-name="Trazado 1095261" d="M240.337,94.439H229.848a1.248,1.248,0,0,1-1.248-1.248h0a1.248,1.248,0,0,1,1.248-1.248h10.489a1.248,1.248,0,0,1,1.248,1.248h0A1.248,1.248,0,0,1,240.337,94.439Z" transform="translate(-158.714 -84.863)" fill="#fff"/>
                <path id="Trazado_1095262" data-name="Trazado 1095262" d="M377.995,73.988H367.506a1.248,1.248,0,0,1-1.248-1.248h0a1.248,1.248,0,0,1,1.248-1.248h10.489a1.248,1.248,0,0,1,1.248,1.248h0A1.247,1.247,0,0,1,377.995,73.988Z" transform="translate(-248.715 -71.492)" fill="#60a2f4"/>
              </g>
              <g id="Grupo_1191234" data-name="Grupo 1191234" transform="translate(90.141)">
                <path id="Trazado_1095263" data-name="Trazado 1095263" d="M302.109,70.4h-12.7a2.306,2.306,0,0,1-2.306-2.306V58.365a2.306,2.306,0,0,1,2.306-2.306h12.7a2.306,2.306,0,0,1,2.306,2.306v9.729A2.306,2.306,0,0,1,302.109,70.4Z" transform="translate(-287.107 -56.059)" fill="#f99595"/>
                <g id="Grupo_1191233" data-name="Grupo 1191233" transform="translate(2.816 2.904)">
                  <rect id="Rectángulo_459838" data-name="Rectángulo 459838" width="2.069" height="2.722" transform="translate(0 5.39)" fill="#f7f7f7"/>
                  <rect id="Rectángulo_459839" data-name="Rectángulo 459839" width="2.069" height="4.573" transform="translate(3.202 3.539)" fill="#f7f7f7"/>
                  <rect id="Rectángulo_459840" data-name="Rectángulo 459840" width="2.069" height="5.989" transform="translate(6.405 2.123)" fill="#f7f7f7"/>
                  <rect id="Rectángulo_459841" data-name="Rectángulo 459841" width="2.069" height="8.112" transform="translate(9.607)" fill="#f7f7f7"/>
                </g>
              </g>
              <g id="Grupo_1191236" data-name="Grupo 1191236" transform="translate(23.078 5.346)">
                <circle id="Elipse_11543" data-name="Elipse 11543" cx="9.393" cy="9.393" r="9.393" transform="translate(1.397 1.396)" fill="#dd9e10"/>
                <circle id="Elipse_11544" data-name="Elipse 11544" cx="7.629" cy="7.629" r="7.629" transform="translate(0 10.789) rotate(-45)" fill="#f4b516"/>
                <g id="Grupo_1191235" data-name="Grupo 1191235" transform="translate(7.311 5.054)">
                  <path id="Trazado_1095264" data-name="Trazado 1095264" d="M118.6,95.791V97.1h-1.171V95.826a5.552,5.552,0,0,1-2.915-.936l.644-1.428a4.728,4.728,0,0,0,2.271.831V92.338c-1.3-.316-2.751-.749-2.751-2.423,0-1.241.9-2.306,2.751-2.517V86.1H118.6v1.276a5.3,5.3,0,0,1,2.376.714l-.585,1.44a4.783,4.783,0,0,0-1.791-.609v1.99c1.3.3,2.727.737,2.727,2.388C121.328,94.515,120.439,95.568,118.6,95.791Zm-1.171-5.174V88.955c-.62.141-.866.48-.866.866C116.564,90.231,116.916,90.453,117.431,90.617Zm2.013,2.821c0-.41-.339-.632-.843-.808v1.615C119.186,94.117,119.444,93.812,119.444,93.438Z" transform="translate(-114.516 -86.099)" fill="#f7f7f7"/>
                </g>
              </g>
            </g>
          </g>
          <g id="Grupo_1191242" data-name="Grupo 1191242">
            <g id="Grupo_1191241" data-name="Grupo 1191241" clip-path="url(#clip-path-3)">
              <g id="Grupo_1191239" data-name="Grupo 1191239" transform="translate(208.571 -9.365)">
                <path id="Trazado_1095265" data-name="Trazado 1095265" d="M636.327,13.655l-2.668-.467a13.82,13.82,0,0,0-1.376-3.322l1.555-2.217a2.048,2.048,0,0,0-.23-2.626l-1.6-1.6a2.048,2.048,0,0,0-2.626-.187l-2.217,1.555a13.8,13.8,0,0,0-3.322-1.376L623.387.691a2.048,2.048,0,0,0-1.98-1.7h-2.3a2.047,2.047,0,0,0-2.022,1.7l-.467,2.66a13.806,13.806,0,0,0-3.322,1.377L611.085,3.24a2.047,2.047,0,0,0-2.626.23l-1.6,1.6a2.048,2.048,0,0,0-.229,2.626l1.555,2.217a13.8,13.8,0,0,0-1.376,3.322l-2.659.467a2.048,2.048,0,0,0-1.7,2.022v2.26a2.047,2.047,0,0,0,1.7,2.022l2.659.467a13.8,13.8,0,0,0,1.376,3.322l-1.555,2.218a2.047,2.047,0,0,0,.229,2.625l1.6,1.6a2.048,2.048,0,0,0,2.626.23l2.217-1.555a13.82,13.82,0,0,0,3.322,1.377l.467,2.66a2.048,2.048,0,0,0,2.022,1.7h2.294a2.048,2.048,0,0,0,2.022-1.7l.467-2.66a13.792,13.792,0,0,0,3.322-1.377l2.167,1.521a2.047,2.047,0,0,0,2.625-.23l1.6-1.6a2.048,2.048,0,0,0,.23-2.626l-1.555-2.235a13.814,13.814,0,0,0,1.377-3.322l2.668-.467a2.048,2.048,0,0,0,1.7-2.022V15.67A2.048,2.048,0,0,0,636.327,13.655ZM620.235,22.9a6.1,6.1,0,1,1,6.1-6.1v.034A6.1,6.1,0,0,1,620.235,22.9Z" transform="translate(-602.452 10.025)" fill="#ebebeb"/>
                <path id="Trazado_1095266" data-name="Trazado 1095266" d="M732.4-15.277l-2.142-.375a11.091,11.091,0,0,0-1.105-2.667l1.248-1.78a1.644,1.644,0,0,0-.184-2.108l-1.282-1.282a1.644,1.644,0,0,0-2.108-.15l-1.78,1.248a11.1,11.1,0,0,0-2.667-1.105l-.368-2.19a1.644,1.644,0,0,0-1.589-1.364h-1.849a1.644,1.644,0,0,0-1.623,1.364l-.375,2.135a11.082,11.082,0,0,0-2.667,1.105l-1.773-1.194a1.644,1.644,0,0,0-2.108.184l-1.282,1.282a1.644,1.644,0,0,0-.184,2.108l1.248,1.78a11.1,11.1,0,0,0-1.105,2.667l-2.135.375a1.644,1.644,0,0,0-1.364,1.623v1.814a1.644,1.644,0,0,0,1.364,1.623l2.135.375a11.059,11.059,0,0,0,1.105,2.667L708.564-5.36a1.644,1.644,0,0,0,.184,2.108l1.282,1.282a1.644,1.644,0,0,0,2.108.184l1.78-1.248a11.1,11.1,0,0,0,2.667,1.105l.375,2.135a1.644,1.644,0,0,0,1.623,1.364h1.842A1.644,1.644,0,0,0,722.049.206l.375-2.135a11.068,11.068,0,0,0,2.667-1.105l1.739,1.221A1.644,1.644,0,0,0,728.938-2l1.282-1.282a1.644,1.644,0,0,0,.184-2.108l-1.248-1.794a11.083,11.083,0,0,0,1.105-2.667l2.142-.375a1.644,1.644,0,0,0,1.364-1.623v-1.814A1.644,1.644,0,0,0,732.4-15.277ZM719.485-7.856a4.9,4.9,0,0,1-4.9-4.9,4.9,4.9,0,0,1,4.9-4.9,4.9,4.9,0,0,1,4.9,4.9v.027A4.9,4.9,0,0,1,719.485-7.856Z" transform="translate(-669.634 27.051)" fill="#ebebeb"/>
                <path id="Trazado_1095267" data-name="Trazado 1095267" d="M700.1,105.483l-2.142-.375a11.1,11.1,0,0,0-1.105-2.667l1.248-1.78a1.644,1.644,0,0,0-.184-2.108l-1.282-1.282a1.644,1.644,0,0,0-2.108-.15l-1.78,1.248a11.083,11.083,0,0,0-2.667-1.1l-.368-2.19a1.644,1.644,0,0,0-1.589-1.364h-1.849a1.644,1.644,0,0,0-1.623,1.364l-.375,2.135a11.082,11.082,0,0,0-2.667,1.105l-1.773-1.194a1.644,1.644,0,0,0-2.108.184l-1.282,1.282a1.644,1.644,0,0,0-.184,2.108l1.248,1.78a11.08,11.08,0,0,0-1.1,2.667l-2.135.375a1.644,1.644,0,0,0-1.364,1.623v1.814a1.644,1.644,0,0,0,1.364,1.623l2.135.375a11.077,11.077,0,0,0,1.1,2.667l-1.248,1.781a1.644,1.644,0,0,0,.184,2.108l1.282,1.282a1.644,1.644,0,0,0,2.108.184l1.78-1.248a11.1,11.1,0,0,0,2.667,1.105l.375,2.135a1.644,1.644,0,0,0,1.623,1.364h1.842a1.644,1.644,0,0,0,1.623-1.364l.375-2.135a11.068,11.068,0,0,0,2.667-1.105l1.739,1.221a1.644,1.644,0,0,0,2.108-.184l1.282-1.282a1.644,1.644,0,0,0,.184-2.108l-1.248-1.794a11.091,11.091,0,0,0,1.105-2.667l2.142-.375a1.644,1.644,0,0,0,1.364-1.623V107.1A1.644,1.644,0,0,0,700.1,105.483ZM687.182,112.9a4.9,4.9,0,1,1,4.9-4.9v.027A4.9,4.9,0,0,1,687.182,112.9Z" transform="translate(-648.515 -51.902)" fill="#ebebeb"/>
              </g>
              <g id="Grupo_1191240" data-name="Grupo 1191240" transform="translate(-32.067 45.168)">
                <path id="Trazado_1095268" data-name="Trazado 1095268" d="M-58.75,171.171l-2.668-.467a13.82,13.82,0,0,0-1.377-3.322l1.555-2.217a2.048,2.048,0,0,0-.23-2.626l-1.6-1.6a2.048,2.048,0,0,0-2.626-.187l-2.217,1.555a13.8,13.8,0,0,0-3.322-1.376l-.459-2.727a2.048,2.048,0,0,0-1.98-1.7h-2.3a2.047,2.047,0,0,0-2.022,1.7l-.467,2.66a13.806,13.806,0,0,0-3.322,1.377l-2.209-1.487a2.047,2.047,0,0,0-2.626.23l-1.6,1.6a2.048,2.048,0,0,0-.23,2.626l1.555,2.217a13.8,13.8,0,0,0-1.376,3.322l-2.66.467a2.048,2.048,0,0,0-1.7,2.022v2.26a2.047,2.047,0,0,0,1.7,2.022l2.66.467a13.8,13.8,0,0,0,1.376,3.322l-1.555,2.218a2.047,2.047,0,0,0,.23,2.625l1.6,1.6a2.048,2.048,0,0,0,2.626.23l2.217-1.555a13.82,13.82,0,0,0,3.322,1.376l.467,2.66a2.048,2.048,0,0,0,2.022,1.7h2.294a2.048,2.048,0,0,0,2.022-1.7l.467-2.66a13.792,13.792,0,0,0,3.322-1.376l2.167,1.521a2.047,2.047,0,0,0,2.625-.23l1.6-1.6a2.048,2.048,0,0,0,.23-2.626l-1.555-2.235a13.812,13.812,0,0,0,1.377-3.322l2.668-.467a2.048,2.048,0,0,0,1.7-2.022v-2.26A2.048,2.048,0,0,0-58.75,171.171Zm-16.093,9.244a6.1,6.1,0,0,1-6.1-6.1,6.1,6.1,0,0,1,6.1-6.1,6.1,6.1,0,0,1,6.1,6.1v.034A6.1,6.1,0,0,1-74.843,180.415Z" transform="translate(92.626 -147.491)" fill="#ebebeb"/>
                <path id="Trazado_1095269" data-name="Trazado 1095269" d="M37.326,142.24l-2.142-.375a11.1,11.1,0,0,0-1.105-2.667l1.248-1.78a1.644,1.644,0,0,0-.184-2.108l-1.282-1.282a1.644,1.644,0,0,0-2.108-.15l-1.78,1.248a11.081,11.081,0,0,0-2.667-1.1l-.368-2.19a1.644,1.644,0,0,0-1.589-1.364H23.5a1.644,1.644,0,0,0-1.623,1.364l-.375,2.135a11.082,11.082,0,0,0-2.667,1.105l-1.774-1.194a1.644,1.644,0,0,0-2.108.184l-1.282,1.282a1.644,1.644,0,0,0-.184,2.108l1.248,1.78a11.1,11.1,0,0,0-1.105,2.667l-2.135.375A1.644,1.644,0,0,0,10.13,143.9v1.814a1.644,1.644,0,0,0,1.364,1.623l2.135.375a11.06,11.06,0,0,0,1.105,2.667l-1.248,1.781a1.644,1.644,0,0,0,.184,2.108l1.282,1.282a1.644,1.644,0,0,0,2.108.184l1.78-1.248a11.1,11.1,0,0,0,2.667,1.105l.375,2.135a1.644,1.644,0,0,0,1.623,1.364h1.842a1.644,1.644,0,0,0,1.623-1.364l.375-2.135a11.068,11.068,0,0,0,2.667-1.105l1.739,1.221a1.644,1.644,0,0,0,2.108-.184l1.282-1.282a1.644,1.644,0,0,0,.184-2.108l-1.248-1.794a11.088,11.088,0,0,0,1.105-2.667l2.142-.375a1.644,1.644,0,0,0,1.364-1.623v-1.814A1.643,1.643,0,0,0,37.326,142.24Zm-12.919,7.421a4.9,4.9,0,1,1,4.9-4.9v.027A4.9,4.9,0,0,1,24.407,149.662Z" transform="translate(25.444 -130.467)" fill="#ebebeb"/>
                <path id="Trazado_1095270" data-name="Trazado 1095270" d="M5.025,263l-2.142-.375a11.1,11.1,0,0,0-1.105-2.667l1.248-1.78a1.644,1.644,0,0,0-.184-2.108l-1.282-1.282a1.644,1.644,0,0,0-2.108-.15l-1.78,1.248A11.081,11.081,0,0,0-5,254.782l-.368-2.19a1.644,1.644,0,0,0-1.589-1.364H-8.8a1.644,1.644,0,0,0-1.623,1.364l-.375,2.135a11.082,11.082,0,0,0-2.667,1.105l-1.773-1.194a1.644,1.644,0,0,0-2.108.184l-1.282,1.282a1.644,1.644,0,0,0-.184,2.108l1.248,1.78a11.082,11.082,0,0,0-1.1,2.667l-2.135.375a1.644,1.644,0,0,0-1.364,1.623v1.814a1.644,1.644,0,0,0,1.364,1.623l2.135.375a11.073,11.073,0,0,0,1.1,2.667l-1.248,1.781a1.644,1.644,0,0,0,.184,2.108l1.282,1.282a1.644,1.644,0,0,0,2.108.184l1.78-1.248a11.1,11.1,0,0,0,2.667,1.105l.375,2.135A1.644,1.644,0,0,0-8.8,279.849h1.842a1.644,1.644,0,0,0,1.623-1.364l.375-2.135a11.068,11.068,0,0,0,2.667-1.105l1.739,1.221a1.644,1.644,0,0,0,2.108-.184L2.841,275a1.644,1.644,0,0,0,.184-2.108L1.777,271.1a11.088,11.088,0,0,0,1.105-2.667l2.142-.375a1.644,1.644,0,0,0,1.364-1.623v-1.814A1.643,1.643,0,0,0,5.025,263Zm-12.919,7.421a4.9,4.9,0,0,1-4.9-4.9,4.9,4.9,0,0,1,4.9-4.9,4.9,4.9,0,0,1,4.9,4.9v.027A4.9,4.9,0,0,1-7.895,270.422Z" transform="translate(46.563 -209.42)" fill="#ebebeb"/>
              </g>
            </g>
          </g>
        </g>
      </g>
    </g>
  </g>
</svg>
