<svg xmlns="http://www.w3.org/2000/svg" width="85" height="85" viewBox="0 0 85 85">
  <g id="Grupo_1191764" data-name="Grupo 1191764" transform="translate(-185 -4763.47)">
    <g id="Grupo_1190803" data-name="Grupo 1190803" transform="translate(-112.345 3987.328)">
      <g id="Grupo_1187016" data-name="Grupo 1187016" transform="translate(297.345 776.479)">
        <path id="Trazado_1085591" data-name="Trazado 1085591" d="M371.028,75.924A42.332,42.332,0,1,1,328.7,118.256a42.331,42.331,0,0,1,42.333-42.332" transform="translate(-328.695 -75.924)" fill="#fff8ea"/>
      </g>
      <g id="Grupo_1187017" data-name="Grupo 1187017" transform="translate(364.002 776.479)">
        <line id="Línea_3437" data-name="Línea 3437" x1="7.168" y2="7.884" transform="translate(0.478 0.239)" fill="none" stroke="#481d1d" stroke-width="1"/>
        <line id="Línea_3438" data-name="Línea 3438" x2="7.884" y2="7.168" transform="translate(0 0.717)" fill="none" stroke="#481d1d" stroke-width="1"/>
        <line id="Línea_3439" data-name="Línea 3439" x1="7.168" y2="7.884" transform="translate(0.499 11.339)" fill="none" stroke="#481d1d" stroke-width="1"/>
        <line id="Línea_3440" data-name="Línea 3440" x2="7.884" y2="7.168" transform="translate(0.021 11.817)" fill="none" stroke="#481d1d" stroke-width="1"/>
        <line id="Línea_3441" data-name="Línea 3441" x1="7.168" y2="7.884" transform="translate(10.579)" fill="none" stroke="#481d1d" stroke-width="1"/>
        <line id="Línea_3442" data-name="Línea 3442" x2="7.884" y2="7.168" transform="translate(10.101 0.478)" fill="none" stroke="#481d1d" stroke-width="1"/>
        <line id="Línea_3443" data-name="Línea 3443" x1="7.168" y2="7.884" transform="translate(10.6 11.1)" fill="none" stroke="#481d1d" stroke-width="1"/>
        <line id="Línea_3444" data-name="Línea 3444" x2="7.884" y2="7.168" transform="translate(10.122 11.578)" fill="none" stroke="#481d1d" stroke-width="1"/>
      </g>
    </g>
    <g id="recomendar" transform="translate(205.482 4784.289)">
      <g id="XMLID_77_" transform="translate(17.559 0)">
        <path id="Trazado_1096041" data-name="Trazado 1096041" d="M215.4,22.321a.854.854,0,0,1-.853-.854V19.315A9.676,9.676,0,0,1,215.4,0h6.789a9.676,9.676,0,0,1,0,19.352h-3.47l-2.716,2.719A.854.854,0,0,1,215.4,22.321Zm.854-3.8v.883l1.509-1.51a.854.854,0,0,1,.6-.25h3.824a7.969,7.969,0,0,0,0-15.938H215.4a7.969,7.969,0,0,0,0,15.938.854.854,0,0,1,.854.854c0,.008,0,.016,0,.024Z" transform="translate(-205.726 0)" fill="#feba30"/>
      </g>
      <g id="Grupo_1191561" data-name="Grupo 1191561" transform="translate(0 16.384)">
        <g id="Grupo_1191560" data-name="Grupo 1191560">
          <path id="Trazado_1096042" data-name="Trazado 1096042" d="M29.893,206.789v-.013a3.18,3.18,0,0,0-2.16-3.008,3.18,3.18,0,0,0-2.724-4.823h-4.3a3.166,3.166,0,0,0-1.071.186l.279-1.976a4.556,4.556,0,0,0-4.511-5.194,2.347,2.347,0,0,0-2.28,1.781l-.792,3.176a4.715,4.715,0,0,1-3.729,3.5v-.88a.854.854,0,0,0-.854-.854H.854A.854.854,0,0,0,0,199.54v5.084a.854.854,0,0,0,1.707,0v-4.23H6.9v16.143H1.707v-4.23a.854.854,0,0,0-1.707,0v5.084a.853.853,0,0,0,.854.854h6.9a.853.853,0,0,0,.854-.854v-.958h1.459a5.256,5.256,0,0,0,4.653,2.845H24a3.18,3.18,0,0,0,2.817-4.659,3.178,3.178,0,0,0,3.081-3.173v-.013a3.167,3.167,0,0,0-1.012-2.322A3.167,3.167,0,0,0,29.893,206.789Zm-9.18-6.137h4.3a1.475,1.475,0,0,1,0,2.949h-4.3a1.475,1.475,0,1,1,0-2.949ZM11.422,215.28a.854.854,0,0,0-.8-.555H8.608V202.148a6.419,6.419,0,0,0,5.385-4.816l.792-3.176a.642.642,0,0,1,.624-.487,2.849,2.849,0,0,1,2.821,3.248l-.873,6.178a4.6,4.6,0,0,1-4.53,3.935.854.854,0,0,0,0,1.707,6.282,6.282,0,0,0,3.846-1.316,3.174,3.174,0,0,0,.949,1.692,3.167,3.167,0,0,0-1.012,2.322v.013a3.176,3.176,0,0,0,1.564,2.735,3.173,3.173,0,0,0-.279,3.39H14.721a3.537,3.537,0,0,1-3.3-2.29ZM24,217.57H20.714a1.475,1.475,0,1,1,0-2.949H24a1.475,1.475,0,0,1,0,2.949Zm4.191-6.137v.013a1.47,1.47,0,0,1-1.468,1.468H19.786a1.47,1.47,0,0,1-1.468-1.468v-.013a1.47,1.47,0,0,1,1.468-1.468h6.932A1.47,1.47,0,0,1,28.186,211.433Zm-8.4-3.175a1.47,1.47,0,0,1-1.468-1.468v-.013a1.47,1.47,0,0,1,1.468-1.468h6.932a1.47,1.47,0,0,1,1.468,1.468v.013a1.47,1.47,0,0,1-1.468,1.468Z" transform="translate(0 -191.961)" fill="#feba30"/>
          <circle id="Elipse_11556" data-name="Elipse 11556" cx="0.854" cy="0.854" r="0.854" transform="translate(0 15.65)" fill="#feba30"/>
        </g>
      </g>
      <g id="XMLID_491_" transform="translate(24.005 4.136)">
        <path id="Trazado_1096043" data-name="Trazado 1096043" d="M287.872,59.54a2.315,2.315,0,0,1-1.642-.679L282.37,55a3.83,3.83,0,0,1-.008-5.409l.008-.008a3.835,3.835,0,0,1,5.417,0l.085.086.086-.086A3.83,3.83,0,1,1,293.375,55l-3.86,3.86A2.316,2.316,0,0,1,287.872,59.54Zm-4.289-8.755-.006.006a2.123,2.123,0,0,0,0,3l3.86,3.86a.616.616,0,0,0,.871,0l3.86-3.86a2.123,2.123,0,1,0-3-3l-.689.689a.853.853,0,0,1-1.207,0l-.689-.689A2.126,2.126,0,0,0,283.583,50.785Z" transform="translate(-281.248 -48.462)" fill="#feba30"/>
      </g>
    </g>
  </g>
</svg>
