<svg xmlns="http://www.w3.org/2000/svg" width="85.115" height="85" viewBox="0 0 85.115 85">
  <g id="Layer_2" data-name="Layer 2" transform="translate(-0.005 -0.002)">
    <g id="_33_-_Video_Editing" data-name="33 - Video Editing" transform="translate(0.005 0.003)">
      <path id="Trazado_1091362" data-name="Trazado 1091362" d="M221.045,316.809,204.774,307.4a1.662,1.662,0,0,0-2.494,1.44v18.81a1.662,1.662,0,0,0,2.494,1.44l16.272-9.406a1.662,1.662,0,0,0,0-2.878Zm-15.44,7.963V311.724l11.286,6.525Z" transform="translate(-168.654 -256.115)" fill="#5aa6ff"/>
      <path id="Trazado_1091363" data-name="Trazado 1091363" d="M80.132,26.237H22.38L79.256,16.2A4.987,4.987,0,0,0,83.3,10.42L82.2,4.133A5.01,5.01,0,0,0,76.417.089L4.125,12.849A4.987,4.987,0,0,0,.081,18.621l1.662,9.418V80.016A4.987,4.987,0,0,0,6.73,85h73.4a4.987,4.987,0,0,0,4.987-4.987V31.224a4.987,4.987,0,0,0-4.987-4.987Zm1.662,4.987v8.044H68.913l3.529-9.707h7.69a1.662,1.662,0,0,1,1.662,1.662ZM5.064,39.268V29.562h16.8l-3.529,9.707ZM25.4,29.562H37.54l-3.524,9.707H21.88Zm15.678,0H53.218L49.7,39.268H37.56Zm15.68,0H68.9l-3.523,9.707H53.239Zm-5.09-11.873-11.3,1.995L36.71,10.475,48.023,8.48ZM51.366,7.88l11.6-2.048,3.657,9.213-11.6,2.046Zm-14.348,12.4-11.3,1.995-3.657-9.213,11.3-1.995ZM76.994,3.362a1.754,1.754,0,0,1,.293-.025A1.662,1.662,0,0,1,78.92,4.71L80.028,11a1.662,1.662,0,0,1-1.348,1.927l-8.724,1.543L66.3,5.252ZM4.7,16.128l14.012-2.477,3.657,9.213L4.75,25.972l-1.4-7.923A1.662,1.662,0,0,1,4.7,16.128Zm75.43,65.551H6.727a1.662,1.662,0,0,1-1.662-1.662V42.593h76.73V80.016A1.662,1.662,0,0,1,80.132,81.678Z" transform="translate(-0.005 -0.003)" fill="#5aa6ff"/>
      <path id="Trazado_1091364" data-name="Trazado 1091364" d="M60.437,197.489a1.677,1.677,0,1,0,.471,1.338A1.662,1.662,0,0,0,60.437,197.489Z" transform="translate(-48.025 -164.252)" fill="#5aa6ff"/>
      <path id="Trazado_1091365" data-name="Trazado 1091365" d="M50.234,113.3a1.759,1.759,0,0,0,.151.288,1.668,1.668,0,1,0-.151-.288Z" transform="translate(-41.781 -92.55)" fill="#5aa6ff"/>
    </g>
  </g>
</svg>
