<svg xmlns="http://www.w3.org/2000/svg" width="85" height="85" viewBox="0 0 85 85">
  <g id="Grupo_1189981" data-name="Grupo 1189981" transform="translate(-297.345 -776.142)">
    <g id="Grupo_1187016" data-name="Grupo 1187016" transform="translate(297.345 776.479)">
      <path id="Trazado_1085591" data-name="Trazado 1085591" d="M371.028,75.924A42.332,42.332,0,1,1,328.7,118.256a42.331,42.331,0,0,1,42.333-42.332" transform="translate(-328.695 -75.924)" fill="#fff8ea"/>
    </g>
    <g id="Grupo_1187017" data-name="Grupo 1187017" transform="translate(364.002 776.479)">
      <line id="Línea_3437" data-name="Línea 3437" x1="7.168" y2="7.884" transform="translate(0.478 0.239)" fill="none" stroke="#481d1d" stroke-width="1"/>
      <line id="Línea_3438" data-name="Línea 3438" x2="7.884" y2="7.168" transform="translate(0 0.717)" fill="none" stroke="#481d1d" stroke-width="1"/>
      <line id="Línea_3439" data-name="Línea 3439" x1="7.168" y2="7.884" transform="translate(0.499 11.339)" fill="none" stroke="#481d1d" stroke-width="1"/>
      <line id="Línea_3440" data-name="Línea 3440" x2="7.884" y2="7.168" transform="translate(0.021 11.817)" fill="none" stroke="#481d1d" stroke-width="1"/>
      <line id="Línea_3441" data-name="Línea 3441" x1="7.168" y2="7.884" transform="translate(10.579)" fill="none" stroke="#481d1d" stroke-width="1"/>
      <line id="Línea_3442" data-name="Línea 3442" x2="7.884" y2="7.168" transform="translate(10.101 0.478)" fill="none" stroke="#481d1d" stroke-width="1"/>
      <line id="Línea_3443" data-name="Línea 3443" x1="7.168" y2="7.884" transform="translate(10.6 11.1)" fill="none" stroke="#481d1d" stroke-width="1"/>
      <line id="Línea_3444" data-name="Línea 3444" x2="7.884" y2="7.168" transform="translate(10.122 11.578)" fill="none" stroke="#481d1d" stroke-width="1"/>
    </g>
    <g id="segmento-de-clientes" transform="translate(310.356 789.62)">
      <path id="Trazado_1093324" data-name="Trazado 1093324" d="M8.445,25.05a.961.961,0,0,0,.225.027.9.9,0,0,0,.873-.675A20.647,20.647,0,0,1,24.4,9.543a.9.9,0,0,0-.45-1.746A22.492,22.492,0,0,0,7.8,23.952a.9.9,0,0,0,.648,1.1Z" transform="translate(-0.577 -0.577)" fill="#feba30"/>
      <path id="Trazado_1093325" data-name="Trazado 1093325" d="M53.632,37.027a.9.9,0,0,0-1.1.648A20.647,20.647,0,0,1,37.675,52.534a.9.9,0,0,0,.225,1.773.643.643,0,0,0,.225-.027A22.492,22.492,0,0,0,54.28,38.125.9.9,0,0,0,53.632,37.027Z" transform="translate(-3.5 -3.5)" fill="#feba30"/>
      <path id="Trazado_1093326" data-name="Trazado 1093326" d="M24.4,52.534A20.647,20.647,0,0,1,9.543,37.675a.9.9,0,0,0-1.746.45A22.478,22.478,0,0,0,23.952,54.28a.961.961,0,0,0,.225.027.9.9,0,0,0,.225-1.773Z" transform="translate(-0.577 -3.5)" fill="#feba30"/>
      <path id="Trazado_1093327" data-name="Trazado 1093327" d="M37.675,9.543A20.647,20.647,0,0,1,52.534,24.4a.9.9,0,0,0,.873.675.644.644,0,0,0,.225-.027.9.9,0,0,0,.648-1.1A22.492,22.492,0,0,0,38.125,7.8a.9.9,0,1,0-.45,1.746Z" transform="translate(-3.5 -0.577)" fill="#feba30"/>
      <path id="Trazado_1093328" data-name="Trazado 1093328" d="M31.7,12.8a2.708,2.708,0,0,0,2.7-2.7V4.7a2.7,2.7,0,0,0-5.4,0v5.4A2.708,2.708,0,0,0,31.7,12.8Zm-.9-8.1a.9.9,0,1,1,1.8,0v5.4a.9.9,0,1,1-1.8,0Z" transform="translate(-2.7)" fill="#feba30"/>
      <path id="Trazado_1093329" data-name="Trazado 1093329" d="M31.7,50A2.708,2.708,0,0,0,29,52.7v5.4a2.7,2.7,0,0,0,5.4,0V52.7A2.708,2.708,0,0,0,31.7,50Zm.9,8.1a.9.9,0,1,1-1.8,0V52.7a.9.9,0,0,1,1.8,0Z" transform="translate(-2.7 -4.8)" fill="#feba30"/>
      <path id="Trazado_1093330" data-name="Trazado 1093330" d="M58.1,29H52.7a2.7,2.7,0,0,0,0,5.4h5.4a2.7,2.7,0,0,0,0-5.4Zm0,3.6H52.7a.9.9,0,0,1,0-1.8h5.4a.9.9,0,1,1,0,1.8Z" transform="translate(-4.8 -2.7)" fill="#feba30"/>
      <path id="Trazado_1093331" data-name="Trazado 1093331" d="M12.8,31.7A2.708,2.708,0,0,0,10.1,29H4.7a2.7,2.7,0,0,0,0,5.4h5.4A2.708,2.708,0,0,0,12.8,31.7Zm-9,0a.9.9,0,0,1,.9-.9h5.4a.9.9,0,1,1,0,1.8H4.7A.9.9,0,0,1,3.8,31.7Z" transform="translate(0 -2.7)" fill="#feba30"/>
      <path id="Trazado_1093332" data-name="Trazado 1093332" d="M31.3,28.6A6.3,6.3,0,1,0,25,22.3,6.307,6.307,0,0,0,31.3,28.6Zm0-10.8a4.5,4.5,0,1,1-4.5,4.5A4.5,4.5,0,0,1,31.3,17.8Z" transform="translate(-2.3 -1.4)" fill="#feba30"/>
      <path id="Trazado_1093333" data-name="Trazado 1093333" d="M33.761,31.261,30.8,34.222l-2.961-2.961A.891.891,0,0,0,27.2,31,7.21,7.21,0,0,0,20,38.2v3.816a.887.887,0,0,0,.351.711,17.065,17.065,0,0,0,20.9,0,.913.913,0,0,0,.351-.711V38.2A7.21,7.21,0,0,0,34.4,31,.929.929,0,0,0,33.761,31.261ZM39.8,38.2v3.366a15.271,15.271,0,0,1-18,0V38.2a5.416,5.416,0,0,1,5.04-5.391l3.321,3.321a.9.9,0,0,0,1.269,0l3.321-3.321a5.41,5.41,0,0,1,5.04,5.391Z" transform="translate(-1.8 -2.9)" fill="#feba30"/>
    </g>
  </g>
</svg>
