<svg xmlns="http://www.w3.org/2000/svg" width="67.348" height="77.298" viewBox="0 0 67.348 77.298">
  <g id="banca-en-linea" transform="translate(-5 -1)">
    <path id="Trazado_1096263" data-name="Trazado 1096263" d="M57.363,1A14.907,14.907,0,0,0,46.738,5.443,7.48,7.48,0,0,0,39.909,1H12.48A7.488,7.488,0,0,0,5,8.48V70.818a7.488,7.488,0,0,0,7.48,7.48h37.4a1.247,1.247,0,0,0,1.146-.755l3.74-8.727a1.228,1.228,0,0,0,.1-.491v-7.48a1.254,1.254,0,0,0-.209-.692l-2.493-3.74a1.247,1.247,0,0,0-1.037-.555H49.3l-1.914-2.868V29.267l2.618-.292A14.961,14.961,0,1,0,57.363,1ZM36.9,3.493,34.406,5.987H17.984L15.49,3.493ZM32.774,75.8H17.467V74.558a1.247,1.247,0,0,1,1.247-1.247H31.349ZM48.636,58.35h1.826l1.914,2.868v6.857L49.061,75.8H35.645l-4.527-7.923-1.044-5.216,1.687-1.122.731,2.191,2.369-.788-2.432-7.291V39.649a1.247,1.247,0,0,1,2.493,0V53.363a1.247,1.247,0,0,0,2.284.692l2.123-3.185h1.159l2.119,3.185a1.247,1.247,0,0,0,1.041.555h1.826L47.595,57.8A1.247,1.247,0,0,0,48.636,58.35ZM37.415,40.9h1.247v2.493H37.415Zm-2.493-4.758a3.5,3.5,0,0,0-2.493,0V30.922h2.493Zm-4.987-5.216V38.4h-7.48v-7.48ZM13.727,28.428V26.619l12.467-7.933,12.467,7.933v1.809Zm6.234,2.493V38.4H17.467v-7.48ZM29.935,40.9v2.493H13.727V40.9ZM44.9,52.116h-.58L42.2,48.931a1.247,1.247,0,0,0-1.041-.555H38.662a1.247,1.247,0,0,0-1.037.555l-.209.318V45.883h2.493a1.247,1.247,0,0,0,1.247-1.247V39.649A1.247,1.247,0,0,0,39.909,38.4H37.415v-7.48h2.493a1.247,1.247,0,0,0,1.247-1.247v-3.74a1.247,1.247,0,0,0-.577-1.052L26.864,16.155a1.247,1.247,0,0,0-1.339,0L11.811,24.883a1.247,1.247,0,0,0-.577,1.052v3.74a1.247,1.247,0,0,0,1.247,1.247h2.493V38.4H12.48a1.247,1.247,0,0,0-1.247,1.247v4.987a1.247,1.247,0,0,0,1.247,1.247H29.935v9.974a1.247,1.247,0,0,0,.064.394l.946,2.838L28,61.053a1.247,1.247,0,0,0-.53,1.287l1.247,6.234a1.255,1.255,0,0,0,.14.374l1.071,1.87H18.714a3.74,3.74,0,0,0-3.74,3.74V75.8H12.48a4.987,4.987,0,0,1-4.987-4.987V8.48a4.977,4.977,0,0,1,4.518-4.94l4.574,4.574a1.247,1.247,0,0,0,.881.365H34.922a1.247,1.247,0,0,0,.881-.365l4.574-4.574A4.963,4.963,0,0,1,44.828,7.82a14.887,14.887,0,0,0,.566,17.1l-2.628,2.628a1.247,1.247,0,0,0,1.019,2.119l1.11-.125ZM57.363,28.428a12.429,12.429,0,0,1-6.433-1.8,1.247,1.247,0,0,0-.645-.18,1.287,1.287,0,0,0-.138.007l-3.1.344.91-.91a1.247,1.247,0,0,0,.055-1.7,12.455,12.455,0,1,1,9.354,4.246Z" transform="translate(0)" fill="#ffa4c7"/>
    <path id="Trazado_1096264" data-name="Trazado 1096264" d="M47.987,8.987A2.493,2.493,0,0,1,50.48,11.48h2.493a4.987,4.987,0,0,0-3.74-4.81V4H46.74V6.671a4.977,4.977,0,0,0,1.247,9.8,2.493,2.493,0,1,1-2.493,2.493H43a4.987,4.987,0,0,0,3.74,4.81v2.671h2.493V23.771a4.977,4.977,0,0,0-1.247-9.8,2.493,2.493,0,1,1,0-4.987Z" transform="translate(9.376 0.74)" fill="#ffa4c7"/>
  </g>
</svg>
