<svg xmlns="http://www.w3.org/2000/svg" width="94.899" height="96.001" viewBox="0 0 94.899 96.001">
  <g id="buscar_1_" data-name="buscar (1)" transform="translate(0)">
    <path id="Trazado_1092978" data-name="Trazado 1092978" d="M94.879,20.7a1.535,1.535,0,0,0-.082-.411c-.017-.052-.03-.1-.052-.151a1.607,1.607,0,0,0-.32-.469L75.224.469a1.575,1.575,0,0,0-.47-.32c-.048-.022-.1-.035-.145-.052a1.575,1.575,0,0,0-.42-.084C74.161.018,74.132,0,74.1,0h-48a8.01,8.01,0,0,0-8,8V19.776a30.34,30.34,0,0,0,0,55.521V88a8.01,8.01,0,0,0,8,8H86.9a8.009,8.009,0,0,0,8-8V20.8c0-.035-.017-.066-.02-.1Zm-5.442-1.5H77.3a1.6,1.6,0,0,1-1.6-1.6V5.462ZM3.234,47.536a27.165,27.165,0,0,1,27.2-27.2q1.364,0,2.7.131a27.126,27.126,0,0,1,24.162,23,27.466,27.466,0,0,1,.334,4.073,27.2,27.2,0,0,1-54.4,0ZM49.017,71.572c.219-.17.435-.338.649-.512a29.944,29.944,0,0,0,2.267-2.024,30.074,30.074,0,0,0,2.024-2.266c.174-.214.342-.432.512-.651.194-.253.4-.493.589-.751L68.7,79.025a4.764,4.764,0,0,1,0,6.77,4.874,4.874,0,0,1-6.774,0L48.266,72.161c.258-.187.5-.4.751-.589ZM86.9,92.8H26.1A4.8,4.8,0,0,1,21.3,88V76.546c.1.032.2.053.3.084.256.078.516.141.775.213.6.16,1.2.32,1.811.44.3.062.6.12.9.173.609.107,1.224.191,1.841.262.276.031.548.07.824.094.887.076,1.779.125,2.68.125a30.2,30.2,0,0,0,15.071-4.016L59.652,88.054a8,8,0,1,0,11.307-11.3L56.819,62.607a30.192,30.192,0,0,0,4.016-15.07q0-1.52-.147-3.016A30.394,30.394,0,0,0,30.434,17.136c-.9,0-1.793.05-2.68.125-.277.024-.551.063-.826.095q-.923.1-1.837.263-.456.08-.909.174c-.6.125-1.2.272-1.791.435-.266.072-.531.136-.8.216-.1.03-.2.052-.3.084V8a4.8,4.8,0,0,1,4.8-4.8H72.5V17.6a4.8,4.8,0,0,0,4.8,4.8H91.7V88a4.8,4.8,0,0,1-4.8,4.8Zm0,0" fill="#5aa6ff"/>
    <path id="Trazado_1092979" data-name="Trazado 1092979" d="M176.888,49.6a1.6,1.6,0,0,0-1.6-1.6h-35.2a1.6,1.6,0,1,0,0,3.2h35.2A1.6,1.6,0,0,0,176.888,49.6Zm0,0" transform="translate(-110.79 -38.4)" fill="#5aa6ff"/>
    <path id="Trazado_1092980" data-name="Trazado 1092980" d="M335.288,192h-19.2a1.6,1.6,0,0,0,0,3.2h19.2a1.6,1.6,0,1,0,0-3.2Zm0,0" transform="translate(-251.59 -153.6)" fill="#5aa6ff"/>
    <path id="Trazado_1092981" data-name="Trazado 1092981" d="M335.288,240h-19.2a1.6,1.6,0,0,0,0,3.2h19.2a1.6,1.6,0,1,0,0-3.2Zm0,0" transform="translate(-251.59 -192)" fill="#5aa6ff"/>
    <path id="Trazado_1092982" data-name="Trazado 1092982" d="M330.488,289.6a1.6,1.6,0,0,0-1.6-1.6h-20.8a1.6,1.6,0,0,0,0,3.2h20.8A1.6,1.6,0,0,0,330.488,289.6Zm0,0" transform="translate(-245.19 -230.399)" fill="#5aa6ff"/>
    <path id="Trazado_1092983" data-name="Trazado 1092983" d="M356.088,337.6a1.6,1.6,0,0,0-1.6-1.6h-14.4a1.6,1.6,0,0,0,0,3.2h14.4A1.6,1.6,0,0,0,356.088,337.6Zm0,0" transform="translate(-270.789 -268.799)" fill="#5aa6ff"/>
    <path id="Trazado_1092984" data-name="Trazado 1092984" d="M266.488,97.6a1.6,1.6,0,0,0-1.6-1.6h-12.8a1.6,1.6,0,0,0,0,3.2h12.8A1.6,1.6,0,0,0,266.488,97.6Zm0,0" transform="translate(-200.39 -76.8)" fill="#5aa6ff"/>
    <path id="Trazado_1092985" data-name="Trazado 1092985" d="M317.688,145.6a1.6,1.6,0,0,0-1.6-1.6h-24a1.6,1.6,0,0,0,0,3.2h24A1.6,1.6,0,0,0,317.688,145.6Zm0,0" transform="translate(-232.39 -115.2)" fill="#5aa6ff"/>
    <path id="Trazado_1092986" data-name="Trazado 1092986" d="M116.088,187.2h11.2a1.6,1.6,0,1,0,0-3.2h-11.2a1.6,1.6,0,0,0,0,3.2Zm0,0" transform="translate(-91.59 -147.2)" fill="#5aa6ff"/>
    <path id="Trazado_1092987" data-name="Trazado 1092987" d="M109.688,233.6a1.6,1.6,0,0,0-1.6-1.6h-24a1.6,1.6,0,1,0,0,3.2h24A1.6,1.6,0,0,0,109.688,233.6Zm0,0" transform="translate(-65.99 -185.6)" fill="#5aa6ff"/>
    <path id="Trazado_1092988" data-name="Trazado 1092988" d="M127.288,280h-11.2a1.6,1.6,0,0,0,0,3.2h11.2a1.6,1.6,0,0,0,0-3.2Zm0,0" transform="translate(-91.59 -223.999)" fill="#5aa6ff"/>
    <path id="Trazado_1092989" data-name="Trazado 1092989" d="M67.545,162.813a23.464,23.464,0,0,0,9.334-9.054c.127-.221.264-.435.383-.659.062-.116.11-.235.17-.351.243-.467.48-.934.689-1.413s.375-.933.546-1.4c.049-.136.112-.269.16-.406a24.012,24.012,0,1,0-11.282,13.3Zm-21.36-2.851a20.644,20.644,0,0,1-4.738-3.549,21.068,21.068,0,0,1-2.611-3.176q-.567-.848-1.045-1.742a20.8,20.8,0,1,1,36.653.092v.013a20.448,20.448,0,0,1-8.4,8.4,20.74,20.74,0,0,1-19.856-.03Zm0,0" transform="translate(-25.721 -94.173)" fill="#5aa6ff"/>
    <path id="Trazado_1092990" data-name="Trazado 1092990" d="M389.688,384a1.6,1.6,0,0,0-1.6,1.6V392a1.6,1.6,0,0,1-1.6,1.6h-6.4a1.6,1.6,0,0,0,0,3.2h6.4a4.8,4.8,0,0,0,4.8-4.8v-6.4A1.6,1.6,0,0,0,389.688,384Zm0,0" transform="translate(-302.789 -307.199)" fill="#5aa6ff"/>
  </g>
</svg>
