<svg xmlns="http://www.w3.org/2000/svg" width="85" height="85" viewBox="0 0 85 85">
  <g id="Grupo_1190976" data-name="Grupo 1190976" transform="translate(-297.345 -776.142)">
    <g id="Grupo_1187016" data-name="Grupo 1187016" transform="translate(297.345 776.479)">
      <path id="Trazado_1085591" data-name="Trazado 1085591" d="M371.028,75.924A42.332,42.332,0,1,1,328.7,118.256a42.331,42.331,0,0,1,42.333-42.332" transform="translate(-328.695 -75.924)" fill="#fff8ea"/>
    </g>
    <g id="Grupo_1187017" data-name="Grupo 1187017" transform="translate(364.002 776.479)">
      <line id="Línea_3437" data-name="Línea 3437" x1="7.168" y2="7.884" transform="translate(0.478 0.239)" fill="none" stroke="#481d1d" stroke-width="1"/>
      <line id="Línea_3438" data-name="Línea 3438" x2="7.884" y2="7.168" transform="translate(0 0.717)" fill="none" stroke="#481d1d" stroke-width="1"/>
      <line id="Línea_3439" data-name="Línea 3439" x1="7.168" y2="7.884" transform="translate(0.499 11.339)" fill="none" stroke="#481d1d" stroke-width="1"/>
      <line id="Línea_3440" data-name="Línea 3440" x2="7.884" y2="7.168" transform="translate(0.021 11.817)" fill="none" stroke="#481d1d" stroke-width="1"/>
      <line id="Línea_3441" data-name="Línea 3441" x1="7.168" y2="7.884" transform="translate(10.579)" fill="none" stroke="#481d1d" stroke-width="1"/>
      <line id="Línea_3442" data-name="Línea 3442" x2="7.884" y2="7.168" transform="translate(10.101 0.478)" fill="none" stroke="#481d1d" stroke-width="1"/>
      <line id="Línea_3443" data-name="Línea 3443" x1="7.168" y2="7.884" transform="translate(10.6 11.1)" fill="none" stroke="#481d1d" stroke-width="1"/>
      <line id="Línea_3444" data-name="Línea 3444" x2="7.884" y2="7.168" transform="translate(10.122 11.578)" fill="none" stroke="#481d1d" stroke-width="1"/>
    </g>
    <path id="analitica" d="M31.562,16.509a.74.74,0,0,1,.74-.74H46.617a.74.74,0,0,1,0,1.48H32.3A.74.74,0,0,1,31.562,16.509ZM0,10.416A10.416,10.416,0,1,1,10.416,20.831,10.427,10.427,0,0,1,0,10.416Zm19.32.744-7.611,0,3.855,6.558a8.937,8.937,0,0,0,3.756-6.555ZM11.155,1.511V9.676l8.165,0A8.95,8.95,0,0,0,11.155,1.511Zm-9.676,8.9a8.934,8.934,0,0,0,12.81,8.051L9.778,10.791a.74.74,0,0,1-.1-.375v-8.9a8.947,8.947,0,0,0-8.2,8.9ZM32.3,1.964H46.617a.74.74,0,0,0,0-1.48H32.3a.74.74,0,1,0,0,1.48Zm0,3.1h7.157a.74.74,0,0,0,0-1.48H32.3a.74.74,0,1,0,0,1.48Zm-8.113-.256V.74a.74.74,0,0,1,.74-.74H29a.74.74,0,0,1,.74.74V4.807a.74.74,0,0,1-.74.74H24.929A.74.74,0,0,1,24.189,4.807Zm1.48-.74h2.587V1.48H25.669ZM32.3,9.606H46.617a.74.74,0,0,0,0-1.48H32.3a.74.74,0,1,0,0,1.48Zm0,3.1h7.157a.74.74,0,0,0,0-1.48H32.3a.74.74,0,1,0,0,1.48Zm-8.113-.256V8.382a.74.74,0,0,1,.74-.74H29a.74.74,0,0,1,.74.74v4.067a.74.74,0,0,1-.74.74H24.929A.74.74,0,0,1,24.189,12.449Zm1.48-.74h2.587V9.122H25.669ZM6.4,29.723V46.617a.74.74,0,0,1-.74.74H.74a.74.74,0,0,1-.74-.74V29.723a.74.74,0,0,1,.74-.74H5.662A.74.74,0,0,1,6.4,29.723Zm-1.48.74H1.48V45.877H4.922ZM46.9,43.074,45.015,45.02a1.608,1.608,0,0,1-2.271.034l-5.232-5.077A1.609,1.609,0,0,1,37.15,38.2L35.137,36.25a10.268,10.268,0,0,1-2.319,1.3v9.062a.74.74,0,0,1-.74.74H27.156a.74.74,0,0,1-.74-.74V37.963a10.2,10.2,0,0,1-2.531-1.037v9.691a.74.74,0,0,1-.74.74H18.222a.74.74,0,0,1-.74-.74V32.22a.74.74,0,0,1,.74-.74H19.33a10.264,10.264,0,0,1,4.86-12.524V16.025a.74.74,0,0,1,.74-.74H29a.74.74,0,0,1,.74.74v1.76a10.19,10.19,0,0,1,3.9,1.082h5.823a.74.74,0,0,1,0,1.48H35.806A10.25,10.25,0,0,1,37.755,33.38l2.1,2.038a1.609,1.609,0,0,1,1.783.309L46.87,40.8a1.608,1.608,0,0,1,.034,2.271ZM36.882,34.595q-.3.355-.623.683L38.1,37.064l.643-.663ZM25.669,18.312a10.194,10.194,0,0,1,2.587-.527V16.764H25.669Zm-5.458,9.713A8.787,8.787,0,1,0,29,19.238,8.8,8.8,0,0,0,20.211,28.025ZM22.4,35.889A10.34,10.34,0,0,1,20,32.96H18.962V45.877H22.4Zm8.934,2.134a10.294,10.294,0,0,1-3.443.21v7.644h3.443Zm14.5,3.842-5.232-5.077a.123.123,0,0,0-.088-.035h0a.124.124,0,0,0-.089.037L38.54,38.737a.129.129,0,0,0,0,.178l5.232,5.077a.13.13,0,0,0,.179,0l1.889-1.947a.13.13,0,0,0,0-.178ZM14.951,25.4V46.617a.74.74,0,0,1-.74.74H9.289a.74.74,0,0,1-.74-.74V25.4a.74.74,0,0,1,.74-.74h4.923A.74.74,0,0,1,14.951,25.4Zm-1.48.74H10.029V45.877h3.443Zm7.85,1.882A7.677,7.677,0,1,1,29,35.7a7.686,7.686,0,0,1-7.677-7.677ZM29,34.222a6.169,6.169,0,0,0,4.025-1.491,4.105,4.105,0,0,0-8.05,0A6.169,6.169,0,0,0,29,34.222Zm0-6.268a1.709,1.709,0,1,0-1.709-1.709A1.711,1.711,0,0,0,29,27.954Zm-6.2.071a6.159,6.159,0,0,0,1.023,3.4A5.571,5.571,0,0,1,26.7,28.448a3.189,3.189,0,1,1,4.605,0,5.571,5.571,0,0,1,2.872,2.982,6.2,6.2,0,1,0-11.371-3.4Z" transform="translate(318.002 795.811)" fill="#feba30"/>
  </g>
</svg>
