<svg id="idea_1_" data-name="idea (1)" xmlns="http://www.w3.org/2000/svg" width="50.209" height="51.79" viewBox="0 0 50.209 51.79">
  <g id="Grupo_1191567" data-name="Grupo 1191567" transform="translate(40.198 19.483)">
    <g id="Grupo_1191566" data-name="Grupo 1191566">
      <path id="Trazado_1096063" data-name="Trazado 1096063" d="M406.941,192.911a1.012,1.012,0,0,0-1.431,1.431l.047.046a1.012,1.012,0,0,0,1.383-1.477Z" transform="translate(-405.214 -192.615)" fill="#5aa6ff"/>
    </g>
  </g>
  <g id="Grupo_1191569" data-name="Grupo 1191569" transform="translate(27.104 15.499)">
    <g id="Grupo_1191568" data-name="Grupo 1191568">
      <path id="Trazado_1096064" data-name="Trazado 1096064" d="M288.53,155.848a15.836,15.836,0,0,0-1.767-1.043,13.566,13.566,0,0,0-10.287-.981,1.012,1.012,0,1,0,.6,1.932,11.58,11.58,0,0,1,8.778.856,14.087,14.087,0,0,1,1.54.909,1.011,1.011,0,1,0,1.136-1.674Z" transform="translate(-275.764 -153.23)" fill="#5aa6ff"/>
    </g>
  </g>
  <g id="Grupo_1191571" data-name="Grupo 1191571" transform="translate(6.459 6.419)">
    <g id="Grupo_1191570" data-name="Grupo 1191570">
      <path id="Trazado_1096065" data-name="Trazado 1096065" d="M114.281,88.247a13.014,13.014,0,0,1-1.114-2.787,9.566,9.566,0,0,0-1.219-9.093,18.951,18.951,0,0,0-14.765-7.833,18.1,18.1,0,0,0-8.339,2.026,8.659,8.659,0,1,0-13.035,8.946,1.69,1.69,0,0,1,.977,1.5v5.919a2.05,2.05,0,0,0,2.048,2.048h.344a18.015,18.015,0,0,0,6.1,11.407A3.989,3.989,0,0,1,85,102.349c-.313,1.089-.794,2.3-1.217,3.365-.284.714-.529,1.331-.677,1.8a1.012,1.012,0,0,0,.964,1.318H98.511a1.642,1.642,0,0,0,1.536-1.224,9.888,9.888,0,0,0,.419-1.531c.12-.547.4-1.827.682-1.982a.205.205,0,0,1,.056,0,1,1,0,0,0,.157.012c1.512,0,2.748.069,3.838.129,3.2.177,5.127.285,6.82-2.154.861-1.24.763-3.049.66-4.964a18.067,18.067,0,0,1-.011-2.853,8.827,8.827,0,0,1,.9-.668c.954-.655,1.854-1.273,1.854-2.214A8.87,8.87,0,0,0,114.281,88.247ZM76.866,77.781a6.636,6.636,0,1,1,6.923,0,3.681,3.681,0,0,0-1.773,2.167H78.639A3.683,3.683,0,0,0,76.866,77.781Zm4.98,4.191v1.479H78.809V81.971h3.037Zm-3.013,4.982a.029.029,0,0,1-.025-.025V85.474h3.037v1.454a.029.029,0,0,1-.025.025Zm33.585,4.977c-.871.6-1.623,1.114-1.733,1.9a18.008,18.008,0,0,0-.027,3.4c.077,1.421.163,3.031-.3,3.7-1.006,1.45-1.877,1.464-5.046,1.288-1.046-.058-2.343-.13-3.882-.132a2.156,2.156,0,0,0-2.258,1.338,9.4,9.4,0,0,0-.682,2.216,10.748,10.748,0,0,1-.3,1.168H85.528l.137-.345c1.457-3.669,2.38-6.36.975-7.575a16.008,16.008,0,0,1-5.421-9.91h.6a2.051,2.051,0,0,0,2.048-2.048V81.011a1.691,1.691,0,0,1,.977-1.5,8.6,8.6,0,0,0,4.113-6.7,16.071,16.071,0,0,1,8.224-2.254,17.035,17.035,0,0,1,13.083,6.934,7.592,7.592,0,0,1,1,7.264c-.4.956.192,2.281,1.185,4.364a18.255,18.255,0,0,1,.91,2.106A9.559,9.559,0,0,1,112.419,91.93Z" transform="translate(-71.668 -63.458)" fill="#5aa6ff"/>
    </g>
  </g>
  <g id="Grupo_1191573" data-name="Grupo 1191573" transform="translate(16.457 10.972)">
    <g id="Grupo_1191572" data-name="Grupo 1191572">
      <path id="Trazado_1096066" data-name="Trazado 1096066" d="M174.137,111.147a4.05,4.05,0,0,0-2.148-2.565,1.012,1.012,0,0,0-.927,1.8,2.028,2.028,0,0,1,1.122,1.293,3.067,3.067,0,0,1-.281,2.09,1.012,1.012,0,1,0,1.706,1.088A5.071,5.071,0,0,0,174.137,111.147Z" transform="translate(-170.514 -108.47)" fill="#5aa6ff"/>
    </g>
  </g>
  <g id="Grupo_1191575" data-name="Grupo 1191575" transform="translate(14.107)">
    <g id="Grupo_1191574" data-name="Grupo 1191574">
      <path id="Trazado_1096067" data-name="Trazado 1096067" d="M148.291,0a1.012,1.012,0,0,0-1.012,1.012V3.9a1.012,1.012,0,1,0,2.023,0V1.012A1.012,1.012,0,0,0,148.291,0Z" transform="translate(-147.279)" fill="#5aa6ff"/>
    </g>
  </g>
  <g id="Grupo_1191577" data-name="Grupo 1191577" transform="translate(0 14.107)">
    <g id="Grupo_1191576" data-name="Grupo 1191576">
      <path id="Trazado_1096068" data-name="Trazado 1096068" d="M11.71,139.465H8.827a1.012,1.012,0,0,0,0,2.023H11.71a1.012,1.012,0,0,0,0-2.023Z" transform="translate(-7.815 -139.465)" fill="#5aa6ff"/>
    </g>
  </g>
  <g id="Grupo_1191579" data-name="Grupo 1191579" transform="translate(7.053 1.89)">
    <g id="Grupo_1191578" data-name="Grupo 1191578">
      <path id="Trazado_1096069" data-name="Trazado 1096069" d="M80.874,21.686l-1.441-2.5A1.011,1.011,0,1,0,77.681,20.2l1.441,2.5a1.012,1.012,0,0,0,1.752-1.012Z" transform="translate(-77.545 -18.684)" fill="#5aa6ff"/>
    </g>
  </g>
  <g id="Grupo_1191581" data-name="Grupo 1191581" transform="translate(1.89 7.054)">
    <g id="Grupo_1191580" data-name="Grupo 1191580">
      <path id="Trazado_1096070" data-name="Trazado 1096070" d="M30.509,71.312l-2.5-1.441A1.011,1.011,0,1,0,27,71.622l2.5,1.441a1.011,1.011,0,0,0,1.012-1.752Z" transform="translate(-26.495 -69.735)" fill="#5aa6ff"/>
    </g>
  </g>
  <g id="Grupo_1191583" data-name="Grupo 1191583" transform="translate(23.828 7.054)">
    <g id="Grupo_1191582" data-name="Grupo 1191582">
      <path id="Trazado_1096071" data-name="Trazado 1096071" d="M247.766,70.238a1.011,1.011,0,0,0-1.382-.37l-2.5,1.441a1.011,1.011,0,1,0,1.012,1.752l2.5-1.441A1.011,1.011,0,0,0,247.766,70.238Z" transform="translate(-243.382 -69.732)" fill="#5aa6ff"/>
    </g>
  </g>
  <g id="Grupo_1191585" data-name="Grupo 1191585" transform="translate(1.89 19.719)">
    <g id="Grupo_1191584" data-name="Grupo 1191584">
      <path id="Trazado_1096072" data-name="Trazado 1096072" d="M30.88,195.451a1.012,1.012,0,0,0-1.382-.37L27,196.522a1.012,1.012,0,1,0,1.011,1.752l2.5-1.441A1.011,1.011,0,0,0,30.88,195.451Z" transform="translate(-26.495 -194.946)" fill="#5aa6ff"/>
    </g>
  </g>
  <g id="Grupo_1191587" data-name="Grupo 1191587" transform="translate(7.053 24.188)">
    <g id="Grupo_1191586" data-name="Grupo 1191586">
      <path id="Trazado_1096073" data-name="Trazado 1096073" d="M80.3,239.262a1.012,1.012,0,0,0-1.382.37l-1.233,2.137a1.012,1.012,0,1,0,1.752,1.012l1.233-2.137A1.011,1.011,0,0,0,80.3,239.262Z" transform="translate(-77.545 -239.127)" fill="#5aa6ff"/>
    </g>
  </g>
  <g id="Grupo_1191589" data-name="Grupo 1191589" transform="translate(19.719 1.89)">
    <g id="Grupo_1191588" data-name="Grupo 1191588">
      <path id="Trazado_1096074" data-name="Trazado 1096074" d="M205.722,18.819a1.011,1.011,0,0,0-1.382.37l-1.441,2.5a1.011,1.011,0,1,0,1.752,1.012l1.441-2.5A1.011,1.011,0,0,0,205.722,18.819Z" transform="translate(-202.763 -18.683)" fill="#5aa6ff"/>
    </g>
  </g>
</svg>
