<svg xmlns="http://www.w3.org/2000/svg" width="85" height="85" viewBox="0 0 85 85">
  <g id="Grupo_1190814" data-name="Grupo 1190814" transform="translate(-297.345 -776.142)">
    <g id="Grupo_1187016" data-name="Grupo 1187016" transform="translate(297.345 776.479)">
      <path id="Trazado_1085591" data-name="Trazado 1085591" d="M371.028,75.924A42.332,42.332,0,1,1,328.7,118.256a42.331,42.331,0,0,1,42.333-42.332" transform="translate(-328.695 -75.924)" fill="#eef6ff"/>
    </g>
    <g id="Grupo_1187017" data-name="Grupo 1187017" transform="translate(364.002 776.479)">
      <line id="Línea_3437" data-name="Línea 3437" x1="7.168" y2="7.884" transform="translate(0.478 0.239)" fill="none" stroke="#481d1d" stroke-width="1"/>
      <line id="Línea_3438" data-name="Línea 3438" x2="7.884" y2="7.168" transform="translate(0 0.717)" fill="none" stroke="#481d1d" stroke-width="1"/>
      <line id="Línea_3439" data-name="Línea 3439" x1="7.168" y2="7.884" transform="translate(0.499 11.339)" fill="none" stroke="#481d1d" stroke-width="1"/>
      <line id="Línea_3440" data-name="Línea 3440" x2="7.884" y2="7.168" transform="translate(0.021 11.817)" fill="none" stroke="#481d1d" stroke-width="1"/>
      <line id="Línea_3441" data-name="Línea 3441" x1="7.168" y2="7.884" transform="translate(10.579)" fill="none" stroke="#481d1d" stroke-width="1"/>
      <line id="Línea_3442" data-name="Línea 3442" x2="7.884" y2="7.168" transform="translate(10.101 0.478)" fill="none" stroke="#481d1d" stroke-width="1"/>
      <line id="Línea_3443" data-name="Línea 3443" x1="7.168" y2="7.884" transform="translate(10.6 11.1)" fill="none" stroke="#481d1d" stroke-width="1"/>
      <line id="Línea_3444" data-name="Línea 3444" x2="7.884" y2="7.168" transform="translate(10.122 11.578)" fill="none" stroke="#481d1d" stroke-width="1"/>
    </g>
    <g id="inversion" transform="translate(318.677 797.778)">
      <g id="Grupo_1189931" data-name="Grupo 1189931" transform="translate(0 0.036)">
        <g id="Grupo_1189930" data-name="Grupo 1189930" transform="translate(0 0)">
          <path id="Trazado_1089415" data-name="Trazado 1089415" d="M41.991,25.174c0-5.575-2.3-12.864-8.688-15.481V6.9l1.9-1.52a.724.724,0,0,0,.271-.565V.76a.724.724,0,0,0-.724-.724H32.579a.724.724,0,0,0-.512.212l-.936.936L30.2.248a.724.724,0,0,0-.512-.212h-2.9a.724.724,0,0,0-.512.212l-.936.936L24.4.248a.724.724,0,0,0-.512-.212H21.719A.724.724,0,0,0,21,.76V4.814a.724.724,0,0,0,.271.565l1.9,1.52V9.693C16.776,12.31,14.48,19.6,14.48,25.174a11.84,11.84,0,0,0,.6,3.849c-.311-.017-.625-.028-.938-.028H12.308a.724.724,0,0,0-.724-.724H5.792A.724.724,0,0,0,5.068,29H0v1.448H5.068v7.24H0v1.448H5.068a.724.724,0,0,0,.724.724h5.792a.724.724,0,0,0,.724-.724v-.276L17.713,41.1a12.525,12.525,0,0,0,9.213.1L38.11,36.937a2.635,2.635,0,0,0,1.479-1.41,2.661,2.661,0,0,0-.469-2.889A10.043,10.043,0,0,0,41.991,25.174ZM10.86,38.407H6.516V29.719H10.86ZM22.443,4.467V1.484h1.148L24.828,2.72a.724.724,0,0,0,1.024,0l1.236-1.236h2.3L30.619,2.72a.724.724,0,0,0,1.024,0l1.236-1.236h1.148V4.467l-1.7,1.361H24.144Zm9.412,2.809V9.448h-7.24V7.276Zm6.407,27.668a1.2,1.2,0,0,1-.67.642L26.407,39.85a11.077,11.077,0,0,1-8.146-.088l-5.953-2.475V30.443h1.835a15.543,15.543,0,0,1,6.916,1.633,5.123,5.123,0,0,0,2.284.539h5.616a1.086,1.086,0,0,1,.239,2.144c-.095.009-.188.028-.284.028H20.272v1.448h8.688c.014,0,.028,0,.043,0a4.46,4.46,0,0,0,1.671-.354l6.053-2.569a1.15,1.15,0,0,1,.9,0,1.2,1.2,0,0,1,.652.674A1.243,1.243,0,0,1,38.262,34.944Zm-.431-3.084a2.577,2.577,0,0,0-1.67.115l-4.694,1.993a2.5,2.5,0,0,0,.027-.266,2.534,2.534,0,0,0-2.534-2.534H23.343a3.682,3.682,0,0,1-1.637-.387,16.975,16.975,0,0,0-4.989-1.58,9.919,9.919,0,0,1-.79-4.027c0-5.213,2.129-12.055,8.109-14.278h8.4c5.979,2.223,8.109,9.066,8.109,14.278A8.583,8.583,0,0,1,37.83,31.859Z" transform="translate(0 -0.036)" fill="#5aa6ff"/>
        </g>
      </g>
      <g id="Grupo_1189933" data-name="Grupo 1189933" transform="translate(7.964 35.511)">
        <g id="Grupo_1189932" data-name="Grupo 1189932">
          <rect id="Rectángulo_457911" data-name="Rectángulo 457911" width="1" height="2" transform="translate(0.036 -0.475)" fill="#5aa6ff"/>
        </g>
      </g>
      <g id="Grupo_1189935" data-name="Grupo 1189935" transform="translate(25.338 15.964)">
        <g id="Grupo_1189934" data-name="Grupo 1189934">
          <path id="Trazado_1089416" data-name="Trazado 1089416" d="M284.42,180.853l-2.617-.872a.538.538,0,0,1,.169-1.049h1.82a.539.539,0,0,1,.538.539v.475h1.448v-.475a1.988,1.988,0,0,0-1.986-1.987h-.186v-1.448h-1.448v1.448h-.186a1.986,1.986,0,0,0-.628,3.87l2.617.872a.538.538,0,0,1-.169,1.049h-1.82a.539.539,0,0,1-.538-.539v-.475h-1.448v.475a1.988,1.988,0,0,0,1.986,1.987h.186v1.448h1.448v-1.448h.186a1.986,1.986,0,0,0,.628-3.87Z" transform="translate(-279.985 -176.036)" fill="#5aa6ff"/>
        </g>
      </g>
      <g id="Grupo_1189937" data-name="Grupo 1189937" transform="translate(20.272 13.068)">
        <g id="Grupo_1189936" data-name="Grupo 1189936">
          <path id="Trazado_1089417" data-name="Trazado 1089417" d="M231.964,144.036A7.964,7.964,0,1,0,239.928,152,7.964,7.964,0,0,0,231.964,144.036Zm0,14.48A6.516,6.516,0,1,1,238.48,152,6.516,6.516,0,0,1,231.964,158.516Z" transform="translate(-224 -144.036)" fill="#5aa6ff"/>
        </g>
      </g>
    </g>
  </g>
</svg>
