<svg xmlns="http://www.w3.org/2000/svg" xmlns:xlink="http://www.w3.org/1999/xlink" width="188" height="181" viewBox="0 0 188 181">
  <defs>
    <clipPath id="clip-path">
      <rect id="Rectángulo_456899" data-name="Rectángulo 456899" width="52.34" height="13.623" rx="6.811" fill="none" stroke="#707070" stroke-width="1"/>
    </clipPath>
    <clipPath id="clip-path-2">
      <rect id="Rectángulo_456898" data-name="Rectángulo 456898" width="53.164" height="53.164" fill="#5aa6ff"/>
    </clipPath>
  </defs>
  <g id="Grupo_1190812" data-name="Grupo 1190812" transform="translate(-185 -2572)">
    <g id="Grupo_1190061" data-name="Grupo 1190061" transform="translate(185 2572)">
      <rect id="Rectángulo_456896" data-name="Rectángulo 456896" width="188" height="173.812" rx="10" transform="translate(0 0)" fill="#fff8ea"/>
      <g id="Enmascarar_grupo_1119322" data-name="Enmascarar grupo 1119322" transform="translate(123.827 167.377)" clip-path="url(#clip-path)">
        <g id="Grupo_1187003" data-name="Grupo 1187003" transform="translate(-0.412 26.582) rotate(-90)">
          <path id="Trazado_1088293" data-name="Trazado 1088293" d="M0,0H53.164V53.164H0Z" transform="translate(0 0)" fill="#eef6ff"/>
          <g id="Grupo_1187002" data-name="Grupo 1187002">
            <g id="Grupo_1187001" data-name="Grupo 1187001" clip-path="url(#clip-path-2)">
              <path id="Trazado_1088294" data-name="Trazado 1088294" d="M33.2,1.128c-.249.674-.492,1.35-.715,2.033-.141.433-.242.879-.362,1.319-.015.055-.037.108-.055.162l-.05,0c-.015-.234-.042-.467-.042-.7,0-1.057-.009-2.114.019-3.171q.01-.384.047-.767H27.557c-.046.442-.074.886-.108,1.33-.011.149-.013.3-.017.449-.016.546-.025,1.092-.048,1.638-.022.523-.059,1.044-.091,1.566a.579.579,0,0,1-.047.119c-.045-.137-.08-.232-.108-.329-.205-.688-.4-1.381-.617-2.063-.251-.775-.5-1.551-.8-2.308C25.661.265,25.6.132,25.536,0H22.126c.117.436.234.872.336,1.311a4.553,4.553,0,0,1,.064.578c.036.356.083.712.1,1.07.025.448.051.9.035,1.345-.019.537-.085,1.072-.121,1.608-.015.222,0,.447,0,.726-.165-.4-.313-.746-.459-1.1a25.071,25.071,0,0,1-.82-2.47,5.972,5.972,0,0,0-.206-.569,3.687,3.687,0,0,1-.278-1.217C20.761.956,20.7.632,20.668.3c-.01-.1-.018-.2-.023-.3H11.113c-.034.236-.058.474-.094.709-.019.121-.058.24-.088.359l-.054,0c-.052-.27-.106-.54-.154-.811C10.707.168,10.69.084,10.672,0H6.227a.243.243,0,0,1,.006.024c.079.388.145.778.235,1.163A28.339,28.339,0,0,1,7,4.1c.092.733.14,1.471.2,2.208.037.454.074.909.082,1.364A9.465,9.465,0,0,1,7.223,8.72c-.023.243-.078.484-.122.725a.5.5,0,0,1-.049.125.437.437,0,0,1-.524.287.76.76,0,0,1-.606-.41,4.4,4.4,0,0,1-.4-1.325,14.836,14.836,0,0,1-.145-2.258c.007-.832,0-1.664.022-2.495.013-.423.1-.845.141-1.267A11.19,11.19,0,0,1,6.076,0H0V11.347c1.034-.484,1.963-.895,2.265-.983.021.044.046.089.065.136a8.285,8.285,0,0,0,1.678,2.666,3.56,3.56,0,0,0,2.661,1.166,4.3,4.3,0,0,0,1.005-.074,3.135,3.135,0,0,0,1.847-1.231,5.545,5.545,0,0,0,.629-1.138,8.471,8.471,0,0,0,.572-1.652c.007-.036.022-.07.041-.131l8.1,2.5-.005.04c-.085.007-.169.017-.254.021-.65.031-1.3.049-1.949.094-.491.034-.981.1-1.47.156s-.966.108-1.443.194a10.3,10.3,0,0,0-3.367,1.2,2.567,2.567,0,0,0-1.227,1.436,4.169,4.169,0,0,0-.133,1.778,8.026,8.026,0,0,0,.659,2.091,7.293,7.293,0,0,0,.907,1.675,3.76,3.76,0,0,0,1.333,1.146,3.367,3.367,0,0,0,1.227.335c.425.033.851.051,1.277.06.478.01.957,0,1.436,0h.214c0,.011,0,.022,0,.033-.282.019-.563.035-.845.058a16.5,16.5,0,0,0-3.541.526,7.869,7.869,0,0,0-1.468.617,2.331,2.331,0,0,0-.864.715c-.018-.294-.037-.588-.052-.882a15.03,15.03,0,0,0-.466-3.3,11.764,11.764,0,0,0-1.773-3.686A11.378,11.378,0,0,0,6.045,15.6a7.284,7.284,0,0,0-3.069-1.886,11.321,11.321,0,0,0-2.832-.557L0,13.146v5.541H0a3.7,3.7,0,0,1,1.815.885,3.316,3.316,0,0,1,.453.526,6.925,6.925,0,0,1,.85,1.727,15.913,15.913,0,0,1,.641,3.023c.146,1.088.259,2.181.373,3.273.072.691.133,1.383.178,2.076s.072,1.375.09,2.063c.024.913.035,1.827.046,2.741.006.464-.009.929,0,1.393.01.366.05.73.073,1.1s.028.733.062,1.1a6.245,6.245,0,0,0,.486,2.11,4.584,4.584,0,0,0,1.15,1.563c.119.1.23.214.347.32a3.211,3.211,0,0,0,.759.516c.33.161.653.335.982.5a2.993,2.993,0,0,0,.31.114l.019-.043-.6-.287.011-.03c.173.032.344.069.518.095a4.372,4.372,0,0,0,2.016-.175,6.117,6.117,0,0,0,1.425-.654,2.689,2.689,0,0,1,.363-.176,4.924,4.924,0,0,0,1.538-1.151c.2-.21.382-.442.567-.668a4.652,4.652,0,0,0,.6-1.021,2.8,2.8,0,0,1,.285-.508.9.9,0,0,1,1.348-.062.415.415,0,0,1,.1.15c.124.272.251.544.366.82.262.629.5,1.269.782,1.888a4.976,4.976,0,0,0,1.071,1.543,4.146,4.146,0,0,0,1.089.785,2.955,2.955,0,0,0,.9.265.7.7,0,0,1,.121.038h.99c.018-.011.035-.031.054-.033a3.112,3.112,0,0,0,2.333-1.465,10.257,10.257,0,0,0,.783-1.439c.25-.535.516-1.064.783-1.591a1.454,1.454,0,0,1,.631-.652.969.969,0,0,1,.337-.112.439.439,0,0,1,.43.236,7.15,7.15,0,0,1,.353.676c.235.518.447,1.047.691,1.561a6.968,6.968,0,0,0,.718,1.191A2.852,2.852,0,0,0,31,44.006a5.694,5.694,0,0,0,1.38.151,3.6,3.6,0,0,0,2.37-.94,6.534,6.534,0,0,0,1.408-1.9c.3-.594.621-1.179.946-1.761a3.18,3.18,0,0,1,1.306-1.264,1.473,1.473,0,0,1,1.72.253,12.634,12.634,0,0,1,1.29,1.5A8.874,8.874,0,0,0,44.4,42.55,4.621,4.621,0,0,0,45.6,43c.146.03.3.041.442.073.218.048.437.1.651.163a.371.371,0,0,0,.5-.189,9.654,9.654,0,0,0,.626-1.439c.289-.715.569-1.433.854-2.149a.372.372,0,0,1,.049-.07V39.25a4.061,4.061,0,0,1-2.09-.665,8.5,8.5,0,0,1-1.716-1.262c-.679-.615-1.28-1.3-1.9-1.977a10.363,10.363,0,0,0-1.875-1.6c-.392-.263-.786-.523-1.178-.785-.01-.007-.012-.025-.026-.055.281.038.553.077.824.111.7.088,1.393.181,2.091.258.6.066,1.2.115,1.807.163a1.965,1.965,0,0,0,.423-.028.157.157,0,0,0,.145-.207c-.09-.537-.154-1.08-.265-1.613-.173-.827-.377-1.648-.57-2.471a1.492,1.492,0,0,0-.088-.253.579.579,0,0,0-.414-.334,29.735,29.735,0,0,0-3.63-.716,18.416,18.416,0,0,0-2.027-.212.889.889,0,0,1-.128-.034c.126-.074.212-.127.3-.175a10.449,10.449,0,0,0,1.837-1.209c.367-.319.715-.662,1.053-1.012.431-.448.847-.91,1.262-1.373a3.305,3.305,0,0,0,.66-1.141,6.058,6.058,0,0,0,.348-1.229,2.794,2.794,0,0,0-1.63-3.135,5.314,5.314,0,0,0-1.781-.421c-.566-.043-1.134-.059-1.7-.094a9.375,9.375,0,0,1-.977-.113c.1-.033.208-.073.314-.1a4.394,4.394,0,0,0,1.923-1.115A4.822,4.822,0,0,0,41.1,13.811a10.262,10.262,0,0,0,.23-2.967,10.869,10.869,0,0,0-.266-1.682c-.372-1.626-.736-3.254-1.123-4.877-.2-.837-.446-1.662-.665-2.494a4.525,4.525,0,0,1-.13-.659.583.583,0,0,1,.074-.318q.217-.4.4-.814h-6q-.217.563-.425,1.128M1.908,6.377A1.268,1.268,0,0,1,1.8,5.8c-.029-.755-.046-1.511-.046-2.266,0-.357.053-.715.076-1.072.018-.276.023-.553.041-.829.011-.168.037-.335.056-.5l.047,0C1.947,2,1.9,2.877,1.892,3.75s.02,1.751.017,2.628M14.98,33.01a4.223,4.223,0,0,0-1.927,1.658c-.192.3-.381.61-.576.912a5.181,5.181,0,0,1-1.09,1.184.939.939,0,0,1-1.173-.052,2.068,2.068,0,0,1-.542-.839,6.84,6.84,0,0,1-.309-1.353c-.106-.731-.212-1.464-.277-2.2-.048-.543-.041-1.091-.041-1.637,0-.486.017-.972.044-1.457.046-.8.107-1.609.161-2.413a5.615,5.615,0,0,1,.074-.691c.156.329.311.658.468.987.391.817.764,1.642,1.18,2.446a8.848,8.848,0,0,0,.9,1.45,5.824,5.824,0,0,0,1.612,1.38,2.323,2.323,0,0,0,.835.247c.36.059.72.113,1.08.169l.012.03c-.142.06-.285.12-.426.181M22.938,9.79l.04-.009.11.356.558,1.82c.063.207.125.414.19.621.028.088,0,.158-.088.169-.214.024-.43.04-.645.045-.036,0-.075-.072-.109-.113-.008-.009,0-.029,0-.044q-.03-1.378-.06-2.757a.878.878,0,0,1,.007-.088M18.465,7.1c-.242-.077-.487-.146-.727-.229-.587-.2-1.17-.416-1.758-.615-.247-.084-.5-.14-.755-.213-.136-.04-.268-.089-.425-.142L15.859.7,15.9.7c.012.093.025.185.034.278a8.166,8.166,0,0,0,.576,1.953,12.931,12.931,0,0,0,1.031,1.992c.344.6.718,1.176,1.084,1.76.118.188.255.365.383.547l-.023.037c-.175-.058-.35-.117-.526-.173M14.419,19.062a1.76,1.76,0,0,1-.577-.021c-.181-.028-.245-.129-.256-.316a.785.785,0,0,1,.613-.852,6.725,6.725,0,0,1,1.082-.179c.7-.062,1.4-.1,2.1-.14.582-.034,1.165-.056,1.747-.092.268-.017.534-.061.8-.08.175-.012.351,0,.526,0l.006.037c-.059.023-.117.051-.177.069-.6.182-1.2.366-1.805.543-.725.213-1.448.436-2.18.624-.622.16-1.253.288-1.885.407M25.8,31.585a2.855,2.855,0,0,0-1,1.216c-.179.4-.349.795-.518,1.195a10.446,10.446,0,0,1-.91,1.726,3.184,3.184,0,0,1-.726.791.934.934,0,0,1-1.333-.1,2.739,2.739,0,0,1-.5-.657,10.2,10.2,0,0,0-1.048-1.565,8.3,8.3,0,0,0-1.326-1.336c-.034-.029-.069-.058-.1-.089a.234.234,0,0,1-.026-.056,46.418,46.418,0,0,1,7.608-1.187,1.051,1.051,0,0,0-.116.06m2.65-4.486c-.164.008-.329,0-.493.006-.471.015-.942.045-1.413.046-.577,0-1.149.06-1.722.117-.454.045-.91.064-1.363.114-.581.063-1.165.057-1.747.092a26.012,26.012,0,0,1-2.718.017c-.476-.021-.948-.116-1.421-.182-.3-.042-.6-.092-.905-.139l.009-.01c.463.013.926.032,1.39.036s.9,0,1.349-.015c.68-.023,1.361-.045,2.04-.092.872-.061,1.743-.134,2.612-.225.758-.079,1.511-.194,2.268-.286.49-.059.98-.107,1.471-.154.529-.051,1.058-.086,1.59-.084a7.951,7.951,0,0,1,2.557.415,5.344,5.344,0,0,1,.773.4c.015.008.021.035.038.069-.5-.078-.985-.167-1.473-.224a7.889,7.889,0,0,0-.918-.025c-.156,0-.312.028-.469.037-.485.029-.97.057-1.455.081m7.6,5.889A3.037,3.037,0,0,0,34.807,34.1c-.135.242-.254.493-.373.743-.2.419-.391.842-.593,1.26a1.568,1.568,0,0,1-.468.595.482.482,0,0,1-.743-.088,2.546,2.546,0,0,1-.393-.752,18.457,18.457,0,0,0-1.187-2.566c-.334-.559-.7-1.1-1.056-1.643-.023-.036-.047-.071-.1-.149a24.361,24.361,0,0,1,6.769,1.159c-.23.121-.429.22-.621.33M38.11,22.32a1.392,1.392,0,0,1,.4.281.458.458,0,0,1-.126.738.29.29,0,0,1-.172.018c-.219-.045-.438-.094-.654-.153-1.075-.293-2.145-.605-3.224-.88-.658-.168-1.332-.274-2-.418-.913-.2-1.821-.421-2.736-.608-.695-.143-1.4-.245-2.1-.372-.118-.021-.256-.008-.366-.157.066-.009.1-.017.138-.018a14.344,14.344,0,0,1,1.769.081c.319.037.642.035.962.06.938.074,1.876.148,2.813.232a20.34,20.34,0,0,1,4.055.715,11.49,11.49,0,0,1,1.232.481m-2.648-9.58c.1-.829.214-1.656.333-2.483.068-.472.143-.945.238-1.412.08-.395.193-.783.295-1.173a.3.3,0,0,1,.193-.254c.064.362.143.7.179,1.036.052.5.076,1,.105,1.5.021.365.038.731.044,1.1a4.946,4.946,0,0,1-.187,1.551,3.9,3.9,0,0,0-.088.416.889.889,0,0,1-.475.62.376.376,0,0,1-.6-.27,2.068,2.068,0,0,1-.04-.623m-.605,4.578a.354.354,0,0,1,.046.056c-.053,0-.091,0-.128,0-.423-.044-.845-.093-1.269-.133-.609-.057-1.219-.108-1.829-.161-.045,0-.09,0-.135,0-.764-.005-1.529-.006-2.293-.016s-1.542-.026-2.313-.045c-.486-.012-.971-.036-1.5-.056a.7.7,0,0,1,.145-.06c1.083-.121,2.166-.245,3.251-.358.408-.043.82-.055,1.228-.1.392-.04.781-.1,1.19-.152.11-2.431.22-4.833.329-7.236l.031.005c.078.5.144,1.005.237,1.5.185.992.367,1.985.582,2.97a8.239,8.239,0,0,0,1.054,2.491,3.221,3.221,0,0,0,1.2,1.186c.059.033.115.071.171.108" fill="#5aa6ff"/>
              <path id="Trazado_1088295" data-name="Trazado 1088295" d="M1.265,11.955A2.757,2.757,0,0,0,3.439,10a3.357,3.357,0,0,0,.11-.684A5.872,5.872,0,0,0,3.3,7.3a13.6,13.6,0,0,0-.938-2.641c-.323-.675-.594-1.376-.941-2.037Q.723,1.3,0,0V12.078a5.779,5.779,0,0,0,1.265-.123" transform="translate(0 30.783)" fill="#5aa6ff"/>
              <path id="Trazado_1088296" data-name="Trazado 1088296" d="M13.908,13.119c-.666,0-1.333.025-2,.044-.171,0-.342.025-.527.039a36.028,36.028,0,0,1,3.638-1.855V0H12.947c0,.153-.008.307-.015.46-.008.184-.029.368-.044.552l-.046.019c-.08-.115-.166-.226-.239-.346A6.466,6.466,0,0,0,12.12,0H.29A4.423,4.423,0,0,0,.046,1.014,4.567,4.567,0,0,0,.275,3.271a7.411,7.411,0,0,0,.771,1.64A8.832,8.832,0,0,0,2.346,6.4c.24.214.48.429.731.63a5.117,5.117,0,0,0,2.237.992,8.506,8.506,0,0,0,1.555.2,8.144,8.144,0,0,1,1.022.127,10.5,10.5,0,0,0,1.567.09h.208l-.161.094c-.607.344-1.258.6-1.892.882-.58.262-1.151.544-1.722.826-.409.2-.812.418-1.216.63-.2.1-.2.2-.077.37.182.246.358.5.519.759.39.63.77,1.266,1.154,1.9.066.109.136.216.194.329.074.142.052.185-.088.267a8.871,8.871,0,0,0-.957.582,3.813,3.813,0,0,0-1.285,1.751,6.207,6.207,0,0,0-.364,2.426,9.606,9.606,0,0,0,.274,1.68,16.744,16.744,0,0,0,.962,2.7,15.96,15.96,0,0,0,1.809,3.045c1.191,1.672,2.4,3.33,3.581,5.011.688.982,1.337,1.99,1.982,3a5.407,5.407,0,0,1,.8,1.917,2.994,2.994,0,0,1,.032.648.6.6,0,0,1-.367.5,1.955,1.955,0,0,1-1.416.167,4.674,4.674,0,0,1-.759-.271c-.693-.3-1.379-.619-2.073-.919-.472-.2-.953-.39-1.437-.586a.577.577,0,0,0-.066.108,3.356,3.356,0,0,1-.436.831,14.6,14.6,0,0,0-1.143,2.263c-.113.268-.233.533-.348.795.1.143.242.143.368.175.8.2,1.6.392,2.4.594a28.15,28.15,0,0,1,2.691.872,24.485,24.485,0,0,0,3.277.945,5.757,5.757,0,0,0,1.12.126V30.783c-.922-1.659-1.886-3.294-2.909-4.9-.576-.9-1.092-1.843-1.63-2.769-.248-.427-.493-.857-.723-1.294a3.472,3.472,0,0,1-.34-.948,2.313,2.313,0,0,1,.139-1.342,1.093,1.093,0,0,1,.545-.545,4.149,4.149,0,0,1,1.214-.389,8.863,8.863,0,0,1,1.521-.1,9.859,9.859,0,0,1,2.184.192V13.146c-.37-.02-.742-.03-1.112-.027m-2.97-8A15.574,15.574,0,0,1,7.332,3.382,20.283,20.283,0,0,1,5.668,2.017a10.054,10.054,0,0,1-.7-.727.689.689,0,0,1-.093-.126.278.278,0,0,1,.16-.431A.667.667,0,0,1,5.257.7a4.36,4.36,0,0,1,2.279.649A9.389,9.389,0,0,1,9.9,3.328c.363.456.754.89,1.131,1.335a2,2,0,0,1,.191.249,2.7,2.7,0,0,1,.133.307,3.634,3.634,0,0,1-.417-.094" transform="translate(38.144)" fill="#5aa6ff"/>
              <path id="Trazado_1088297" data-name="Trazado 1088297" d="M6.076,11.411h0a.721.721,0,0,1,.094-.139c.026.066.045.1.056.14h4.445A9,9,0,0,0,9.7,8.948c-.186-.333-.375-.665-.578-.988a2.447,2.447,0,0,0-.373-.473.8.8,0,0,1-.111-1.112,3.846,3.846,0,0,1,.627-.73,8.482,8.482,0,0,1,2.669-1.583c.161-.058.331-.091.495-.142.2-.063.268-.013.228.191s-.083.426-.132.637c-.22.946-.453,1.889-.66,2.838-.134.612-.225,1.234-.346,1.849-.112.571-.247,1.138-.357,1.71-.017.088-.031.176-.044.265h9.532c-.006-.115-.009-.23,0-.345a.748.748,0,0,1,.408-.634.443.443,0,0,1,.605.108,1.847,1.847,0,0,1,.446.77l.027.1h3.411c-.165-.338-.356-.665-.534-1-.152-.283-.319-.558-.491-.83a4.546,4.546,0,0,0-1.385-1.42c-.073-.047-.139-.1-.208-.156l.02-.04,5.01.754c-.057.325-.117.623-.161.925-.079.546-.158,1.093-.219,1.642,0,.04-.008.081-.012.121h4.486a11.544,11.544,0,0,1,.182-1.213c.122-.593.241-1.188.4-1.773a3,3,0,0,1,1.311-1.762,1.767,1.767,0,0,1,.43-.191.592.592,0,0,1,.681.456,2.77,2.77,0,0,1-.209,1.623c-.259.605-.543,1.2-.792,1.81q-.213.522-.415,1.05h6a17.355,17.355,0,0,0,1.149-3.669,5.388,5.388,0,0,0,.013-2.162,3.188,3.188,0,0,0-.721-1.429,4.337,4.337,0,0,0-1.482-1.107,13.806,13.806,0,0,0-2.32-.9,6.245,6.245,0,0,0-4.5.537,5.964,5.964,0,0,0-.974.757A9.277,9.277,0,0,0,28.6,6.292c-.02.04-.04.081-.063.119-.006.011-.025.015-.047.028l.283-2.458c-.154-.043-.308-.1-.467-.129A23.419,23.419,0,0,1,25.633,3.1c-.595-.185-1.206-.29-1.812-.424-1.358-.3-2.712-.624-4.068-.936-1.5-.345-3.01-.659-4.53-.914-.265-.044-.533-.072-.8-.111A.3.3,0,0,0,14.085.9a22.791,22.791,0,0,0-1.061,2.131.861.861,0,0,1-.063.1.88.88,0,0,1-.048-.157,3.443,3.443,0,0,0-.222-.957c-.157-.4-.27-.825-.422-1.231a6.159,6.159,0,0,0-.3-.6A.323.323,0,0,0,11.613,0a2.143,2.143,0,0,0-.419.069c-.591.191-1.179.39-1.767.591-.2.068-.394.144-.588.222a9.283,9.283,0,0,0-2.9,1.9A14.6,14.6,0,0,0,4.251,4.669a10.557,10.557,0,0,0-1.24,2.158c-.216.5-.429,1.005-.626,1.515-.126.328-.22.668-.33,1-.028.084-.06.167-.105.29a.806.806,0,0,1-.079-.154c-.065-.3-.123-.6-.188-.9-.1-.445-.205-.889-.3-1.335-.112-.534-.213-1.071-.319-1.606a2.158,2.158,0,0,0-.052-.218C.847,4.879.688,4.333.5,3.8a9.407,9.407,0,0,0-.377-.862Q.061,2.794,0,2.653v8.758ZM16.882,7.029l2.248.5.015.047A4.9,4.9,0,0,0,16.4,9.465l.482-2.435" transform="translate(0 41.753)" fill="#5aa6ff"/>
              <path id="Trazado_1088298" data-name="Trazado 1088298" d="M11.2,10.527a4.879,4.879,0,0,0-1.08-.873A11.973,11.973,0,0,0,8.81,8.912c-.424-.2-.878-.338-1.321-.5-.14-.051-.285-.091-.427-.137a5.973,5.973,0,0,0-1.117-.233,2.145,2.145,0,0,1-.251-.062l-.009-.052a2.031,2.031,0,0,1,.223-.113c.745-.271,1.489-.544,2.237-.807.317-.111.644-.2.965-.3.756-.237,1.511-.478,2.268-.712a1.942,1.942,0,0,1,.308-.042c.082.171.169.335.24.506a8.605,8.605,0,0,1,.588,2.181,16.555,16.555,0,0,1,.142,2.629H14.73V2.516A19.249,19.249,0,0,0,13.814.533,2.412,2.412,0,0,0,13.39.046.344.344,0,0,0,13.162,0a3.686,3.686,0,0,0-.978.236A27.968,27.968,0,0,0,9.5,1.26c-.636.281-1.252.609-1.876.918q-.7.348-1.4.7c-.18.091-.357.189-.537.281q-.981.5-1.963.99-.42.212-.839.429a.556.556,0,0,0-.076.059c.5,1.063,1.042,2.1,1.547,3.188-.136.051-.244.095-.353.133-.353.123-.712.231-1.059.37a5.064,5.064,0,0,0-1.6.988A5.129,5.129,0,0,0,0,11.274H11.83c-.2-.256-.419-.5-.634-.747" transform="translate(38.434 41.891)" fill="#5aa6ff"/>
            </g>
          </g>
        </g>
      </g>
    </g>
    <g id="estrella" transform="translate(238.79 2610)">
      <path id="Trazado_1092773" data-name="Trazado 1092773" d="M15.022,78.089l6.429-28.965L.234,29.272,27.88,27.153,40.432,0,52.983,27.153l27.67,2.119L64.64,44.225l-2.566-2.731,9.749-9.114L50.487,30.732,40.432,9,30.376,30.732,9.041,32.38,25.6,47.852,20.627,70.224l3.415-2.072L26,71.354Zm0,0" transform="translate(-0.234 -0.001)" fill="#feba30"/>
      <path id="Trazado_1092774" data-name="Trazado 1092774" d="M203.411,250.766a17.142,17.142,0,0,1-12.2-5.063l-13.846-13.847a6.594,6.594,0,0,1,9.326-9.3l1.931,1.931v-21.76a6.593,6.593,0,1,1,13.187,0v11.916l13.423,2.426a6.594,6.594,0,0,1,5.416,6.5v9.962a17.261,17.261,0,0,1-17.238,17.237Zm-21.359-26.375a2.826,2.826,0,0,0-2,4.827L193.9,243.066a13.494,13.494,0,0,0,23.008-9.561v-9.938a2.826,2.826,0,0,0-2.332-2.778l-16.507-3.014V202.727a2.826,2.826,0,0,0-5.652,0v30.849l-8.36-8.36a2.8,2.8,0,0,0-2-.824Zm0,0" transform="translate(-144.68 -161.493)" fill="#feba30"/>
    </g>
  </g>
</svg>
