<svg xmlns="http://www.w3.org/2000/svg" width="84" height="78.117" viewBox="0 0 84 78.117">
  <path id="tienda-en-linea" d="M37.284,60.944A3.218,3.218,0,1,1,40.5,57.726,3.221,3.221,0,0,1,37.284,60.944Zm0-3.726a.509.509,0,0,0-.509.508c0,.561,1.019.561,1.019,0A.509.509,0,0,0,37.284,57.218Zm12.1,3.726A3.218,3.218,0,1,1,52.6,57.726,3.22,3.22,0,0,1,49.386,60.944Zm0-3.726a.508.508,0,0,0-.508.508c0,.561,1.016.561,1.016,0A.508.508,0,0,0,49.386,57.218ZM59.522,30.043a3.13,3.13,0,0,0-2.5-1.232H26.235l-.8-3a3.487,3.487,0,0,0-3.366-2.585H20.047a1.355,1.355,0,0,0,0,2.71h2.019a.777.777,0,0,1,.749.576l6.472,24.2a4.065,4.065,0,0,0,3.922,3.012H54.93a1.355,1.355,0,0,0,0-2.71H33.209a1.354,1.354,0,0,1-1.3-1l-.494-1.847H51.8a5.439,5.439,0,0,0,5.245-4.028l3.019-11.357a3.138,3.138,0,0,0-.548-2.735Zm-2.149,1.651a.435.435,0,0,1,.077.388l-1.343,5.051H51.347l.755-5.612h4.919a.436.436,0,0,1,.352.173Zm-8.758,5.438H43.636V31.521H49.37Zm-7.689-5.612v5.612H35.952l-.761-5.612Zm-8.469,0,.76,5.612h-4.75l-1.5-5.612Zm1.127,8.321.76,5.61H30.7l-1.5-5.61Zm2.735,0h4.607v5.61H37.079Zm7.317,5.61v-5.61H48.25l-.756,5.61Zm8.169,0H50.228l.755-5.61h4.4l-.956,3.594A2.721,2.721,0,0,1,51.8,45.453ZM22.948,8.464a1.269,1.269,0,0,0-1.269-1.269H7.74a1.269,1.269,0,1,0,0,2.539H21.678A1.269,1.269,0,0,0,22.948,8.464Zm38.278,0a1.355,1.355,0,1,1-1.355-1.355,1.355,1.355,0,0,1,1.355,1.355Zm4.235-1.355a1.355,1.355,0,1,0,1.355,1.355A1.355,1.355,0,0,0,65.461,7.109Zm5.59,0a1.355,1.355,0,1,0,1.355,1.355A1.355,1.355,0,0,0,71.05,7.109ZM83.008,66.317l-4.156-3.5c0-.084.016-.166.016-.249V9.631a7.405,7.405,0,0,0-7.389-7.389H7.389A7.405,7.405,0,0,0,0,9.631V62.564a7.405,7.405,0,0,0,7.389,7.389H64.271v5.075a2.784,2.784,0,0,0,4.565,2.141l2.538-2.109L72.788,78.1a3.865,3.865,0,0,0,2.2,2.024,3.894,3.894,0,0,0,2.988-.127,3.9,3.9,0,0,0,1.892-5.187l-1.41-3.038,3.247-.58a2.787,2.787,0,0,0,1.3-4.872ZM2.7,9.631A4.686,4.686,0,0,1,7.389,4.958H71.479a4.686,4.686,0,0,1,4.686,4.673v2.336H2.7ZM64.267,56.5l0,10.735H7.389A4.686,4.686,0,0,1,2.7,62.564V14.684H76.164V60.547l-7.322-6.173A2.783,2.783,0,0,0,64.267,56.5Zm16.958,12.02-4.978.889a1.355,1.355,0,0,0-.99,1.905l2.154,4.636a1.181,1.181,0,0,1,.04.91,1.208,1.208,0,0,1-.617.675,1.2,1.2,0,0,1-.916.037,1.177,1.177,0,0,1-.675-.619l-2.154-4.631a1.358,1.358,0,0,0-.932-.752,1.413,1.413,0,0,0-.3-.032,1.358,1.358,0,0,0-.865.312l-4.014,3.176L67.1,56.443,81.261,68.386Z" transform="translate(0 -2.241)" fill="#feba30"/>
</svg>
