<svg xmlns="http://www.w3.org/2000/svg" width="86.835" height="86.835" viewBox="0 0 86.835 86.835">
  <g id="Grupo_1186953" data-name="Grupo 1186953" transform="translate(-1233.333 -232.415)">
    <path id="Trazado_1085574" data-name="Trazado 1085574" d="M372.114,75.924A43.418,43.418,0,1,1,328.7,119.342a43.417,43.417,0,0,1,43.419-43.418" transform="translate(904.638 156.491)" fill="#c2d723"/>
    <g id="Grupo_1186690" data-name="Grupo 1186690" transform="translate(1237.698 237.391)">
      <path id="Trazado_1085586" data-name="Trazado 1085586" d="M76.184,123.954H71.4a.945.945,0,0,0-.944.944v10.249a.945.945,0,0,0,.944.944h4.784a.944.944,0,0,0,.944-.944V124.9a.944.944,0,0,0-.944-.944M75.239,134.2h-2.9v-8.361h2.9Z" transform="translate(-44.766 -87.743)" fill="#9bac1c"/>
      <path id="Trazado_1085587" data-name="Trazado 1085587" d="M92.767,114.873v15.353a.945.945,0,0,0,.944.944h5.175a.944.944,0,0,0,.944-.944V114.873a.944.944,0,0,0-.944-.944H93.711a.945.945,0,0,0-.944.944m1.889.944h3.286v13.465H94.656Z" transform="translate(-55.718 -82.822)" fill="#9bac1c"/>
      <path id="Trazado_1085588" data-name="Trazado 1085588" d="M116.331,126.117h5.037a.945.945,0,0,0,.944-.944v-20.6a.945.945,0,0,0-.944-.944h-5.037a.945.945,0,0,0-.944.944v20.6a.945.945,0,0,0,.944.944m.944-20.6h3.148v18.708h-3.148Z" transform="translate(-66.822 -77.768)" fill="#9bac1c"/>
      <path id="Trazado_1085589" data-name="Trazado 1085589" d="M59.8,129.715a.944.944,0,0,0,.944-.944v-4.126a32.633,32.633,0,0,0,6.706-1.056A32.537,32.537,0,0,0,93.816,92.467h7.708a.944.944,0,1,0,0-1.888H93.807a32.5,32.5,0,0,0-33.062-31.37V53.776a.944.944,0,1,0-1.889,0V59.3c-14.8,1.129-30.356,12.139-31.45,31.281H20.943a.944.944,0,1,0,0,1.888H27.35a32.134,32.134,0,0,0,31.506,32.219v4.085a.944.944,0,0,0,.944.944m0-58.989a.944.944,0,0,0,.944-.944V68.466A23.211,23.211,0,0,1,84.538,90.578H82.821a.944.944,0,1,0,0,1.888h1.733A23.211,23.211,0,0,1,60.745,114.9v-1.635a.944.944,0,0,0-1.889,0v1.528A23.263,23.263,0,0,1,38.138,92.467h1.841a.944.944,0,0,0,0-1.888H38.154a23.262,23.262,0,0,1,20.7-22.005v1.209a.944.944,0,0,0,.944.944M36.25,92.467a25.154,25.154,0,0,0,22.607,24.226v5.482A30.633,30.633,0,0,1,30.765,92.467Zm.016-1.888H30.773A30.635,30.635,0,0,1,58.856,61.191v5.481a25.152,25.152,0,0,0-22.59,23.906m24.479,31.69v-5.48a25.1,25.1,0,0,0,25.7-24.321h5.485a30.612,30.612,0,0,1-31.182,29.8m31.174-31.69H86.426a25.1,25.1,0,0,0-25.681-24V61.1A30.613,30.613,0,0,1,91.919,90.578" transform="translate(-19.999 -52.832)" fill="#9bac1c"/>
    </g>
  </g>
</svg>
