<svg xmlns="http://www.w3.org/2000/svg" width="86.835" height="86.835" viewBox="0 0 86.835 86.835">
  <g id="Grupo_1186959" data-name="Grupo 1186959" transform="translate(-856 -392.488)">
    <path id="Trazado_1085591" data-name="Trazado 1085591" d="M372.114,75.924A43.418,43.418,0,1,1,328.7,119.342a43.417,43.417,0,0,1,43.419-43.418" transform="translate(527.305 316.564)" fill="#ffa4c7"/>
    <path id="Trazado_1085593" data-name="Trazado 1085593" d="M283.76,182.411a2.694,2.694,0,0,0-.816.816l-.35.466a33.253,33.253,0,0,1-6.414-14.343c-.233-1.4-.466-2.682-.583-4.2a17.251,17.251,0,0,0-1.166-4.2,25.107,25.107,0,0,0-4.9-7.463,22.225,22.225,0,0,0-38.365,15.742,22.066,22.066,0,0,0,1.866,8.629,23.686,23.686,0,0,0,5.014,7.23,22.469,22.469,0,0,0,11.661,5.714c1.516.233,2.8.35,4.2.583a29.909,29.909,0,0,1,14.343,6.53l-.233.117a3.957,3.957,0,0,0-.7.7,4.724,4.724,0,0,0-.583,1.049,3.437,3.437,0,0,0,1.516,4.315,3.6,3.6,0,0,0,2.449.466,3.492,3.492,0,0,0,1.166-.466c.35-.234.7-.583.933-.7l1.283-1.283a9.255,9.255,0,0,0,5.48,1.983,9.506,9.506,0,0,0,6.414-2.566,8.613,8.613,0,0,0,2.565-6.413,9.144,9.144,0,0,0-1.866-5.481l1.049-1.049.35-.35.117-.117.233-.233a3.649,3.649,0,0,0,.583-1.166,3.883,3.883,0,0,0-.117-2.565A3.523,3.523,0,0,0,283.76,182.411Zm-29.5,7.579c-1.4-.35-2.915-.466-4.2-.7a20.436,20.436,0,0,1-10.611-5.6,19.877,19.877,0,0,1-4.548-6.647,22.166,22.166,0,0,1-1.516-7.813,20.279,20.279,0,0,1,5.947-14.46,20.41,20.41,0,0,1,28.8,0,21.4,21.4,0,0,1,4.431,6.647,24.182,24.182,0,0,1,1.166,3.848c.233,1.283.466,2.8.816,4.2a33.884,33.884,0,0,0,7.346,14.576l-1.749,1.866-2.449,2.8c-3.731-4.314-7.7-8.512-11.544-12.71l.7-.816a4.234,4.234,0,0,0,.933-1.049,4.088,4.088,0,0,0,.7-1.632,3.448,3.448,0,0,0-1.049-3.265,2.973,2.973,0,0,0-1.4-.933,3.057,3.057,0,0,0-1.749-.233,3.709,3.709,0,0,0-2.915,1.749,3.6,3.6,0,0,0-.35,3.265,4.193,4.193,0,0,0,.933,1.4l.933.816.35.35L261.6,177.28l-1.4,1.632-.35-.35-.816-.933a4.193,4.193,0,0,0-1.4-.933,3.75,3.75,0,0,0-5.014,3.265,4.533,4.533,0,0,0,.233,1.749,4.192,4.192,0,0,0,.933,1.4,3.741,3.741,0,0,0,4.9.35c.583-.466.7-.7,1.049-.933l.7-.7c4.2,3.965,8.513,7.813,12.827,11.661-1.283,1.166-2.565,2.215-3.965,3.382l-.7.7A29.062,29.062,0,0,0,254.258,189.99ZM265.1,177.28c4.2,3.965,8.4,7.813,12.71,11.544l-2.449,2.8a1.61,1.61,0,0,1-.466.35c-.466.467-1.049.817-1.516,1.283-3.848-4.315-7.7-8.629-11.661-12.827l1.633-1.633ZM263.12,172.5a1.785,1.785,0,0,1,.233-1.516,1.634,1.634,0,0,1,2.682,0,1.532,1.532,0,0,1,.35,1.4c-.117.583-.35.816-1.049,1.4l-.7.7-.35-.35-.816-.933Zm-4.2,7.7-.7.7c-.7.7-.933.933-1.4,1.049a1.955,1.955,0,0,1-1.4-.35,1.7,1.7,0,0,1,0-2.682,1.786,1.786,0,0,1,1.516-.233,2.44,2.44,0,0,1,.7.466l.933.817C258.689,179.962,258.806,180.078,258.922,180.2Zm25.421,19.59a7.223,7.223,0,0,1-4.781,2.1,6.86,6.86,0,0,1-4.2-1.049l.117-.117,5.48-5.364,4.431-4.548a8.51,8.51,0,0,1,1.049,4.082A7.043,7.043,0,0,1,284.343,199.785Zm2.8-13.76a1.609,1.609,0,0,1-.35.466l-.117.117-1.866,1.866-5.481,5.364-5.364,5.48-2.682,2.8-.466.466a.891.891,0,0,1-.583.233,2.016,2.016,0,0,1-1.166-.117,1.836,1.836,0,0,1-.933-2.215c.117-.233.117-.466.35-.583.117-.117.35-.466.583-.7l1.283-1.4c1.632-1.749,3.148-3.615,4.664-5.364.117-.233.35-.35.466-.583,1.866-1.516,3.731-3.265,5.6-4.9l2.8-2.565a2.047,2.047,0,0,1,.583-.466c.233-.117.35-.233.583-.233a1.619,1.619,0,0,1,1.283.233A1.737,1.737,0,0,1,287.142,186.025Z" transform="matrix(0.995, 0.105, -0.105, 0.995, 659.446, 234.192)" fill="#cc839f"/>
  </g>
</svg>
