<svg id="idea" xmlns="http://www.w3.org/2000/svg" width="51.79" height="51.789" viewBox="0 0 51.79 51.789">
  <path id="Trazado_1096075" data-name="Trazado 1096075" d="M51.59,308.434a3.287,3.287,0,0,0-3.721-2.112L37.8,308.248a3.3,3.3,0,0,0-3.3-4.516l-2.954.213a6.159,6.159,0,0,1-3.647-.876L24.4,300.957a7.961,7.961,0,0,0-7.717-.309l-4.627,2.313V301.65a2.072,2.072,0,0,0-2.069-2.069H2.069A2.072,2.072,0,0,0,0,301.65v4.006a.759.759,0,1,0,1.517,0V301.65a.553.553,0,0,1,.552-.552H9.987a.553.553,0,0,1,.552.552V319a.553.553,0,0,1-.552.552H2.069A.553.553,0,0,1,1.517,319V308.69a.759.759,0,1,0-1.517,0V319a2.072,2.072,0,0,0,2.069,2.069H9.987A2.072,2.072,0,0,0,12.057,319v-.756l2.267.925a22.1,22.1,0,0,0,15.684.388l9.229-3.242a.759.759,0,1,0-.5-1.432L29.5,318.123a20.583,20.583,0,0,1-14.608-.361l-2.84-1.158V304.658l5.306-2.652a6.451,6.451,0,0,1,6.254.251l3.493,2.111a7.669,7.669,0,0,0,4.541,1.091l2.954-.213a1.78,1.78,0,0,1,.435,3.529l-.011,0-6.259,1.079a16.484,16.484,0,0,1-5.618,0l-2.43-.419a.759.759,0,0,0-.258,1.5l2.43.419a18,18,0,0,0,6.134,0l6.275-1.082h0l12.847-2.456a1.783,1.783,0,0,1,.926,3.433l-7.449,2.617a.759.759,0,1,0,.5,1.431l7.449-2.617a3.3,3.3,0,0,0,2.008-4.243Z" transform="translate(0 -269.279)" fill="#5aa6ff"/>
  <path id="Trazado_1096076" data-name="Trazado 1096076" d="M65.651,437.051v-1.916a.759.759,0,0,0-1.517,0v1.916a.759.759,0,1,0,1.517,0Z" transform="translate(-57.647 -390.439)" fill="#5aa6ff"/>
  <path id="Trazado_1096077" data-name="Trazado 1096077" d="M302.178,4.788a.759.759,0,0,0,.759-.759V.767a.759.759,0,1,0-1.517,0V4.03A.759.759,0,0,0,302.178,4.788Z" transform="translate(-270.93 -0.008)" fill="#5aa6ff"/>
  <path id="Trazado_1096078" data-name="Trazado 1096078" d="M390.375,49.369l2.307-2.307a.759.759,0,0,0-1.073-1.073L389.3,48.3a.759.759,0,0,0,1.073,1.073Z" transform="translate(-349.724 -41.138)" fill="#5aa6ff"/>
  <path id="Trazado_1096079" data-name="Trazado 1096079" d="M193.476,49.37a.759.759,0,1,0,1.073-1.073l-2.307-2.307a.759.759,0,1,0-1.073,1.073Z" transform="translate(-171.632 -41.138)" fill="#5aa6ff"/>
  <path id="Trazado_1096080" data-name="Trazado 1096080" d="M145.947,157.756h3.263a.759.759,0,0,0,0-1.517h-3.263a.759.759,0,1,0,0,1.517Z" transform="translate(-130.502 -140.436)" fill="#5aa6ff"/>
  <path id="Trazado_1096081" data-name="Trazado 1096081" d="M426.15,157.756h3.263a.759.759,0,0,0,0-1.517H426.15a.759.759,0,1,0,0,1.517Z" transform="translate(-382.362 -140.436)" fill="#5aa6ff"/>
  <path id="Trazado_1096082" data-name="Trazado 1096082" d="M221.809,94.147a.526.526,0,0,1,.236.436v3.8a3.412,3.412,0,0,0,3.408,3.408h2.991a3.412,3.412,0,0,0,3.408-3.408v-3.8a.524.524,0,0,1,.234-.434,9.219,9.219,0,0,0-9.941-15.524.759.759,0,1,0,.794,1.293,7.7,7.7,0,0,1,8.3,12.972,2.038,2.038,0,0,0-.905,1.694v.471h-2.628V90.467a2.555,2.555,0,0,0,1.792-2.436.759.759,0,1,0-1.517,0,1.034,1.034,0,1,1-2.067,0,.759.759,0,1,0-1.517,0,2.555,2.555,0,0,0,1.792,2.436v4.587h-2.628v-.471a2.042,2.042,0,0,0-.907-1.7,7.689,7.689,0,0,1-3.412-6.539,7.611,7.611,0,0,1,1.63-4.588.759.759,0,0,0-1.2-.934,9.206,9.206,0,0,0,2.131,13.32Zm8.526,2.424v1.809a1.893,1.893,0,0,1-1.891,1.891h-2.991a1.893,1.893,0,0,1-1.891-1.891V96.572Z" transform="translate(-195.701 -69.448)" fill="#5aa6ff"/>
</svg>
