<svg id="estrategia_1_" data-name="estrategia (1)" xmlns="http://www.w3.org/2000/svg" width="51.79" height="51.79" viewBox="0 0 51.79 51.79">
  <path id="Trazado_1096051" data-name="Trazado 1096051" d="M127.4,32.869h-.761V6.591A2.79,2.79,0,0,0,123.852,3.8H108.169V1.774A1.776,1.776,0,0,0,106.4,0h-6.233a1.776,1.776,0,0,0-1.774,1.774V3.8H93.026a.76.76,0,1,0,0,1.52h30.826a1.268,1.268,0,0,1,1.267,1.267V32.869H113.147a.76.76,0,1,0,0,1.52H127.4a.254.254,0,0,1,.253.253v1.777a.254.254,0,0,1-.253.253H86.852a.76.76,0,1,0,0,1.52h4.417L88.716,50.88a.76.76,0,0,0,.745.91h4.56a.76.76,0,0,0,.745-.61l.833-4.14H111l.833,4.14a.76.76,0,0,0,.745.61h4.56a.76.76,0,0,0,.745-.91l-2.553-12.687H127.4a1.776,1.776,0,0,0,1.774-1.774V34.643a1.776,1.776,0,0,0-1.774-1.774ZM99.909,1.774a.254.254,0,0,1,.253-.253H106.4a.254.254,0,0,1,.253.253V3.8h-6.74Zm9.315,36.419.821,4.08H96.559l.821-4.08ZM93.4,50.27H90.39l2.43-12.077h3.009Zm2.507-4.75.347-1.726h14.1l.347,1.726Zm20.309,4.75h-3.009l-2.43-12.077h3.009Z" transform="translate(-77.384 0)" fill="#5aa6ff"/>
  <path id="Trazado_1096052" data-name="Trazado 1096052" d="M6.428,70.47H1.774a.254.254,0,0,1-.253-.253V68.44a.254.254,0,0,1,.253-.253H32.723a.76.76,0,1,0,0-1.52H4.054V40.388a1.268,1.268,0,0,1,1.267-1.267H12.6a.76.76,0,1,0,0-1.52H5.321a2.79,2.79,0,0,0-2.787,2.787V66.667H1.774A1.776,1.776,0,0,0,0,68.44v1.777A1.776,1.776,0,0,0,1.774,71.99H6.428a.76.76,0,1,0,0-1.52Z" transform="translate(0 -33.798)" fill="#5aa6ff"/>
  <path id="Trazado_1096053" data-name="Trazado 1096053" d="M129.124,125.868a.76.76,0,0,0-1.075.013l-2.468,2.531-1.037-1.008a.76.76,0,0,0-1.06,1.09l1.581,1.537a.76.76,0,0,0,1.074-.014l3-3.074A.76.76,0,0,0,129.124,125.868Z" transform="translate(-110.787 -112.942)" fill="#5aa6ff"/>
  <path id="Trazado_1096054" data-name="Trazado 1096054" d="M108.671,96.6A5.672,5.672,0,1,0,103,102.271,5.678,5.678,0,0,0,108.671,96.6ZM103,100.751a4.152,4.152,0,1,1,4.152-4.152A4.157,4.157,0,0,1,103,100.751Z" transform="translate(-87.482 -81.73)" fill="#5aa6ff"/>
  <path id="Trazado_1096055" data-name="Trazado 1096055" d="M133.768,236.735a.76.76,0,0,0-1.075,0L131.53,237.9l-1.164-1.164a.76.76,0,0,0-1.075,1.075l1.164,1.164-1.164,1.164a.76.76,0,0,0,1.075,1.075l1.164-1.164,1.164,1.164a.76.76,0,0,0,1.075-1.075l-1.164-1.164,1.164-1.164A.76.76,0,0,0,133.768,236.735Z" transform="translate(-116.013 -212.589)" fill="#5aa6ff"/>
  <path id="Trazado_1096056" data-name="Trazado 1096056" d="M362.951,236.735a.76.76,0,0,0-1.075,0l-1.164,1.164-1.164-1.164a.76.76,0,0,0-1.075,1.075l1.164,1.164-1.164,1.164a.76.76,0,0,0,1.075,1.075l1.164-1.164,1.164,1.164a.76.76,0,1,0,1.075-1.075l-1.164-1.164,1.164-1.164A.76.76,0,0,0,362.951,236.735Z" transform="translate(-322.013 -212.589)" fill="#5aa6ff"/>
  <path id="Trazado_1096057" data-name="Trazado 1096057" d="M248.39,128.732a.76.76,0,0,0,1.075,0l1.164-1.164,1.164,1.164a.76.76,0,0,0,1.075-1.075l-1.164-1.164,1.164-1.164a.76.76,0,0,0-1.075-1.075l-1.164,1.164-1.164-1.164a.76.76,0,1,0-1.075,1.075l1.164,1.164-1.164,1.164A.76.76,0,0,0,248.39,128.732Z" transform="translate(-223.065 -111.486)" fill="#5aa6ff"/>
  <path id="Trazado_1096058" data-name="Trazado 1096058" d="M240.658,232.223A3.221,3.221,0,1,0,243.879,229a3.225,3.225,0,0,0-3.221,3.221Zm4.922,0a1.7,1.7,0,1,1-1.7-1.7A1.7,1.7,0,0,1,245.58,232.223Z" transform="translate(-216.315 -205.838)" fill="#5aa6ff"/>
  <path id="Trazado_1096059" data-name="Trazado 1096059" d="M224.346,122.592a.76.76,0,0,0,.612.883,19.814,19.814,0,0,0,3.261.251,14.781,14.781,0,0,0,8.654-2.411,9.82,9.82,0,0,0,3.868-7.04.76.76,0,0,0-1.509-.185,8.359,8.359,0,0,1-3.256,6c-4.118,3.038-10.681,1.9-10.747,1.891A.761.761,0,0,0,224.346,122.592Z" transform="translate(-201.642 -101.95)" fill="#5aa6ff"/>
</svg>
