<svg xmlns="http://www.w3.org/2000/svg" width="46.53" height="46.53" viewBox="0 0 46.53 46.53">
  <g id="Grupo_1191766" data-name="Grupo 1191766" transform="translate(-210.674 -1815.235)">
    <g id="estrategia" transform="translate(210.674 1815.235)">
      <path id="Trazado_1096060" data-name="Trazado 1096060" d="M45.927,72.531A19.949,19.949,0,0,0,65.854,52.6a19.746,19.746,0,0,0-2.926-10.4l.855.214a.708.708,0,0,0,.672-.186l7.868-7.868a.708.708,0,0,0-.431-1.205L65.96,32.57l-.587-5.931a.708.708,0,0,0-1.205-.431L56.3,34.076a.708.708,0,0,0-.186.672l.214.855a19.746,19.746,0,0,0-10.4-2.926,19.927,19.927,0,1,0,0,39.854Zm17.81-31.586-2.272-.568h0l-1.846-.462,5.96-5.96,4.686.463Zm.375-12.677.463,4.686-5.96,5.96-.461-1.842,0-.01-.566-2.267ZM45.927,34.093A18.347,18.347,0,0,1,56.84,37.652l.607,2.43L45.426,52.1a.708.708,0,0,0,1,1L58.45,41.083l2.43.607A18.346,18.346,0,0,1,64.438,52.6,18.511,18.511,0,1,1,45.927,34.093Z" transform="translate(-26 -26.001)" fill="#5aa6ff"/>
      <path id="Trazado_1096061" data-name="Trazado 1096061" d="M99.858,179.715a13.859,13.859,0,0,0,11.223-21.989.708.708,0,1,0-1.146.832,12.44,12.44,0,1,1-2.764-2.768.708.708,0,1,0,.833-1.145,13.858,13.858,0,1,0-8.146,25.07Z" transform="translate(-79.931 -139.255)" fill="#5aa6ff"/>
      <path id="Trazado_1096062" data-name="Trazado 1096062" d="M189.743,252a3.743,3.743,0,1,0,3.743,3.743.708.708,0,0,0-1.416,0,2.326,2.326,0,1,1-2.326-2.326.708.708,0,1,0,0-1.416Z" transform="translate(-169.816 -229.14)" fill="#5aa6ff"/>
    </g>
  </g>
</svg>
