<svg xmlns="http://www.w3.org/2000/svg" xmlns:xlink="http://www.w3.org/1999/xlink" width="188" height="212" viewBox="0 0 188 212">
  <defs>
    <clipPath id="clip-path">
      <rect id="Rectángulo_456899" data-name="Rectángulo 456899" width="52.34" height="13.623" rx="6.811" fill="none" stroke="#707070" stroke-width="1"/>
    </clipPath>
    <clipPath id="clip-path-2">
      <rect id="Rectángulo_456898" data-name="Rectángulo 456898" width="53.164" height="53.164" fill="#5aa6ff"/>
    </clipPath>
    <clipPath id="clip-path-3">
      <rect id="Rectángulo_459887" data-name="Rectángulo 459887" width="64.405" height="131.324"/>
    </clipPath>
  </defs>
  <g id="Grupo_1191666" data-name="Grupo 1191666" transform="translate(-186 -1195.712)">
    <g id="Grupo_1190868" data-name="Grupo 1190868" transform="translate(1 -1376.288)">
      <g id="Grupo_1190061" data-name="Grupo 1190061" transform="translate(185 2572)">
        <rect id="Rectángulo_456896" data-name="Rectángulo 456896" width="188" height="204.812" rx="10" transform="translate(0 0)" fill="#fff8ea"/>
        <g id="Enmascarar_grupo_1119322" data-name="Enmascarar grupo 1119322" transform="translate(123.827 198.377)" clip-path="url(#clip-path)">
          <g id="Grupo_1187003" data-name="Grupo 1187003" transform="translate(-0.412 26.582) rotate(-90)">
            <path id="Trazado_1088293" data-name="Trazado 1088293" d="M0,0H53.164V53.164H0Z" transform="translate(0 0)" fill="#eef6ff"/>
            <g id="Grupo_1187002" data-name="Grupo 1187002">
              <g id="Grupo_1187001" data-name="Grupo 1187001" clip-path="url(#clip-path-2)">
                <path id="Trazado_1088294" data-name="Trazado 1088294" d="M33.2,1.128c-.249.674-.492,1.35-.715,2.033-.141.433-.242.879-.362,1.319-.015.055-.037.108-.055.162l-.05,0c-.015-.234-.042-.467-.042-.7,0-1.057-.009-2.114.019-3.171q.01-.384.047-.767H27.557c-.046.442-.074.886-.108,1.33-.011.149-.013.3-.017.449-.016.546-.025,1.092-.048,1.638-.022.523-.059,1.044-.091,1.566a.579.579,0,0,1-.047.119c-.045-.137-.08-.232-.108-.329-.205-.688-.4-1.381-.617-2.063-.251-.775-.5-1.551-.8-2.308C25.661.265,25.6.132,25.536,0H22.126c.117.436.234.872.336,1.311a4.553,4.553,0,0,1,.064.578c.036.356.083.712.1,1.07.025.448.051.9.035,1.345-.019.537-.085,1.072-.121,1.608-.015.222,0,.447,0,.726-.165-.4-.313-.746-.459-1.1a25.071,25.071,0,0,1-.82-2.47,5.972,5.972,0,0,0-.206-.569,3.687,3.687,0,0,1-.278-1.217C20.761.956,20.7.632,20.668.3c-.01-.1-.018-.2-.023-.3H11.113c-.034.236-.058.474-.094.709-.019.121-.058.24-.088.359l-.054,0c-.052-.27-.106-.54-.154-.811C10.707.168,10.69.084,10.672,0H6.227a.243.243,0,0,1,.006.024c.079.388.145.778.235,1.163A28.339,28.339,0,0,1,7,4.1c.092.733.14,1.471.2,2.208.037.454.074.909.082,1.364A9.465,9.465,0,0,1,7.223,8.72c-.023.243-.078.484-.122.725a.5.5,0,0,1-.049.125.437.437,0,0,1-.524.287.76.76,0,0,1-.606-.41,4.4,4.4,0,0,1-.4-1.325,14.836,14.836,0,0,1-.145-2.258c.007-.832,0-1.664.022-2.495.013-.423.1-.845.141-1.267A11.19,11.19,0,0,1,6.076,0H0V11.347c1.034-.484,1.963-.895,2.265-.983.021.044.046.089.065.136a8.285,8.285,0,0,0,1.678,2.666,3.56,3.56,0,0,0,2.661,1.166,4.3,4.3,0,0,0,1.005-.074,3.135,3.135,0,0,0,1.847-1.231,5.545,5.545,0,0,0,.629-1.138,8.471,8.471,0,0,0,.572-1.652c.007-.036.022-.07.041-.131l8.1,2.5-.005.04c-.085.007-.169.017-.254.021-.65.031-1.3.049-1.949.094-.491.034-.981.1-1.47.156s-.966.108-1.443.194a10.3,10.3,0,0,0-3.367,1.2,2.567,2.567,0,0,0-1.227,1.436,4.169,4.169,0,0,0-.133,1.778,8.026,8.026,0,0,0,.659,2.091,7.293,7.293,0,0,0,.907,1.675,3.76,3.76,0,0,0,1.333,1.146,3.367,3.367,0,0,0,1.227.335c.425.033.851.051,1.277.06.478.01.957,0,1.436,0h.214c0,.011,0,.022,0,.033-.282.019-.563.035-.845.058a16.5,16.5,0,0,0-3.541.526,7.869,7.869,0,0,0-1.468.617,2.331,2.331,0,0,0-.864.715c-.018-.294-.037-.588-.052-.882a15.03,15.03,0,0,0-.466-3.3,11.764,11.764,0,0,0-1.773-3.686A11.378,11.378,0,0,0,6.045,15.6a7.284,7.284,0,0,0-3.069-1.886,11.321,11.321,0,0,0-2.832-.557L0,13.146v5.541H0a3.7,3.7,0,0,1,1.815.885,3.316,3.316,0,0,1,.453.526,6.925,6.925,0,0,1,.85,1.727,15.913,15.913,0,0,1,.641,3.023c.146,1.088.259,2.181.373,3.273.072.691.133,1.383.178,2.076s.072,1.375.09,2.063c.024.913.035,1.827.046,2.741.006.464-.009.929,0,1.393.01.366.05.73.073,1.1s.028.733.062,1.1a6.245,6.245,0,0,0,.486,2.11,4.584,4.584,0,0,0,1.15,1.563c.119.1.23.214.347.32a3.211,3.211,0,0,0,.759.516c.33.161.653.335.982.5a2.993,2.993,0,0,0,.31.114l.019-.043-.6-.287.011-.03c.173.032.344.069.518.095a4.372,4.372,0,0,0,2.016-.175,6.117,6.117,0,0,0,1.425-.654,2.689,2.689,0,0,1,.363-.176,4.924,4.924,0,0,0,1.538-1.151c.2-.21.382-.442.567-.668a4.652,4.652,0,0,0,.6-1.021,2.8,2.8,0,0,1,.285-.508.9.9,0,0,1,1.348-.062.415.415,0,0,1,.1.15c.124.272.251.544.366.82.262.629.5,1.269.782,1.888a4.976,4.976,0,0,0,1.071,1.543,4.146,4.146,0,0,0,1.089.785,2.955,2.955,0,0,0,.9.265.7.7,0,0,1,.121.038h.99c.018-.011.035-.031.054-.033a3.112,3.112,0,0,0,2.333-1.465,10.257,10.257,0,0,0,.783-1.439c.25-.535.516-1.064.783-1.591a1.454,1.454,0,0,1,.631-.652.969.969,0,0,1,.337-.112.439.439,0,0,1,.43.236,7.15,7.15,0,0,1,.353.676c.235.518.447,1.047.691,1.561a6.968,6.968,0,0,0,.718,1.191A2.852,2.852,0,0,0,31,44.006a5.694,5.694,0,0,0,1.38.151,3.6,3.6,0,0,0,2.37-.94,6.534,6.534,0,0,0,1.408-1.9c.3-.594.621-1.179.946-1.761a3.18,3.18,0,0,1,1.306-1.264,1.473,1.473,0,0,1,1.72.253,12.634,12.634,0,0,1,1.29,1.5A8.874,8.874,0,0,0,44.4,42.55,4.621,4.621,0,0,0,45.6,43c.146.03.3.041.442.073.218.048.437.1.651.163a.371.371,0,0,0,.5-.189,9.654,9.654,0,0,0,.626-1.439c.289-.715.569-1.433.854-2.149a.372.372,0,0,1,.049-.07V39.25a4.061,4.061,0,0,1-2.09-.665,8.5,8.5,0,0,1-1.716-1.262c-.679-.615-1.28-1.3-1.9-1.977a10.363,10.363,0,0,0-1.875-1.6c-.392-.263-.786-.523-1.178-.785-.01-.007-.012-.025-.026-.055.281.038.553.077.824.111.7.088,1.393.181,2.091.258.6.066,1.2.115,1.807.163a1.965,1.965,0,0,0,.423-.028.157.157,0,0,0,.145-.207c-.09-.537-.154-1.08-.265-1.613-.173-.827-.377-1.648-.57-2.471a1.492,1.492,0,0,0-.088-.253.579.579,0,0,0-.414-.334,29.735,29.735,0,0,0-3.63-.716,18.416,18.416,0,0,0-2.027-.212.889.889,0,0,1-.128-.034c.126-.074.212-.127.3-.175a10.449,10.449,0,0,0,1.837-1.209c.367-.319.715-.662,1.053-1.012.431-.448.847-.91,1.262-1.373a3.305,3.305,0,0,0,.66-1.141,6.058,6.058,0,0,0,.348-1.229,2.794,2.794,0,0,0-1.63-3.135,5.314,5.314,0,0,0-1.781-.421c-.566-.043-1.134-.059-1.7-.094a9.375,9.375,0,0,1-.977-.113c.1-.033.208-.073.314-.1a4.394,4.394,0,0,0,1.923-1.115A4.822,4.822,0,0,0,41.1,13.811a10.262,10.262,0,0,0,.23-2.967,10.869,10.869,0,0,0-.266-1.682c-.372-1.626-.736-3.254-1.123-4.877-.2-.837-.446-1.662-.665-2.494a4.525,4.525,0,0,1-.13-.659.583.583,0,0,1,.074-.318q.217-.4.4-.814h-6q-.217.563-.425,1.128M1.908,6.377A1.268,1.268,0,0,1,1.8,5.8c-.029-.755-.046-1.511-.046-2.266,0-.357.053-.715.076-1.072.018-.276.023-.553.041-.829.011-.168.037-.335.056-.5l.047,0C1.947,2,1.9,2.877,1.892,3.75s.02,1.751.017,2.628M14.98,33.01a4.223,4.223,0,0,0-1.927,1.658c-.192.3-.381.61-.576.912a5.181,5.181,0,0,1-1.09,1.184.939.939,0,0,1-1.173-.052,2.068,2.068,0,0,1-.542-.839,6.84,6.84,0,0,1-.309-1.353c-.106-.731-.212-1.464-.277-2.2-.048-.543-.041-1.091-.041-1.637,0-.486.017-.972.044-1.457.046-.8.107-1.609.161-2.413a5.615,5.615,0,0,1,.074-.691c.156.329.311.658.468.987.391.817.764,1.642,1.18,2.446a8.848,8.848,0,0,0,.9,1.45,5.824,5.824,0,0,0,1.612,1.38,2.323,2.323,0,0,0,.835.247c.36.059.72.113,1.08.169l.012.03c-.142.06-.285.12-.426.181M22.938,9.79l.04-.009.11.356.558,1.82c.063.207.125.414.19.621.028.088,0,.158-.088.169-.214.024-.43.04-.645.045-.036,0-.075-.072-.109-.113-.008-.009,0-.029,0-.044q-.03-1.378-.06-2.757a.878.878,0,0,1,.007-.088M18.465,7.1c-.242-.077-.487-.146-.727-.229-.587-.2-1.17-.416-1.758-.615-.247-.084-.5-.14-.755-.213-.136-.04-.268-.089-.425-.142L15.859.7,15.9.7c.012.093.025.185.034.278a8.166,8.166,0,0,0,.576,1.953,12.931,12.931,0,0,0,1.031,1.992c.344.6.718,1.176,1.084,1.76.118.188.255.365.383.547l-.023.037c-.175-.058-.35-.117-.526-.173M14.419,19.062a1.76,1.76,0,0,1-.577-.021c-.181-.028-.245-.129-.256-.316a.785.785,0,0,1,.613-.852,6.725,6.725,0,0,1,1.082-.179c.7-.062,1.4-.1,2.1-.14.582-.034,1.165-.056,1.747-.092.268-.017.534-.061.8-.08.175-.012.351,0,.526,0l.006.037c-.059.023-.117.051-.177.069-.6.182-1.2.366-1.805.543-.725.213-1.448.436-2.18.624-.622.16-1.253.288-1.885.407M25.8,31.585a2.855,2.855,0,0,0-1,1.216c-.179.4-.349.795-.518,1.195a10.446,10.446,0,0,1-.91,1.726,3.184,3.184,0,0,1-.726.791.934.934,0,0,1-1.333-.1,2.739,2.739,0,0,1-.5-.657,10.2,10.2,0,0,0-1.048-1.565,8.3,8.3,0,0,0-1.326-1.336c-.034-.029-.069-.058-.1-.089a.234.234,0,0,1-.026-.056,46.418,46.418,0,0,1,7.608-1.187,1.051,1.051,0,0,0-.116.06m2.65-4.486c-.164.008-.329,0-.493.006-.471.015-.942.045-1.413.046-.577,0-1.149.06-1.722.117-.454.045-.91.064-1.363.114-.581.063-1.165.057-1.747.092a26.012,26.012,0,0,1-2.718.017c-.476-.021-.948-.116-1.421-.182-.3-.042-.6-.092-.905-.139l.009-.01c.463.013.926.032,1.39.036s.9,0,1.349-.015c.68-.023,1.361-.045,2.04-.092.872-.061,1.743-.134,2.612-.225.758-.079,1.511-.194,2.268-.286.49-.059.98-.107,1.471-.154.529-.051,1.058-.086,1.59-.084a7.951,7.951,0,0,1,2.557.415,5.344,5.344,0,0,1,.773.4c.015.008.021.035.038.069-.5-.078-.985-.167-1.473-.224a7.889,7.889,0,0,0-.918-.025c-.156,0-.312.028-.469.037-.485.029-.97.057-1.455.081m7.6,5.889A3.037,3.037,0,0,0,34.807,34.1c-.135.242-.254.493-.373.743-.2.419-.391.842-.593,1.26a1.568,1.568,0,0,1-.468.595.482.482,0,0,1-.743-.088,2.546,2.546,0,0,1-.393-.752,18.457,18.457,0,0,0-1.187-2.566c-.334-.559-.7-1.1-1.056-1.643-.023-.036-.047-.071-.1-.149a24.361,24.361,0,0,1,6.769,1.159c-.23.121-.429.22-.621.33M38.11,22.32a1.392,1.392,0,0,1,.4.281.458.458,0,0,1-.126.738.29.29,0,0,1-.172.018c-.219-.045-.438-.094-.654-.153-1.075-.293-2.145-.605-3.224-.88-.658-.168-1.332-.274-2-.418-.913-.2-1.821-.421-2.736-.608-.695-.143-1.4-.245-2.1-.372-.118-.021-.256-.008-.366-.157.066-.009.1-.017.138-.018a14.344,14.344,0,0,1,1.769.081c.319.037.642.035.962.06.938.074,1.876.148,2.813.232a20.34,20.34,0,0,1,4.055.715,11.49,11.49,0,0,1,1.232.481m-2.648-9.58c.1-.829.214-1.656.333-2.483.068-.472.143-.945.238-1.412.08-.395.193-.783.295-1.173a.3.3,0,0,1,.193-.254c.064.362.143.7.179,1.036.052.5.076,1,.105,1.5.021.365.038.731.044,1.1a4.946,4.946,0,0,1-.187,1.551,3.9,3.9,0,0,0-.088.416.889.889,0,0,1-.475.62.376.376,0,0,1-.6-.27,2.068,2.068,0,0,1-.04-.623m-.605,4.578a.354.354,0,0,1,.046.056c-.053,0-.091,0-.128,0-.423-.044-.845-.093-1.269-.133-.609-.057-1.219-.108-1.829-.161-.045,0-.09,0-.135,0-.764-.005-1.529-.006-2.293-.016s-1.542-.026-2.313-.045c-.486-.012-.971-.036-1.5-.056a.7.7,0,0,1,.145-.06c1.083-.121,2.166-.245,3.251-.358.408-.043.82-.055,1.228-.1.392-.04.781-.1,1.19-.152.11-2.431.22-4.833.329-7.236l.031.005c.078.5.144,1.005.237,1.5.185.992.367,1.985.582,2.97a8.239,8.239,0,0,0,1.054,2.491,3.221,3.221,0,0,0,1.2,1.186c.059.033.115.071.171.108" fill="#5aa6ff"/>
                <path id="Trazado_1088295" data-name="Trazado 1088295" d="M1.265,11.955A2.757,2.757,0,0,0,3.439,10a3.357,3.357,0,0,0,.11-.684A5.872,5.872,0,0,0,3.3,7.3a13.6,13.6,0,0,0-.938-2.641c-.323-.675-.594-1.376-.941-2.037Q.723,1.3,0,0V12.078a5.779,5.779,0,0,0,1.265-.123" transform="translate(0 30.783)" fill="#5aa6ff"/>
                <path id="Trazado_1088296" data-name="Trazado 1088296" d="M13.908,13.119c-.666,0-1.333.025-2,.044-.171,0-.342.025-.527.039a36.028,36.028,0,0,1,3.638-1.855V0H12.947c0,.153-.008.307-.015.46-.008.184-.029.368-.044.552l-.046.019c-.08-.115-.166-.226-.239-.346A6.466,6.466,0,0,0,12.12,0H.29A4.423,4.423,0,0,0,.046,1.014,4.567,4.567,0,0,0,.275,3.271a7.411,7.411,0,0,0,.771,1.64A8.832,8.832,0,0,0,2.346,6.4c.24.214.48.429.731.63a5.117,5.117,0,0,0,2.237.992,8.506,8.506,0,0,0,1.555.2,8.144,8.144,0,0,1,1.022.127,10.5,10.5,0,0,0,1.567.09h.208l-.161.094c-.607.344-1.258.6-1.892.882-.58.262-1.151.544-1.722.826-.409.2-.812.418-1.216.63-.2.1-.2.2-.077.37.182.246.358.5.519.759.39.63.77,1.266,1.154,1.9.066.109.136.216.194.329.074.142.052.185-.088.267a8.871,8.871,0,0,0-.957.582,3.813,3.813,0,0,0-1.285,1.751,6.207,6.207,0,0,0-.364,2.426,9.606,9.606,0,0,0,.274,1.68,16.744,16.744,0,0,0,.962,2.7,15.96,15.96,0,0,0,1.809,3.045c1.191,1.672,2.4,3.33,3.581,5.011.688.982,1.337,1.99,1.982,3a5.407,5.407,0,0,1,.8,1.917,2.994,2.994,0,0,1,.032.648.6.6,0,0,1-.367.5,1.955,1.955,0,0,1-1.416.167,4.674,4.674,0,0,1-.759-.271c-.693-.3-1.379-.619-2.073-.919-.472-.2-.953-.39-1.437-.586a.577.577,0,0,0-.066.108,3.356,3.356,0,0,1-.436.831,14.6,14.6,0,0,0-1.143,2.263c-.113.268-.233.533-.348.795.1.143.242.143.368.175.8.2,1.6.392,2.4.594a28.15,28.15,0,0,1,2.691.872,24.485,24.485,0,0,0,3.277.945,5.757,5.757,0,0,0,1.12.126V30.783c-.922-1.659-1.886-3.294-2.909-4.9-.576-.9-1.092-1.843-1.63-2.769-.248-.427-.493-.857-.723-1.294a3.472,3.472,0,0,1-.34-.948,2.313,2.313,0,0,1,.139-1.342,1.093,1.093,0,0,1,.545-.545,4.149,4.149,0,0,1,1.214-.389,8.863,8.863,0,0,1,1.521-.1,9.859,9.859,0,0,1,2.184.192V13.146c-.37-.02-.742-.03-1.112-.027m-2.97-8A15.574,15.574,0,0,1,7.332,3.382,20.283,20.283,0,0,1,5.668,2.017a10.054,10.054,0,0,1-.7-.727.689.689,0,0,1-.093-.126.278.278,0,0,1,.16-.431A.667.667,0,0,1,5.257.7a4.36,4.36,0,0,1,2.279.649A9.389,9.389,0,0,1,9.9,3.328c.363.456.754.89,1.131,1.335a2,2,0,0,1,.191.249,2.7,2.7,0,0,1,.133.307,3.634,3.634,0,0,1-.417-.094" transform="translate(38.144)" fill="#5aa6ff"/>
                <path id="Trazado_1088297" data-name="Trazado 1088297" d="M6.076,11.411h0a.721.721,0,0,1,.094-.139c.026.066.045.1.056.14h4.445A9,9,0,0,0,9.7,8.948c-.186-.333-.375-.665-.578-.988a2.447,2.447,0,0,0-.373-.473.8.8,0,0,1-.111-1.112,3.846,3.846,0,0,1,.627-.73,8.482,8.482,0,0,1,2.669-1.583c.161-.058.331-.091.495-.142.2-.063.268-.013.228.191s-.083.426-.132.637c-.22.946-.453,1.889-.66,2.838-.134.612-.225,1.234-.346,1.849-.112.571-.247,1.138-.357,1.71-.017.088-.031.176-.044.265h9.532c-.006-.115-.009-.23,0-.345a.748.748,0,0,1,.408-.634.443.443,0,0,1,.605.108,1.847,1.847,0,0,1,.446.77l.027.1h3.411c-.165-.338-.356-.665-.534-1-.152-.283-.319-.558-.491-.83a4.546,4.546,0,0,0-1.385-1.42c-.073-.047-.139-.1-.208-.156l.02-.04,5.01.754c-.057.325-.117.623-.161.925-.079.546-.158,1.093-.219,1.642,0,.04-.008.081-.012.121h4.486a11.544,11.544,0,0,1,.182-1.213c.122-.593.241-1.188.4-1.773a3,3,0,0,1,1.311-1.762,1.767,1.767,0,0,1,.43-.191.592.592,0,0,1,.681.456,2.77,2.77,0,0,1-.209,1.623c-.259.605-.543,1.2-.792,1.81q-.213.522-.415,1.05h6a17.355,17.355,0,0,0,1.149-3.669,5.388,5.388,0,0,0,.013-2.162,3.188,3.188,0,0,0-.721-1.429,4.337,4.337,0,0,0-1.482-1.107,13.806,13.806,0,0,0-2.32-.9,6.245,6.245,0,0,0-4.5.537,5.964,5.964,0,0,0-.974.757A9.277,9.277,0,0,0,28.6,6.292c-.02.04-.04.081-.063.119-.006.011-.025.015-.047.028l.283-2.458c-.154-.043-.308-.1-.467-.129A23.419,23.419,0,0,1,25.633,3.1c-.595-.185-1.206-.29-1.812-.424-1.358-.3-2.712-.624-4.068-.936-1.5-.345-3.01-.659-4.53-.914-.265-.044-.533-.072-.8-.111A.3.3,0,0,0,14.085.9a22.791,22.791,0,0,0-1.061,2.131.861.861,0,0,1-.063.1.88.88,0,0,1-.048-.157,3.443,3.443,0,0,0-.222-.957c-.157-.4-.27-.825-.422-1.231a6.159,6.159,0,0,0-.3-.6A.323.323,0,0,0,11.613,0a2.143,2.143,0,0,0-.419.069c-.591.191-1.179.39-1.767.591-.2.068-.394.144-.588.222a9.283,9.283,0,0,0-2.9,1.9A14.6,14.6,0,0,0,4.251,4.669a10.557,10.557,0,0,0-1.24,2.158c-.216.5-.429,1.005-.626,1.515-.126.328-.22.668-.33,1-.028.084-.06.167-.105.29a.806.806,0,0,1-.079-.154c-.065-.3-.123-.6-.188-.9-.1-.445-.205-.889-.3-1.335-.112-.534-.213-1.071-.319-1.606a2.158,2.158,0,0,0-.052-.218C.847,4.879.688,4.333.5,3.8a9.407,9.407,0,0,0-.377-.862Q.061,2.794,0,2.653v8.758ZM16.882,7.029l2.248.5.015.047A4.9,4.9,0,0,0,16.4,9.465l.482-2.435" transform="translate(0 41.753)" fill="#5aa6ff"/>
                <path id="Trazado_1088298" data-name="Trazado 1088298" d="M11.2,10.527a4.879,4.879,0,0,0-1.08-.873A11.973,11.973,0,0,0,8.81,8.912c-.424-.2-.878-.338-1.321-.5-.14-.051-.285-.091-.427-.137a5.973,5.973,0,0,0-1.117-.233,2.145,2.145,0,0,1-.251-.062l-.009-.052a2.031,2.031,0,0,1,.223-.113c.745-.271,1.489-.544,2.237-.807.317-.111.644-.2.965-.3.756-.237,1.511-.478,2.268-.712a1.942,1.942,0,0,1,.308-.042c.082.171.169.335.24.506a8.605,8.605,0,0,1,.588,2.181,16.555,16.555,0,0,1,.142,2.629H14.73V2.516A19.249,19.249,0,0,0,13.814.533,2.412,2.412,0,0,0,13.39.046.344.344,0,0,0,13.162,0a3.686,3.686,0,0,0-.978.236A27.968,27.968,0,0,0,9.5,1.26c-.636.281-1.252.609-1.876.918q-.7.348-1.4.7c-.18.091-.357.189-.537.281q-.981.5-1.963.99-.42.212-.839.429a.556.556,0,0,0-.076.059c.5,1.063,1.042,2.1,1.547,3.188-.136.051-.244.095-.353.133-.353.123-.712.231-1.059.37a5.064,5.064,0,0,0-1.6.988A5.129,5.129,0,0,0,0,11.274H11.83c-.2-.256-.419-.5-.634-.747" transform="translate(38.434 41.891)" fill="#5aa6ff"/>
              </g>
            </g>
          </g>
        </g>
      </g>
    </g>
    <g id="_41972448_8960720" data-name="41972448_8960720" transform="translate(190.552 1209.752)">
      <g id="OBJECTS" transform="translate(11.024 16.29)">
        <path id="Trazado_1096083" data-name="Trazado 1096083" d="M93.1,68.769c1.358-.774,2.7-1.5,3.98-2.169,8.426-4.438,18.77-4.258,27.752-1.815,20.441,5.56,31.133,27.311,44.991,33.008s32.767,65.029-20.084,73.067-80.211,22.425-101.684,5.618,0-49.569,18.925-56.028c18.87-6.441,6.684-23.543,9.89-35.032C78.957,77.933,86.246,72.673,93.1,68.769Z" transform="translate(-34.552 -54.507)" fill="#ebebeb"/>
        <g id="Grupo_1191601" data-name="Grupo 1191601" transform="translate(99.968 98.026)">
          <g id="Grupo_1191593" data-name="Grupo 1191593" transform="translate(3.914)">
            <path id="Trazado_1096084" data-name="Trazado 1096084" d="M322.824,361.122s-.339-11.726,34.139-31.145" transform="translate(-322.824 -325.986)" fill="none" stroke="#bc6e2b" stroke-miterlimit="10" stroke-width="1"/>
            <g id="Grupo_1191590" data-name="Grupo 1191590" transform="translate(26.674 0.15)">
              <path id="Trazado_1096085" data-name="Trazado 1096085" d="M402.535,319.9a8.754,8.754,0,0,1-3.165,7.379,8.755,8.755,0,0,1,1.5-7.889A.92.92,0,0,1,402.535,319.9Z" transform="translate(-399.007 -319.008)" fill="#bc6e2b"/>
              <path id="Trazado_1096086" data-name="Trazado 1096086" d="M408.008,342.662a8.755,8.755,0,0,0-7.967-1,8.754,8.754,0,0,0,7.563,2.7A.92.92,0,0,0,408.008,342.662Z" transform="translate(-399.679 -333.388)" fill="#bc6e2b"/>
            </g>
            <g id="Grupo_1191591" data-name="Grupo 1191591" transform="translate(18.364 5.213)">
              <path id="Trazado_1096087" data-name="Trazado 1096087" d="M378.326,334.272a8.755,8.755,0,0,1-2.408,7.66,8.754,8.754,0,0,1,.7-8A.92.92,0,0,1,378.326,334.272Z" transform="translate(-375.274 -333.467)" fill="#bc6e2b"/>
              <path id="Trazado_1096088" data-name="Trazado 1096088" d="M385.142,356.233a8.754,8.754,0,0,0-8.027-.193,8.754,8.754,0,0,0,7.8,1.923A.92.92,0,0,0,385.142,356.233Z" transform="translate(-376.47 -347.576)" fill="#bc6e2b"/>
            </g>
            <g id="Grupo_1191592" data-name="Grupo 1191592" transform="translate(11.408 10.086)">
              <path id="Trazado_1096089" data-name="Trazado 1096089" d="M358.146,348.12a8.755,8.755,0,0,1-1.835,7.817,8.755,8.755,0,0,1,.1-8.029A.92.92,0,0,1,358.146,348.12Z" transform="translate(-355.406 -347.384)" fill="#bc6e2b"/>
              <path id="Trazado_1096090" data-name="Trazado 1096090" d="M366.01,369.258a8.754,8.754,0,0,0-8.019.4,8.755,8.755,0,0,0,7.917,1.34A.92.92,0,0,0,366.01,369.258Z" transform="translate(-357.086 -361.106)" fill="#bc6e2b"/>
            </g>
            <path id="Trazado_1096091" data-name="Trazado 1096091" d="M426.34,320.152a8.754,8.754,0,0,1-7.545,2.746,8.755,8.755,0,0,1,6.773-4.312A.92.92,0,0,1,426.34,320.152Z" transform="translate(-385.193 -318.578)" fill="#bc6e2b"/>
          </g>
          <g id="Grupo_1191595" data-name="Grupo 1191595" transform="translate(6.998 8.513)">
            <path id="Trazado_1096092" data-name="Trazado 1096092" d="M334.663,367.306s14.988-15.651,31.141-19.032-11.726-15.71-34.049,14.31C330.909,369.688,334.663,367.306,334.663,367.306Z" transform="translate(-331.631 -342.892)" fill="#c7c7c7"/>
            <g id="Grupo_1191594" data-name="Grupo 1191594" transform="translate(3.247 1.615)">
              <path id="Trazado_1096093" data-name="Trazado 1096093" d="M376.123,347.67a29.783,29.783,0,0,0-5.1.169,39.167,39.167,0,0,0-5.014.877,43.705,43.705,0,0,0-13.888,6.122l-.53.352-.516.372-1.03.747-1,.79-.5.391-.486.411-.971.824c-.32.28-.625.575-.939.861-.635.566-1.224,1.179-1.824,1.782-.307.295-.6.606-.884.92l-.868.938c-.564.638-1.108,1.294-1.67,1.936.518-.677,1.026-1.364,1.565-2.026l.826-.979c.273-.328.55-.654.845-.964.583-.625,1.161-1.257,1.782-1.844.307-.3.607-.6.922-.894l.955-.858c.627-.585,1.313-1.1,1.975-1.644l1.034-.764.518-.381.533-.36a41.315,41.315,0,0,1,4.409-2.646,39.708,39.708,0,0,1,4.718-2.045,37.166,37.166,0,0,1,4.937-1.427A31.876,31.876,0,0,1,376.123,347.67Z" transform="translate(-340.905 -347.504)" fill="#a6a6a6"/>
            </g>
          </g>
          <g id="Grupo_1191600" data-name="Grupo 1191600" transform="translate(0 16.717)">
            <path id="Trazado_1096094" data-name="Trazado 1096094" d="M311.946,381.483s22.869-22.921,49.37-12.4-27.266,18.4-45.3,31.566C310,388,311.946,381.483,311.946,381.483Z" transform="translate(-311.645 -366.323)" fill="#ffc061"/>
            <g id="Grupo_1191596" data-name="Grupo 1191596" transform="translate(0.362 5.42)">
              <path id="Trazado_1096095" data-name="Trazado 1096095" d="M367.114,381.807q-3.646.221-7.265.684-3.62.438-7.208,1.078a122.2,122.2,0,0,0-14.158,3.358,90.237,90.237,0,0,0-13.539,5.271,64.46,64.46,0,0,0-12.266,7.8c.914-.8,1.8-1.645,2.776-2.378.483-.372.945-.774,1.446-1.122l1.486-1.072a66,66,0,0,1,6.286-3.765,78.617,78.617,0,0,1,13.584-5.482c2.342-.7,4.7-1.325,7.088-1.863,2.386-.52,4.785-.985,7.2-1.34s4.837-.653,7.266-.868c1.216-.095,2.432-.177,3.65-.231S365.9,381.789,367.114,381.807Z" transform="translate(-312.678 -381.802)" fill="#db973e"/>
            </g>
            <g id="Grupo_1191597" data-name="Grupo 1191597" transform="translate(33.149 8.546)">
              <path id="Trazado_1096096" data-name="Trazado 1096096" d="M406.322,390.731a20.458,20.458,0,0,1,3.9,1.131,34.19,34.19,0,0,1,3.692,1.7,35.632,35.632,0,0,1,3.457,2.129,28.138,28.138,0,0,1,3.164,2.537c-.6-.32-1.168-.678-1.752-1.012s-1.153-.686-1.738-1.013c-.292-.164-.582-.331-.868-.5l-.876-.487c-.576-.337-1.169-.646-1.755-.966-1.174-.635-2.366-1.236-3.565-1.827S407.565,391.265,406.322,390.731Z" transform="translate(-406.322 -390.731)" fill="#db973e"/>
            </g>
            <g id="Grupo_1191598" data-name="Grupo 1191598" transform="translate(22.169 0.851)">
              <path id="Trazado_1096097" data-name="Trazado 1096097" d="M374.962,379.342c.836-1.788,1.71-3.509,2.525-5.265.422-.871.811-1.755,1.208-2.639s.759-1.784,1.179-2.683a14.538,14.538,0,0,1-.61,2.9c-.132.478-.321.933-.486,1.4-.187.456-.379.911-.588,1.358a23.055,23.055,0,0,1-1.43,2.587A15.575,15.575,0,0,1,374.962,379.342Z" transform="translate(-374.962 -368.754)" fill="#db973e"/>
            </g>
            <g id="Grupo_1191599" data-name="Grupo 1191599" transform="translate(10.464 16.615)">
              <path id="Trazado_1096098" data-name="Trazado 1096098" d="M341.531,413.778a25.818,25.818,0,0,1,4.537.665,32.069,32.069,0,0,1,4.4,1.35,25.468,25.468,0,0,1,4.115,2.086,15.271,15.271,0,0,1,3.453,3.034,27.5,27.5,0,0,0-3.763-2.512c-.676-.331-1.325-.705-2.02-1-.674-.331-1.376-.6-2.071-.889-1.4-.556-2.828-1.034-4.269-1.489S343.009,414.166,341.531,413.778Z" transform="translate(-341.531 -413.778)" fill="#db973e"/>
            </g>
            <path id="Trazado_1096099" data-name="Trazado 1096099" d="M335.207,371.219a59.693,59.693,0,0,0-23.261,13.446s-1.948,6.516,4.068,19.171c4.562-3.331,11.411-6.324,18.669-9.106C329.683,387.135,333.237,376.052,335.207,371.219Z" transform="translate(-311.645 -369.505)" fill="#a87d1d" opacity="0.28"/>
          </g>
        </g>
        <g id="Grupo_1191613" data-name="Grupo 1191613" transform="translate(0 98.026)">
          <g id="Grupo_1191605" data-name="Grupo 1191605" transform="translate(11.545)">
            <path id="Trazado_1096100" data-name="Trazado 1096100" d="M114.036,361.122s.339-11.726-34.139-31.145" transform="translate(-72.614 -325.986)" fill="none" stroke="#bc6e2b" stroke-miterlimit="10" stroke-width="1"/>
            <g id="Grupo_1191602" data-name="Grupo 1191602" transform="translate(5.984 0.15)">
              <path id="Trazado_1096101" data-name="Trazado 1096101" d="M91.131,319.9a8.754,8.754,0,0,0,3.165,7.379,8.755,8.755,0,0,0-1.5-7.889A.92.92,0,0,0,91.131,319.9Z" transform="translate(-85.895 -319.008)" fill="#bc6e2b"/>
              <path id="Trazado_1096102" data-name="Trazado 1096102" d="M76.622,342.662a8.755,8.755,0,0,1,7.967-1,8.754,8.754,0,0,1-7.563,2.7A.92.92,0,0,1,76.622,342.662Z" transform="translate(-76.187 -333.388)" fill="#bc6e2b"/>
            </g>
            <g id="Grupo_1191603" data-name="Grupo 1191603" transform="translate(13.87 5.213)">
              <path id="Trazado_1096103" data-name="Trazado 1096103" d="M116.053,334.272a8.755,8.755,0,0,0,2.408,7.66,8.754,8.754,0,0,0-.7-8A.92.92,0,0,0,116.053,334.272Z" transform="translate(-109.918 -333.467)" fill="#bc6e2b"/>
              <path id="Trazado_1096104" data-name="Trazado 1096104" d="M99.228,356.233a8.754,8.754,0,0,1,8.027-.193,8.754,8.754,0,0,1-7.8,1.923A.92.92,0,0,1,99.228,356.233Z" transform="translate(-98.712 -347.576)" fill="#bc6e2b"/>
            </g>
            <g id="Grupo_1191604" data-name="Grupo 1191604" transform="translate(20.512 10.086)">
              <path id="Trazado_1096105" data-name="Trazado 1096105" d="M136.571,348.12a8.755,8.755,0,0,0,1.835,7.817,8.754,8.754,0,0,0-.1-8.029A.92.92,0,0,0,136.571,348.12Z" transform="translate(-129.808 -347.384)" fill="#bc6e2b"/>
              <path id="Trazado_1096106" data-name="Trazado 1096106" d="M118.259,369.258a8.754,8.754,0,0,1,8.019.4,8.755,8.755,0,0,1-7.917,1.34A.92.92,0,0,1,118.259,369.258Z" transform="translate(-117.681 -361.106)" fill="#bc6e2b"/>
            </g>
            <path id="Trazado_1096107" data-name="Trazado 1096107" d="M59.372,320.152a8.754,8.754,0,0,0,7.545,2.746,8.755,8.755,0,0,0-6.773-4.312A.92.92,0,0,0,59.372,320.152Z" transform="translate(-59.097 -318.578)" fill="#bc6e2b"/>
          </g>
          <g id="Grupo_1191607" data-name="Grupo 1191607" transform="translate(10.898 8.513)">
            <path id="Trazado_1096108" data-name="Trazado 1096108" d="M93.2,367.306s-14.988-15.651-31.141-19.032,11.726-15.71,34.049,14.31C96.958,369.688,93.2,367.306,93.2,367.306Z" transform="translate(-57.251 -342.892)" fill="#c7c7c7"/>
            <g id="Grupo_1191606" data-name="Grupo 1191606" transform="translate(0.519 1.615)">
              <path id="Trazado_1096109" data-name="Trazado 1096109" d="M58.733,347.67a31.874,31.874,0,0,1,10.2.658,37.162,37.162,0,0,1,4.937,1.427,39.642,39.642,0,0,1,4.718,2.045A41.284,41.284,0,0,1,83,354.445l.533.36.518.381,1.034.764c.662.544,1.348,1.059,1.975,1.644l.955.858c.314.291.614.6.922.894.622.588,1.2,1.22,1.782,1.844.294.31.571.636.844.964l.826.979c.54.662,1.047,1.349,1.565,2.026-.562-.642-1.106-1.3-1.67-1.936l-.868-.938c-.287-.314-.577-.626-.884-.92-.6-.6-1.189-1.216-1.824-1.782-.314-.287-.619-.582-.939-.861L86.8,357.9l-.486-.411-.5-.391-1-.79-1.03-.747-.516-.372-.53-.352a43.7,43.7,0,0,0-13.888-6.122,39.272,39.272,0,0,0-5.014-.877A29.743,29.743,0,0,0,58.733,347.67Z" transform="translate(-58.733 -347.504)" fill="#a6a6a6"/>
            </g>
          </g>
          <g id="Grupo_1191612" data-name="Grupo 1191612" transform="translate(0 16.717)">
            <path id="Trazado_1096110" data-name="Trazado 1096110" d="M82.7,381.483s-22.869-22.921-49.37-12.4,27.266,18.4,45.3,31.566C84.651,388,82.7,381.483,82.7,381.483Z" transform="translate(-26.124 -366.323)" fill="#ffc061"/>
            <g id="Grupo_1191608" data-name="Grupo 1191608" transform="translate(2.082 5.42)">
              <path id="Trazado_1096111" data-name="Trazado 1096111" d="M32.071,381.807c1.218-.017,2.437.018,3.654.076s2.434.137,3.65.231q3.644.321,7.266.868c2.415.354,4.814.819,7.2,1.34,2.383.538,4.746,1.164,7.088,1.863a78.619,78.619,0,0,1,13.584,5.482,65.872,65.872,0,0,1,6.286,3.765l1.486,1.072c.5.348.963.75,1.446,1.122.975.734,1.862,1.576,2.776,2.378a64.438,64.438,0,0,0-12.266-7.8A90.28,90.28,0,0,0,60.7,386.928a122.2,122.2,0,0,0-14.158-3.358q-3.585-.646-7.208-1.078Q35.719,382.024,32.071,381.807Z" transform="translate(-32.071 -381.802)" fill="#db973e"/>
            </g>
            <g id="Grupo_1191609" data-name="Grupo 1191609" transform="translate(9.519 8.546)">
              <path id="Trazado_1096112" data-name="Trazado 1096112" d="M67.524,390.731c-1.243.534-2.453,1.1-3.657,1.686s-2.391,1.192-3.565,1.827c-.585.32-1.179.628-1.755.966l-.876.487c-.286.172-.576.339-.868.5-.585.327-1.154.68-1.738,1.013s-1.152.693-1.752,1.012a28.149,28.149,0,0,1,3.164-2.537,35.632,35.632,0,0,1,3.457-2.129,34.157,34.157,0,0,1,3.692-1.7A20.446,20.446,0,0,1,67.524,390.731Z" transform="translate(-53.312 -390.731)" fill="#db973e"/>
            </g>
            <g id="Grupo_1191610" data-name="Grupo 1191610" transform="translate(29.799 0.851)">
              <path id="Trazado_1096113" data-name="Trazado 1096113" d="M116.147,379.342a15.6,15.6,0,0,1-1.8-2.347,22.989,22.989,0,0,1-1.43-2.587c-.208-.447-.4-.9-.588-1.358-.165-.466-.354-.922-.486-1.4a14.535,14.535,0,0,1-.61-2.9c.419.9.776,1.8,1.179,2.683s.786,1.768,1.208,2.639C114.436,375.833,115.311,377.554,116.147,379.342Z" transform="translate(-111.235 -368.754)" fill="#db973e"/>
            </g>
            <g id="Grupo_1191611" data-name="Grupo 1191611" transform="translate(29.913 16.615)">
              <path id="Trazado_1096114" data-name="Trazado 1096114" d="M128.063,413.778q-2.217.582-4.38,1.249c-1.441.455-2.871.933-4.269,1.489-.694.287-1.4.558-2.071.889-.695.291-1.344.665-2.02,1a27.494,27.494,0,0,0-3.763,2.513,15.288,15.288,0,0,1,3.453-3.035,25.5,25.5,0,0,1,4.115-2.086,31.974,31.974,0,0,1,4.4-1.35A25.793,25.793,0,0,1,128.063,413.778Z" transform="translate(-111.56 -413.778)" fill="#db973e"/>
            </g>
            <path id="Trazado_1096115" data-name="Trazado 1096115" d="M121.284,371.219a59.693,59.693,0,0,1,23.261,13.446s1.948,6.516-4.068,19.171c-4.562-3.331-11.411-6.324-18.669-9.106C126.809,387.135,123.254,376.052,121.284,371.219Z" transform="translate(-87.966 -369.505)" fill="#a87d1d" opacity="0.28"/>
          </g>
        </g>
        <g id="Grupo_1191617" data-name="Grupo 1191617" transform="translate(35.084)">
          <ellipse id="Elipse_11557" data-name="Elipse 11557" cx="43.34" cy="2.265" rx="43.34" ry="2.265" transform="translate(0 146.809)" fill="#d1d1d1"/>
          <path id="Trazado_1096116" data-name="Trazado 1096116" d="M152.112,187.894h57.543a8.675,8.675,0,0,0,8.675-8.675V47.278a8.675,8.675,0,0,0-8.675-8.675H152.112a8.675,8.675,0,0,0-8.675,8.675v131.94A8.675,8.675,0,0,0,152.112,187.894Z" transform="translate(-137.447 -38.603)" fill="#263238"/>
          <path id="Trazado_1096117" data-name="Trazado 1096117" d="M153.57,186.4h62.57a4.022,4.022,0,0,0,4.022-4.022V53.519A4.022,4.022,0,0,0,216.14,49.5H153.57a4.022,4.022,0,0,0-4.022,4.022V182.373A4.022,4.022,0,0,0,153.57,186.4Z" transform="translate(-141.418 -45.683)" fill="#fffffd"/>
          <path id="Trazado_1096118" data-name="Trazado 1096118" d="M218.453,274.229H162.568a4.405,4.405,0,0,0-4.405,4.405V324.9a4.405,4.405,0,0,0,4.405,4.405h55.884a4.405,4.405,0,0,0,4.405-4.405V278.634A4.406,4.406,0,0,0,218.453,274.229Z" transform="translate(-147.017 -191.731)" fill="#ebebeb"/>
          <path id="Trazado_1096119" data-name="Trazado 1096119" d="M219.789,89.375H162.6a3.607,3.607,0,0,0-3.607,3.607v54.3a3.607,3.607,0,0,0,3.607,3.607h57.19a3.607,3.607,0,0,0,3.607-3.607v-54.3A3.607,3.607,0,0,0,219.789,89.375Z" transform="translate(-147.556 -71.598)" fill="#ebebeb"/>
          <path id="Trazado_1096120" data-name="Trazado 1096120" d="M216.14,49.5H153.57a4.022,4.022,0,0,0-4.022,4.022v1.552h70.614V53.52A4.022,4.022,0,0,0,216.14,49.5Z" transform="translate(-141.418 -45.683)" fill="#dbdbdb"/>
          <g id="Grupo_1191614" data-name="Grupo 1191614" transform="translate(66.368 5.391)">
            <rect id="Rectángulo_459877" data-name="Rectángulo 459877" width="6.49" height="3.045" transform="translate(1.054)" fill="#fff"/>
            <rect id="Rectángulo_459878" data-name="Rectángulo 459878" width="0.712" height="1.598" transform="translate(0 0.724)" fill="#fff"/>
            <rect id="Rectángulo_459879" data-name="Rectángulo 459879" width="1.171" height="1.952" transform="translate(1.794 0.547)" fill="#c7c7c7"/>
            <rect id="Rectángulo_459880" data-name="Rectángulo 459880" width="1.171" height="1.952" transform="translate(3.695 0.547)" fill="#c7c7c7"/>
            <rect id="Rectángulo_459881" data-name="Rectángulo 459881" width="1.171" height="1.952" transform="translate(5.596 0.547)" fill="#c7c7c7"/>
          </g>
          <rect id="Rectángulo_459882" data-name="Rectángulo 459882" width="0.703" height="3.513" transform="translate(63.127 4.845)" fill="#a6a6a6"/>
          <rect id="Rectángulo_459883" data-name="Rectángulo 459883" width="0.703" height="2.85" transform="translate(61.722 5.509)" fill="#a6a6a6"/>
          <rect id="Rectángulo_459884" data-name="Rectángulo 459884" width="0.703" height="1.919" transform="translate(60.317 6.439)" fill="#a6a6a6"/>
          <rect id="Rectángulo_459885" data-name="Rectángulo 459885" width="0.703" height="1.015" transform="translate(58.911 7.343)" fill="#a6a6a6"/>
          <path id="Trazado_1096121" data-name="Trazado 1096121" d="M242.007,56.464H223.364a.841.841,0,0,1-.838-.838h0a.841.841,0,0,1,.838-.838h18.643a.841.841,0,0,1,.838.838h0A.841.841,0,0,1,242.007,56.464Z" transform="translate(-188.845 -49.121)" fill="#a6a6a6"/>
          <g id="Grupo_1191615" data-name="Grupo 1191615" transform="translate(10.731 5.157)">
            <circle id="Elipse_11558" data-name="Elipse 11558" cx="1.757" cy="1.757" r="1.757" fill="#263238"/>
            <path id="Trazado_1096122" data-name="Trazado 1096122" d="M161.361,56.983a.739.739,0,1,1-.739-.739A.739.739,0,0,1,161.361,56.983Z" transform="translate(-158.865 -55.224)" fill="#455a64"/>
            <path id="Trazado_1096123" data-name="Trazado 1096123" d="M163.538,56.877a.5.5,0,1,1-.5-.5A.5.5,0,0,1,163.538,56.877Z" transform="translate(-160.593 -55.312)" fill="#fff"/>
          </g>
          <g id="Grupo_1191616" data-name="Grupo 1191616" transform="translate(17.883 5.157)">
            <line id="Línea_3556" data-name="Línea 3556" x2="4.205" fill="none" stroke="#606060" stroke-linecap="round" stroke-miterlimit="10" stroke-width="0.965"/>
            <line id="Línea_3557" data-name="Línea 3557" x2="4.205" transform="translate(0 1.412)" fill="none" stroke="#606060" stroke-linecap="round" stroke-miterlimit="10" stroke-width="0.965"/>
            <line id="Línea_3558" data-name="Línea 3558" x2="4.205" transform="translate(0 2.824)" fill="none" stroke="#606060" stroke-linecap="round" stroke-miterlimit="10" stroke-width="0.965"/>
          </g>
        </g>
        <g id="Grupo_1191618" data-name="Grupo 1191618" transform="translate(28.04 8.765)">
          <path id="Trazado_1096124" data-name="Trazado 1096124" d="M117.506,67.852c0,2.328-.389,4.216-.869,4.216s-.869-1.887-.869-4.216.389-4.215.869-4.215S117.506,65.525,117.506,67.852Z" transform="translate(-112.422 -63.637)" fill="#dbdbdb"/>
          <path id="Trazado_1096125" data-name="Trazado 1096125" d="M110.425,73.195c2.328,0,4.215.389,4.215.869s-1.887.869-4.215.869-4.215-.389-4.215-.869S108.1,73.195,110.425,73.195Z" transform="translate(-106.21 -69.849)" fill="#dbdbdb"/>
        </g>
        <g id="Grupo_1191619" data-name="Grupo 1191619" transform="translate(148.153 49.586)">
          <path id="Trazado_1096126" data-name="Trazado 1096126" d="M459.332,183.983c0,2.074-.347,3.756-.774,3.756s-.774-1.682-.774-3.756.347-3.756.774-3.756S459.332,181.909,459.332,183.983Z" transform="translate(-454.801 -180.227)" fill="#c7c7c7"/>
          <path id="Trazado_1096127" data-name="Trazado 1096127" d="M453.023,188.743c2.074,0,3.756.347,3.756.774s-1.682.774-3.756.774-3.756-.347-3.756-.774S450.949,188.743,453.023,188.743Z" transform="translate(-449.267 -185.761)" fill="#c7c7c7"/>
        </g>
        <path id="Trazado_1096128" data-name="Trazado 1096128" d="M450.924,327.914a1.569,1.569,0,1,1-1.569-1.569A1.569,1.569,0,0,1,450.924,327.914Z" transform="translate(-300.151 -225.6)" fill="#dbdbdb"/>
        <path id="Trazado_1096129" data-name="Trazado 1096129" d="M56.3,212.984l-3.324-.411-3.324-.411,2.018-2.673,2.018-2.673,1.306,3.084Z" transform="translate(-41.414 -147.921)" fill="#c7c7c7"/>
        <path id="Trazado_1096130" data-name="Trazado 1096130" d="M434.219,84.829l-2.251-.715-2.251-.715,1.745-1.592,1.744-1.592.507,2.307Z" transform="translate(-288.409 -65.646)" fill="#c7c7c7"/>
        <g id="Grupo_1191620" data-name="Grupo 1191620" transform="translate(5.984 72.022)">
          <path id="Trazado_1096131" data-name="Trazado 1096131" d="M69.615,261.994H45.042a1.826,1.826,0,0,1-1.826-1.826V246.133a1.826,1.826,0,0,1,1.826-1.826H69.616a1.826,1.826,0,0,1,1.826,1.826v14.034A1.827,1.827,0,0,1,69.615,261.994Z" transform="translate(-43.216 -244.307)" fill="#fff"/>
          <path id="Trazado_1096132" data-name="Trazado 1096132" d="M69.615,244.307H45.042a1.826,1.826,0,0,0-1.826,1.826v2.386H71.442v-2.386A1.826,1.826,0,0,0,69.615,244.307Z" transform="translate(-43.216 -244.307)" fill="#c7c7c7"/>
          <path id="Trazado_1096133" data-name="Trazado 1096133" d="M69.615,261.994H45.042a1.826,1.826,0,0,1-1.826-1.826V246.133a1.826,1.826,0,0,1,1.826-1.826H69.616a1.826,1.826,0,0,1,1.826,1.826v14.034A1.827,1.827,0,0,1,69.615,261.994Z" transform="translate(-43.216 -244.307)" fill="none" stroke="#a6a6a6" stroke-miterlimit="10" stroke-width="0.796"/>
          <path id="Trazado_1096134" data-name="Trazado 1096134" d="M49.736,248.727a.982.982,0,1,1-.982-.982A.982.982,0,0,1,49.736,248.727Z" transform="translate(-46.177 -246.541)" fill="#fff"/>
          <path id="Trazado_1096135" data-name="Trazado 1096135" d="M58.849,248.727a.982.982,0,1,1-.982-.982A.982.982,0,0,1,58.849,248.727Z" transform="translate(-52.1 -246.541)" fill="#ebebeb"/>
          <path id="Trazado_1096136" data-name="Trazado 1096136" d="M67.962,248.727a.982.982,0,1,1-.982-.982A.982.982,0,0,1,67.962,248.727Z" transform="translate(-58.022 -246.541)" fill="#ffc061"/>
          <path id="Trazado_1096137" data-name="Trazado 1096137" d="M74.366,262.764v6.372a1.219,1.219,0,0,0,1.82,1.061l5.629-3.186a1.219,1.219,0,0,0,0-2.122L76.186,261.7A1.22,1.22,0,0,0,74.366,262.764Z" transform="translate(-63.46 -255.508)" fill="#ebebeb"/>
        </g>
        <g id="Grupo_1191621" data-name="Grupo 1191621" transform="translate(122.156 7.706)">
          <path id="Trazado_1096138" data-name="Trazado 1096138" d="M381.254,60.611h2.2l.943.854a6.233,6.233,0,0,1,0,10.762l-.943.854h-2.2a6.235,6.235,0,0,1,0-12.469Z" transform="translate(-375.019 -60.611)" fill="#c7c7c7"/>
          <path id="Trazado_1096139" data-name="Trazado 1096139" d="M381.315,66.846a6.234,6.234,0,1,0,6.234-6.235A6.235,6.235,0,0,0,381.315,66.846Z" transform="translate(-379.111 -60.611)" fill="#fffffd" stroke="#ebebeb" stroke-miterlimit="10" stroke-width="1"/>
          <path id="Trazado_1096140" data-name="Trazado 1096140" d="M391.583,70.753c1.207-1.4,4.066-1.771,4.06.772s-4.074,5.1-4.074,5.1-4.057-2.578-4.051-5.121S390.383,69.352,391.583,70.753Z" transform="translate(-383.142 -66.484)" fill="#ffc061"/>
        </g>
        <g id="Grupo_1191622" data-name="Grupo 1191622" transform="translate(120.977 55.384)">
          <path id="Trazado_1096141" data-name="Trazado 1096141" d="M379.909,209.134s7.146-.234,8.084-4.569-.352-5.858,0-7.146,5.272-.82,5.506,3.4a19.618,19.618,0,0,1-.586,6.678H399.3a2.668,2.668,0,0,1,2.584,3.377,4.1,4.1,0,0,1-1.477,2.149c1.64,3.26,1.64,4.315.117,5.955.7,2.46.468,5.688-4.452,5.688H379.909v-15.53Z" transform="translate(-377.018 -196.786)" fill="#ffc061"/>
          <path id="Trazado_1096142" data-name="Trazado 1096142" d="M380.918,211.445s7.639-.738,8.506-4.626-.215-6.075.11-7.231,3.463,0,3.776,3.246a16.692,16.692,0,0,1-1.031,7.14h6.573A2.409,2.409,0,0,1,401.242,213a3.679,3.679,0,0,1-1.365,1.928c1.517,2.924,1.517,3.87.108,5.341.65,2.207.433,5.1-4.117,5.1h-14.95V211.445Z" transform="translate(-377.673 -198.323)" fill="none" stroke="#b58039" stroke-miterlimit="10" stroke-width="1.16"/>
          <path id="Trazado_1096143" data-name="Trazado 1096143" d="M375.831,242.111a2.09,2.09,0,0,1-2.09,2.09h0a2.09,2.09,0,0,1-2.09-2.09V227.6a2.09,2.09,0,0,1,2.09-2.09h0a2.09,2.09,0,0,1,2.09,2.09Z" transform="translate(-371.651 -215.451)" fill="#bc6e2b"/>
          <path id="Trazado_1096144" data-name="Trazado 1096144" d="M374.549,244.008V229.494a2.088,2.088,0,0,0-2.888-1.931,2.088,2.088,0,0,1,4.176.032V242.11a2.089,2.089,0,0,1-1.292,1.931C374.546,244.03,374.549,244.02,374.549,244.008Z" transform="translate(-371.658 -215.451)" fill="#fff" opacity="0.39"/>
          <path id="Trazado_1096145" data-name="Trazado 1096145" d="M400.74,241.568a.632.632,0,0,0,.632.632h7.58a.632.632,0,0,0,.632-.632h0a.632.632,0,0,0-.632-.632h-7.58a.632.632,0,0,0-.632.632Z" transform="translate(-390.555 -225.478)" fill="#fff"/>
          <path id="Trazado_1096146" data-name="Trazado 1096146" d="M400.74,258.256a.632.632,0,0,0,.632.632h7.58a.632.632,0,0,0,.632-.632h0a.632.632,0,0,0-.632-.632h-7.58a.632.632,0,0,0-.632.632Z" transform="translate(-390.555 -236.323)" fill="#fff"/>
        </g>
        <g id="Grupo_1191623" data-name="Grupo 1191623" transform="translate(14.355 43.111)">
          <path id="Trazado_1096147" data-name="Trazado 1096147" d="M84.4,161.733H81.362l-1.3,1.177a8.6,8.6,0,0,0,0,14.84l1.3,1.177H84.4a8.6,8.6,0,0,0,0-17.194Z" transform="translate(-72.765 -161.733)" fill="#bc6e2b"/>
          <path id="Trazado_1096148" data-name="Trazado 1096148" d="M84.318,170.331a8.6,8.6,0,1,1-8.6-8.6A8.6,8.6,0,0,1,84.318,170.331Z" transform="translate(-67.124 -161.734)" fill="#ffc061"/>
          <path id="Trazado_1096149" data-name="Trazado 1096149" d="M78.378,179.175a1.287,1.287,0,1,1-1.287-1.287A1.287,1.287,0,0,1,78.378,179.175Z" transform="translate(-72.765 -172.232)" fill="#bc6e2b"/>
          <path id="Trazado_1096150" data-name="Trazado 1096150" d="M100.788,179.175a1.287,1.287,0,1,1-1.287-1.287A1.287,1.287,0,0,1,100.788,179.175Z" transform="translate(-87.329 -172.232)" fill="#bc6e2b"/>
          <path id="Trazado_1096151" data-name="Trazado 1096151" d="M87.466,192.33a4.719,4.719,0,0,1-8.979-.063" transform="translate(-74.509 -181.576)" fill="none" stroke="#bc6e2b" stroke-linecap="round" stroke-miterlimit="10" stroke-width="3"/>
        </g>
        <g id="Grupo_1191627" data-name="Grupo 1191627" transform="translate(102.351 25.086)">
          <g id="Grupo_1191625" data-name="Grupo 1191625">
            <path id="Trazado_1096152" data-name="Trazado 1096152" d="M360.527,136.506h-41.2a.876.876,0,0,1-.876-.876v-24.5a.877.877,0,0,1,.876-.876h41.2a.876.876,0,0,1,.876.876v24.5A.877.877,0,0,1,360.527,136.506Z" transform="translate(-318.451 -110.253)" fill="#455a64"/>
            <rect id="Rectángulo_459886" data-name="Rectángulo 459886" width="40.734" height="24.148" transform="translate(1.063 1.036)" fill="#fff"/>
            <path id="Trazado_1096153" data-name="Trazado 1096153" d="M361.931,117.748H324.337a.859.859,0,0,1-.859-.859v-.018a.859.859,0,0,1,.859-.859h37.594a.859.859,0,0,1,.859.859v.018A.859.859,0,0,1,361.931,117.748Z" transform="translate(-321.718 -113.996)" fill="#ffc061"/>
            <circle id="Elipse_11559" data-name="Elipse 11559" cx="0.471" cy="0.471" r="0.471" transform="translate(2.406 2.419)" fill="#fff"/>
            <path id="Trazado_1096154" data-name="Trazado 1096154" d="M330.342,117.634a.47.47,0,1,1-.47-.47A.47.47,0,0,1,330.342,117.634Z" transform="translate(-325.568 -114.744)" fill="#fff"/>
            <path id="Trazado_1096155" data-name="Trazado 1096155" d="M334.418,117.634a.47.47,0,1,1-.47-.47A.47.47,0,0,1,334.418,117.634Z" transform="translate(-328.216 -114.744)" fill="#455a64"/>
            <path id="Trazado_1096156" data-name="Trazado 1096156" d="M361.49,143.254H324.778a1.3,1.3,0,0,1-1.3-1.3V124.641a1.3,1.3,0,0,1,1.3-1.3h36.711a1.3,1.3,0,0,1,1.3,1.3v17.312A1.3,1.3,0,0,1,361.49,143.254Z" transform="translate(-321.718 -118.759)" fill="#c7c7c7"/>
            <g id="Grupo_1191624" data-name="Grupo 1191624" transform="translate(4.775 7.065)">
              <path id="Trazado_1096157" data-name="Trazado 1096157" d="M366.19,132.049a1.618,1.618,0,0,1-1.618,1.618H333.706a1.618,1.618,0,0,1-1.618-1.618h0a1.618,1.618,0,0,1,1.618-1.618h30.866a1.618,1.618,0,0,1,1.618,1.618Z" transform="translate(-332.088 -130.431)" fill="#fff"/>
              <path id="Trazado_1096158" data-name="Trazado 1096158" d="M337.233,130.432h-3.526a1.618,1.618,0,0,0,0,3.237h3.526v-3.237Z" transform="translate(-332.088 -130.432)" fill="#455a64"/>
            </g>
            <path id="Trazado_1096159" data-name="Trazado 1096159" d="M367.873,146.478a1.06,1.06,0,0,1-1.06,1.06h-25.9a1.06,1.06,0,0,1-1.06-1.06h0a1.06,1.06,0,0,1,1.06-1.06h25.9a1.06,1.06,0,0,1,1.06,1.06Z" transform="translate(-332.359 -133.106)" fill="#ebebeb"/>
            <path id="Trazado_1096160" data-name="Trazado 1096160" d="M367.873,157.088a1.06,1.06,0,0,1-1.06,1.06h-25.9a1.06,1.06,0,0,1-1.06-1.06h0a1.06,1.06,0,0,1,1.06-1.06h25.9a1.06,1.06,0,0,1,1.06,1.06Z" transform="translate(-332.359 -140.001)" fill="#ebebeb"/>
          </g>
          <g id="Grupo_1191626" data-name="Grupo 1191626" transform="translate(6.031 7.78)">
            <path id="Trazado_1096161" data-name="Trazado 1096161" d="M340.033,133.237a.763.763,0,1,1-.763-.763A.763.763,0,0,1,340.033,133.237Z" transform="translate(-337.515 -132.474)" fill="none" stroke="#fff" stroke-miterlimit="10" stroke-width="0.844"/>
            <line id="Línea_3559" data-name="Línea 3559" x1="1.118" y2="0.736" transform="translate(0 1.183)" fill="none" stroke="#fff" stroke-miterlimit="10" stroke-width="0.844"/>
          </g>
        </g>
        <g id="Grupo_1191638" data-name="Grupo 1191638" transform="translate(2.645 21.671)">
          <path id="Trazado_1096162" data-name="Trazado 1096162" d="M89.3,112.582H44.04a.884.884,0,0,1-.883-.883V101.381a.883.883,0,0,1,.883-.883H89.3a.884.884,0,0,1,.883.883V111.7A.884.884,0,0,1,89.3,112.582Z" transform="translate(-39.839 -100.498)" fill="#455a64"/>
          <path id="Trazado_1096163" data-name="Trazado 1096163" d="M79.824,112.582H34.562a.884.884,0,0,1-.883-.883V101.381a.884.884,0,0,1,.883-.883H79.824a.884.884,0,0,1,.883.883V111.7A.884.884,0,0,1,79.824,112.582Z" transform="translate(-33.679 -100.498)" fill="#c7c7c7"/>
          <path id="Trazado_1096164" data-name="Trazado 1096164" d="M80.494,113.3H36.91a.915.915,0,0,1-.915-.915v-8.579a.915.915,0,0,1,.915-.915H80.494a.915.915,0,0,1,.915.915v8.579A.915.915,0,0,1,80.494,113.3Z" transform="translate(-35.184 -102.053)" fill="#ebebeb"/>
          <g id="Grupo_1191629" data-name="Grupo 1191629" transform="translate(3.648 2.443)">
            <g id="Grupo_1191628" data-name="Grupo 1191628">
              <path id="Trazado_1096165" data-name="Trazado 1096165" d="M53.7,107.477h.489l.112.446-.6.181Z" transform="translate(-50.339 -107.477)" fill="#a87d1d"/>
              <path id="Trazado_1096166" data-name="Trazado 1096166" d="M49.119,107.638,50,109.425l1.972.286a.29.29,0,0,1,.16.494L50.706,111.6l.337,1.964a.29.29,0,0,1-.42.305l-1.764-.927-1.764.927a.29.29,0,0,1-.42-.305l.337-1.964-1.427-1.391a.29.29,0,0,1,.16-.494l1.972-.286.882-1.787A.29.29,0,0,1,49.119,107.638Z" transform="translate(-45.007 -107.477)" fill="#a87d1d"/>
              <path id="Trazado_1096167" data-name="Trazado 1096167" d="M47.72,107.638l.882,1.787,1.972.286a.29.29,0,0,1,.16.494L49.307,111.6l.337,1.964a.29.29,0,0,1-.42.305l-1.764-.927-1.764.927a.29.29,0,0,1-.42-.305l.337-1.964-1.427-1.391a.29.29,0,0,1,.16-.494l1.972-.286.882-1.787A.29.29,0,0,1,47.72,107.638Z" transform="translate(-44.098 -107.477)" fill="#edb62b"/>
            </g>
            <path id="Trazado_1096168" data-name="Trazado 1096168" d="M51.646,110.66a.172.172,0,0,1-.231.077h0a.172.172,0,0,1-.077-.231l.606-1.207a.172.172,0,0,1,.231-.077h0a.172.172,0,0,1,.077.231Z" transform="translate(-48.791 -108.599)" fill="#fff" opacity="0.62"/>
          </g>
          <g id="Grupo_1191631" data-name="Grupo 1191631" transform="translate(11.879 2.443)">
            <g id="Grupo_1191630" data-name="Grupo 1191630">
              <path id="Trazado_1096169" data-name="Trazado 1096169" d="M77.208,107.477h.49l.112.446-.6.181Z" transform="translate(-73.846 -107.477)" fill="#a87d1d"/>
              <path id="Trazado_1096170" data-name="Trazado 1096170" d="M72.626,107.638l.882,1.787,1.972.286a.29.29,0,0,1,.16.494L74.213,111.6l.337,1.964a.29.29,0,0,1-.42.305l-1.764-.927-1.764.927a.29.29,0,0,1-.42-.305l.337-1.964-1.427-1.391a.29.29,0,0,1,.16-.494l1.972-.286.882-1.787A.29.29,0,0,1,72.626,107.638Z" transform="translate(-68.515 -107.477)" fill="#a87d1d"/>
              <path id="Trazado_1096171" data-name="Trazado 1096171" d="M71.228,107.638l.882,1.787,1.972.286a.29.29,0,0,1,.16.494L72.815,111.6l.337,1.964a.29.29,0,0,1-.42.305l-1.764-.927-1.764.927a.29.29,0,0,1-.42-.305l.337-1.964-1.427-1.391a.29.29,0,0,1,.16-.494l1.972-.286.882-1.787A.29.29,0,0,1,71.228,107.638Z" transform="translate(-67.606 -107.477)" fill="#edb62b"/>
            </g>
            <path id="Trazado_1096172" data-name="Trazado 1096172" d="M75.153,110.66a.172.172,0,0,1-.231.077h0a.172.172,0,0,1-.077-.231l.606-1.207a.172.172,0,0,1,.231-.077h0a.172.172,0,0,1,.077.231Z" transform="translate(-72.299 -108.599)" fill="#fff" opacity="0.62"/>
          </g>
          <g id="Grupo_1191633" data-name="Grupo 1191633" transform="translate(20.109 2.443)">
            <g id="Grupo_1191632" data-name="Grupo 1191632">
              <path id="Trazado_1096173" data-name="Trazado 1096173" d="M100.716,107.477h.489l.112.446-.6.181Z" transform="translate(-97.354 -107.477)" fill="#a87d1d"/>
              <path id="Trazado_1096174" data-name="Trazado 1096174" d="M96.134,107.638l.882,1.787,1.972.286a.29.29,0,0,1,.16.494L97.721,111.6l.337,1.964a.29.29,0,0,1-.42.305l-1.764-.927-1.764.927a.29.29,0,0,1-.42-.305l.337-1.964L92.6,110.205a.29.29,0,0,1,.16-.494l1.972-.286.882-1.787A.29.29,0,0,1,96.134,107.638Z" transform="translate(-92.022 -107.477)" fill="#a87d1d"/>
              <path id="Trazado_1096175" data-name="Trazado 1096175" d="M94.735,107.638l.882,1.787,1.972.286a.29.29,0,0,1,.16.494L96.322,111.6l.337,1.964a.29.29,0,0,1-.42.305l-1.764-.927-1.764.927a.29.29,0,0,1-.42-.305l.337-1.964L91.2,110.205a.29.29,0,0,1,.16-.494l1.972-.286.882-1.787A.29.29,0,0,1,94.735,107.638Z" transform="translate(-91.113 -107.477)" fill="#edb62b"/>
            </g>
            <path id="Trazado_1096176" data-name="Trazado 1096176" d="M98.661,110.66a.172.172,0,0,1-.231.077h0a.172.172,0,0,1-.077-.231l.606-1.207a.172.172,0,0,1,.231-.077h0a.172.172,0,0,1,.077.231Z" transform="translate(-95.806 -108.599)" fill="#fff" opacity="0.62"/>
          </g>
          <g id="Grupo_1191635" data-name="Grupo 1191635" transform="translate(28.34 2.443)">
            <g id="Grupo_1191634" data-name="Grupo 1191634">
              <path id="Trazado_1096177" data-name="Trazado 1096177" d="M124.223,107.477h.49l.112.446-.6.181Z" transform="translate(-120.861 -107.477)" fill="#a87d1d"/>
              <path id="Trazado_1096178" data-name="Trazado 1096178" d="M119.641,107.638l.882,1.787,1.972.286a.29.29,0,0,1,.16.494l-1.427,1.391.337,1.964a.29.29,0,0,1-.42.305l-1.764-.927-1.764.927a.29.29,0,0,1-.42-.305l.337-1.964-1.427-1.391a.29.29,0,0,1,.16-.494l1.972-.286.882-1.787A.29.29,0,0,1,119.641,107.638Z" transform="translate(-115.53 -107.477)" fill="#a87d1d"/>
              <path id="Trazado_1096179" data-name="Trazado 1096179" d="M118.243,107.638l.882,1.787,1.972.286a.29.29,0,0,1,.16.494L119.83,111.6l.337,1.964a.29.29,0,0,1-.42.305l-1.764-.927-1.764.927a.29.29,0,0,1-.42-.305l.337-1.964-1.427-1.391a.29.29,0,0,1,.16-.494l1.972-.286.882-1.787A.29.29,0,0,1,118.243,107.638Z" transform="translate(-114.621 -107.477)" fill="#edb62b"/>
            </g>
            <path id="Trazado_1096180" data-name="Trazado 1096180" d="M122.168,110.66a.172.172,0,0,1-.231.077h0a.172.172,0,0,1-.077-.231l.606-1.207a.172.172,0,0,1,.231-.077h0a.172.172,0,0,1,.077.231Z" transform="translate(-119.314 -108.599)" fill="#fff" opacity="0.62"/>
          </g>
          <g id="Grupo_1191637" data-name="Grupo 1191637" transform="translate(36.571 2.443)">
            <g id="Grupo_1191636" data-name="Grupo 1191636">
              <path id="Trazado_1096181" data-name="Trazado 1096181" d="M148.013,107.477h-.49l-.112.446.6.181Z" transform="translate(-144.162 -107.477)" fill="#a87d1d"/>
              <path id="Trazado_1096182" data-name="Trazado 1096182" d="M141.233,107.638l-.882,1.787-1.972.286a.29.29,0,0,0-.16.494l1.427,1.391-.337,1.964a.29.29,0,0,0,.42.305l1.764-.927,1.764.927a.29.29,0,0,0,.42-.305l-.337-1.964,1.427-1.391a.29.29,0,0,0-.16-.494l-1.972-.286-.882-1.787A.29.29,0,0,0,141.233,107.638Z" transform="translate(-138.131 -107.477)" fill="#999"/>
              <path id="Trazado_1096183" data-name="Trazado 1096183" d="M142.631,107.638l-.882,1.787-1.972.286a.29.29,0,0,0-.16.494l1.427,1.391-.337,1.964a.29.29,0,0,0,.42.305l1.764-.927,1.764.927a.29.29,0,0,0,.42-.305l-.337-1.964,1.427-1.391a.29.29,0,0,0-.16-.494l-1.972-.286-.882-1.787A.29.29,0,0,0,142.631,107.638Z" transform="translate(-139.04 -107.477)" fill="#c7c7c7"/>
            </g>
          </g>
          <path id="Trazado_1096184" data-name="Trazado 1096184" d="M115.258,134.366l4.348,5.107-.987-5.107Z" transform="translate(-86.695 -122.508)" fill="#c7c7c7"/>
          <path id="Trazado_1096185" data-name="Trazado 1096185" d="M125.845,140.1h2.075l-.579-4.771h-2.483Z" transform="translate(-92.934 -123.132)" fill="#455a64"/>
        </g>
        <g id="Grupo_1191665" data-name="Grupo 1191665" transform="translate(46.849 9.389)">
          <g id="Grupo_1191664" data-name="Grupo 1191664" clip-path="url(#clip-path-3)">
            <path id="Trazado_1096186" data-name="Trazado 1096186" d="M257.985,183.728l13.517,5.957-.855,64.2s-13.457-.843-19.39-5.446V189.417l1.492-5.477Z" transform="translate(-219.282 -142.305)" fill="#ffc061"/>
            <path id="Trazado_1096187" data-name="Trazado 1096187" d="M199.453,619.424s1.231,5.827.41,9.93c-5.827,1.149-14.034.821-14.936-.328.821-4.678,5.006-7.55,5.827-7.468l.739-2.134Z" transform="translate(-176.176 -425.453)" fill="#ffc061"/>
            <path id="Trazado_1096188" data-name="Trazado 1096188" d="M198.433,633.523c-5.656.846-12.676.485-13.507-.573.821-4.678,5.006-7.55,5.827-7.468C190.753,625.482,199.137,624.661,198.433,633.523Z" transform="translate(-176.175 -429.377)" fill="#bc6e2b"/>
            <path id="Trazado_1096189" data-name="Trazado 1096189" d="M211.9,605.736l-.41,3.939s-4.1,2.462-7.96,0l-.082-5.252Z" transform="translate(-188.209 -415.704)" fill="#bc6c64"/>
            <path id="Trazado_1096190" data-name="Trazado 1096190" d="M297.589,618.219s-.456,6.694,0,8.823c10.269,1.141,15.188,1.643,17.926.426s-3.559-7.728-6.141-7.728l-3.628-2.282Z" transform="translate(-249.26 -424.176)" fill="#ffc061"/>
            <path id="Trazado_1096191" data-name="Trazado 1096191" d="M295.793,603.4l.76,4.792s4.676,2.967,8.157-.76l-.627-5.4Z" transform="translate(-248.225 -414.152)" fill="#bc6c64"/>
            <path id="Trazado_1096192" data-name="Trazado 1096192" d="M326.2,631.7c-2.189.973-5.775.847-12.37.174.126-7.772,6.229-7.9,6.229-7.9C322.645,623.976,328.943,630.487,326.2,631.7Z" transform="translate(-259.949 -428.411)" fill="#bc6e2b"/>
            <path id="Trazado_1096193" data-name="Trazado 1096193" d="M194.946,363.843l-.609,81.085a25.431,25.431,0,0,0,14.148,0l3.651-67.545h3.955l11.131,66.633s5.746,3.651,15.183-1.369l-8.667-78.5-17.191-6.085-7.758-1.521Z" transform="translate(-182.291 -254.612)" fill="#455a64"/>
            <path id="Trazado_1096194" data-name="Trazado 1096194" d="M208.851,589.645c-.118,2.181-.239,4.432-.366,6.771a25.431,25.431,0,0,1-14.148,0l.049-6.595A49.375,49.375,0,0,0,208.851,589.645Z" transform="translate(-182.291 -406.1)" fill="#6ba6bf" opacity="0.33"/>
            <path id="Trazado_1096195" data-name="Trazado 1096195" d="M300.9,584.086q.346,3.128.71,6.436c-9.437,5.02-15.183,1.369-15.183,1.369l-.99-5.925A44.921,44.921,0,0,0,300.9,584.086Z" transform="translate(-241.493 -402.488)" fill="#6ba6bf" opacity="0.33"/>
            <path id="Trazado_1096196" data-name="Trazado 1096196" d="M245.109,382.465s-1.673-12.779-1.673-18.1" transform="translate(-214.199 -259.694)" fill="none" stroke="#263238" stroke-miterlimit="10" stroke-width="1.316"/>
            <path id="Trazado_1096197" data-name="Trazado 1096197" d="M254.3,382.465s1.673-12.779,1.673-18.1" transform="translate(-221.258 -259.694)" fill="none" stroke="#263238" stroke-miterlimit="10" stroke-width="1.316"/>
            <line id="Línea_3560" data-name="Línea 3560" x1="10.752" transform="translate(24.977 122.771)" fill="none" stroke="#263238" stroke-miterlimit="10" stroke-width="1.316"/>
            <line id="Línea_3561" data-name="Línea 3561" x2="2.28" transform="translate(33.801 122.771)" fill="none" stroke="#263238" stroke-miterlimit="10" stroke-width="1.316"/>
            <line id="Línea_3562" data-name="Línea 3562" x1="3.955" y2="67.915" transform="translate(24.064 122.771)" fill="none" stroke="#263238" stroke-miterlimit="10" stroke-width="1.316"/>
            <line id="Línea_3563" data-name="Línea 3563" x2="10.722" y2="67.402" transform="translate(36.08 122.771)" fill="none" stroke="#263238" stroke-miterlimit="10" stroke-width="1.316"/>
            <path id="Trazado_1096198" data-name="Trazado 1096198" d="M204.958,379.569s-.024,7.757-9.082,8.519" transform="translate(-183.291 -269.577)" fill="none" stroke="#263238" stroke-miterlimit="10" stroke-width="1.316"/>
            <path id="Trazado_1096199" data-name="Trazado 1096199" d="M282.106,377.831a11.332,11.332,0,0,0,9.8,10.338" transform="translate(-239.33 -268.448)" fill="none" stroke="#263238" stroke-miterlimit="10" stroke-width="1.316"/>
            <path id="Trazado_1096200" data-name="Trazado 1096200" d="M206.95,183.728l-13.517,5.957.855,64.2s13.457-.843,19.39-5.446V189.417l-1.492-5.477Z" transform="translate(-181.703 -142.305)" fill="#ffc061"/>
            <path id="Trazado_1096201" data-name="Trazado 1096201" d="M195.069,488.714l.079-10.58a7,7,0,1,1-.079,10.58Z" transform="translate(-182.767 -332.546)" fill="#37474f"/>
            <path id="Trazado_1096202" data-name="Trazado 1096202" d="M285.435,483.461a7,7,0,0,1,11.482-5.371l1.063,9.626a6.992,6.992,0,0,1-12.545-4.255Z" transform="translate(-241.493 -332.546)" fill="#37474f"/>
            <g id="Grupo_1191647" data-name="Grupo 1191647" transform="translate(19.152 2.873)">
              <path id="Trazado_1096203" data-name="Trazado 1096203" d="M276.17,124.9a2.989,2.989,0,1,1-1.146-4.316A3.168,3.168,0,0,1,276.17,124.9Z" transform="translate(-250.923 -103.958)" fill="#bc6c64"/>
              <path id="Trazado_1096204" data-name="Trazado 1096204" d="M280.145,127.187a3.4,3.4,0,0,0-.1-3.371,3.354,3.354,0,0,0-3.058,1.921,3.4,3.4,0,0,0,.1,3.371A3.354,3.354,0,0,0,280.145,127.187Z" transform="translate(-254.898 -106.241)" fill="#590a06" opacity="0.32"/>
              <path id="Trazado_1096205" data-name="Trazado 1096205" d="M215.032,124.9a2.989,2.989,0,1,0,1.146-4.316A3.168,3.168,0,0,0,215.032,124.9Z" transform="translate(-214.634 -103.958)" fill="#bc6c64"/>
              <path id="Trazado_1096206" data-name="Trazado 1096206" d="M215.034,127.187a3.4,3.4,0,0,1,.1-3.371,3.354,3.354,0,0,1,3.058,1.921,3.4,3.4,0,0,1-.1,3.371A3.353,3.353,0,0,1,215.034,127.187Z" transform="translate(-214.636 -106.241)" fill="#590a06" opacity="0.32"/>
              <path id="Trazado_1096207" data-name="Trazado 1096207" d="M263.93,80.948s3.051-.489,4.455.8,3.518,6.487,1.482,5.019-1.482-1.285-1.482-1.285.425,6.445-.921,9.19-3.241,2.945-3.241,2.945l-2.389-10.176Z" transform="translate(-245.307 -78.324)" fill="#7c2e25"/>
              <path id="Trazado_1096208" data-name="Trazado 1096208" d="M231.66,82.058l1.829-5.811s-5.646-3.427-10.726-2.448.58,1.653.58,1.653-4.775,1.469-7.39,4.713.941,2.509.941,2.509.517,6.406,1.357,8.313,3.432,1.722,3.432,1.722Z" transform="translate(-214.867 -73.623)" fill="#51200b"/>
              <path id="Trazado_1096209" data-name="Trazado 1096209" d="M244.124,158.731h-10.71a37.294,37.294,0,0,1-1.373,8.752,62.022,62.022,0,0,0,6.728,17.137,62.034,62.034,0,0,0,6.728-17.137A37.276,37.276,0,0,1,244.124,158.731Z" transform="translate(-225.946 -128.933)" fill="#bc6c64"/>
              <path id="Trazado_1096210" data-name="Trazado 1096210" d="M244.775,175.059c0,.007-2.368,3.831-6.006,4.443-3.639-.612-6-4.436-6.006-4.443-.184.964-.419,1.991-.722,3.035a62.021,62.021,0,0,0,6.728,17.137,62.034,62.034,0,0,0,6.728-17.137C245.195,177.05,244.96,176.023,244.775,175.059Z" transform="translate(-225.946 -139.544)" fill="#bc6e2b"/>
              <path id="Trazado_1096211" data-name="Trazado 1096211" d="M257.985,178.094c-.3-1.044-.538-2.071-.722-3.035,0,.007-2.368,3.831-6.006,4.443l4.9,4.835C256.8,182.461,257.429,180.374,257.985,178.094Z" transform="translate(-238.434 -139.544)" fill="#995420"/>
              <path id="Trazado_1096212" data-name="Trazado 1096212" d="M232.04,178.094c.3-1.044.538-2.071.722-3.035,0,.007,2.368,3.831,6.006,4.443l-4.9,4.835C233.222,182.461,232.6,180.374,232.04,178.094Z" transform="translate(-225.946 -139.544)" fill="#995420"/>
              <path id="Trazado_1096213" data-name="Trazado 1096213" d="M245.329,158.731h-10.71a37.03,37.03,0,0,1-.724,6.087c6.8,2.988,11.128-4.036,11.128-4.036l.4-.4C245.338,159.358,245.329,158.731,245.329,158.731Z" transform="translate(-227.151 -128.933)" fill="#380403"/>
              <path id="Trazado_1096214" data-name="Trazado 1096214" d="M244.017,99.929c-.276-5.967-8.263-5.875-8.263-5.875s-7.987-.092-8.262,5.875-.092,15.882,3.213,18.82,5.049,2.662,5.049,2.662,1.744.276,5.049-2.662S244.293,105.9,244.017,99.929Z" transform="translate(-222.933 -86.901)" fill="#bc6c64"/>
              <path id="Trazado_1096215" data-name="Trazado 1096215" d="M240.439,133.077c-2.387-1.423-3.718-1.725-4.636-1.725s-2.249.3-4.636,1.725c-1.326-1.035-2.884-4.1-3.69-5.816.14,5.258.9,10.96,3.277,13.069,3.3,2.938,5.049,2.662,5.049,2.662s1.744.276,5.049-2.662c2.372-2.108,3.136-7.811,3.277-13.069C243.323,128.98,241.765,132.042,240.439,133.077Z" transform="translate(-222.98 -108.481)" fill="#51200b"/>
              <path id="Trazado_1096216" data-name="Trazado 1096216" d="M257.635,109.194a.572.572,0,0,0,.4.993,15.157,15.157,0,0,1,3.872.388c.857.092.674-1.408-1.086-1.744A4.09,4.09,0,0,0,257.635,109.194Z" transform="translate(-242.456 -96.414)" fill="#651d13"/>
              <path id="Trazado_1096217" data-name="Trazado 1096217" d="M235.677,109.194a.572.572,0,0,1-.4.993,15.157,15.157,0,0,0-3.872.388c-.857.092-.674-1.408,1.086-1.744A4.09,4.09,0,0,1,235.677,109.194Z" transform="translate(-225.212 -96.414)" fill="#651d13"/>
              <path id="Trazado_1096218" data-name="Trazado 1096218" d="M246.754,146.961a12.518,12.518,0,0,1-2.082-.176.285.285,0,0,0-.306.415,2.773,2.773,0,0,0,4.776,0,.285.285,0,0,0-.306-.415A12.521,12.521,0,0,1,246.754,146.961Z" transform="translate(-233.931 -121.167)" fill="#f9f3e9"/>
              <g id="Grupo_1191639" data-name="Grupo 1191639" transform="translate(15.489 17.735)">
                <path id="Trazado_1096219" data-name="Trazado 1096219" d="M258.872,125.25a1.966,1.966,0,0,1,.974-.746,3.444,3.444,0,0,1,1.2-.227,4.218,4.218,0,0,1,1.194.15c.192.057.379.13.564.205a3.913,3.913,0,0,1,.526.3,4.344,4.344,0,0,1-.6.049c-.194.008-.384.018-.571.013l-1.1.012c-.361.006-.719.016-1.078.051A6.351,6.351,0,0,0,258.872,125.25Z" transform="translate(-258.872 -124.276)" fill="#590a06"/>
              </g>
              <g id="Grupo_1191640" data-name="Grupo 1191640" transform="translate(5.697 17.735)">
                <path id="Trazado_1096220" data-name="Trazado 1096220" d="M235.364,125.251a6.322,6.322,0,0,0-1.113-.187c-.359-.035-.717-.045-1.078-.051l-1.1-.012c-.187,0-.378-.006-.571-.013a4.292,4.292,0,0,1-.6-.049,3.9,3.9,0,0,1,.526-.3c.184-.075.372-.148.564-.205a4.218,4.218,0,0,1,1.194-.15,3.442,3.442,0,0,1,1.2.227A1.962,1.962,0,0,1,235.364,125.251Z" transform="translate(-230.904 -124.277)" fill="#590a06"/>
              </g>
              <path id="Trazado_1096221" data-name="Trazado 1096221" d="M249.21,126.233s.4,4.662,0,5.121-2.148-.669-2.148-.669l.836-4.451h1.311Z" transform="translate(-235.708 -107.813)" fill="#bc6c64"/>
              <g id="Grupo_1191641" data-name="Grupo 1191641" transform="translate(11.593 18.42)">
                <path id="Trazado_1096222" data-name="Trazado 1096222" d="M249.654,126.233a20.213,20.213,0,0,1,.335,3.612c0,.3-.011.609-.039.917a3.4,3.4,0,0,1-.079.473.75.75,0,0,1-.055.139l-.034.07a.755.755,0,0,1-.064.061.331.331,0,0,1-.145.083.4.4,0,0,1-.146.029,1.888,1.888,0,0,1-.921-.278,5.4,5.4,0,0,1-.76-.508c.278.123.55.25.833.344a1.956,1.956,0,0,0,.814.158c.119-.023.136-.064.167-.178a3.2,3.2,0,0,0,.045-.421c.016-.293.021-.591.018-.89C249.625,128.647,249.592,127.444,249.654,126.233Z" transform="translate(-247.746 -126.233)" fill="#651d13"/>
              </g>
              <line id="Línea_3564" data-name="Línea 3564" y1="5.27" x2="1.659" transform="translate(16.963 2.624)" fill="none" stroke="#3f100b" stroke-miterlimit="10" stroke-width="1.049"/>
              <path id="Trazado_1096223" data-name="Trazado 1096223" d="M241.456,121.072a12.479,12.479,0,0,0,3.477-2.322c3.305-2.938,3.489-12.853,3.213-18.82s-8.263-5.875-8.263-5.875a12.413,12.413,0,0,0-5.133,1.177C233.848,100.07,231.165,118.32,241.456,121.072Z" transform="translate(-227.062 -86.901)" fill="#fff" opacity="0.32"/>
              <g id="Grupo_1191645" data-name="Grupo 1191645" transform="translate(1.086 15.39)">
                <g id="Grupo_1191644" data-name="Grupo 1191644">
                  <path id="Trazado_1096224" data-name="Trazado 1096224" d="M254.838,119.952s1.953-1.654,6.763-1.387c1.813.7,2.589.944,2.218,2.922s-.764,4.047-3.995,4.216-4.621-2.124-4.975-4.539A2.418,2.418,0,0,1,254.838,119.952Z" transform="translate(-241.805 -118.201)" fill="#ff6d00" opacity="0.16"/>
                  <path id="Trazado_1096225" data-name="Trazado 1096225" d="M266.988,118.565a15.134,15.134,0,0,0-3.926.248,8.815,8.815,0,0,0,4.071,6.444c1.5-.743,1.794-2.282,2.073-3.771C269.577,119.509,268.8,119.27,266.988,118.565Z" transform="translate(-247.192 -118.201)" fill="#fff" opacity="0.26"/>
                  <path id="Trazado_1096226" data-name="Trazado 1096226" d="M230.776,120.242s-1.986-1.614-6.791-1.247c-1.8.742-2.569,1-2.157,2.967s.847,4.031,4.081,4.133,4.576-2.219,4.88-4.64A2.419,2.419,0,0,0,230.776,120.242Z" transform="translate(-220.325 -118.464)" fill="#ff6d00" opacity="0.16"/>
                  <path id="Trazado_1096227" data-name="Trazado 1096227" d="M233.868,119.468a17.062,17.062,0,0,0-3.929-.008,8.815,8.815,0,0,0,4.071,6.444c1.5-.743,1.794-2.282,2.073-3.771C236.454,120.155,235.681,120.172,233.868,119.468Z" transform="translate(-225.666 -118.727)" fill="#fff" opacity="0.26"/>
                  <g id="Grupo_1191643" data-name="Grupo 1191643">
                    <g id="Grupo_1191642" data-name="Grupo 1191642">
                      <path id="Trazado_1096228" data-name="Trazado 1096228" d="M230.769,118.692a8.964,8.964,0,0,1-2.594.027c-4.8-1.716-10.438-.648-10.438-.648l.018,1.719,1.026.553s.265,3.83,2.246,4.683,4.88.513,5.827-.6,1.143-1.165,1.879-3.627a.771.771,0,0,1,1.522-.016c.786,2.445.984,2.5,1.953,3.587s3.875,1.369,5.838.475,2.149-4.728,2.149-4.728l1.015-.574-.018-1.719S235.535,116.878,230.769,118.692Zm-3.87,4.638c-.829,1.558-2.912,1.862-4.889,1.4s-2.683-3.269-2.135-4.853,3.2-1.329,4.975-1.235a3.374,3.374,0,0,1,2.433.9C227.908,120.135,227.727,121.772,226.9,123.33Zm10.158,1.248c-1.967.5-4.055.239-4.917-1.3s-1.075-3.173-.461-3.772a3.373,3.373,0,0,1,2.414-.955c1.774-.131,4.42-.44,5,1.132S239.024,124.079,237.056,124.578Z" transform="translate(-217.736 -117.579)" fill="#fff"/>
                      <path id="Trazado_1096229" data-name="Trazado 1096229" d="M219.2,118.962h0l.007,0Z" transform="translate(-218.688 -118.477)" fill="#411919"/>
                    </g>
                  </g>
                </g>
              </g>
              <g id="Grupo_1191646" data-name="Grupo 1191646" transform="translate(12.639 39.958)">
                <path id="Trazado_1096230" data-name="Trazado 1096230" d="M250.916,187.748c.041.655.059,1.311.089,1.966l.051,1.966c.034,1.311.038,2.621.043,3.932s-.009,2.621-.042,3.932l-.051,1.966c-.03.655-.048,1.311-.09,1.966-.042-.655-.06-1.311-.09-1.966l-.051-1.966c-.033-1.311-.038-2.621-.042-3.932s.009-2.622.043-3.932l.051-1.966C250.857,189.059,250.874,188.4,250.916,187.748Z" transform="translate(-250.732 -187.748)" fill="#fffee6"/>
              </g>
              <path id="Trazado_1096231" data-name="Trazado 1096231" d="M245.989,197.557a.649.649,0,1,1-.649-.649A.649.649,0,0,1,245.989,197.557Z" transform="translate(-234.167 -153.743)" fill="#fffee6"/>
              <path id="Trazado_1096232" data-name="Trazado 1096232" d="M245.989,210.666a.649.649,0,1,1-.649-.649A.649.649,0,0,1,245.989,210.666Z" transform="translate(-234.167 -162.262)" fill="#fffee6"/>
            </g>
            <path id="Trazado_1096233" data-name="Trazado 1096233" d="M168.008,287.949a150.484,150.484,0,0,1-1.551-20.815c7.276-2.6,10.018.566,10.018.566l1.15,11.328Z" transform="translate(-164.172 -195.843)" fill="#bc6c64"/>
            <path id="Trazado_1096234" data-name="Trazado 1096234" d="M173.7,200.741A23.858,23.858,0,0,0,163.074,219.3a77.412,77.412,0,0,0,1.184,10.966,31.691,31.691,0,0,1,10.089-4.077C174.02,202.847,173.7,200.741,173.7,200.741Z" transform="translate(-161.974 -153.361)" fill="#bc6e2b"/>
            <path id="Trazado_1096235" data-name="Trazado 1096235" d="M165.368,270.813a31.691,31.691,0,0,1,10.089-4.077c-.018-1.264-.035-2.461-.053-3.6a89.107,89.107,0,0,0-10.623,3.907C165.078,269.311,165.368,270.813,165.368,270.813Z" transform="translate(-163.083 -193.908)" fill="#ffc061"/>
            <g id="Grupo_1191648" data-name="Grupo 1191648" transform="translate(11.684 47.38)">
              <path id="Trazado_1096236" data-name="Trazado 1096236" d="M193.994,226.19c-.084-1.059-.136-2.119-.206-3.178l-.152-3.179c-.1-2.12-.161-4.24-.221-6.361s-.095-4.242-.1-6.364l-.009-3.183c.016-1.062.014-2.122.045-3.184.085,1.059.137,2.119.206,3.178l.152,3.179c.1,2.12.161,4.24.22,6.361s.095,4.242.1,6.364l.009,3.183C194.022,224.067,194.025,225.128,193.994,226.19Z" transform="translate(-193.304 -200.741)" fill="#995f1a"/>
            </g>
            <path id="Trazado_1096237" data-name="Trazado 1096237" d="M195.707,361.833l.059,4.449s13.457-.843,19.39-5.446v-4.162C212.933,358.113,207.344,360.809,195.707,361.833Z" transform="translate(-183.181 -254.698)" fill="#bc6e2b"/>
            <path id="Trazado_1096238" data-name="Trazado 1096238" d="M313.775,287.949a150.483,150.483,0,0,0,1.551-20.815c-7.276-2.6-10.018.566-10.018.566l-1.151,11.328Z" transform="translate(-253.661 -195.843)" fill="#bc6c64"/>
            <path id="Trazado_1096239" data-name="Trazado 1096239" d="M307.885,200.741A23.858,23.858,0,0,1,318.515,219.3a77.413,77.413,0,0,1-1.184,10.966,31.691,31.691,0,0,0-10.089-4.077C307.568,202.847,307.885,200.741,307.885,200.741Z" transform="translate(-255.665 -153.361)" fill="#bc6e2b"/>
            <path id="Trazado_1096240" data-name="Trazado 1096240" d="M317.329,270.813a31.692,31.692,0,0,0-10.089-4.077c.018-1.264.035-2.461.053-3.6a89.105,89.105,0,0,1,10.623,3.907C317.62,269.311,317.329,270.813,317.329,270.813Z" transform="translate(-255.664 -193.908)" fill="#ffc061"/>
            <path id="Trazado_1096241" data-name="Trazado 1096241" d="M230.372,252.957H215.694s-7.748,14.515-7.866,23.947c.922-3.4,11.1-18.8,11.1-18.8h8.21s10.177,15.4,11.1,18.8C238.12,267.472,230.372,252.957,230.372,252.957Z" transform="translate(-191.058 -187.295)" fill="#bc6e2b" opacity="0.56"/>
            <g id="Grupo_1191649" data-name="Grupo 1191649" transform="translate(51.532 47.38)">
              <path id="Trazado_1096242" data-name="Trazado 1096242" d="M307.158,226.189c-.031-1.062-.029-2.123-.044-3.184l.009-3.183c.007-2.122.054-4.243.1-6.364s.12-4.241.22-6.361l.152-3.179c.069-1.059.121-2.119.206-3.178.031,1.062.029,2.123.045,3.184l-.009,3.183c-.007,2.122-.054,4.243-.1,6.364s-.12,4.241-.221,6.361l-.152,3.179C307.294,224.07,307.242,225.13,307.158,226.189Z" transform="translate(-307.114 -200.74)" fill="#995f1a"/>
            </g>
            <path id="Trazado_1096243" data-name="Trazado 1096243" d="M270.707,361.833l-.059,4.449s-13.457-.843-19.39-5.446v-4.162C253.481,358.113,259.07,360.809,270.707,361.833Z" transform="translate(-219.283 -254.698)" fill="#bc6e2b"/>
            <line id="Línea_3565" data-name="Línea 3565" y1="46.725" transform="translate(31.975 59.413)" fill="none" stroke="#995f1a" stroke-miterlimit="10" stroke-width="1.463"/>
            <g id="Grupo_1191651" data-name="Grupo 1191651" transform="translate(25.113 48.897)">
              <path id="Trazado_1096244" data-name="Trazado 1096244" d="M252.845,206.589v-1.515h4.933a2.406,2.406,0,0,1,2.195,1.349,2.377,2.377,0,0,1,.222,1.07A26.248,26.248,0,0,1,252.845,206.589Z" transform="translate(-245.427 -205.074)" fill="#fff"/>
              <path id="Trazado_1096245" data-name="Trazado 1096245" d="M239.2,206.589v-1.515h-4.933a2.406,2.406,0,0,0-2.195,1.349,2.376,2.376,0,0,0-.222,1.07A26.248,26.248,0,0,0,239.2,206.589Z" transform="translate(-231.783 -205.074)" fill="#fff"/>
              <path id="Trazado_1096246" data-name="Trazado 1096246" d="M239.077,209.4h-6.1a1.321,1.321,0,0,0-1.316,1.441l1.457,16a1.593,1.593,0,0,0,1.586,1.449h8.738a1.593,1.593,0,0,0,1.586-1.449l1.457-16a1.322,1.322,0,0,0-1.316-1.441Z" transform="translate(-231.659 -207.885)" fill="#ebebeb"/>
              <g id="Grupo_1191650" data-name="Grupo 1191650" transform="translate(1.429 3.177)">
                <path id="Trazado_1096247" data-name="Trazado 1096247" d="M238.184,215.371a1.222,1.222,0,1,1-1.222-1.222A1.222,1.222,0,0,1,238.184,215.371Z" transform="translate(-235.74 -214.149)" fill="#aaa"/>
                <path id="Trazado_1096248" data-name="Trazado 1096248" d="M238.608,216.27a.725.725,0,1,1-.725-.725A.725.725,0,0,1,238.608,216.27Z" transform="translate(-236.662 -215.056)" fill="#263238"/>
              </g>
            </g>
            <g id="Grupo_1191657" data-name="Grupo 1191657" transform="translate(3.683 56.473)">
              <g id="Grupo_1191655" data-name="Grupo 1191655">
                <path id="Trazado_1096249" data-name="Trazado 1096249" d="M183.461,240.12s2.421-7.322,3.863-9.455,4.958-3.113,7.5-3.805,2.594,1.268,2.594,1.268a2.761,2.761,0,0,1,1.672.692c.577.634-.115,1.441-.807,1.845a3.2,3.2,0,0,1-1.153,2.306,10.9,10.9,0,0,1-.836,2.838,22.628,22.628,0,0,1-3.2,4.311c-1.441,1.557-1.787,2.537-3.978,6.111s-6.227,17.585-8.706,18.968-7.091,1.787-8.821-.807-1.384-4.151.4-8.648S182.423,243.637,183.461,240.12Z" transform="translate(-170.452 -226.712)" fill="#bc6c64"/>
                <path id="Trazado_1096250" data-name="Trazado 1096250" d="M177.733,319.323a5.5,5.5,0,0,1,5.353,4.235,4.973,4.973,0,0,1-1.461,1.828c-2.479,1.384-7.091,1.787-8.821-.807-.183-.275-.338-.536-.475-.792A5.505,5.505,0,0,1,177.733,319.323Z" transform="translate(-171.671 -286.898)" fill="#56221c" opacity="0.25"/>
                <g id="Grupo_1191652" data-name="Grupo 1191652" transform="translate(22.637 1.392)">
                  <path id="Trazado_1096251" data-name="Trazado 1096251" d="M239.43,230.712a6.177,6.177,0,0,1-1.044.4,10.6,10.6,0,0,1-2.162.4,6.083,6.083,0,0,1-1.118,0,6.08,6.08,0,0,1,1.044-.4,10.333,10.333,0,0,1,1.071-.258,10.537,10.537,0,0,1,1.092-.145A6.077,6.077,0,0,1,239.43,230.712Z" transform="translate(-235.106 -230.688)" fill="#75240e"/>
                </g>
                <g id="Grupo_1191653" data-name="Grupo 1191653" transform="translate(23.848 3.953)">
                  <path id="Trazado_1096252" data-name="Trazado 1096252" d="M242.542,238a5.542,5.542,0,0,1-.933.509,9.558,9.558,0,0,1-.977.372,9.371,9.371,0,0,1-1.012.263,5.51,5.51,0,0,1-1.056.124,5.507,5.507,0,0,1,.933-.51,9.451,9.451,0,0,1,.977-.371,9.564,9.564,0,0,1,1.012-.262A5.593,5.593,0,0,1,242.542,238Z" transform="translate(-238.564 -238.002)" fill="#75240e"/>
                </g>
                <g id="Grupo_1191654" data-name="Grupo 1191654" transform="translate(23.905 6.259)">
                  <path id="Trazado_1096253" data-name="Trazado 1096253" d="M241.5,244.589a4.193,4.193,0,0,1-.563.731,7.123,7.123,0,0,1-1.383,1.154,4.163,4.163,0,0,1-.821.421,4.168,4.168,0,0,1,.562-.732,7.1,7.1,0,0,1,1.384-1.153A4.236,4.236,0,0,1,241.5,244.589Z" transform="translate(-238.729 -244.589)" fill="#75240e"/>
                </g>
              </g>
              <g id="Grupo_1191656" data-name="Grupo 1191656" transform="translate(1.159 19.17)">
                <path id="Trazado_1096254" data-name="Trazado 1096254" d="M181.607,281.465c-.75.844-1.482,1.7-2.216,2.545s-1.45,1.709-2.132,2.593-1.356,1.775-1.954,2.714a15.443,15.443,0,0,0-1.542,2.97,10.185,10.185,0,0,1,1.194-3.177,20.663,20.663,0,0,1,1.894-2.827,29.649,29.649,0,0,1,2.243-2.546A26.229,26.229,0,0,1,181.607,281.465Z" transform="translate(-173.763 -281.465)" fill="#75240e"/>
              </g>
            </g>
            <g id="Grupo_1191663" data-name="Grupo 1191663" transform="translate(31.419 56.473)">
              <g id="Grupo_1191661" data-name="Grupo 1191661">
                <path id="Trazado_1096255" data-name="Trazado 1096255" d="M265.508,240.12s-2.421-7.322-3.863-9.455-4.958-3.113-7.5-3.805-2.594,1.268-2.594,1.268a2.761,2.761,0,0,0-1.672.692c-.577.634.115,1.441.807,1.845a3.2,3.2,0,0,0,1.153,2.306,10.9,10.9,0,0,0,.836,2.838,22.628,22.628,0,0,0,3.2,4.311c1.441,1.557,1.787,2.537,3.978,6.111s6.227,17.585,8.706,18.968,7.091,1.787,8.821-.807,1.384-4.151-.4-8.648S266.545,243.637,265.508,240.12Z" transform="translate(-249.668 -226.712)" fill="#bc6c64"/>
                <path id="Trazado_1096256" data-name="Trazado 1096256" d="M304.814,319.323a5.5,5.5,0,0,0-5.353,4.235,4.973,4.973,0,0,0,1.461,1.828c2.479,1.384,7.091,1.787,8.821-.807.183-.275.338-.536.475-.792A5.505,5.505,0,0,0,304.814,319.323Z" transform="translate(-282.027 -286.898)" fill="#56221c" opacity="0.25"/>
                <g id="Grupo_1191658" data-name="Grupo 1191658" transform="translate(1.887 1.392)">
                  <path id="Trazado_1096257" data-name="Trazado 1096257" d="M255.057,230.712a6.146,6.146,0,0,1,1.118,0,10.626,10.626,0,0,1,1.092.145,10.36,10.36,0,0,1,1.071.258,6.051,6.051,0,0,1,1.044.4,6.086,6.086,0,0,1-1.118,0,10.325,10.325,0,0,1-1.091-.146,10.629,10.629,0,0,1-1.07-.258A6.145,6.145,0,0,1,255.057,230.712Z" transform="translate(-255.057 -230.688)" fill="#75240e"/>
                </g>
                <g id="Grupo_1191659" data-name="Grupo 1191659" transform="translate(1.022 3.953)">
                  <path id="Trazado_1096258" data-name="Trazado 1096258" d="M252.587,238a5.567,5.567,0,0,1,1.056.125,9.558,9.558,0,0,1,1.012.262,9.29,9.29,0,0,1,.977.371,5.482,5.482,0,0,1,.933.51,5.481,5.481,0,0,1-1.056-.124,9.367,9.367,0,0,1-1.012-.263,9.512,9.512,0,0,1-.977-.372A5.569,5.569,0,0,1,252.587,238Z" transform="translate(-252.587 -238.002)" fill="#75240e"/>
                </g>
                <g id="Grupo_1191660" data-name="Grupo 1191660" transform="translate(2.175 6.259)">
                  <path id="Trazado_1096259" data-name="Trazado 1096259" d="M255.88,244.589a4.218,4.218,0,0,1,.821.422,7.069,7.069,0,0,1,.729.532,6.981,6.981,0,0,1,.655.62,4.165,4.165,0,0,1,.562.732,4.181,4.181,0,0,1-.821-.421,6.929,6.929,0,0,1-.728-.533,7.113,7.113,0,0,1-.655-.621A4.269,4.269,0,0,1,255.88,244.589Z" transform="translate(-255.88 -244.589)" fill="#75240e"/>
                </g>
              </g>
              <g id="Grupo_1191662" data-name="Grupo 1191662" transform="translate(19.844 19.17)">
                <path id="Trazado_1096260" data-name="Trazado 1096260" d="M306.346,281.465a26.186,26.186,0,0,1,2.513,2.272,29.653,29.653,0,0,1,2.243,2.546A20.665,20.665,0,0,1,313,289.111a10.184,10.184,0,0,1,1.194,3.177,15.443,15.443,0,0,0-1.542-2.97c-.6-.939-1.264-1.837-1.954-2.714s-1.4-1.741-2.132-2.593S307.1,282.309,306.346,281.465Z" transform="translate(-306.346 -281.465)" fill="#75240e"/>
              </g>
            </g>
            <line id="Línea_3566" data-name="Línea 3566" x2="14.38" y2="5.983" transform="translate(38.192 43.396)" fill="none" stroke="#bc6e2b" stroke-miterlimit="10" stroke-width="1"/>
            <line id="Línea_3567" data-name="Línea 3567" x1="14.38" y2="5.983" transform="translate(11.378 43.396)" fill="none" stroke="#bc6e2b" stroke-miterlimit="10" stroke-width="1"/>
            <path id="Trazado_1096261" data-name="Trazado 1096261" d="M267.821,338.05s4.315,2.319,12.178,3.01v-3.7a30.524,30.524,0,0,1-12.139-3.9C267.86,336.817,267.821,338.05,267.821,338.05Z" transform="translate(-230.046 -239.608)" fill="#bc6e2b"/>
            <path id="Trazado_1096262" data-name="Trazado 1096262" d="M212.089,338.05s-4.315,2.319-12.178,3.01v-3.7a30.524,30.524,0,0,0,12.139-3.9C212.05,336.817,212.089,338.05,212.089,338.05Z" transform="translate(-185.913 -239.608)" fill="#bc6e2b"/>
          </g>
        </g>
      </g>
    </g>
  </g>
</svg>
