<svg xmlns="http://www.w3.org/2000/svg" width="84" height="84" viewBox="0 0 84 84">
  <g id="Grupo_1191764" data-name="Grupo 1191764" transform="translate(-703 -2032.902)">
    <rect id="Rectángulo_459542" data-name="Rectángulo 459542" width="84" height="84" rx="5" transform="translate(703 2032.902)" fill="#ffe3ee"/>
    <g id="distribucion" transform="translate(715.334 2049.235)">
      <path id="Trazado_1092775" data-name="Trazado 1092775" d="M338.171,171.634a.909.909,0,0,0-.622-.862l-8.177-2.726a.908.908,0,0,0-.574,0l-8.177,2.726a.909.909,0,0,0-.622.862v9.994a.908.908,0,0,0,.909.909h16.354a.908.908,0,0,0,.909-.909Zm-12.72,9.086v-5.451h7.269v5.451Zm10.9,0h-1.817v-6.36a.909.909,0,0,0-.909-.909h-9.086a.909.909,0,0,0-.909.909v6.36h-1.817v-8.43l7.269-2.423,7.269,2.423Zm0,0" transform="translate(-283.657 -148.92)" fill="#cc839f"/>
      <path id="Trazado_1092776" data-name="Trazado 1092776" d="M338.171,355.634a.909.909,0,0,0-.622-.862l-8.177-2.726a.908.908,0,0,0-.574,0l-8.177,2.726a.909.909,0,0,0-.622.862v9.994a.908.908,0,0,0,.909.909h16.354a.908.908,0,0,0,.909-.909Zm-12.72,9.086v-5.451h7.269v5.451Zm10.9,0h-1.817v-6.36a.909.909,0,0,0-.909-.909h-9.086a.909.909,0,0,0-.909.909v6.36h-1.817V356.29l7.269-2.423,7.269,2.423Zm0,0" transform="translate(-283.657 -312.023)" fill="#cc839f"/>
      <path id="Trazado_1092777" data-name="Trazado 1092777" d="M338.171,3.634a.909.909,0,0,0-.622-.862L329.373.047a.908.908,0,0,0-.574,0l-8.177,2.726a.909.909,0,0,0-.622.862v9.994a.908.908,0,0,0,.909.909h16.354a.908.908,0,0,0,.909-.909Zm-12.72,9.086V7.269h7.269V12.72Zm10.9,0h-1.817V6.36a.909.909,0,0,0-.909-.909h-9.086a.909.909,0,0,0-.909.909v6.36h-1.817V4.29l7.269-2.423,7.269,2.423Zm0,0" transform="translate(-283.657)" fill="#cc839f"/>
      <path id="Trazado_1092778" data-name="Trazado 1092778" d="M247.269,65.817V64h-6.36a.909.909,0,0,0-.909.909v40.886a.908.908,0,0,0,.909.909h6.36v-1.817h-5.451V84.9h5.451V83.08h-5.451V65.817Zm0,0" transform="translate(-212.743 -56.731)" fill="#cc839f"/>
      <path id="Trazado_1092779" data-name="Trazado 1092779" d="M.908,91.989H3.634v2.726a.908.908,0,0,0,.909.909H5.618a2.7,2.7,0,0,0,4.376,1.109,2.7,2.7,0,0,0,4.376-1.109h3.969a2.709,2.709,0,0,0,5.117,0h1.076a.908.908,0,0,0,.909-.909V90.171a.908.908,0,0,0-.266-.642l-1.551-1.551V78.36a.908.908,0,0,0-1.315-.813l-2.32,1.16v-5.8A.909.909,0,0,0,19.08,72H15.446a.909.909,0,0,0-.909.909V77.8l-1.817.909v-5.8A.909.909,0,0,0,11.811,72H8.177a.909.909,0,0,0-.909.909V77.8l-1.817.909v-5.8A.909.909,0,0,0,4.543,72H.908A.909.909,0,0,0,0,72.908V91.08a.908.908,0,0,0,.909.909Zm4.543,1.817V86.537h10.9v7.269H14.37A2.7,2.7,0,0,0,9.994,92.7a2.7,2.7,0,0,0-4.376,1.108Zm2.726,1.817a.909.909,0,1,1,.909-.909A.908.908,0,0,1,8.177,95.623Zm3.634,0a.909.909,0,1,1,.909-.909A.908.908,0,0,1,11.811,95.623Zm9.086,0a.909.909,0,1,1,.909-.909A.908.908,0,0,1,20.9,95.623Zm2.726-1.817h-.167a2.709,2.709,0,0,0-5.117,0h-.167V88.354h3.258l2.193,2.193ZM16.354,73.817h1.817v5.8l-1.817.909Zm-7.269,0H10.9v5.8l-1.817.909ZM7.268,81.086v.909a.909.909,0,0,0,1.315.813l5.954-2.977v2.164a.909.909,0,0,0,1.315.813l5.954-2.977v6.707H18.171v-.909a.909.909,0,0,0-.909-.909H4.543a.909.909,0,0,0-.909.909v4.543H1.817V82.556L7.268,79.83ZM3.634,73.817v5.8l-1.817.909V73.817Zm0,0" transform="translate(0 -63.823)" fill="#cc839f"/>
    </g>
  </g>
</svg>
