<svg xmlns="http://www.w3.org/2000/svg" width="104" height="104" viewBox="0 0 104 104">
  <g id="Grupo_1191769" data-name="Grupo 1191769" transform="translate(-1213 -1536)">
    <g id="Rectángulo_459540" data-name="Rectángulo 459540" transform="translate(1213 1536)" fill="none" stroke="#9bac1c" stroke-width="2">
      <rect width="104" height="104" rx="52" stroke="none"/>
      <rect x="1" y="1" width="102" height="102" rx="51" fill="none"/>
    </g>
    <g id="voluntario" transform="translate(1242.631 1559.643)">
      <path id="Trazado_1095994" data-name="Trazado 1095994" d="M48.839,62.313a5.532,5.532,0,0,0-5.577,1.235,5.534,5.534,0,0,0-5.577-1.235C35.412,63.176,34,65.6,34,68.639c0,5.388,4.52,9.877,8.718,11.768a1.33,1.33,0,0,0,1.088,0c4.2-1.892,8.718-6.38,8.718-11.768C52.524,65.6,51.111,63.176,48.839,62.313Zm-5.577,15.42c-3.371-1.721-6.616-5.274-6.616-9.094,0-1.884.777-3.4,1.98-3.853a2.165,2.165,0,0,1,.769-.14,4.091,4.091,0,0,1,2.878,1.62,1.37,1.37,0,0,0,1.98,0c1.209-1.364,2.534-1.9,3.646-1.481,1.2.457,1.979,1.969,1.979,3.853C49.877,72.458,46.633,76.012,43.262,77.732Z" transform="translate(-19.446 -24.919)" fill="#9bac1c"/>
      <path id="Trazado_1095995" data-name="Trazado 1095995" d="M46.452,33.615a15.877,15.877,0,1,0-21.271,0A19.926,19.926,0,0,0,12,52.291a3.974,3.974,0,0,0,3.969,3.969h5.292a1.323,1.323,0,0,0,0-2.646H15.969a1.325,1.325,0,0,1-1.323-1.323,17.241,17.241,0,0,1,13.232-16.7,15.744,15.744,0,0,0,15.876,0,17.241,17.241,0,0,1,13.232,16.7,1.325,1.325,0,0,1-1.323,1.323H50.37a1.323,1.323,0,1,0,0,2.646h5.292a3.974,3.974,0,0,0,3.969-3.969,19.926,19.926,0,0,0-13.18-18.677ZM22.585,21.86A13.231,13.231,0,1,1,35.816,35.091,13.231,13.231,0,0,1,22.585,21.86Z" transform="translate(-12 -5.949)" fill="#9bac1c"/>
    </g>
  </g>
</svg>
