<svg xmlns="http://www.w3.org/2000/svg" width="104" height="104" viewBox="0 0 104 104">
  <g id="Grupo_1191768" data-name="Grupo 1191768" transform="translate(-903 -1536)">
    <g id="Rectángulo_459539" data-name="Rectángulo 459539" transform="translate(903 1536)" fill="none" stroke="#9bac1c" stroke-width="2">
      <rect width="104" height="104" rx="52" stroke="none"/>
      <rect x="1" y="1" width="102" height="102" rx="51" fill="none"/>
    </g>
    <g id="nino" transform="translate(932.154 1560.734)">
      <path id="Trazado_1095979" data-name="Trazado 1095979" d="M62.911,62.726a.8.8,0,1,0-.785-1.4,6.553,6.553,0,0,1-5.135,0,.8.8,0,1,0-.791,1.4,8.072,8.072,0,0,0,6.711,0Z" transform="translate(-36.711 -35.24)" fill="#9bac1c"/>
      <path id="Trazado_1095980" data-name="Trazado 1095980" d="M59.864,58.183l-.95-8.928a6.775,6.775,0,0,0-5.154-5.863L50.6,42.635a8.459,8.459,0,0,0-5.651-7.815,15.676,15.676,0,0,0,3.241-5.5c.133.01.267.02.4.02a4.02,4.02,0,0,0,3.188-1.412,4.369,4.369,0,0,0,.783-4.169,2.8,2.8,0,0,0-1.569-1.683,3.134,3.134,0,0,0-1.372-.2c.784-2.557,1.972-7.935-.593-11.2a5.381,5.381,0,0,0,.293-5.711.8.8,0,0,0-1.055-.321c-2.089,1.04-3.93.8-6.716.433a48.564,48.564,0,0,0-6.71-.52C28.51,4.557,26.99,8,26.648,9.243c-4.613,2.8-3.135,9.645-2.215,12.636a3.129,3.129,0,0,0-1.371.2,2.8,2.8,0,0,0-1.569,1.683,4.371,4.371,0,0,0,.784,4.169,4.02,4.02,0,0,0,3.187,1.412c.13,0,.264-.01.4-.02a15.688,15.688,0,0,0,3.24,5.5,8.457,8.457,0,0,0-5.651,7.812l-3.164.756a6.775,6.775,0,0,0-5.154,5.863l-.951,8.928a.8.8,0,0,0,.713.883.773.773,0,0,0,.086,0,.8.8,0,0,0,.8-.718l.951-8.928a5.168,5.168,0,0,1,3.931-4.472l3.283-.784c1.975,2.238,5.4,3.218,8.263,3.64v7.449a.8.8,0,0,0,1.6,0V48c1.13.1,2.073.123,2.647.123.3,0,.489-.005.566-.008s.27.008.566.008c.575,0,1.517-.021,2.648-.123v7.259a.8.8,0,0,0,1.6,0V47.81c2.859-.423,6.288-1.4,8.263-3.64l3.282.784a5.169,5.169,0,0,1,3.931,4.472l.95,8.928a.8.8,0,0,0,.8.718.791.791,0,0,0,.086,0,.8.8,0,0,0,.712-.883ZM26.476,23.331,28.095,21.7a6.439,6.439,0,0,0,1.8-3.684l.269-2.073a36.019,36.019,0,0,0,6.857.633,36.019,36.019,0,0,0,6.855-.633l.269,2.073a6.432,6.432,0,0,0,1.8,3.684l1.62,1.633c-.128,8.358-5.15,12.178-8.162,13.717a5.258,5.258,0,0,1-4.769,0C31.627,35.509,26.607,31.688,26.476,23.331Zm23.909.237a1.213,1.213,0,0,1,.668.762,2.773,2.773,0,0,1-.513,2.568,2.421,2.421,0,0,1-1.894.838,19.953,19.953,0,0,0,.521-4.161,2.047,2.047,0,0,1,1.219-.007ZM27.73,10.473a.818.818,0,0,0,.42-.621c.018-.151.515-3.69,6.68-3.69a46.554,46.554,0,0,1,6.5.5c2.56.336,4.638.608,6.86-.244a3.506,3.506,0,0,1-.8,3.693.8.8,0,0,0,0,1.14c2.623,2.59,1.383,7.9.65,10.268l-.948-.956a4.823,4.823,0,0,1-1.35-2.76l-.382-2.942a.8.8,0,0,0-1-.673,32.321,32.321,0,0,1-7.337.777,32.332,32.332,0,0,1-7.337-.777.8.8,0,0,0-1,.673l-.381,2.942a4.823,4.823,0,0,1-1.351,2.76l-.947.956C25.192,18.886,23.752,12.593,27.73,10.473ZM23.505,26.9a2.773,2.773,0,0,1-.512-2.568,1.214,1.214,0,0,1,.659-.761,2.034,2.034,0,0,1,1.225.006,19.974,19.974,0,0,0,.522,4.158A2.427,2.427,0,0,1,23.505,26.9Zm1.531,16.087a6.823,6.823,0,0,1,5.376-6.875q.373.327.747.617l-.4,4.732a.81.81,0,0,0,.086.436,17.322,17.322,0,0,0,3.743,4.552C31.744,46.249,27.14,45.53,25.036,42.984Zm11.987,3.35a17.14,17.14,0,0,1-4.646-4.986l.3-3.566c.431.266.845.5,1.228.693a6.86,6.86,0,0,0,6.229,0c.383-.2.8-.427,1.228-.693l.3,3.566A17.138,17.138,0,0,1,37.023,46.334Zm2.437.112A17.322,17.322,0,0,0,43.2,41.893a.81.81,0,0,0,.086-.436l-.4-4.733q.372-.29.746-.617a6.86,6.86,0,0,1,5.374,6.878C46.9,45.53,42.3,46.249,39.46,46.446Z" transform="translate(-14.177 -4.557)" fill="#9bac1c"/>
      <path id="Trazado_1095981" data-name="Trazado 1095981" d="M52.436,41.188a.8.8,0,1,0,1.068-1.2,3.987,3.987,0,0,0-4.725,0,.8.8,0,0,0-.06,1.115.811.811,0,0,0,1.126.085,2.457,2.457,0,0,1,2.591,0Z" transform="translate(-32.772 -23.322)" fill="#9bac1c"/>
      <path id="Trazado_1095982" data-name="Trazado 1095982" d="M54.038,46.9a1.107,1.107,0,1,0-1.107,1.107A1.107,1.107,0,0,0,54.038,46.9Z" transform="translate(-34.561 -26.884)" fill="#9bac1c"/>
      <path id="Trazado_1095983" data-name="Trazado 1095983" d="M69.369,41.193a2.459,2.459,0,0,1,2.592,0,.8.8,0,1,0,1.068-1.2,3.989,3.989,0,0,0-4.726,0,.8.8,0,0,0-.06,1.115.81.81,0,0,0,1.126.083Z" transform="translate(-43.343 -23.326)" fill="#9bac1c"/>
      <path id="Trazado_1095984" data-name="Trazado 1095984" d="M72.454,45.792A1.107,1.107,0,1,0,73.561,46.9a1.107,1.107,0,0,0-1.107-1.107Z" transform="translate(-45.132 -26.884)" fill="#9bac1c"/>
    </g>
  </g>
</svg>
