<svg xmlns="http://www.w3.org/2000/svg" width="57.351" height="57.351" viewBox="0 0 57.351 57.351">
  <g id="Grupo_1187849" data-name="Grupo 1187849" transform="translate(-886.096 -4339.65)">
    <path id="Trazado_1085591" data-name="Trazado 1085591" d="M357.371,75.924A28.675,28.675,0,1,1,328.7,104.6a28.675,28.675,0,0,1,28.676-28.675" transform="translate(557.401 4263.726)" fill="#ffa4c7"/>
    <g id="_x38_0" transform="translate(893.929 4349.074)">
      <path id="Trazado_1088383" data-name="Trazado 1088383" d="M37.647,31.979c-.148-.148-.148-.222-.3-.3l-.444-.592c-1.332-1.48-2.664-3.034-4.07-4.514-.444-.518-.888-.962-1.332-1.48a11.924,11.924,0,0,0,5.254-5.846,12.036,12.036,0,0,0,.074-8.51,12.578,12.578,0,0,0-5.7-6.512,12.279,12.279,0,0,0-8.584-.962,12.015,12.015,0,0,0-7.1,5.032,10.917,10.917,0,0,0-1.7,3.922,9.674,9.674,0,0,0-5.032-.074,9.837,9.837,0,0,0-4.958,2.96,10.2,10.2,0,0,0-1.776,11.1,9.162,9.162,0,0,0,1.628,2.516A9.612,9.612,0,0,0,5.9,30.647,10.994,10.994,0,0,0,11.6,32.2a10.83,10.83,0,0,0,5.624-1.85A9.964,9.964,0,0,0,20.7,25.985a11.423,11.423,0,0,0,4.736.814l-1.332,4.44-.814,2.886-.37,1.48a1.2,1.2,0,0,0,.444,1.258,1.235,1.235,0,0,0,1.332.074c.074-.074.222-.148.3-.222l.148-.148c.074-.074.814-.962.74-.888l.962-1.184,1.924-2.368.74-.962c.074,0,3.626,1.628,3.552,1.554L35.8,33.9l.222.074a.667.667,0,0,0,.37.074,1.361,1.361,0,0,0,1.48-1.48.527.527,0,0,0-.222-.592ZM11.6,30.8a8.974,8.974,0,0,1-8.288-5.18,7.709,7.709,0,0,1-.74-2.442c-.074-.444-.074-.888-.148-1.258A8.043,8.043,0,0,1,2.5,20.583a9.44,9.44,0,0,1,11.174-7.992,11.112,11.112,0,0,0-.148,4.144,11.483,11.483,0,0,0,3.108,6.438,11.482,11.482,0,0,0,3.034,2.59A9.144,9.144,0,0,1,11.6,30.8Zm22.125.592L30.987,30.2l-.666-.3a3.357,3.357,0,0,0-.592-.148,1.344,1.344,0,0,0-1.036.444l-.074.074-.222.074-.222.3-.444.592-1.85,2.442-.888,1.184L24.18,35.9h-.074c-.074,0-.074,0-.074-.074l.3-1.48.592-2.96c.3-2,.74-4,1.036-5.994a8.946,8.946,0,0,0-.37,1.332A10.893,10.893,0,0,1,21,25.467a.406.406,0,0,0-.3-.444,13.762,13.762,0,0,1-2.59-1.628,6.977,6.977,0,0,1-.74-.74,10.425,10.425,0,0,1-2.59-6.068,11.083,11.083,0,0,1,1.924-7.474A10.973,10.973,0,0,1,30.617,5.562a11.273,11.273,0,0,1,5.254,5.7,11.423,11.423,0,0,1,.3,7.844A11.2,11.2,0,0,1,31.579,25.1c-.888-.962-1.85-2-2.738-2.96l-.518-.518-.3-.3a1.372,1.372,0,0,0-.518-.148.833.833,0,0,0-.814.518.939.939,0,0,0-.074.444c-.074.592-.3,1.554-.518,3.33.518-1.776.814-2.664.962-3.256a.559.559,0,0,0,.074-.3.27.27,0,0,1,.37-.148c.148,0,.222.074.37.37l.444.592c1.258,1.554,2.516,3.182,3.774,4.736s2.59,3.108,3.848,4.662l.518.592Z" transform="translate(0 0)" fill="#cc839f"/>
      <path id="Trazado_1088384" data-name="Trazado 1088384" d="M41.066,19.825a1.415,1.415,0,0,0,1.332,0,2.4,2.4,0,0,0,.666-.592,2.4,2.4,0,0,0-.666-.592,1.415,1.415,0,0,0-1.332,0,2.4,2.4,0,0,0-.666.592A2.4,2.4,0,0,0,41.066,19.825Z" transform="translate(-10.227 -4.052)" fill="#cc839f"/>
      <path id="Trazado_1088385" data-name="Trazado 1088385" d="M37,19.825a2.4,2.4,0,0,0,.666-.592A2.4,2.4,0,0,0,37,18.641a1.415,1.415,0,0,0-1.332,0,2.4,2.4,0,0,0-.666.592,2.4,2.4,0,0,0,.666.592A1.415,1.415,0,0,0,37,19.825Z" transform="translate(-8.822 -4.052)" fill="#cc839f"/>
      <path id="Trazado_1088386" data-name="Trazado 1088386" d="M31.7,18.641a1.415,1.415,0,0,0-1.332,0,2.4,2.4,0,0,0-.666.592,2.4,2.4,0,0,0,.666.592,1.415,1.415,0,0,0,1.332,0,2.4,2.4,0,0,0,.666-.592A2.4,2.4,0,0,0,31.7,18.641Z" transform="translate(-7.444 -4.052)" fill="#cc839f"/>
      <path id="Trazado_1088387" data-name="Trazado 1088387" d="M26.4,18.648a2.161,2.161,0,0,0-.666-.148,2.161,2.161,0,0,0-.666.148,2.4,2.4,0,0,0-.666.592,2.4,2.4,0,0,0,.666.592,1.415,1.415,0,0,0,1.332,0,2.4,2.4,0,0,0,.666-.592A2.4,2.4,0,0,0,26.4,18.648Z" transform="translate(-6.066 -4.058)" fill="#cc839f"/>
    </g>
  </g>
</svg>
