<svg xmlns="http://www.w3.org/2000/svg" width="54.609" height="53.147" viewBox="0 0 54.609 53.147">
  <g id="carrito-de-compras" transform="translate(0 0)">
    <g id="Grupo_1191558" data-name="Grupo 1191558" transform="translate(0 0)">
      <g id="Grupo_1191557" data-name="Grupo 1191557">
        <path id="Trazado_1096005" data-name="Trazado 1096005" d="M102.354,350.322a5.7,5.7,0,1,0,5.7,5.7A5.7,5.7,0,0,0,102.354,350.322Zm0,8.868a3.167,3.167,0,1,1,3.167-3.167A3.167,3.167,0,0,1,102.354,359.19Z" transform="translate(-84.934 -308.577)" fill="#986f1c"/>
        <path id="Trazado_1096006" data-name="Trazado 1096006" d="M300.885,350.322a5.7,5.7,0,1,0,5.7,5.7A5.7,5.7,0,0,0,300.885,350.322Zm0,8.868a3.167,3.167,0,1,1,3.167-3.167A3.167,3.167,0,0,1,300.885,359.19Z" transform="translate(-259.394 -308.577)" fill="#986f1c"/>
        <path id="Trazado_1096007" data-name="Trazado 1096007" d="M54.35,14.516a1.584,1.584,0,0,0-1.014-.507L12.1,13.439l-1.14-3.484A5.828,5.828,0,0,0,5.511,6.028H1.267a1.267,1.267,0,1,0,0,2.534H5.511a3.294,3.294,0,0,1,3.041,2.217L16.6,35.04,15.963,36.5a6.081,6.081,0,0,0,.57,5.511,5.891,5.891,0,0,0,4.751,2.661H45.926a1.267,1.267,0,0,0,0-2.534H21.284a3.231,3.231,0,0,1-2.661-1.52,3.484,3.484,0,0,1-.317-3.041l.507-1.14,26.668-2.787A6.968,6.968,0,0,0,51.5,28.325l3.041-12.732A1.077,1.077,0,0,0,54.35,14.516ZM49.029,27.755a4.307,4.307,0,0,1-3.864,3.357L18.814,33.837,12.923,15.973l38.831.57Z" transform="translate(0 -6.028)" fill="#986f1c"/>
      </g>
    </g>
  </g>
</svg>
