<svg id="Grupo_1191271" data-name="Grupo 1191271" xmlns="http://www.w3.org/2000/svg" xmlns:xlink="http://www.w3.org/1999/xlink" width="157.499" height="151.119" viewBox="0 0 157.499 151.119">
  <defs>
    <clipPath id="clip-path">
      <rect id="Rectángulo_459854" data-name="Rectángulo 459854" width="157.499" height="151.119" fill="none"/>
    </clipPath>
    <clipPath id="clip-path-3">
      <rect id="Rectángulo_459846" data-name="Rectángulo 459846" width="149.631" height="8.584" transform="translate(6.406 117.452)" fill="none"/>
    </clipPath>
    <clipPath id="clip-path-4">
      <rect id="Rectángulo_459847" data-name="Rectángulo 459847" width="14.349" height="16.988" transform="translate(89.035 67.944)" fill="none"/>
    </clipPath>
    <clipPath id="clip-path-5">
      <rect id="Rectángulo_459848" data-name="Rectángulo 459848" width="4.954" height="8.483" transform="translate(80.935 77.461)" fill="none"/>
    </clipPath>
    <clipPath id="clip-path-6">
      <rect id="Rectángulo_459852" data-name="Rectángulo 459852" width="157.499" height="40.801" transform="translate(0 105.028)" fill="none"/>
    </clipPath>
    <clipPath id="clip-path-7">
      <rect id="Rectángulo_459850" data-name="Rectángulo 459850" width="17.547" height="14.015" transform="translate(6.119 136.858)" fill="none"/>
    </clipPath>
    <clipPath id="clip-path-8">
      <path id="Trazado_1095453" data-name="Trazado 1095453" d="M14.627,137.788h7.007l-1.124,8.6a4.767,4.767,0,0,1-4.727,4.15h-2.1a4.767,4.767,0,0,1-4.727-4.15l-1.123-8.6Z" fill="none"/>
    </clipPath>
    <clipPath id="clip-path-9">
      <rect id="Rectángulo_459851" data-name="Rectángulo 459851" width="17.546" height="14.015" transform="translate(133.111 136.858)" fill="none"/>
    </clipPath>
    <clipPath id="clip-path-10">
      <path id="Trazado_1095477" data-name="Trazado 1095477" d="M142.15,137.788h-7.007l1.123,8.6a4.767,4.767,0,0,0,4.727,4.15h2.1a4.767,4.767,0,0,0,4.727-4.15l1.124-8.6Z" fill="none"/>
    </clipPath>
  </defs>
  <g id="Grupo_1191270" data-name="Grupo 1191270" clip-path="url(#clip-path)">
    <rect id="Rectángulo_459844" data-name="Rectángulo 459844" width="157.499" height="35.58" transform="translate(0 110.249)" fill="#efc861"/>
    <rect id="Rectángulo_459845" data-name="Rectángulo 459845" width="157.499" height="3.311" transform="translate(0 106.938)" fill="#ead9cf"/>
    <g id="Grupo_1191255" data-name="Grupo 1191255">
      <g id="Grupo_1191254" data-name="Grupo 1191254" clip-path="url(#clip-path)">
        <g id="Grupo_1191247" data-name="Grupo 1191247" opacity="0.24" style="mix-blend-mode: multiply;isolation: isolate">
          <g id="Grupo_1191246" data-name="Grupo 1191246">
            <g id="Grupo_1191245" data-name="Grupo 1191245" clip-path="url(#clip-path-3)">
              <path id="Trazado_1095271" data-name="Trazado 1095271" d="M156.037,121.744c0,2.371-33.5,4.292-74.816,4.292s-74.815-1.921-74.815-4.292,33.5-4.292,74.815-4.292,74.816,1.921,74.816,4.292" fill="#d2662c"/>
            </g>
          </g>
        </g>
        <path id="Trazado_1095272" data-name="Trazado 1095272" d="M137.261,77.722H118.923a.6.6,0,0,0-.6.6v17.3a.6.6,0,0,0,.6.6h18.338Z" fill="#b7721d"/>
        <path id="Trazado_1095273" data-name="Trazado 1095273" d="M141.9,96.23H124.564a.832.832,0,0,1-.832-.832V78.554a.831.831,0,0,1,.832-.832H141.9a.6.6,0,0,1,.6.6v17.3a.6.6,0,0,1-.6.6" fill="#cb8627"/>
        <path id="Trazado_1095274" data-name="Trazado 1095274" d="M134.965,82.484h-3.693a.672.672,0,0,1-.672-.672v-4.09h5.037v4.09a.672.672,0,0,1-.672.672" fill="#eccbae"/>
        <path id="Trazado_1095275" data-name="Trazado 1095275" d="M135.638,96.23H130.6V92.1a.637.637,0,0,1,.637-.636H135a.637.637,0,0,1,.637.636Z" fill="#eccbae"/>
        <path id="Trazado_1095276" data-name="Trazado 1095276" d="M129.5,95.378h-4.871v-2.7a.248.248,0,0,1,.247-.247h4.377a.247.247,0,0,1,.247.247Z" fill="#f3ece4"/>
        <path id="Trazado_1095277" data-name="Trazado 1095277" d="M125.284,94.965h-.343a.087.087,0,0,1-.087-.087V92.935a.087.087,0,0,1,.087-.087h.343a.087.087,0,0,1,.087.087v1.943a.087.087,0,0,1-.087.087" fill="#b7721d"/>
        <path id="Trazado_1095278" data-name="Trazado 1095278" d="M125.779,94.965h-.007a.087.087,0,0,1-.087-.087V92.935a.087.087,0,0,1,.087-.087h.007a.087.087,0,0,1,.087.087v1.943a.087.087,0,0,1-.087.087" fill="#b7721d"/>
        <path id="Trazado_1095279" data-name="Trazado 1095279" d="M126.946,94.965h-.25a.087.087,0,0,1-.087-.087V92.935a.087.087,0,0,1,.087-.087h.25a.087.087,0,0,1,.087.087v1.943a.087.087,0,0,1-.087.087" fill="#b7721d"/>
        <path id="Trazado_1095280" data-name="Trazado 1095280" d="M126.246,94.965h-.084a.086.086,0,0,1-.087-.087V92.935a.086.086,0,0,1,.087-.087h.084a.087.087,0,0,1,.087.087v1.943a.087.087,0,0,1-.087.087" fill="#b7721d"/>
        <path id="Trazado_1095281" data-name="Trazado 1095281" d="M127.438,94.965h0a.087.087,0,0,1-.087-.087V92.935a.087.087,0,0,1,.087-.087h0a.087.087,0,0,1,.087.087v1.943a.087.087,0,0,1-.087.087" fill="#b7721d"/>
        <path id="Trazado_1095282" data-name="Trazado 1095282" d="M128.441,94.965h-.177a.086.086,0,0,1-.086-.087V92.935a.086.086,0,0,1,.086-.087h.177a.087.087,0,0,1,.086.087v1.943a.087.087,0,0,1-.086.087" fill="#b7721d"/>
        <path id="Trazado_1095283" data-name="Trazado 1095283" d="M128.735,94.965h0a.087.087,0,0,1-.087-.087V92.935a.087.087,0,0,1,.174,0v1.943a.087.087,0,0,1-.087.087" fill="#b7721d"/>
        <path id="Trazado_1095284" data-name="Trazado 1095284" d="M127.933,94.965h-.066a.087.087,0,0,1-.087-.087V92.935a.087.087,0,0,1,.087-.087h.066a.087.087,0,0,1,.087.087v1.943a.087.087,0,0,1-.087.087" fill="#b7721d"/>
        <path id="Trazado_1095285" data-name="Trazado 1095285" d="M129.179,94.965h-.085a.087.087,0,0,1-.087-.087V92.935a.087.087,0,0,1,.087-.087h.085a.087.087,0,0,1,.087.087v1.943a.087.087,0,0,1-.087.087" fill="#b7721d"/>
        <path id="Trazado_1095286" data-name="Trazado 1095286" d="M139.611,96.23H115.959a.778.778,0,0,0-.778.778v22.316a.778.778,0,0,0,.778.778h23.652Z" fill="#b7721d"/>
        <path id="Trazado_1095287" data-name="Trazado 1095287" d="M145.6,120.1H123.234a1.072,1.072,0,0,1-1.073-1.073V97.3a1.073,1.073,0,0,1,1.073-1.073H145.6a.778.778,0,0,1,.778.778v22.316a.778.778,0,0,1-.778.778" fill="#cb8627"/>
        <path id="Trazado_1095288" data-name="Trazado 1095288" d="M136.65,102.373h-4.763a.867.867,0,0,1-.867-.867V96.231h6.5v5.275a.867.867,0,0,1-.867.867" fill="#eccbae"/>
        <path id="Trazado_1095289" data-name="Trazado 1095289" d="M137.517,120.1h-6.5v-5.321a.82.82,0,0,1,.821-.821H136.7a.821.821,0,0,1,.821.821Z" fill="#eccbae"/>
        <path id="Trazado_1095290" data-name="Trazado 1095290" d="M145.136,119h-6.282v-3.478a.317.317,0,0,1,.318-.317h5.646a.317.317,0,0,1,.318.317Z" fill="#f3ece4"/>
        <path id="Trazado_1095291" data-name="Trazado 1095291" d="M139.7,118.471h-.442a.113.113,0,0,1-.113-.112v-2.507a.113.113,0,0,1,.113-.112h.442a.112.112,0,0,1,.112.112v2.507a.112.112,0,0,1-.112.112" fill="#b7721d"/>
        <path id="Trazado_1095292" data-name="Trazado 1095292" d="M140.334,118.471h-.01a.112.112,0,0,1-.112-.112v-2.507a.112.112,0,0,1,.112-.112h.01a.112.112,0,0,1,.112.112v2.507a.112.112,0,0,1-.112.112" fill="#b7721d"/>
        <path id="Trazado_1095293" data-name="Trazado 1095293" d="M141.839,118.471h-.322a.113.113,0,0,1-.113-.112v-2.507a.113.113,0,0,1,.113-.112h.322a.112.112,0,0,1,.112.112v2.507a.112.112,0,0,1-.112.112" fill="#b7721d"/>
        <path id="Trazado_1095294" data-name="Trazado 1095294" d="M140.936,118.471h-.109a.112.112,0,0,1-.112-.112v-2.507a.112.112,0,0,1,.112-.112h.109a.112.112,0,0,1,.112.112v2.507a.112.112,0,0,1-.112.112" fill="#b7721d"/>
        <path id="Trazado_1095295" data-name="Trazado 1095295" d="M142.473,118.471h0a.112.112,0,0,1-.112-.112v-2.507a.112.112,0,0,1,.112-.112h0a.112.112,0,0,1,.112.112v2.507a.112.112,0,0,1-.112.112" fill="#b7721d"/>
        <path id="Trazado_1095296" data-name="Trazado 1095296" d="M143.767,118.471h-.227a.113.113,0,0,1-.113-.112v-2.507a.113.113,0,0,1,.113-.112h.227a.112.112,0,0,1,.112.112v2.507a.112.112,0,0,1-.112.112" fill="#b7721d"/>
        <path id="Trazado_1095297" data-name="Trazado 1095297" d="M144.146,118.471h0a.112.112,0,0,1-.112-.112v-2.507a.112.112,0,0,1,.224,0v2.507a.112.112,0,0,1-.112.112" fill="#b7721d"/>
        <path id="Trazado_1095298" data-name="Trazado 1095298" d="M143.113,118.471h-.086a.112.112,0,0,1-.112-.112v-2.507a.112.112,0,0,1,.112-.112h.086a.112.112,0,0,1,.112.112v2.507a.112.112,0,0,1-.112.112" fill="#b7721d"/>
        <path id="Trazado_1095299" data-name="Trazado 1095299" d="M144.72,118.471h-.109a.112.112,0,0,1-.112-.112v-2.507a.112.112,0,0,1,.112-.112h.109a.112.112,0,0,1,.112.112v2.507a.112.112,0,0,1-.112.112" fill="#b7721d"/>
        <path id="Trazado_1095300" data-name="Trazado 1095300" d="M111.861,115.35c-5.1,5.629-15.926,5.984-22.834,5.984-14.8,0-30.172.794-37.617-3.482-10.812-6.208-10.3-12.457-11.985-27.48-1.264-11.306,1.7-18.765,5.367-23.563q.576-.751,1.17-1.417c.224-.251.452-.5.687-.735a20.915,20.915,0,0,1,18.307-6.014c5.285.87,10.086,3.693,13.982,9.335C85.169,77,80.823,87.92,97.538,94.083c16.659,6.141,22.508,12.232,14.323,21.267" fill="#6a68ae"/>
        <path id="Trazado_1095301" data-name="Trazado 1095301" d="M63.584,71.353a6.965,6.965,0,0,0-12.161,4.421,51.714,51.714,0,0,0,2.3,15.939c4.8,16.325,11.156,15.038,15.262,15.038,7.174,0,19.9-.27,22.741-5.593s-4.14-5.648-14.379-10.185c-5.831-2.584-8.065-13.247-13.762-19.62" fill="#5959a3"/>
        <path id="Trazado_1095302" data-name="Trazado 1095302" d="M42.3,71.494a108.779,108.779,0,0,0,.321,16.535c1.257,11.5,4.775,20.336,12.907,24.853s44.573,5.349,58.03-1.106" fill="none" stroke="#5959a3" stroke-linecap="round" stroke-linejoin="round" stroke-width="0.597"/>
        <path id="Trazado_1095303" data-name="Trazado 1095303" d="M63.972,112.415s2.978-6.719,8.9-8.918" fill="none" stroke="#5959a3" stroke-linecap="round" stroke-linejoin="round" stroke-width="0.597"/>
        <path id="Trazado_1095304" data-name="Trazado 1095304" d="M62.205,109.161a8.622,8.622,0,0,1,6.217-2.846" fill="none" stroke="#5959a3" stroke-linecap="round" stroke-linejoin="round" stroke-width="0.597"/>
        <path id="Trazado_1095305" data-name="Trazado 1095305" d="M66.9,33.668s-2.975-2.114-4.9,1.724-2.055,7.618-4.886,9.078-5.7,7.1-.127,11.129c0,0,14.6,2.09,16.844,1.369S77.7,53,76.757,48.614s2.65-10.115-2.269-14.072-7.588-.874-7.588-.874" fill="#782622"/>
        <path id="Trazado_1095306" data-name="Trazado 1095306" d="M85.649,69.477S79.891,59.814,76.041,56c-1.437-1.424-4.406-2.764-5.9-1.4s-1.314,2.92-.568,4.347c2.888,5.519,10.118,17.07,14.311,18.323Z" fill="#de5a41"/>
        <path id="Trazado_1095307" data-name="Trazado 1095307" d="M87.474,84.856s10.079-.129,15.059.486c3.975.491,26.214,23.106,26.214,23.106l-4.193,4.331s-21.308-15.8-22.525-17.675l-10.869.178s-8.392,1.71-8.818-4.058c-.307-4.169,5.132-6.368,5.132-6.368" fill="#e29780"/>
        <path id="Trazado_1095308" data-name="Trazado 1095308" d="M123,112.525l3.391,4.446,11.593-8.841s-1.924-2.961-3.517-2.636a22.085,22.085,0,0,0-3.8,1.344s-1.381-2.186-3.007-.946.389,2.593.389,2.593a4.672,4.672,0,0,1-4.468,2.763.8.8,0,0,0-.579,1.277" fill="#ac3b65"/>
        <path id="Trazado_1095309" data-name="Trazado 1095309" d="M130.855,106.77s-.55.608.058,1.7" fill="none" stroke="#141b25" stroke-linecap="round" stroke-linejoin="round" stroke-width="0.14"/>
        <path id="Trazado_1095310" data-name="Trazado 1095310" d="M131.233,108.38a.309.309,0,1,1-.433-.058.31.31,0,0,1,.433.058" fill="#141b25"/>
        <path id="Trazado_1095311" data-name="Trazado 1095311" d="M132.57,106.062s-.55.608.058,1.7" fill="none" stroke="#141b25" stroke-linecap="round" stroke-linejoin="round" stroke-width="0.14"/>
        <path id="Trazado_1095312" data-name="Trazado 1095312" d="M132.948,107.672a.309.309,0,1,1-.434-.058.309.309,0,0,1,.434.058" fill="#141b25"/>
        <path id="Trazado_1095313" data-name="Trazado 1095313" d="M137.988,108.128l-11.6,8.843-.788-1.034,11.6-8.843a10.849,10.849,0,0,1,.788,1.034" fill="#141b25"/>
        <path id="Trazado_1095314" data-name="Trazado 1095314" d="M80.052,81.884A10.791,10.791,0,0,1,82.879,84a79.956,79.956,0,0,0,8.629.649s-1.721,1.433-.756,5.66a11.772,11.772,0,0,0,2.9,5.432S82.5,96.913,77.575,97.831s-8.244-12.82-8.244-12.82Z" fill="#9e9323"/>
        <path id="Trazado_1095315" data-name="Trazado 1095315" d="M89.977,82.724s-2.9,1.444,1.183,11.242" fill="none" stroke="#141b25" stroke-linecap="round" stroke-linejoin="round" stroke-width="0.167"/>
        <path id="Trazado_1095316" data-name="Trazado 1095316" d="M83.4,88.371s11.377,1.367,16.415,1.884c3.984.409,21.872,25.209,21.872,25.209l-4.984,3.251s-17.026-16.089-17.809-18.181l-12.157-.046s-7.071-.65-7.071-5.511A7.974,7.974,0,0,1,83.4,88.371" fill="#e29780"/>
        <path id="Trazado_1095317" data-name="Trazado 1095317" d="M86.646,88.757c3.754.444,9.843,1.156,13.169,1.5,2.23.229,8.816,8.1,14.183,14.985" fill="none" stroke="#141b25" stroke-linecap="round" stroke-linejoin="round" stroke-width="0.167"/>
        <path id="Trazado_1095318" data-name="Trazado 1095318" d="M115.2,118.2l2.347,5.075,13.234-6.119s-1.238-3.308-2.864-3.335a22.156,22.156,0,0,0-4,.487s-.875-2.432-2.731-1.574-.181,2.615-.181,2.615a4.674,4.674,0,0,1-4.961,1.73.8.8,0,0,0-.842,1.121" fill="#ac3b65"/>
        <path id="Trazado_1095319" data-name="Trazado 1095319" d="M124.109,114.282s-.669.474-.312,1.672" fill="none" stroke="#141b25" stroke-linecap="round" stroke-linejoin="round" stroke-width="0.14"/>
        <path id="Trazado_1095320" data-name="Trazado 1095320" d="M124.13,115.936a.31.31,0,1,1-.411-.151.311.311,0,0,1,.411.151" fill="#141b25"/>
        <path id="Trazado_1095321" data-name="Trazado 1095321" d="M125.936,113.963s-.669.474-.312,1.672" fill="none" stroke="#141b25" stroke-linecap="round" stroke-linejoin="round" stroke-width="0.14"/>
        <path id="Trazado_1095322" data-name="Trazado 1095322" d="M125.957,115.617a.309.309,0,1,1-.411-.151.31.31,0,0,1,.411.151" fill="#141b25"/>
        <path id="Trazado_1095323" data-name="Trazado 1095323" d="M130.778,117.153l-13.236,6.121-.546-1.18,13.236-6.121a10.651,10.651,0,0,1,.546,1.18" fill="#141b25"/>
        <path id="Trazado_1095324" data-name="Trazado 1095324" d="M61.78,85.261s-2.692,6.67.412,12.641c3.394,6.527,21.1,3.486,25.282,2.692,0,0-2.149-4.487-2.209-6.963a8.126,8.126,0,0,1,1.476-5c-1.34-.486-8.569-.728-8.726-.972a31.33,31.33,0,0,0-3.123-4.52Z" fill="#9e9323"/>
        <path id="Trazado_1095325" data-name="Trazado 1095325" d="M74.892,83.137a31.116,31.116,0,0,1,3.123,4.52c.157.243,7.386.486,8.726.972a1.644,1.644,0,0,1,.271.464" fill="none" stroke="#141b25" stroke-linecap="round" stroke-linejoin="round" stroke-width="0.167"/>
        <path id="Trazado_1095326" data-name="Trazado 1095326" d="M70.769,88.371a15.562,15.562,0,0,1,7.246-.714,8.231,8.231,0,0,1,2.5-2.212" fill="none" stroke="#141b25" stroke-linecap="round" stroke-linejoin="round" stroke-width="0.167"/>
        <path id="Trazado_1095327" data-name="Trazado 1095327" d="M64.992,84.967a10.471,10.471,0,0,0,.359,9.387c2.2,3.943,11.152,3.421,20.384,2.382" fill="none" stroke="#141b25" stroke-linecap="round" stroke-linejoin="round" stroke-width="0.167"/>
        <path id="Trazado_1095328" data-name="Trazado 1095328" d="M67.73,84.484s-.053,4.358-3.646,5.771" fill="none" stroke="#141b25" stroke-linecap="round" stroke-linejoin="round" stroke-width="0.167"/>
        <path id="Trazado_1095329" data-name="Trazado 1095329" d="M85.23,88.352S82,91.088,85.064,99.632" fill="none" stroke="#141b25" stroke-linecap="round" stroke-linejoin="round" stroke-width="0.167"/>
        <path id="Trazado_1095330" data-name="Trazado 1095330" d="M80.251,79.981a101.833,101.833,0,0,1-19.785,3.656l.288,2.214s12.37-1.011,20.2-3.706Z" fill="#fff"/>
        <path id="Trazado_1095331" data-name="Trazado 1095331" d="M54.563,76.215a.018.018,0,0,0,0,.012" fill="none" stroke="#131b25" stroke-linecap="round" stroke-linejoin="round" stroke-width="0.164"/>
        <path id="Trazado_1095332" data-name="Trazado 1095332" d="M70.732,53.627c0-.4-.033-.67-.033-.67v-2.6l-8.552-5.285-.5,7.446s3.124,4.21,7.718,4.21c1.705,0,1.337-1.832,1.367-3.1" fill="#e19890"/>
        <path id="Trazado_1095333" data-name="Trazado 1095333" d="M70.7,50.358v1.925c-4.427.306-5.828-2.6-5.9-2.784a7.307,7.307,0,0,0,3.932,1.015,9.7,9.7,0,0,0,1.936-.179Z" fill="#141b25"/>
        <path id="Trazado_1095334" data-name="Trazado 1095334" d="M70.761,34.207c4.048.648,6.288,3.233,5.173,6.749-1.448,4.568-.712,5.673-1.873,7.519-1.273,2.024-3.542,2.693-6.595,2.01-3.993-.894-6.5-3.947-4.98-9.988,1.408-5.609,5-6.815,8.275-6.29" fill="#e19890"/>
        <path id="Trazado_1095335" data-name="Trazado 1095335" d="M62.513,40.321a7.362,7.362,0,0,0-.281,1.954,2.381,2.381,0,0,0,3.438-2.057c2.767.39,7.025-3.261,7.025-3.261,2.053.965,2.692,4.1,2.848,5.323.108-.41.468-.9.62-1.382,1.115-3.514-1.392-6.35-5.441-7-3.281-.529-6.8.8-8.209,6.423" fill="#782622"/>
        <path id="Trazado_1095336" data-name="Trazado 1095336" d="M64.347,41.48a1.652,1.652,0,1,1-1.134-2.316,1.847,1.847,0,0,1,1.134,2.316" fill="#e19890"/>
        <path id="Trazado_1095337" data-name="Trazado 1095337" d="M62.425,40.173a1.378,1.378,0,0,0,.6,1.89" fill="none" stroke="#231a13" stroke-linecap="round" stroke-linejoin="round" stroke-width="0.211"/>
        <path id="Trazado_1095338" data-name="Trazado 1095338" d="M63.222,40.592a1.229,1.229,0,0,0-.833.876" fill="none" stroke="#231a13" stroke-linecap="round" stroke-linejoin="round" stroke-width="0.211"/>
        <path id="Trazado_1095339" data-name="Trazado 1095339" d="M72.262,42.041l-.53.843.187,1.389a.265.265,0,0,1-.315.3L70.47,44.34" fill="none" stroke="#421c19" stroke-linecap="round" stroke-linejoin="round" stroke-width="0.173"/>
        <path id="Trazado_1095340" data-name="Trazado 1095340" d="M67.688,40.528s1.295-.735,2.115,0" fill="none" stroke="#231a13" stroke-linecap="round" stroke-linejoin="round" stroke-width="0.432"/>
        <path id="Trazado_1095341" data-name="Trazado 1095341" d="M73.2,41.194s.724-.24,1.47.916" fill="none" stroke="#231a13" stroke-linecap="round" stroke-linejoin="round" stroke-width="0.432"/>
        <path id="Trazado_1095342" data-name="Trazado 1095342" d="M70.774,45.787a4.139,4.139,0,0,1-1.067,1.746,2.211,2.211,0,0,1-2.028-2.684.386.386,0,0,1,.1-.2.4.4,0,0,1,.582-.005,3.748,3.748,0,0,0,1.355.916,1.58,1.58,0,0,0,.168.061.95.95,0,0,0,.176.051c.06.017.12.034.181.046a1.036,1.036,0,0,0,.189.035,2.326,2.326,0,0,0,.34.039" fill="#421c19"/>
        <path id="Trazado_1095343" data-name="Trazado 1095343" d="M70.483,45.759a.981.981,0,0,1-.659.455,2.618,2.618,0,0,1-2.041-1.569.4.4,0,0,1,.581-.006,3.748,3.748,0,0,0,1.355.916,2.469,2.469,0,0,0,.344.112.991.991,0,0,0,.182.046,1.1,1.1,0,0,0,.188.036.178.178,0,0,0,.05.01" fill="#fff"/>
        <path id="Trazado_1095344" data-name="Trazado 1095344" d="M69.526,47.505a2.418,2.418,0,0,1-1.709-1.184,1.506,1.506,0,0,1,1.043.048,1.375,1.375,0,0,1,.666,1.136" fill="#782823"/>
        <path id="Trazado_1095345" data-name="Trazado 1095345" d="M69.324,42.3a.656.656,0,1,1-.514-.772.656.656,0,0,1,.514.772" fill="#231a13"/>
        <path id="Trazado_1095346" data-name="Trazado 1095346" d="M68.573,41.779a.523.523,0,0,1-.685-.218" fill="none" stroke="#231a13" stroke-linecap="round" stroke-linejoin="round" stroke-width="0.432"/>
        <path id="Trazado_1095347" data-name="Trazado 1095347" d="M72.886,42.817a.656.656,0,1,0,.887-.273.655.655,0,0,0-.887.273" fill="#231a13"/>
        <path id="Trazado_1095348" data-name="Trazado 1095348" d="M73.8,42.89a.523.523,0,0,0,.669.264" fill="none" stroke="#231a13" stroke-linecap="round" stroke-linejoin="round" stroke-width="0.432"/>
        <path id="Trazado_1095349" data-name="Trazado 1095349" d="M60.682,44.557a1.035,1.035,0,1,0,1.231-.791,1.036,1.036,0,0,0-1.231.791" fill="#eebe6b"/>
        <path id="Trazado_1095350" data-name="Trazado 1095350" d="M61.733,44.577a.346.346,0,1,0,.043-.526.377.377,0,0,0-.043.526" fill="#fafafa"/>
        <path id="Trazado_1095351" data-name="Trazado 1095351" d="M60.682,44.557a1.034,1.034,0,0,0,1.969.608,1.034,1.034,0,0,1-1.722-.971,1.059,1.059,0,0,1,.053-.168,1.031,1.031,0,0,0-.3.531" fill="#d0852d"/>
        <path id="Trazado_1095352" data-name="Trazado 1095352" d="M64.566,41l2.144.267c-.017.065-.034.129-.047.2A2.318,2.318,0,0,0,68.4,44.284a2.438,2.438,0,0,0,2.688-2.057c.012-.063.02-.126.028-.189a1.73,1.73,0,0,1,.753-.018.694.694,0,0,1,.447.26,2.454,2.454,0,0,0-.161.511,2.153,2.153,0,0,0,1.649,2.6,2.264,2.264,0,0,0,2.519-1.883,2.151,2.151,0,0,0-1.649-2.6,2.191,2.191,0,0,0-2.251,1.153.978.978,0,0,0-.5-.261,1.91,1.91,0,0,0-.789.005,2.27,2.27,0,0,0-1.788-2.4,2.391,2.391,0,0,0-2.572,1.644l-2.18-.272Zm7.807,1.828a2.037,2.037,0,0,1,2.263-1.7,1.937,1.937,0,0,1,1.479,2.344,2.037,2.037,0,0,1-2.263,1.7,1.936,1.936,0,0,1-1.479-2.344m-5.5-1.328a2.211,2.211,0,0,1,2.432-1.873A2.1,2.1,0,0,1,70.88,42.19a2.213,2.213,0,0,1-2.433,1.874A2.105,2.105,0,0,1,66.876,41.5" fill="#fff"/>
        <path id="Trazado_1095353" data-name="Trazado 1095353" d="M68.751,55.658c-2.144-.042-5.494-1.268-6.389-2.832a15.03,15.03,0,0,1-.623-1.679s-2.159-.193-2.8,1.159a3.134,3.134,0,0,0,0,2.59s-3.508-.5-3.508,6.348,4.412,10.587,4.283,14.983-3.538,4.6.794,7.762c0,0,14.936-.969,20.439-4.008,0,0,1.158-1.882.5-2.919s-3.369-4.235-4.007-6.613a4.047,4.047,0,0,0,1.893-3.974c-.13-1.843-.6-3.227-2.684-6.368S72.611,55.8,72.1,54.115c-.554-1.809-.753-2.252-1.431-2.292l.037,1.8s.008,2.07-1.951,2.031" fill="#de5a41"/>
        <path id="Trazado_1095354" data-name="Trazado 1095354" d="M64.047,72.367a5.354,5.354,0,0,0,6.453-.783" fill="none" stroke="#131b25" stroke-linecap="round" stroke-linejoin="round" stroke-width="0.164"/>
        <path id="Trazado_1095355" data-name="Trazado 1095355" d="M58.629,71.831c-.756-1.2-1.2-4.687-1.2-4.687.293-.793.609-1.669.951-2.65.575-1.641,3.927-.9,4.148-2.258-.264,2.079-.226,8.792-3.895,9.6" fill="#131b25"/>
        <path id="Trazado_1095356" data-name="Trazado 1095356" d="M58.943,54.9s4.881,2.948,9.239,2.031" fill="none" stroke="#131b25" stroke-linecap="round" stroke-linejoin="round" stroke-width="0.164"/>
        <path id="Trazado_1095357" data-name="Trazado 1095357" d="M72.1,54.115s.709,2.612-2.494,2.612" fill="none" stroke="#131b25" stroke-linecap="round" stroke-linejoin="round" stroke-width="0.164"/>
        <path id="Trazado_1095358" data-name="Trazado 1095358" d="M78.854,73.37a11.481,11.481,0,0,1-1.41-2.92,4.049,4.049,0,0,0,1.892-3.974c-.129-1.844-.6-3.228-2.683-6.368-1.673-2.527-3.269-3.777-4.1-5.046" fill="none" stroke="#131b25" stroke-linecap="round" stroke-linejoin="round" stroke-width="0.164"/>
        <path id="Trazado_1095359" data-name="Trazado 1095359" d="M80.747,86.123,103.1,84.549a.79.79,0,0,0,.728-.69l2-16.125a.789.789,0,0,0-.839-.884L82.637,68.424a.79.79,0,0,0-.728.69l-2,16.125a.788.788,0,0,0,.838.884" fill="#5959a3"/>
        <path id="Trazado_1095360" data-name="Trazado 1095360" d="M74.618,88.3l6.633-.467L81.128,86.1l-6.632.467a.87.87,0,0,0,.122,1.735" fill="#5959a3"/>
        <path id="Trazado_1095361" data-name="Trazado 1095361" d="M81.487,86.07l22-1.549a.965.965,0,0,0,.889-.839l1.973-15.436a.965.965,0,0,0-1.024-1.084l-22,1.549a.967.967,0,0,0-.889.84L80.463,84.986a.964.964,0,0,0,1.024,1.084" fill="#6a68ae"/>
        <path id="Trazado_1095362" data-name="Trazado 1095362" d="M81.362,87.823,103.98,86.23a.874.874,0,1,0-.122-1.743L81.239,86.08a.874.874,0,1,0,.123,1.743" fill="#4d4d96"/>
        <g id="Grupo_1191250" data-name="Grupo 1191250" opacity="0.1">
          <g id="Grupo_1191249" data-name="Grupo 1191249">
            <g id="Grupo_1191248" data-name="Grupo 1191248" clip-path="url(#clip-path-4)">
              <path id="Trazado_1095363" data-name="Trazado 1095363" d="M94.231,67.944l9.152,16.577-5.837.411L89.034,68.31Z" fill="#fff"/>
            </g>
          </g>
        </g>
        <g id="Grupo_1191253" data-name="Grupo 1191253" opacity="0.1">
          <g id="Grupo_1191252" data-name="Grupo 1191252">
            <g id="Grupo_1191251" data-name="Grupo 1191251" clip-path="url(#clip-path-5)">
              <path id="Trazado_1095364" data-name="Trazado 1095364" d="M81.415,77.461l4.474,8.292-2.719.191-2.235-4.727Z" fill="#fff"/>
            </g>
          </g>
        </g>
        <path id="Trazado_1095365" data-name="Trazado 1095365" d="M47.234,65.5a6.144,6.144,0,0,1-5.189,1.889c-.4-1.34-.782-2.616-1.1-3.689-.129-.437-.246-.841-.351-1.2l-.35-1.215c-.036-.127-.066-.234-.092-.321-.043-.155-.071-.249-.076-.267v0h-4.4c-1.386,0-2.377-.148-3.018-.842s-1.782-1.99-1.782-2.437a.444.444,0,0,1,.16-.333A.586.586,0,0,1,31.15,57l.061-.03.023-.013a.138.138,0,0,1,.033-.01l.01-.005a.118.118,0,0,1,.023-.008h0c.012-.005.027-.007.043-.013a.045.045,0,0,0,.018-.005,1.085,1.085,0,0,1,.157-.02.248.248,0,0,1,.048,0,.98.98,0,0,1,.331.056,1.175,1.175,0,0,1,.333.181c.076.058.147.119.214.178h0c.1.091.178.18.252.264a2.229,2.229,0,0,1,.361.58s.648.511.991.844c.026.025.051.048.074.074a.812.812,0,0,1,.107.119l0,0,.017-.01a.019.019,0,0,1,.011,0c.015-.01.035-.02.058-.033h0a.05.05,0,0,0,.017-.01l.033-.015v0h0L34.4,59.1l.046-.023a.281.281,0,0,1,.046-.023c.033-.018.068-.036.109-.054h0l.078-.038.011-.007a.044.044,0,0,0,.015-.005l.018-.008a.534.534,0,0,1,.068-.033.353.353,0,0,1,.056-.025.357.357,0,0,1,.056-.026c.023-.01.048-.023.074-.033a.429.429,0,0,1,.043-.02c.081-.036.168-.074.257-.11.028-.012.058-.025.086-.035s.084-.036.13-.051l.074-.031c.284-.111.6-.223.943-.327l.071-.023c.186-.054.374-.107.569-.153a8.889,8.889,0,0,1,1.421-.234c-.4-.147-1.131-.447-1.293-.78-.227-.468,1.07-.7,1.815-.336a6.092,6.092,0,0,0,2.547.46,2.457,2.457,0,0,1,2.672,1.576c.134.448.709,1.8,1.454,3.47.45,1.01.958,2.138,1.469,3.262" fill="#e29780"/>
        <path id="Trazado_1095366" data-name="Trazado 1095366" d="M37.464,58.005a13.061,13.061,0,0,0-3.232,1.183,11.164,11.164,0,0,0-1.169-1.037,2.575,2.575,0,0,0-.827-1.023.974.974,0,0,0-1.162-.078,3.437,3.437,0,0,1-.656-1.044.564.564,0,0,1,.3-.61.363.363,0,0,1,.417-.3.952.952,0,0,1,.613.282.5.5,0,0,1,.741.11,36.707,36.707,0,0,0,2.541,2.762,13.087,13.087,0,0,1,2.438-.249" fill="#e29780"/>
        <path id="Trazado_1095367" data-name="Trazado 1095367" d="M31.743,55.383c.39.356.769,1.022,1.658,1.863.514.486,1.09,1.111,1.09,1.111s.211-.045.535-.1" fill="none" stroke="#1b212a" stroke-linecap="round" stroke-linejoin="round" stroke-width="0.196"/>
        <path id="Trazado_1095368" data-name="Trazado 1095368" d="M30.714,55.4c.274-.077.574.2.837.514s2.532,2.63,2.532,2.63" fill="none" stroke="#1b212a" stroke-linecap="round" stroke-linejoin="round" stroke-width="0.196"/>
        <path id="Trazado_1095369" data-name="Trazado 1095369" d="M42.589,58.515a7.669,7.669,0,0,0-3.639-.691c-.125,0-.249.01-.374.021h0" fill="none" stroke="#1b212a" stroke-linecap="round" stroke-linejoin="round" stroke-width="0.196"/>
        <path id="Trazado_1095370" data-name="Trazado 1095370" d="M40.076,60.692a9.745,9.745,0,0,0,2.12-.206s-.83,1.754-1.6,2.008Z" fill="#1b212a"/>
        <path id="Trazado_1095371" data-name="Trazado 1095371" d="M31.045,57.077a.953.953,0,0,1,1.191.052,2.579,2.579,0,0,1,.827,1.023,11.057,11.057,0,0,1,1.168,1.037,12.213,12.213,0,0,1,4.34-1.344" fill="none" stroke="#1b212a" stroke-linecap="round" stroke-linejoin="round" stroke-width="0.196"/>
        <path id="Trazado_1095372" data-name="Trazado 1095372" d="M57.8,73.85c-.691,1.581-3.465,6.787-6.1,7.484-2.143.567-3.9-.275-5.341-2.43-1.233-1.452-5.218-8.506-5.219-10.1a2.365,2.365,0,0,1,.613-1.451c.1.015.2.025.3.035A6.141,6.141,0,0,0,47.234,65.5a2.969,2.969,0,0,0,.213-.255,3.959,3.959,0,0,1,1.607,1.4,23.818,23.818,0,0,1,1.925,4.939s3.606-15.614,6.831-16.507c.911-.252,4.967,2.473,5.51,5.078C61.906,63.973,58.632,71.8,57.8,73.85" fill="#de5a41"/>
        <path id="Trazado_1095373" data-name="Trazado 1095373" d="M50.979,71.585a20.9,20.9,0,0,1,.717,3.621" fill="none" stroke="#1b212a" stroke-linecap="round" stroke-linejoin="round" stroke-width="0.196"/>
        <path id="Trazado_1095374" data-name="Trazado 1095374" d="M47.448,65.242a3.082,3.082,0,0,1-.213.254,6.141,6.141,0,0,1-5.189,1.889c-.1-.01-.2-.02-.3-.036a22.99,22.99,0,0,1-.923-2.521,1.444,1.444,0,0,1,.122-1.132,3.456,3.456,0,0,0,1.985.061,4.872,4.872,0,0,0,2.832-1.522,1.9,1.9,0,0,1,.839,1.039c.323.8.844,1.968.844,1.968" fill="#1b212a"/>
        <path id="Trazado_1095375" data-name="Trazado 1095375" d="M32.549,64.573l8.062-.944L39.49,85.865l-7.955.2Z" fill="#efc861"/>
        <path id="Trazado_1095376" data-name="Trazado 1095376" d="M41.583,83.487l-2.092,2.378L40.612,63.63l.245.321Z" fill="#e3b43c"/>
        <path id="Trazado_1095377" data-name="Trazado 1095377" d="M42.761,63.734l-1.905.216.726,19.537L44.69,85.8Z" fill="#e1a237"/>
        <path id="Trazado_1095378" data-name="Trazado 1095378" d="M39.49,85.865l5.2-.063-3.108-2.315Z" fill="#cf8c2c"/>
        <path id="Trazado_1095379" data-name="Trazado 1095379" d="M34.792,65.048a.342.342,0,1,1-.334-.4.369.369,0,0,1,.334.4" fill="#9e1d79"/>
        <path id="Trazado_1095380" data-name="Trazado 1095380" d="M38.868,64.61a.342.342,0,1,1-.334-.4.369.369,0,0,1,.334.4" fill="#9e1d79"/>
        <path id="Trazado_1095381" data-name="Trazado 1095381" d="M38.514,64.486s-2.708-5.065-.736-6.892c-4.738,1-3.287,7.27-3.287,7.27" fill="none" stroke="#e1a237" stroke-linecap="round" stroke-linejoin="round" stroke-width="0.315"/>
        <path id="Trazado_1095382" data-name="Trazado 1095382" d="M28.719,62.227l8.115.211L32.564,84.289l-7.9-.93Z" fill="#d2662c"/>
        <path id="Trazado_1095383" data-name="Trazado 1095383" d="M34.974,82.232l-2.409,2.057,4.269-21.851.2.353Z" fill="#c05224"/>
        <path id="Trazado_1095384" data-name="Trazado 1095384" d="M38.946,62.847l-1.916-.056L34.973,82.232l2.747,2.733Z" fill="#b24818"/>
        <path id="Trazado_1095385" data-name="Trazado 1095385" d="M32.564,84.289l5.156.676-2.747-2.733Z" fill="#a63d13"/>
        <path id="Trazado_1095386" data-name="Trazado 1095386" d="M30.739,63.364a.509.509,0,1,1-.407-.659.551.551,0,0,1,.407.659" fill="#b24818"/>
        <path id="Trazado_1095387" data-name="Trazado 1095387" d="M35.131,63.587a.509.509,0,1,1-.407-.659.55.55,0,0,1,.407.659" fill="#b24818"/>
        <path id="Trazado_1095388" data-name="Trazado 1095388" d="M34.634,63.51s-.309-4.271,1.9-5.8c-4.832.316-6.295,5.577-6.295,5.577" fill="none" stroke="#c05224" stroke-linecap="round" stroke-linejoin="round" stroke-width="0.315"/>
        <path id="Trazado_1095389" data-name="Trazado 1095389" d="M69.67,106.72H53.446a.534.534,0,0,0-.534.534v15.307a.534.534,0,0,0,.534.534H69.67Z" fill="#b7721d"/>
        <path id="Trazado_1095390" data-name="Trazado 1095390" d="M73.777,123.1H58.436a.737.737,0,0,1-.736-.736v-14.9a.737.737,0,0,1,.736-.736H73.777a.534.534,0,0,1,.534.534v15.307a.534.534,0,0,1-.534.534" fill="#cb8627"/>
        <path id="Trazado_1095391" data-name="Trazado 1095391" d="M67.639,110.933H64.372a.594.594,0,0,1-.6-.6V106.72h4.457v3.618a.6.6,0,0,1-.6.6" fill="#eccbae"/>
        <path id="Trazado_1095392" data-name="Trazado 1095392" d="M68.234,123.1H63.777v-3.65a.563.563,0,0,1,.563-.563h3.331a.563.563,0,0,1,.563.563Z" fill="#eccbae"/>
        <path id="Trazado_1095393" data-name="Trazado 1095393" d="M73.626,122.341H69.317v-2.385a.217.217,0,0,1,.218-.218h3.873a.218.218,0,0,1,.218.218Z" fill="#f3ece4"/>
        <path id="Trazado_1095394" data-name="Trazado 1095394" d="M69.895,121.975h-.3a.077.077,0,0,1-.077-.077v-1.719a.077.077,0,0,1,.077-.077h.3a.076.076,0,0,1,.076.077V121.9a.076.076,0,0,1-.076.077" fill="#b7721d"/>
        <path id="Trazado_1095395" data-name="Trazado 1095395" d="M70.333,121.975h-.007a.077.077,0,0,1-.077-.077v-1.719a.077.077,0,0,1,.077-.077h.007a.077.077,0,0,1,.077.077V121.9a.077.077,0,0,1-.077.077" fill="#b7721d"/>
        <path id="Trazado_1095396" data-name="Trazado 1095396" d="M71.365,121.975h-.221a.076.076,0,0,1-.077-.077v-1.719a.076.076,0,0,1,.077-.077h.221a.076.076,0,0,1,.077.077V121.9a.076.076,0,0,1-.077.077" fill="#b7721d"/>
        <path id="Trazado_1095397" data-name="Trazado 1095397" d="M70.746,121.975h-.075a.077.077,0,0,1-.077-.077v-1.719a.077.077,0,0,1,.077-.077h.075a.076.076,0,0,1,.077.077V121.9a.076.076,0,0,1-.077.077" fill="#b7721d"/>
        <path id="Trazado_1095398" data-name="Trazado 1095398" d="M71.8,121.975h0a.076.076,0,0,1-.077-.077v-1.719a.076.076,0,0,1,.077-.077h0a.076.076,0,0,1,.077.077V121.9a.076.076,0,0,1-.077.077" fill="#b7721d"/>
        <path id="Trazado_1095399" data-name="Trazado 1095399" d="M72.687,121.975h-.156a.076.076,0,0,1-.077-.077v-1.719a.076.076,0,0,1,.077-.077h.156a.077.077,0,0,1,.077.077V121.9a.077.077,0,0,1-.077.077" fill="#b7721d"/>
        <path id="Trazado_1095400" data-name="Trazado 1095400" d="M72.947,121.975h0a.077.077,0,0,1-.077-.077v-1.719a.077.077,0,1,1,.154,0V121.9a.076.076,0,0,1-.077.077" fill="#b7721d"/>
        <path id="Trazado_1095401" data-name="Trazado 1095401" d="M72.238,121.975h-.059a.076.076,0,0,1-.076-.077v-1.719a.076.076,0,0,1,.076-.077h.059a.077.077,0,0,1,.077.077V121.9a.077.077,0,0,1-.077.077" fill="#b7721d"/>
        <path id="Trazado_1095402" data-name="Trazado 1095402" d="M73.341,121.975h-.075a.077.077,0,0,1-.077-.077v-1.719a.077.077,0,0,1,.077-.077h.075a.077.077,0,0,1,.077.077V121.9a.077.077,0,0,1-.077.077" fill="#b7721d"/>
        <path id="Trazado_1095403" data-name="Trazado 1095403" d="M64.258,90.527H48.034a.534.534,0,0,0-.534.534v15.307a.534.534,0,0,0,.534.534H64.258Z" fill="#b7721d"/>
        <path id="Trazado_1095404" data-name="Trazado 1095404" d="M68.365,106.9H53.024a.737.737,0,0,1-.736-.736v-14.9a.737.737,0,0,1,.736-.736H68.365a.534.534,0,0,1,.534.534v15.307a.534.534,0,0,1-.534.534" fill="#cb8627"/>
        <path id="Trazado_1095405" data-name="Trazado 1095405" d="M62.227,94.741H58.96a.594.594,0,0,1-.595-.595V90.528h4.457v3.618a.6.6,0,0,1-.595.595" fill="#eccbae"/>
        <path id="Trazado_1095406" data-name="Trazado 1095406" d="M62.822,106.9H58.365v-3.65a.563.563,0,0,1,.563-.563h3.331a.563.563,0,0,1,.563.563Z" fill="#eccbae"/>
        <path id="Trazado_1095407" data-name="Trazado 1095407" d="M68.048,106.148H63.739v-2.385a.218.218,0,0,1,.218-.219H67.83a.219.219,0,0,1,.218.219Z" fill="#f3ece4"/>
        <path id="Trazado_1095408" data-name="Trazado 1095408" d="M64.316,105.783h-.3a.076.076,0,0,1-.077-.077v-1.719a.076.076,0,0,1,.077-.077h.3a.077.077,0,0,1,.077.077v1.719a.077.077,0,0,1-.077.077" fill="#b7721d"/>
        <path id="Trazado_1095409" data-name="Trazado 1095409" d="M64.754,105.783h-.007a.077.077,0,0,1-.077-.077v-1.719a.077.077,0,0,1,.077-.077h.007a.076.076,0,0,1,.077.077v1.719a.076.076,0,0,1-.077.077" fill="#b7721d"/>
        <path id="Trazado_1095410" data-name="Trazado 1095410" d="M65.786,105.783h-.221a.076.076,0,0,1-.077-.077v-1.719a.076.076,0,0,1,.077-.077h.221a.077.077,0,0,1,.077.077v1.719a.077.077,0,0,1-.077.077" fill="#b7721d"/>
        <path id="Trazado_1095411" data-name="Trazado 1095411" d="M65.167,105.783h-.075a.077.077,0,0,1-.077-.077v-1.719a.077.077,0,0,1,.077-.077h.075a.077.077,0,0,1,.077.077v1.719a.077.077,0,0,1-.077.077" fill="#b7721d"/>
        <path id="Trazado_1095412" data-name="Trazado 1095412" d="M66.222,105.783h0a.076.076,0,0,1-.077-.077v-1.719a.076.076,0,0,1,.077-.077h0a.077.077,0,0,1,.077.077v1.719a.077.077,0,0,1-.077.077" fill="#b7721d"/>
        <path id="Trazado_1095413" data-name="Trazado 1095413" d="M67.109,105.783h-.156a.076.076,0,0,1-.077-.077v-1.719a.076.076,0,0,1,.077-.077h.156a.076.076,0,0,1,.077.077v1.719a.076.076,0,0,1-.077.077" fill="#b7721d"/>
        <path id="Trazado_1095414" data-name="Trazado 1095414" d="M67.369,105.783h0a.076.076,0,0,1-.077-.077v-1.719a.077.077,0,0,1,.154,0v1.719a.077.077,0,0,1-.077.077" fill="#b7721d"/>
        <path id="Trazado_1095415" data-name="Trazado 1095415" d="M66.66,105.783H66.6a.076.076,0,0,1-.076-.077v-1.719a.076.076,0,0,1,.076-.077h.059a.076.076,0,0,1,.077.077v1.719a.076.076,0,0,1-.077.077" fill="#b7721d"/>
        <path id="Trazado_1095416" data-name="Trazado 1095416" d="M67.763,105.783h-.075a.077.077,0,0,1-.077-.077v-1.719a.077.077,0,0,1,.077-.077h.075a.077.077,0,0,1,.077.077v1.719a.077.077,0,0,1-.077.077" fill="#b7721d"/>
        <path id="Trazado_1095417" data-name="Trazado 1095417" d="M58.178,106.9H53.024a.737.737,0,0,1-.736-.736V95.887h5.356a.534.534,0,0,1,.534.534Z" fill="#b7721d"/>
        <path id="Trazado_1095418" data-name="Trazado 1095418" d="M48.964,97.618H23.721a.831.831,0,0,0-.83.83v23.817a.831.831,0,0,0,.83.83H48.964Z" fill="#b7721d"/>
        <path id="Trazado_1095419" data-name="Trazado 1095419" d="M55.354,123.1H31.486a1.145,1.145,0,0,1-1.145-1.145V98.764a1.146,1.146,0,0,1,1.145-1.146H55.354a.831.831,0,0,1,.83.83v23.817a.831.831,0,0,1-.83.83" fill="#cb8627"/>
        <path id="Trazado_1095420" data-name="Trazado 1095420" d="M45.8,104.173H40.72a.925.925,0,0,1-.925-.925v-5.63h6.934v5.63a.925.925,0,0,1-.925.925" fill="#eccbae"/>
        <path id="Trazado_1095421" data-name="Trazado 1095421" d="M46.729,123.1H39.795v-5.679a.876.876,0,0,1,.876-.876h5.182a.876.876,0,0,1,.876.876Z" fill="#eccbae"/>
        <path id="Trazado_1095422" data-name="Trazado 1095422" d="M38.284,121.921h-6.7V118.21a.339.339,0,0,1,.339-.34h6.026a.34.34,0,0,1,.339.34Z" fill="#f3ece4"/>
        <path id="Trazado_1095423" data-name="Trazado 1095423" d="M32.478,121.353h-.472a.12.12,0,0,1-.12-.12v-2.675a.12.12,0,0,1,.12-.12h.472a.12.12,0,0,1,.12.12v2.675a.12.12,0,0,1-.12.12" fill="#b7721d"/>
        <path id="Trazado_1095424" data-name="Trazado 1095424" d="M33.159,121.353h-.01a.12.12,0,0,1-.12-.12v-2.675a.12.12,0,0,1,.12-.12h.01a.12.12,0,0,1,.12.12v2.675a.12.12,0,0,1-.12.12" fill="#b7721d"/>
        <path id="Trazado_1095425" data-name="Trazado 1095425" d="M34.765,121.353h-.344a.12.12,0,0,1-.12-.12v-2.675a.12.12,0,0,1,.12-.12h.344a.12.12,0,0,1,.12.12v2.675a.12.12,0,0,1-.12.12" fill="#b7721d"/>
        <path id="Trazado_1095426" data-name="Trazado 1095426" d="M33.8,121.353h-.116a.12.12,0,0,1-.12-.12v-2.675a.12.12,0,0,1,.12-.12H33.8a.12.12,0,0,1,.12.12v2.675a.12.12,0,0,1-.12.12" fill="#b7721d"/>
        <path id="Trazado_1095427" data-name="Trazado 1095427" d="M35.442,121.353h0a.119.119,0,0,1-.119-.12v-2.675a.119.119,0,0,1,.119-.12h0a.12.12,0,0,1,.12.12v2.675a.12.12,0,0,1-.12.12" fill="#b7721d"/>
        <path id="Trazado_1095428" data-name="Trazado 1095428" d="M36.823,121.353H36.58a.119.119,0,0,1-.119-.12v-2.675a.119.119,0,0,1,.119-.12h.243a.12.12,0,0,1,.12.12v2.675a.12.12,0,0,1-.12.12" fill="#b7721d"/>
        <path id="Trazado_1095429" data-name="Trazado 1095429" d="M37.227,121.353h0a.12.12,0,0,1-.12-.12v-2.675a.12.12,0,0,1,.24,0v2.675a.12.12,0,0,1-.12.12" fill="#b7721d"/>
        <path id="Trazado_1095430" data-name="Trazado 1095430" d="M36.124,121.353h-.091a.12.12,0,0,1-.12-.12v-2.675a.12.12,0,0,1,.12-.12h.091a.12.12,0,0,1,.12.12v2.675a.12.12,0,0,1-.12.12" fill="#b7721d"/>
        <path id="Trazado_1095431" data-name="Trazado 1095431" d="M37.84,121.353h-.116a.12.12,0,0,1-.12-.12v-2.675a.12.12,0,0,1,.12-.12h.116a.12.12,0,0,1,.12.12v2.675a.12.12,0,0,1-.12.12" fill="#b7721d"/>
      </g>
    </g>
    <g id="Grupo_1191267" data-name="Grupo 1191267">
      <g id="Grupo_1191266" data-name="Grupo 1191266" clip-path="url(#clip-path-6)">
        <path id="Trazado_1095432" data-name="Trazado 1095432" d="M9.691,108.322c-5.721,1.907-.348,22.087,6.609,22.087s-.348-24.174-6.609-22.087" fill="#776d19"/>
        <path id="Trazado_1095433" data-name="Trazado 1095433" d="M10.56,110.409s5.739,9.265,5.739,20v5.478" fill="none" stroke="#452f2b" stroke-linecap="round" stroke-linejoin="round" stroke-width="0.198"/>
        <path id="Trazado_1095434" data-name="Trazado 1095434" d="M5.527,116.673c-4.021,1.34-.244,15.522,4.644,15.522s-.244-16.989-4.644-15.522" fill="#867d1d"/>
        <path id="Trazado_1095435" data-name="Trazado 1095435" d="M6.138,118.139s4.033,7.177,4.033,14.055v3.85" fill="none" stroke="#452f2b" stroke-linecap="round" stroke-linejoin="round" stroke-width="0.198"/>
        <path id="Trazado_1095436" data-name="Trazado 1095436" d="M22.894,122.14c2.907.969.177,11.224-3.358,11.224s.176-12.285,3.358-11.224" fill="#9e9323"/>
        <path id="Trazado_1095437" data-name="Trazado 1095437" d="M22.452,123.2s-2.916,5.833-2.916,10.163v2.784" fill="none" stroke="#452f2b" stroke-linecap="round" stroke-linejoin="round" stroke-width="0.198"/>
        <path id="Trazado_1095438" data-name="Trazado 1095438" d="M14.627,137.788h7.007l-1.123,8.6a4.767,4.767,0,0,1-4.727,4.15h-2.1a4.767,4.767,0,0,1-4.727-4.15l-1.124-8.6Z" fill="#a16939"/>
        <g id="Grupo_1191260" data-name="Grupo 1191260" opacity="0.2">
          <g id="Grupo_1191259" data-name="Grupo 1191259">
            <g id="Grupo_1191258" data-name="Grupo 1191258" clip-path="url(#clip-path-7)">
              <g id="Grupo_1191257" data-name="Grupo 1191257">
                <g id="Grupo_1191256" data-name="Grupo 1191256" clip-path="url(#clip-path-8)">
                  <path id="Trazado_1095439" data-name="Trazado 1095439" d="M6.119,149.646c1.137-.072,2.958-.114,3.771-1.159a1.412,1.412,0,0,0-.16-1.782A4.652,4.652,0,0,0,7.112,145.4a9.377,9.377,0,0,0-.993-.144v-.331c1.464.109,3.618.57,4.2,2.187.8,2.232-2.083,2.747-4.2,2.856Z" fill="#70413a"/>
                  <path id="Trazado_1095440" data-name="Trazado 1095440" d="M8.85,143.519a4.618,4.618,0,0,1,3.045.964,2.806,2.806,0,0,1,1.039,2.394c-.005.037-.011.072-.018.108,1.2-.075,2.424.005,3.628.011,1.151.005,2.3.1,3.449.183,1.226.084,2.449.142,3.672.188v.342c-1.3-.055-2.61-.167-3.9-.256-1.149-.079-2.3-.135-3.449-.253s-2.283-.053-3.428-.071a2.544,2.544,0,0,1-1.2,1.545c4,.009,7.992-.2,11.98-.5v.4c-4.256.315-8.52.545-12.787.482-.206,0-.232-.311-.047-.382.947-.367,2.053-1.213,1.733-2.5a3.009,3.009,0,0,0-1.933-2.052,10.143,10.143,0,0,0-4.512-.151v-.3a18.11,18.11,0,0,1,2.731-.159" fill="#70413a"/>
                  <path id="Trazado_1095441" data-name="Trazado 1095441" d="M11.748,147.078c.011.083.142.063.132-.02a3.108,3.108,0,0,0-1.759-2.554,3.872,3.872,0,0,0-3.131-.212.069.069,0,0,0,.031.124c.422,0,.841-.108,1.267-.11a4.364,4.364,0,0,1,1.505.274,2.986,2.986,0,0,1,1.955,2.5" fill="#70413a"/>
                  <path id="Trazado_1095442" data-name="Trazado 1095442" d="M16.1,145.88a7.025,7.025,0,0,1,2.024-.422c.923-.1,1.849-.157,2.776-.2s1.842-.064,2.764-.094v.22c-.922.035-1.844.066-2.764.115a16.837,16.837,0,0,0-4.727.67c-.172.061-.233-.221-.073-.291" fill="#70413a"/>
                  <path id="Trazado_1095443" data-name="Trazado 1095443" d="M11.9,142.564a15.952,15.952,0,0,1,3.355.039c1.263.064,2.525.145,3.788.2,1.223.056,2.448.092,3.672.052q.474-.015.948-.047v.269c-.316.025-.632.045-.948.057-1.224.046-2.449.025-3.672-.015-1.264-.042-2.525-.108-3.788-.17a28.216,28.216,0,0,1-3.355-.169c-.1-.017-.1-.2,0-.218" fill="#70413a"/>
                  <path id="Trazado_1095444" data-name="Trazado 1095444" d="M12.632,144.579c3.674-.3,7.361-.132,11.034-.359v.225c-3.663.3-7.376.1-11.034.19-.033,0-.033-.053,0-.056" fill="#70413a"/>
                  <path id="Trazado_1095445" data-name="Trazado 1095445" d="M23.666,140.132v.232c-4.954.039-9.905.21-14.861.333q-1.343.034-2.686.075v-.36c5.849-.2,11.7-.386,17.547-.28" fill="#70413a"/>
                  <path id="Trazado_1095446" data-name="Trazado 1095446" d="M8.128,141.742q1.368-.017,2.737-.028c1.9-.015,3.8-.035,5.7-.021,2.369.018,4.737.051,7.1.127V142c-2.368-.03-4.736-.059-7.1-.062-1.9,0-3.8-.014-5.7,0q-1.37.012-2.737.029c-.66.008-1.34.059-2.009.04v-.251c.668-.04,1.349-.011,2.009-.019" fill="#70413a"/>
                  <path id="Trazado_1095447" data-name="Trazado 1095447" d="M6.119,142.941c.459.017.917.04,1.364.042l3.161.014c.073,0,.073.125,0,.125-1.128.006-2.256.009-3.385.016-.374,0-.756.02-1.14.035Z" fill="#70413a"/>
                  <path id="Trazado_1095448" data-name="Trazado 1095448" d="M6.119,141.331a15.8,15.8,0,0,1,2.187.018.034.034,0,0,1,0,.068c-.724.072-1.455.1-2.187.125Z" fill="#70413a"/>
                  <path id="Trazado_1095449" data-name="Trazado 1095449" d="M9.176,138.665c3.78-.228,7.547-.641,11.319-.989,1.053-.1,2.111-.2,3.171-.286v.409q-2.489.167-4.978.4c-3.773.361-7.546.752-11.332.9q-.62.024-1.237.036v-.362c1.018-.016,2.037-.05,3.057-.111" fill="#70413a"/>
                  <path id="Trazado_1095450" data-name="Trazado 1095450" d="M6.119,137.833c.651.007,1.3.016,1.954.033.063,0,.063.107,0,.108-.651.017-1.3.026-1.954.033Z" fill="#70413a"/>
                  <path id="Trazado_1095451" data-name="Trazado 1095451" d="M11.229,137.849a24.514,24.514,0,0,0,7.839-.932c.035-.009.019-.064-.015-.059a51.541,51.541,0,0,1-7.824.874c-.069,0-.067.11,0,.117" fill="#70413a"/>
                  <path id="Trazado_1095452" data-name="Trazado 1095452" d="M21.208,139.349c-.791.046-1.617-.071-2.4.049-.069.011-.057.121,0,.14a6.62,6.62,0,0,0,2.4.081c.437-.025.873-.069,1.308-.122a2.393,2.393,0,0,0,1.012-.236c.038-.024.035-.1-.012-.107a3.11,3.11,0,0,0-1,.083c-.435.054-.872.086-1.308.112" fill="#70413a"/>
                </g>
              </g>
            </g>
          </g>
        </g>
        <path id="Trazado_1095454" data-name="Trazado 1095454" d="M7.056,137.788H22.413a.8.8,0,1,0,0-1.6H7.056a.8.8,0,0,0,0,1.6" fill="#a16939"/>
        <path id="Trazado_1095455" data-name="Trazado 1095455" d="M21.634,137.788l-.149,1.137-13.554-.409-.1-.728Z" fill="#633c38"/>
        <path id="Trazado_1095456" data-name="Trazado 1095456" d="M147.086,108.322c5.721,1.907.348,22.087-6.609,22.087s.348-24.174,6.609-22.087" fill="#776d19"/>
        <path id="Trazado_1095457" data-name="Trazado 1095457" d="M146.216,110.409s-5.739,9.265-5.739,20v5.478" fill="none" stroke="#452f2b" stroke-linecap="round" stroke-linejoin="round" stroke-width="0.198"/>
        <path id="Trazado_1095458" data-name="Trazado 1095458" d="M151.249,116.673c4.021,1.34.244,15.522-4.644,15.522s.244-16.989,4.644-15.522" fill="#867d1d"/>
        <path id="Trazado_1095459" data-name="Trazado 1095459" d="M150.638,118.139s-4.033,7.177-4.033,14.055v3.85" fill="none" stroke="#452f2b" stroke-linecap="round" stroke-linejoin="round" stroke-width="0.198"/>
        <path id="Trazado_1095460" data-name="Trazado 1095460" d="M133.883,122.14c-2.907.969-.177,11.224,3.358,11.224s-.176-12.285-3.358-11.224" fill="#9e9323"/>
        <path id="Trazado_1095461" data-name="Trazado 1095461" d="M134.324,123.2s2.916,5.833,2.916,10.163v2.784" fill="none" stroke="#452f2b" stroke-linecap="round" stroke-linejoin="round" stroke-width="0.198"/>
        <path id="Trazado_1095462" data-name="Trazado 1095462" d="M142.15,137.788h-7.007l1.123,8.6a4.767,4.767,0,0,0,4.727,4.15h2.1a4.767,4.767,0,0,0,4.727-4.15l1.124-8.6Z" fill="#a16939"/>
        <g id="Grupo_1191265" data-name="Grupo 1191265" opacity="0.2">
          <g id="Grupo_1191264" data-name="Grupo 1191264">
            <g id="Grupo_1191263" data-name="Grupo 1191263" clip-path="url(#clip-path-9)">
              <g id="Grupo_1191262" data-name="Grupo 1191262">
                <g id="Grupo_1191261" data-name="Grupo 1191261" clip-path="url(#clip-path-10)">
                  <path id="Trazado_1095463" data-name="Trazado 1095463" d="M150.657,149.646c-1.137-.072-2.958-.114-3.771-1.159a1.412,1.412,0,0,1,.16-1.782,4.652,4.652,0,0,1,2.618-1.308,9.377,9.377,0,0,1,.993-.144v-.331c-1.463.109-3.618.57-4.2,2.187-.8,2.232,2.083,2.747,4.2,2.856Z" fill="#70413a"/>
                  <path id="Trazado_1095464" data-name="Trazado 1095464" d="M147.926,143.519a4.618,4.618,0,0,0-3.045.964,2.806,2.806,0,0,0-1.039,2.394c.005.037.011.072.018.108-1.2-.075-2.424.005-3.628.011-1.151.005-2.3.1-3.449.183-1.226.084-2.449.142-3.673.188v.342c1.3-.055,2.611-.167,3.9-.256,1.149-.079,2.3-.135,3.449-.253s2.283-.053,3.428-.071a2.544,2.544,0,0,0,1.2,1.545c-4,.009-7.992-.2-11.981-.5v.4c4.257.315,8.521.545,12.788.482.206,0,.232-.311.047-.382-.947-.367-2.053-1.213-1.733-2.5a3.009,3.009,0,0,1,1.933-2.052,10.143,10.143,0,0,1,4.512-.151v-.3a18.11,18.11,0,0,0-2.731-.159" fill="#70413a"/>
                  <path id="Trazado_1095465" data-name="Trazado 1095465" d="M145.028,147.078c-.011.083-.142.063-.132-.02a3.108,3.108,0,0,1,1.759-2.554,3.872,3.872,0,0,1,3.131-.212.069.069,0,0,1-.031.124c-.422,0-.841-.108-1.267-.11a4.364,4.364,0,0,0-1.505.274,2.986,2.986,0,0,0-1.955,2.5" fill="#70413a"/>
                  <path id="Trazado_1095466" data-name="Trazado 1095466" d="M140.675,145.88a7.025,7.025,0,0,0-2.024-.422c-.923-.1-1.849-.157-2.776-.2s-1.842-.064-2.764-.094v.22c.922.035,1.844.066,2.764.115a16.837,16.837,0,0,1,4.727.67c.172.061.233-.221.073-.291" fill="#70413a"/>
                  <path id="Trazado_1095467" data-name="Trazado 1095467" d="M144.874,142.564a15.96,15.96,0,0,0-3.356.039c-1.263.064-2.525.145-3.788.2-1.223.056-2.447.092-3.671.052q-.476-.015-.948-.047v.269c.315.025.631.045.948.057,1.224.046,2.448.025,3.671-.015,1.264-.042,2.525-.108,3.788-.17a28.243,28.243,0,0,0,3.356-.169c.1-.017.1-.2,0-.218" fill="#70413a"/>
                  <path id="Trazado_1095468" data-name="Trazado 1095468" d="M144.145,144.579c-3.674-.3-7.361-.132-11.034-.359v.225c3.663.3,7.376.1,11.034.19.033,0,.033-.053,0-.056" fill="#70413a"/>
                  <path id="Trazado_1095469" data-name="Trazado 1095469" d="M133.111,140.132v.232c4.954.039,9.905.21,14.861.333q1.343.034,2.686.075v-.36c-5.849-.2-11.7-.386-17.547-.28" fill="#70413a"/>
                  <path id="Trazado_1095470" data-name="Trazado 1095470" d="M148.649,141.742q-1.368-.017-2.737-.028c-1.9-.015-3.8-.035-5.7-.021-2.369.018-4.737.051-7.1.127V142c2.368-.03,4.736-.059,7.1-.062,1.9,0,3.8-.014,5.7,0q1.368.012,2.737.029c.66.008,1.34.059,2.009.04v-.251c-.668-.04-1.349-.011-2.009-.019" fill="#70413a"/>
                  <path id="Trazado_1095471" data-name="Trazado 1095471" d="M150.657,142.941c-.459.017-.917.04-1.364.042l-3.161.014c-.073,0-.073.125,0,.125,1.128.006,2.256.009,3.385.016.374,0,.756.02,1.14.035Z" fill="#70413a"/>
                  <path id="Trazado_1095472" data-name="Trazado 1095472" d="M150.657,141.331a15.8,15.8,0,0,0-2.187.018.034.034,0,0,0,0,.068c.724.072,1.456.1,2.187.125Z" fill="#70413a"/>
                  <path id="Trazado_1095473" data-name="Trazado 1095473" d="M147.6,138.665c-3.78-.228-7.547-.641-11.319-.989-1.053-.1-2.111-.2-3.171-.286v.409q2.488.167,4.978.4c3.773.361,7.546.752,11.332.9q.619.024,1.237.036v-.362c-1.018-.016-2.037-.05-3.057-.111" fill="#70413a"/>
                  <path id="Trazado_1095474" data-name="Trazado 1095474" d="M150.657,137.833c-.651.007-1.3.016-1.954.033-.063,0-.063.107,0,.108.651.017,1.3.026,1.954.033Z" fill="#70413a"/>
                  <path id="Trazado_1095475" data-name="Trazado 1095475" d="M145.548,137.849a24.514,24.514,0,0,1-7.839-.932c-.035-.009-.019-.064.015-.059a51.541,51.541,0,0,0,7.824.874c.069,0,.067.11,0,.117" fill="#70413a"/>
                  <path id="Trazado_1095476" data-name="Trazado 1095476" d="M135.568,139.349c.791.046,1.617-.071,2.4.049.069.011.057.121,0,.14a6.62,6.62,0,0,1-2.4.081c-.437-.025-.873-.069-1.308-.122a2.393,2.393,0,0,1-1.012-.236c-.038-.024-.035-.1.012-.107a3.11,3.11,0,0,1,1,.083c.435.054.872.086,1.308.112" fill="#70413a"/>
                </g>
              </g>
            </g>
          </g>
        </g>
        <path id="Trazado_1095478" data-name="Trazado 1095478" d="M149.72,137.788H134.363a.8.8,0,0,1,0-1.6H149.72a.8.8,0,0,1,0,1.6" fill="#a16939"/>
        <path id="Trazado_1095479" data-name="Trazado 1095479" d="M135.143,137.788l.149,1.137,13.554-.409.1-.728Z" fill="#633c38"/>
      </g>
    </g>
    <g id="Grupo_1191269" data-name="Grupo 1191269">
      <g id="Grupo_1191268" data-name="Grupo 1191268" clip-path="url(#clip-path)">
        <path id="Trazado_1095480" data-name="Trazado 1095480" d="M68.573,13.311l-.68,1.244-1.244.68,1.244.681.68,1.244.68-1.244,1.244-.681-1.244-.68Z" fill="#efc861"/>
        <path id="Trazado_1095481" data-name="Trazado 1095481" d="M139.166,15.236l-.68,1.244-1.244.68,1.244.681.68,1.244.68-1.244,1.244-.681-1.244-.68Z" fill="#efc861"/>
        <path id="Trazado_1095482" data-name="Trazado 1095482" d="M23.082,41.751l-.553,1.012-1.012.553,1.012.553.553,1.012.553-1.012,1.012-.553-1.012-.553Z" fill="#efc861"/>
        <path id="Trazado_1095483" data-name="Trazado 1095483" d="M19.285,1.565l-.374.685-.685.374L18.91,3l.374.684L19.658,3l.685-.375-.685-.374Z" fill="#efc861"/>
        <path id="Trazado_1095484" data-name="Trazado 1095484" d="M97.936,46.677l-.374.685-.685.374.685.375.374.684.374-.684.685-.375-.685-.374Z" fill="#efc861"/>
        <path id="Trazado_1095485" data-name="Trazado 1095485" d="M103.914,0l-.374.685-.685.374.685.375.374.684.374-.684.685-.375-.685-.374Z" fill="#efc861"/>
        <path id="Trazado_1095486" data-name="Trazado 1095486" d="M106.616,41.935l-.553,1.012-1.012.553,1.012.553.553,1.012.553-1.012,1.012-.553-1.012-.553Z" fill="#efc861"/>
        <path id="Trazado_1095487" data-name="Trazado 1095487" d="M145.768,54.634l-.553,1.012L144.2,56.2l1.012.553.553,1.012.553-1.012,1.012-.553-1.012-.553Z" fill="#efc861"/>
        <path id="Trazado_1095488" data-name="Trazado 1095488" d="M13.024,50l-.68,1.244-1.244.68,1.244.681.68,1.244L13.7,52.6l1.244-.681L13.7,51.24Z" fill="#efc861"/>
        <path id="Trazado_1095489" data-name="Trazado 1095489" d="M118.456,52.2a6.983,6.983,0,0,0-6.083,10.418L111.2,65.385l3.052-.62A6.985,6.985,0,1,0,118.456,52.2" fill="#d2662c"/>
        <path id="Trazado_1095490" data-name="Trazado 1095490" d="M118.444,62.246a4.048,4.048,0,0,1-1.215-.182,2.646,2.646,0,0,1-.921-.468l.348-.782a2.841,2.841,0,0,0,.805.426,2.929,2.929,0,0,0,.983.17,2.114,2.114,0,0,0,.689-.093.827.827,0,0,0,.387-.252.568.568,0,0,0,.123-.359.5.5,0,0,0-.178-.4,1.313,1.313,0,0,0-.46-.24c-.188-.059-.4-.115-.627-.166s-.459-.113-.689-.182a2.916,2.916,0,0,1-.627-.271A1.359,1.359,0,0,1,116.6,59a1.3,1.3,0,0,1-.178-.712,1.462,1.462,0,0,1,.236-.809,1.622,1.622,0,0,1,.72-.588,2.961,2.961,0,0,1,1.226-.221,3.888,3.888,0,0,1,.968.124,2.812,2.812,0,0,1,.836.356l-.318.782a2.962,2.962,0,0,0-.75-.321,2.838,2.838,0,0,0-.743-.1,1.908,1.908,0,0,0-.678.1.834.834,0,0,0-.379.263.608.608,0,0,0-.12.371.5.5,0,0,0,.174.4,1.239,1.239,0,0,0,.457.236c.188.057.4.112.631.166s.463.115.692.182a2.908,2.908,0,0,1,.627.263,1.29,1.29,0,0,1,.457.442,1.3,1.3,0,0,1,.174.7,1.456,1.456,0,0,1-.236.8,1.623,1.623,0,0,1-.724.588,2.991,2.991,0,0,1-1.23.221m-.24-6.424h.635V63.1H118.2Z" fill="#fff"/>
        <path id="Trazado_1095491" data-name="Trazado 1095491" d="M42.952,36.571a10.371,10.371,0,1,0-3.182,2.786l4.1,1.743Z" fill="#d2662c"/>
        <path id="Trazado_1095492" data-name="Trazado 1095492" d="M36.781,32.641h-5.84a.34.34,0,0,1-.328-.25l-1.305-4.74a.34.34,0,0,1,.328-.431h8.352l.391-1.271a.34.34,0,0,1,.325-.24h1.855a.341.341,0,1,1,0,.681h-1.6l-.389,1.264,0,.013L37.106,32.4a.34.34,0,0,1-.325.24M31.2,31.96h5.328L37.778,27.9H30.083Z" fill="#fff"/>
        <path id="Trazado_1095493" data-name="Trazado 1095493" d="M33.926,32.641a.341.341,0,0,1-.341-.341V27.56a.341.341,0,0,1,.682,0V32.3a.341.341,0,0,1-.341.341" fill="#fff"/>
        <path id="Trazado_1095494" data-name="Trazado 1095494" d="M37.51,30.271H30.289a.341.341,0,1,1,0-.681H37.51a.341.341,0,1,1,0,.681" fill="#fff"/>
        <path id="Trazado_1095495" data-name="Trazado 1095495" d="M32.833,34.366a.785.785,0,1,1-.785-.785.785.785,0,0,1,.785.785" fill="#fff"/>
        <path id="Trazado_1095496" data-name="Trazado 1095496" d="M36.558,34.366a.785.785,0,1,1-.785-.785.785.785,0,0,1,.785.785" fill="#fff"/>
        <path id="Trazado_1095497" data-name="Trazado 1095497" d="M115.656,21.612l-1.929,3.607,2.1,3.509-3.683,1.783-.358,4.077-4.029-.725-2.686,3.088L102.24,34l-3.988.917-.559-4.052-3.763-1.6,1.929-3.607-2.1-3.51,3.683-1.783.358-4.076,4.029.725,2.686-3.088,2.833,2.953,3.988-.917.559,4.052Z" fill="#5959a3"/>
        <path id="Trazado_1095498" data-name="Trazado 1095498" d="M99.483,23.391a2.324,2.324,0,1,1,4.642,0,2.324,2.324,0,1,1-4.642,0m7.449-2.308h2.109l-5.964,8.734h-2.109Zm-4.579,2.308c0-.836-.274-1.085-.549-1.085s-.549.249-.549,1.085.275,1.086.549,1.086.549-.25.549-1.086m3.531,4.118a2.324,2.324,0,1,1,4.642,0,2.324,2.324,0,1,1-4.642,0m2.87,0c0-.836-.275-1.086-.549-1.086s-.549.25-.549,1.086.275,1.086.549,1.086.549-.25.549-1.086" fill="#faf1ea"/>
      </g>
    </g>
  </g>
</svg>
