<svg xmlns="http://www.w3.org/2000/svg" width="79" height="76.811" viewBox="0 0 79 76.811">
  <g id="medios-de-comunicacion-social" transform="translate(0 -7.094)">
    <g id="Grupo_1191559" data-name="Grupo 1191559" transform="translate(0 7.093)">
      <path id="Trazado_1096035" data-name="Trazado 1096035" d="M362.325,357.219a1.557,1.557,0,1,0,1.554,1.559v-.009A1.551,1.551,0,0,0,362.325,357.219Z" transform="translate(-305.105 -303.196)" fill="#5aa6ff"/>
      <path id="Trazado_1096036" data-name="Trazado 1096036" d="M407.31,357.219a1.557,1.557,0,1,0,1.554,1.559v-.009A1.551,1.551,0,0,0,407.31,357.219Z" transform="translate(-343.149 -303.196)" fill="#5aa6ff"/>
      <path id="Trazado_1096037" data-name="Trazado 1096037" d="M452.323,357.219a1.557,1.557,0,1,0,1.554,1.559v-.009A1.551,1.551,0,0,0,452.323,357.219Z" transform="translate(-381.217 -303.196)" fill="#5aa6ff"/>
      <path id="Trazado_1096038" data-name="Trazado 1096038" d="M250.381,79.217a2.828,2.828,0,0,0,2.824,2.825h4.321a2.821,2.821,0,0,0,2.294-1.183,11.037,11.037,0,0,0,3.943.763H269.2a7.2,7.2,0,0,0,7.189-7.185V70.487a5.177,5.177,0,0,0-5.173-5.169h-1.44V62a3.883,3.883,0,0,0-3.878-3.879c-2.506,0-3.432,2.417-3.782,3.329l-1.343,3.523a2.159,2.159,0,0,1-.6.984,2.827,2.827,0,0,0-2.646-1.847h-4.321a2.83,2.83,0,0,0-2.824,2.829Zm9.97-10.043a4.342,4.342,0,0,0,3.306-3.1L265,62.554c.515-1.345.784-1.345.9-1.345a.794.794,0,0,1,.793.793v4.859a1.543,1.543,0,0,0,1.543,1.543h2.983a2.087,2.087,0,0,1,2.087,2.083v3.949a4.106,4.106,0,0,1-4.1,4.1h-5.436a7.323,7.323,0,0,1-3.412-.839ZM253.467,67.2h3.8V78.956h-3.8Z" transform="translate(-211.748 -50.249)" fill="#5aa6ff"/>
      <path id="Trazado_1096039" data-name="Trazado 1096039" d="M75.449,53.828H55.687a27.921,27.921,0,0,0-.545-3.742q.349-.053.7-.117A21.617,21.617,0,1,0,42.894,9.049a1.543,1.543,0,1,0,1.281,2.807,18.534,18.534,0,1,1,1.108,34.179,1.542,1.542,0,0,0-1.247.065,14.7,14.7,0,0,1-8.972,1.389,14.392,14.392,0,0,0,1.423-8.1,1.544,1.544,0,0,0-.237-.7A18.543,18.543,0,0,1,35.2,20.636a1.543,1.543,0,1,0-2.775-1.349A21.422,21.422,0,0,0,30.26,28.23c-.79-.067-1.583-.1-2.373-.1a27.888,27.888,0,1,0,19.722,47.6,28.034,28.034,0,0,0,3.69-4.555,3.52,3.52,0,0,0,1.5.336H75.449A3.555,3.555,0,0,0,79,67.963V57.379a3.555,3.555,0,0,0-3.551-3.551ZM35.962,50.695a8.877,8.877,0,1,1-8.075-5.187,8.809,8.809,0,0,1,4.193,1.051c-.2.4-.43.807-.685,1.241a1.543,1.543,0,0,0,.942,2.277,21.152,21.152,0,0,0,3.626.618ZM10.349,73.551A24.8,24.8,0,0,1,30.423,31.344c.055.443.119.886.2,1.329a21.455,21.455,0,0,0,2.814,7.333,12.046,12.046,0,0,1-.247,3.654A11.956,11.956,0,0,0,18.78,62.125,17.564,17.564,0,0,0,10.705,73.9c-.119-.115-.239-.23-.356-.348Zm17.537,7.268a24.609,24.609,0,0,1-14.355-4.572A14.444,14.444,0,0,1,21.2,64.294a11.938,11.938,0,0,0,13.379,0,14.445,14.445,0,0,1,7.668,11.953,24.614,24.614,0,0,1-14.358,4.572Zm17.54-7.267c-.117.117-.236.232-.355.347a17.563,17.563,0,0,0-8.076-11.775,11.94,11.94,0,0,0,2.262-11.455,17.35,17.35,0,0,0,5.562-1.519A21.584,21.584,0,0,0,52.03,50.33a24.808,24.808,0,0,1,.563,3.5,3.553,3.553,0,0,0-3.337,3.544v1.087l-4.4,2.919a1.543,1.543,0,0,0,0,2.572l4.4,2.919v1.087a3.568,3.568,0,0,0,.046.569,24.873,24.873,0,0,1-3.877,5.019Zm30.488-5.588a.471.471,0,0,1-.465.465H52.8a.469.469,0,0,1-.46-.465V66.048a1.543,1.543,0,0,0-.691-1.286L48.5,62.671l3.154-2.09a1.543,1.543,0,0,0,.691-1.286V57.379a.469.469,0,0,1,.46-.465H75.449a.471.471,0,0,1,.465.465Z" transform="translate(0 -7.093)" fill="#5aa6ff"/>
      <path id="Trazado_1096040" data-name="Trazado 1096040" d="M236.937,47.123a1.543,1.543,0,1,0-1.088-2.635l0,0a1.542,1.542,0,0,0,1.092,2.631Z" transform="translate(-199.074 -38.336)" fill="#5aa6ff"/>
    </g>
  </g>
</svg>
